<svg width="682" height="614" xmlns="http://www.w3.org/2000/svg" fill="none">
 <defs>
  <clipPath id="clip0_110_3490">
   <rect id="svg_1" fill="white" height="562" width="552"/>
  </clipPath>
  <clipPath id="clip1_110_3490">
   <rect id="svg_2" transform="rotate(-61.702 521 73.1113)" x="521" y="73.1113" fill="white" height="153.935" width="52.3698"/>
  </clipPath>
  <radialGradient gradientTransform="translate(269.268 332.713) rotate(151.643) scale(52.3805)" gradientUnits="userSpaceOnUse" r="1" cy="0" cx="0" id="paint3_radial_110_3490">
   <stop stop-color="#F4DBEE"/>
   <stop stop-color="#D1BDE5" offset="1"/>
  </radialGradient>
  <linearGradient y2="0.49686" x2="-0.19501" y1="0.40842" x1="1.01028" id="paint4_linear_110_3490">
   <stop stop-color="#AA367C"/>
   <stop stop-color="#4A2FBD" offset="1"/>
  </linearGradient>
  <linearGradient y2="0.66774" x2="-0.39359" y1="0.32036" x1="1.0193" id="paint5_linear_110_3490">
   <stop stop-color="#9579A7"/>
   <stop stop-color="white" offset="1"/>
  </linearGradient>
  <radialGradient gradientTransform="translate(335.19 504.066) rotate(151.643) scale(55.8371)" gradientUnits="userSpaceOnUse" r="1" cy="0" cx="0" id="paint6_radial_110_3490">
   <stop stop-color="#F4F1FF"/>
   <stop stop-color="#D1BDE5" offset="1"/>
  </radialGradient>
  <radialGradient gradientTransform="translate(429.565 303.374) rotate(151.643) scale(57.1759)" gradientUnits="userSpaceOnUse" r="1" cy="0" cx="0" id="paint7_radial_110_3490">
   <stop stop-color="#F4DBEE"/>
   <stop stop-color="#D1BDE5" offset="1"/>
  </radialGradient>
  <radialGradient gradientTransform="translate(462.568 446.789) rotate(151.643) scale(67.3269)" gradientUnits="userSpaceOnUse" r="1" cy="0" cx="0" id="paint8_radial_110_3490">
   <stop stop-color="#F4F1FF"/>
   <stop stop-color="#D1BDE5" offset="1"/>
  </radialGradient>
  <linearGradient y2="0.55455" x2="-0.16142" y1="0.37407" x1="1.05971" id="paint9_linear_110_3490">
   <stop stop-color="#AA367C"/>
   <stop stop-color="#4A2FBD" offset="1"/>
  </linearGradient>
  <linearGradient y2="0.59323" x2="-0.13738" y1="0.37278" x1="1.0877" id="paint10_linear_110_3490">
   <stop stop-color="#AA367C"/>
   <stop stop-color="#4A2FBD" offset="1"/>
  </linearGradient>
  <linearGradient y2="0.50574" x2="-0.0608" y1="0.41626" x1="0.92177" id="paint11_linear_110_3490">
   <stop stop-color="#AA367C"/>
   <stop stop-color="#4A2FBD" offset="1"/>
  </linearGradient>
  <linearGradient y2="0.65526" x2="0.02839" y1="0.3049" x1="0.88755" id="paint12_linear_110_3490">
   <stop stop-color="white"/>
   <stop stop-color="#9579A7" offset="1"/>
  </linearGradient>
  <linearGradient y2="0.04792" x2="0.27733" y1="0.94355" x1="0.72055" id="paint13_linear_110_3490">
   <stop stop-color="#D1BDE5"/>
   <stop stop-color="white" offset="1"/>
  </linearGradient>
  <linearGradient y2="0.52649" x2="-0.11685" y1="0.37088" x1="1.08647" id="paint14_linear_110_3490">
   <stop stop-color="#AA367C"/>
   <stop stop-color="#4A2FBD" offset="1"/>
  </linearGradient>
  <linearGradient y2="0.89186" x2="-0.02402" y1="0.28542" x1="1.03936" id="paint15_linear_110_3490">
   <stop stop-color="white"/>
   <stop stop-color="#9579A7" offset="1"/>
  </linearGradient>
  <linearGradient y2="0.10047" x2="-0.05568" y1="0.95822" x1="0.95754" id="paint16_linear_110_3490">
   <stop stop-color="#D1BDE5"/>
   <stop stop-color="#F4DBEE" offset="1"/>
  </linearGradient>
  <linearGradient y2="1.08222" x2="0.11194" y1="0.2049" x1="0.94806" id="paint17_linear_110_3490">
   <stop stop-color="white"/>
   <stop stop-color="#9579A7" offset="1"/>
  </linearGradient>
  <linearGradient y2="0.94193" x2="0.01816" y1="0.35466" x1="0.98712" id="paint18_linear_110_3490">
   <stop stop-color="white"/>
   <stop stop-color="#9579A7" offset="1"/>
  </linearGradient>
  <linearGradient y2="0.55451" x2="-0.08945" y1="0.32874" x1="1.05466" id="paint19_linear_110_3490">
   <stop stop-color="#5A30B2"/>
   <stop stop-color="#AA367C" offset="1"/>
   <stop stop-color="#4A2FBD" offset="1"/>
  </linearGradient>
  <linearGradient y2="0.67275" x2="0.10397" y1="-0.01346" x1="0.99603" id="paint20_linear_110_3490">
   <stop stop-color="white"/>
   <stop stop-color="#9579A7" offset="1"/>
  </linearGradient>
  <linearGradient y2="0.78442" x2="-0.04406" y1="0.38268" x1="1.12312" id="paint21_linear_110_3490">
   <stop stop-color="#9579A7"/>
   <stop stop-color="white" offset="1"/>
  </linearGradient>
  <linearGradient y2="0.53861" x2="-0.11896" y1="0.36901" x1="1.04797" id="paint22_linear_110_3490">
   <stop stop-color="#AA367C"/>
   <stop stop-color="#4A2FBD" offset="1"/>
  </linearGradient>
 </defs>
 <g>
  <title>Layer 1</title>
  <path id="svg_137" fill="#CAB3DA" d="m582.013,432.573c10.754,-1.522 21.584,-6.119 32.466,-15.704c24.268,-21.373 19.638,-57.973 1.431,-79.763c-18.611,-22.203 -56.388,-35.345 -101.621,0.711c-76.614,61.071 -108.493,38.815 -108.804,38.569l-5.564,7.19c1.477,1.171 37.014,27.531 120.092,-38.663c40.082,-31.891 72.243,-21.969 88.98,-1.985c15.466,18.508 19.686,49.385 -0.462,67.112c-25.006,22.001 -49.922,13.551 -76.299,4.619c-10.611,-3.604 -21.582,-7.322 -32.638,-8.999c-39.483,-5.988 -64.105,17.56 -65.136,18.561l6.356,6.497c7.855,-6.646 17.049,-11.521 26.958,-14.293c9.908,-2.772 20.297,-3.375 30.46,-1.769c10.25,1.543 20.845,5.135 31.092,8.61c17.181,5.861 34.833,11.834 52.689,9.307z"/>
  <path id="svg_138" fill="#CAB3DA" d="m525.546,517.354c0,0 22.627,20.254 39.771,10.362l-39.771,-10.362z" clip-rule="evenodd" fill-rule="evenodd"/>
  <path id="svg_139" fill="url(#paint3_radial_110_3490)" d="m212.762,349.467c8.982,16.667 52.068,32.41 73.976,26.053c0.978,-0.279 1.94,-0.614 2.88,-1.001c12.927,-5.473 20.84,-20.736 24.734,-30.657c1.189,-2.931 2.202,-5.931 3.033,-8.984l-5.615,-44.74c0,0 -0.567,0.191 -1.532,0.59c-5.74,2.337 -11.183,5.35 -16.212,8.973c-8.325,6.201 -38.376,16.844 -54.913,15.528c-16.537,-1.316 -23.008,-5.602 -26.783,-4.488c-3.775,1.114 -5.899,8.038 -5.899,8.038c0,0 -3.137,13.125 6.331,30.688z" clip-rule="evenodd" fill-rule="evenodd"/>
  <path id="svg_140" fill="#684D73" d="m206.431,318.779c0,0 6.409,-3.46 9.71,0.364c3.301,3.824 10.489,28.872 -3.368,30.309c-13.857,1.437 -6.329,-30.675 -6.329,-30.675l-0.013,0.002z" clip-rule="evenodd" fill-rule="evenodd"/>
  <path id="svg_141" fill="#53345F" d="m210.151,319.812c0,0 4.09,13.398 -2.101,26.1c0,0 -9.084,-15.921 2.101,-26.1z" clip-rule="evenodd" fill-rule="evenodd"/>
  <path id="svg_142" fill="#D9D9D9" d="m177.826,323.256c5.032,7.268 12.063,12.92 20.242,16.273c3.584,1.593 7.343,2.761 11.199,3.479c2.647,-5.55 3.315,-11.838 1.893,-17.82c0,0 -0.94,-1.578 -2.491,-3.856c-3.471,-5.028 -9.626,-13.512 -14.455,-16.043l0.57,6.363c0,0 -6.379,-8.218 -20.122,-5.679c0.014,-0.002 -6.491,2.685 3.164,17.283z" clip-rule="evenodd" fill-rule="evenodd"/>
  <path id="svg_143" fill="url(#paint4_linear_110_3490)" d="m256.825,313.632c0,0 9.576,10.235 13.826,33.919c4.249,23.683 -11.773,27.566 -11.773,27.566c0,0 10.084,2.422 17.041,1.851c0,0 37.241,-15.013 -4.463,-67.201l-14.631,3.865z"/>
  <path id="svg_144" fill="url(#paint5_linear_110_3490)" d="m314.352,343.862c1.062,3.41 2.36,6.924 3.737,10.607l10.216,-26.283l-13.953,-38.717l-4.026,0.805c-0.048,0.145 -0.07,0.286 -0.116,0.444c-5.741,2.338 -11.183,5.35 -16.212,8.973c0,0 34.116,25.196 -4.393,74.733c12.941,-5.378 20.853,-20.641 24.747,-30.562z" clip-rule="evenodd" fill-rule="evenodd"/>
  <path id="svg_145" fill="#311745" d="m364.587,554.764c0,0 5.754,-15.592 43.541,-17.202c0.005,0.041 -12.025,20.33 -43.541,17.202z" clip-rule="evenodd" fill-rule="evenodd"/>
  <path id="svg_146" fill="#311745" d="m528.776,477.199c0,0 -23.97,3.393 -32.477,32.194c0,0 11.011,2.829 22.943,-6.656c11.931,-9.485 9.534,-25.538 9.534,-25.538z" clip-rule="evenodd" fill-rule="evenodd"/>
  <path id="svg_147" fill="url(#paint6_radial_110_3490)" d="m392.296,559.853l16.421,-8.865c0,0 -0.904,-4.44 -2.089,-11.543c-3.038,-17.95 -7.926,-52.775 -4.918,-75.195l-68.904,-29.792c0,0 0.319,4.301 0.905,11.076c1.805,19.669 0.219,60.033 6.663,75.044c8.685,20.117 51.922,39.275 51.922,39.275z" clip-rule="evenodd" fill-rule="evenodd"/>
  <path id="svg_148" fill="#CAB3DA" d="m332.802,434.431c18.33,16.766 41.396,27.453 66.038,30.598l2.87,-0.779l15.329,-4.198c-0.004,-0.05 -0.011,-0.1 -0.021,-0.149l-0.044,-0.311c-0.018,-0.081 -0.03,-0.162 -0.035,-0.244c-0.021,-0.103 -0.036,-0.206 -0.044,-0.311c-0.849,-6.972 -4.875,-50.916 21.574,-93.819c-3.805,-3.331 -7.382,-6.914 -10.707,-10.724c-0.658,-0.748 -1.364,-1.545 -2.117,-2.377c-3.413,-3.836 -7.547,-8.673 -12.443,-14.796c-10.703,-13.222 -28.559,-34.676 -40.856,-49.41c-3.69,-4.432 -6.894,-8.255 -9.258,-11.108c-0.881,-1.062 -1.663,-2 -2.305,-2.737l-1.962,-2.358c0,0 -29.689,19.919 -48.007,16.648c0,0 -0.202,0.622 -0.499,1.837c-0.047,0.158 -0.068,0.299 -0.117,0.444c-1.472,6.362 -4.507,25.475 4.11,53.107c1.076,3.408 2.36,6.924 3.748,10.591c0.516,1.307 1.033,2.614 1.603,3.913c0.067,22.257 3.289,44.393 9.569,65.746c1.114,3.582 2.29,7.017 3.574,10.437z" clip-rule="evenodd" fill-rule="evenodd"/>
  <path id="svg_149" fill="url(#paint7_radial_110_3490)" d="m375.717,315.913c0.742,0.958 1.541,1.921 2.359,2.923c12.892,15.533 31.457,29.905 49.724,35.736c11.196,3.548 22.237,3.862 31.786,-0.719c21.326,-10.277 28.205,-30.113 29.791,-35.87c0.037,-0.184 0.085,-0.366 0.143,-0.545c0.025,-0.16 0.063,-0.317 0.113,-0.471c0.097,-0.387 0.138,-0.585 0.138,-0.585c0,0 6.524,-5.96 2.533,-13.785c-3.991,-7.824 -13.132,-18.493 -13.132,-18.493l-4.396,0.429c0,0 -3.489,-5.15 -9.491,-4.176c-6.003,0.974 -18.105,8.082 -37.131,6.636c-16.734,-1.247 -42.471,-7.607 -51.187,-10.692c-0.916,-0.278 -1.804,-0.642 -2.651,-1.087c-2.96,-1.547 -6.183,-2.528 -9.503,-2.891l-2.391,1.138l-1.578,0.748l-4.846,2.314c0,0 -1.35,12.982 19.719,39.39z" clip-rule="evenodd" fill-rule="evenodd"/>
  <path id="svg_150" fill="url(#paint8_radial_110_3490)" d="m417.038,460.052c0,0 39.858,25.983 49.554,33.166c9.695,7.182 36.457,16.102 49.604,16.076c0.32,0.011 0.642,0.002 0.962,-0.025c12.354,-0.452 16.249,-9.2 16.249,-9.2c0,0 -0.673,-2.416 -1.75,-6.223c-1.449,-5.066 -3.613,-12.556 -5.964,-20.005c-3.087,-9.912 -6.484,-19.78 -8.763,-23.597c-3.877,-6.53 -44.855,-49.782 -65.983,-71.932c-7.481,-7.813 -12.465,-13 -12.465,-13c-30.762,30.958 -22.911,86.033 -21.576,93.806c0.008,0.105 0.023,0.209 0.044,0.311c0.006,0.082 0.018,0.164 0.035,0.244l0.038,0.27c0.007,0.036 0.012,0.072 0.015,0.109z" clip-rule="evenodd" fill-rule="evenodd"/>
  <path id="svg_151" fill="#53345F" d="m353.272,277.64c0,0 -14.401,14.457 -20.642,17.355c-6.24,2.898 -21.77,-6.508 -21.77,-6.508c0,0 15.639,-0.158 42.412,-10.847z" clip-rule="evenodd" fill-rule="evenodd"/>
  <path id="svg_152" fill="#53345F" d="m364.798,272.311c0,0 7.163,52.648 53.527,79.463c0,0 -41.119,-17.54 -65.053,-74.134l11.526,-5.329z" clip-rule="evenodd" fill-rule="evenodd"/>
  <path id="svg_153" fill="#53345F" d="m314.346,289.525c0,0 -1.785,40.613 5.349,68.883c0,0 -15.659,-30.209 -13.268,-65.954l4.433,-3.967l3.486,1.038z" clip-rule="evenodd" fill-rule="evenodd"/>
  <path id="svg_154" fill="#53345F" d="m446.146,373.252c0,0 -21.426,20.584 -22.635,91.002l-6.432,-4.208c0,0 -12.947,-66.414 21.426,-94.764l7.641,7.97z" clip-rule="evenodd" fill-rule="evenodd"/>
  <path id="svg_155" fill="#53345F" d="m329.299,424.205c0,0 36.495,38.299 72.396,40.033l-0.472,4.372c0,0 -36.03,3.196 -67.772,-26.282l-4.152,-18.123z" clip-rule="evenodd" fill-rule="evenodd"/>
  <path id="svg_156" fill="#684D73" d="m489.781,316.352c0,0 6.525,-5.96 2.533,-13.784c-3.991,-7.824 -13.132,-18.493 -13.132,-18.493l-4.396,0.429c0,0 -11.674,22.612 14.995,31.848z" clip-rule="evenodd" fill-rule="evenodd"/>
  <path id="svg_157" fill="#53345F" d="m490.823,308.699c0,0 -16.281,-11.494 -11.687,-24.563c0.046,-0.061 16.32,18.305 11.687,24.563z" clip-rule="evenodd" fill-rule="evenodd"/>
  <path id="svg_158" fill="#D9D9D9" d="m479.245,293.297c0,0 -2.487,-11.819 6.12,-19.053l2.653,4.896c0,0 9.735,-14.763 23.28,-10.995c0,0 5.058,23.444 -22.674,38.864c-4.578,-3.388 -7.881,-8.218 -9.379,-13.712z" clip-rule="evenodd" fill-rule="evenodd"/>
  <path id="svg_159" fill="url(#paint9_linear_110_3490)" d="m504.774,435.724c0,0 8.001,15.288 -9.708,34.353c-17.709,19.064 -37.238,16.986 -37.238,16.986c0,0 10.726,8.223 17.809,11.277c7.083,3.054 38.159,-14.674 46.004,-36.938c0,0 -2.471,-8.688 -5.791,-12.744c-3.32,-4.055 -11.076,-12.934 -11.076,-12.934z"/>
  <path id="svg_160" fill="url(#paint10_linear_110_3490)" d="m401.07,491.702c0,0 -11.024,16.38 -26.575,26.709c-9.298,6.159 -20.536,8.683 -31.574,7.091c0,0 7.434,9.917 15.467,14.714c0,0 20.018,-4.214 29.455,-12.214c9.437,-8.001 14.419,-20.669 14.419,-20.669l-1.192,-15.631z"/>
  <path id="svg_161" fill="url(#paint11_linear_110_3490)" d="m423.203,286.521c0,0 -22.239,41.452 21.737,70.702c-5.414,0.217 -10.821,-0.57 -15.948,-2.323c-12.035,-3.816 -48.636,-49.689 -19.203,-70.634l13.414,2.255z"/>
  <path id="svg_162" fill="#53345F" d="m401.449,464.549l0.499,-0.567c-0.299,-0.262 -29.79,-26.609 -42.019,-49.246c-10.59,-19.64 -12.88,-30.851 -16.045,-46.381c-1.19,-5.875 -2.546,-12.527 -4.541,-20.386c-4.276,-16.902 -7.309,-34.094 -9.075,-51.439l-0.758,0.108c1.781,17.384 4.825,34.615 9.106,51.558c1.978,7.833 3.334,14.486 4.536,20.345c3.174,15.598 5.466,26.823 16.116,46.592c12.292,22.697 41.81,49.137 42.181,49.416z"/>
  <path id="svg_163" fill="url(#paint12_linear_110_3490)" d="m405.296,540.171l1.278,-0.719c-3.038,-17.949 -7.926,-52.774 -4.918,-75.195l15.383,-4.205c0,0 39.857,25.983 49.567,33.164c9.709,7.18 36.444,16.104 49.59,16.078c0.321,0.006 0.641,-0.008 0.96,-0.039l14.492,-15.477c-1.433,-5.054 -3.611,-12.542 -5.949,-19.993l-1.571,-0.178c0,0 -13.969,22.675 -34.017,24.34c-20.047,1.665 -60.246,-39.89 -61.025,-48.514c-2.894,-32.238 12.803,-58.786 21.858,-71.148l-12.467,-13.013c-3.805,-3.331 -7.382,-6.914 -10.708,-10.723c11.196,3.548 22.238,3.861 31.798,-0.735c21.313,-10.275 28.193,-30.097 29.777,-35.868c-1.892,6.132 -10.799,28.794 -43.617,35.771c-6.697,1.379 -13.649,0.822 -20.041,-1.606c-28.498,-10.164 -49.879,-50.961 -52.508,-59.985c-0.403,-1.359 -0.665,-2.755 -0.783,-4.167c-0.618,-8.067 4.541,-11.682 4.541,-11.682c-0.901,-0.281 -1.778,-0.637 -2.62,-1.064c-2.96,-1.546 -6.183,-2.527 -9.502,-2.891l-2.392,1.139c0.192,0.87 0.417,2.066 0.728,3.485c2.925,13.374 7.139,26.432 12.584,38.992c4.192,9.877 9.708,19.137 16.398,27.525c22.434,27.084 29.027,31.16 29.027,31.16c0,0 -6.53,51.343 -18.211,65.525c-11.68,14.183 -51.901,0.448 -62.764,-7.77c-5.17,-3.863 -8.64,-6.545 -10.91,-8.252c1.066,3.437 2.229,6.873 3.526,10.291c0,0 0.319,4.301 0.906,11.076c10.892,8.71 47.898,39.016 56.04,52.283c9.554,15.633 15.55,42.395 15.55,42.395z" clip-rule="evenodd" fill-rule="evenodd"/>
  <g id="svg_164" opacity="0.5">
   <path id="svg_165" fill="#53345F" d="m364.796,272.297c0,0 -2.706,29.622 -26.602,50.598c-23.896,20.975 -39.055,-26.65 -39.055,-26.65l7.287,-3.791l3.935,-2.13l54.435,-18.027z" clip-rule="evenodd" fill-rule="evenodd"/>
  </g>
  <path id="svg_166" fill="url(#paint13_linear_110_3490)" d="m224.484,267.93c0.235,0.297 0.455,0.584 0.715,0.864c3.301,3.824 9.015,7.734 16.243,11.127c0,0 0.431,0.215 1.249,0.54c15.828,6.92 33.002,10.217 50.268,9.65c30.015,-1.145 72.936,-11.705 97.388,-36.457c24.452,-24.752 25.037,-84.954 14.161,-102.125c-3.734,-5.983 -7.833,-11.73 -12.274,-17.208c-14.4,-17.707 -37.886,-38.3773 -71.769,-40.287c-25.608,-1.4527 -58.176,7.393 -82.07,19.22c-6.799,3.282 -13.271,7.202 -19.33,11.706c-3.242,2.407 -6.202,5.173 -8.823,8.244l-0.908,1.191c-0.604,0.778 -1.152,1.598 -1.639,2.454c-25.188,44.215 0.734,110.365 16.789,131.081z" clip-rule="evenodd" fill-rule="evenodd"/>
  <path id="svg_167" fill="url(#paint14_linear_110_3490)" d="m227.891,262.949c0.231,0.271 0.422,0.547 0.665,0.803c7.407,5.436 32.109,18.815 68.07,4.604c44.222,-17.464 44.36,-57.816 44.36,-57.816l8.72,-2.835c-1.081,-5.781 -1.81,-11.128 -2.273,-16.057c-2.641,-27.623 3,-41.972 2.135,-45.837c-1.012,-4.617 -15.841,-29.245 -50.716,-35.14c-23.11,-3.89 -43.656,1.378 -57.918,7.26c-6.378,3.073 -12.447,6.751 -18.122,10.982c-3.048,2.246 -5.826,4.839 -8.275,7.726l-0.85,1.114c-0.57,0.731 -1.083,1.505 -1.535,2.315c-9.816,17.216 -11.351,37.951 -8.734,57.712c3.679,27.835 15.659,53.791 24.473,65.169z"/>
  <path id="svg_168" fill="url(#paint15_linear_110_3490)" d="m242.692,280.461c15.828,6.92 33.002,10.217 50.267,9.65c30.015,-1.145 72.937,-11.705 97.388,-36.457c24.452,-24.752 25.037,-84.954 14.162,-102.125c-3.734,-5.983 -7.833,-11.73 -12.274,-17.208c-4.606,-3.294 -9.804,-4.821 -15.634,-2.727c-21.388,7.692 -14.774,80.246 -14.774,80.246l-10.903,0.963c0,0 0.227,42.246 -40.997,63.439c-36.011,18.537 -61.486,6.524 -67.235,4.219z" clip-rule="evenodd" fill-rule="evenodd"/>
  <path id="svg_169" fill="url(#paint16_linear_110_3490)" d="m400.449,238.95c-9.05,11.119 -28.873,10.476 -37.222,-25.791c-8.348,-36.267 6.299,-75.402 6.299,-75.402c-29.835,8.362 -15.17,71.318 -15.17,71.318c1.033,2.613 2.023,5.026 3.046,7.282l0.104,0.247c21.387,47.861 41.244,24.477 42.943,22.346z" clip-rule="evenodd" fill-rule="evenodd"/>
  <path id="svg_170" fill="#53345F" d="m406.915,156.542c-5.215,-11.984 -14.427,-19.166 -21.543,-17.772c-7.116,1.394 -20.877,36.554 -10.765,72.116c10.111,35.562 31.197,20.076 33.528,5.547l1.471,-7.935c0,0 -13.778,25.78 -26.579,5.142c-14.617,-23.526 0.831,-59.243 12.34,-56.705c11.508,2.538 15.663,22.923 15.663,22.923c0,0 -0.643,-15.363 -4.115,-23.316z" clip-rule="evenodd" fill-rule="evenodd"/>
  <path id="svg_171" fill="#D9D9D9" d="m413.506,554.504l-3.362,-4.257l-1.943,-12.654c0,0 -24.366,16.392 -43.555,17.205c7.818,4.98 16.841,7.742 26.107,7.991c0,0 -13.755,9.371 -10.475,25.133l33.228,-33.418z" clip-rule="evenodd" fill-rule="evenodd"/>
  <path id="svg_172" fill="#D9D9D9" d="m496.387,509.339l26.588,3.301l2.581,4.781c0,0 17.713,14.299 39.769,10.349c0,0 -6.502,-18.052 -29.183,-23.976l-7.347,-26.557c-1.232,7.84 -4.463,15.231 -9.381,21.46c-7.814,9.813 -21.792,10.591 -23.027,10.642z" clip-rule="evenodd" fill-rule="evenodd"/>
  <path id="svg_173" fill="#CAB3DA" d="m413.506,554.504l2.935,1.82l-34.348,33.798l-1.862,-2.234l33.275,-33.384z" clip-rule="evenodd" fill-rule="evenodd"/>
  <path id="svg_174" fill="url(#paint17_linear_110_3490)" d="m364.587,554.765c7.817,4.98 16.84,7.742 26.106,7.991c0,0 15.53,-7.262 22.813,-8.252l-3.362,-4.257l-1.943,-12.654c0,0 -24.422,16.387 -43.614,17.172z" clip-rule="evenodd" fill-rule="evenodd"/>
  <path id="svg_175" fill="url(#paint18_linear_110_3490)" d="m496.388,509.339l26.587,3.301c5.032,-1.857 9.546,-4.89 13.167,-8.846l-7.347,-26.557c-1.232,7.84 -4.463,15.231 -9.38,21.46c-7.815,9.813 -21.793,10.591 -23.027,10.642z" clip-rule="evenodd" fill-rule="evenodd"/>
  <path id="svg_176" fill="white" d="m333.909,147.973c0,0 -1.91,-10.769 -3.558,-13.833c-5.22,-3.05 -10.988,-5.047 -16.976,-5.876l-3.249,20.136c0,0 18.477,-1.166 23.783,-0.427z"/>
  <path id="svg_177" fill="url(#paint19_linear_110_3490)" d="m227.967,263.587c0.218,0.272 0.422,0.547 0.666,0.802c7.393,5.439 32.064,18.794 67.987,4.603c44.167,-17.457 44.259,-57.747 44.259,-57.747l8.692,-2.831c-1.067,-5.782 -1.794,-11.116 -2.271,-16.043c0,0 -86.1,-61.206 -143.776,6.057c3.668,27.864 15.632,53.794 24.443,65.159z"/>
  <path id="svg_178" fill="white" d="m334.393,219.035c0,0 -0.851,9.586 -4.171,15.768l-5.824,-2.156c0,0 2.736,-8.942 3.71,-14.241l6.285,0.629z"/>
  <path id="svg_179" fill="url(#paint20_linear_110_3490)" d="m508.768,286.137c0,0 -7.558,11.143 -16.782,12.945c-9.224,1.803 -12.976,-7.449 -12.976,-7.449c0,0 0.055,7.995 9.56,15.384c0,0 15.757,-8.385 20.198,-20.88z" clip-rule="evenodd" fill-rule="evenodd"/>
  <path id="svg_180" fill="url(#paint21_linear_110_3490)" d="m198.081,339.527c3.585,1.593 7.344,2.761 11.2,3.479c2.647,-5.55 3.315,-11.838 1.893,-17.82c0,0 -0.941,-1.578 -2.491,-3.856c0,0 1.821,9.94 -10.602,18.197z" clip-rule="evenodd" fill-rule="evenodd"/>
  <path id="svg_181" fill="#684D73" d="m347.918,335.151c0.927,1.721 2.185,3.242 3.702,4.476c1.516,1.234 3.261,2.156 5.135,2.714c1.874,0.557 3.839,0.74 5.784,0.536c1.944,-0.203 3.829,-0.789 5.546,-1.723c1.723,-0.925 3.245,-2.183 4.48,-3.699c1.235,-1.516 2.158,-3.262 2.716,-5.136c0.558,-1.874 0.74,-3.84 0.535,-5.785c-0.204,-1.945 -0.791,-3.83 -1.727,-5.547c-0.927,-1.721 -2.185,-3.242 -3.701,-4.476c-1.517,-1.234 -3.262,-2.156 -5.136,-2.714c-1.874,-0.558 -3.839,-0.74 -5.783,-0.537c-1.945,0.204 -3.83,0.789 -5.547,1.723c-1.721,0.927 -3.242,2.185 -4.476,3.702c-1.234,1.516 -2.156,3.261 -2.714,5.135c-0.558,1.874 -0.74,3.839 -0.537,5.784c0.204,1.944 0.789,3.829 1.723,5.547z" clip-rule="evenodd" fill-rule="evenodd"/>
  <path id="svg_182" fill="url(#paint22_linear_110_3490)" d="m352.777,332.531c1.181,2.169 3.175,3.78 5.543,4.479c2.368,0.7 4.917,0.431 7.086,-0.747c1.076,-0.584 2.025,-1.374 2.794,-2.324c0.77,-0.951 1.345,-2.044 1.691,-3.217c0.347,-1.173 0.459,-2.403 0.329,-3.619c-0.129,-1.217 -0.497,-2.396 -1.082,-3.47c-1.181,-2.168 -3.174,-3.779 -5.542,-4.479c-2.369,-0.7 -4.917,-0.431 -7.087,0.748c-2.169,1.181 -3.78,3.174 -4.48,5.542c-0.699,2.368 -0.43,4.917 0.748,7.087z" clip-rule="evenodd" fill-rule="evenodd"/>
  <path id="svg_183" fill="#684D73" d="m403.726,283.248c0,0 -11.54,17.419 -24.238,-6.104c0,0 17.532,4.639 24.238,6.104z" clip-rule="evenodd" fill-rule="evenodd"/>
  <path id="svg_184" fill="#53345F" d="m371.19,487.074c10.041,-1.491 19.967,-3.67 29.709,-6.524l-0.227,-0.727c-0.489,0.152 -48.9,14.635 -65.206,3.546l-0.422,0.625c7.857,5.401 22.619,4.994 36.146,3.08z"/>
  <path id="svg_185" fill="#53345F" d="m437.51,474.829l0.757,-0.107c-1.823,-8.855 -2.262,-17.94 -1.301,-26.929c2.563,-22.937 27.811,-54.439 28.057,-54.75l-0.593,-0.482c-0.245,0.311 -25.635,31.985 -28.221,55.146c-0.963,9.054 -0.524,18.202 1.301,27.122z"/>
  <path id="svg_186" fill="#53345F" d="m477.805,339.559l0.596,-0.471c-31.844,-40.53 -13.037,-58.273 -12.853,-58.437l-0.494,-0.565c-0.209,0.181 -5.045,4.619 -5.907,14.22c-0.85,8.814 1.814,23.835 18.658,45.253z"/>
  <path id="svg_187" fill="#53345F" d="m241.459,369.911c14.534,-29.116 -17.596,-57.146 -17.911,-57.418l-0.499,0.567c0.316,0.286 32.006,27.937 17.74,56.504l0.67,0.347z"/>
  <path id="svg_188" fill="white" d="m378.113,368.808c1.666,2.942 3.701,5.659 6.057,8.084l5.838,-3.986c-1.71,-3.039 -4.277,-5.507 -7.38,-7.097l-4.515,2.999z"/>
  <path id="svg_189" fill="white" d="m452.532,287.254c-2.235,1.056 -4.691,1.56 -7.161,1.468l-2.145,3.561c0,0 5.751,2.318 9.098,-1.137l0.208,-3.892z"/>
  <path id="svg_190" fill="white" d="m491.641,441.198c2.937,1.768 5.401,4.222 7.18,7.153l-3.723,4.404l-6.492,-7.36l3.035,-4.197z"/>
  <path id="svg_191" fill="white" d="m213.422,311.042c2.414,0.836 4.502,2.415 5.964,4.51l4.877,0.234c-1.019,-1.123 -2.17,-2.118 -3.428,-2.964c-1.957,-1.255 -7.413,-1.78 -7.413,-1.78z"/>
  <path id="svg_192" fill="white" d="m343.913,496.84c0,0 -1.045,12.112 0.992,17.536l-5.034,0.602c-1.909,-5.436 -2.486,-11.25 -1.682,-16.955l5.724,-1.183z"/>
  <path id="svg_193" fill="white" d="m316.974,107.292c0,0 -29.569,-6.329 -47.441,-3.137c0,0 62.321,-17.4871 47.441,3.137z"/>
  <path id="svg_194" fill="white" d="m362.711,164.869l-11.044,-1.307l-0.9,11.967l10.522,0.345l1.422,-11.005z"/>
 </g>
</svg>