<svg width="682" height="614" xmlns="http://www.w3.org/2000/svg" fill="none">
 <defs>
  <clipPath id="clip0_110_3490">
   <rect width="552" height="562" fill="white" id="svg_1"/>
  </clipPath>
  <clipPath id="clip1_110_3490">
   <rect width="52.3698" height="153.935" fill="white" y="73.1113" x="521" transform="rotate(-61.702 521 73.1113)" id="svg_2"/>
  </clipPath>
  <linearGradient id="paint23_linear_110_3490" x1="0.96405" y1="0.72892" x2="0.1264" y2="0.16307">
   <stop stop-opacity="0"/>
   <stop offset="1" stop-color="#106D90"/>
  </linearGradient>
  <linearGradient id="paint24_linear_110_3490" x1="1.06042" y1="0.84205" x2="0.00496" y2="0.19365">
   <stop stop-color="#A43440"/>
   <stop offset="1" stop-color="#C73634"/>
  </linearGradient>
  <linearGradient id="paint25_linear_110_3490" x1="0.93898" y1="1.20655" x2="0.07481" y2="0.15119">
   <stop stop-color="#A43440"/>
   <stop offset="1" stop-color="#C73634"/>
  </linearGradient>
  <radialGradient id="paint26_radial_110_3490" cx="0" cy="0" r="1" gradientUnits="userSpaceOnUse" gradientTransform="translate(564.324 61.5728) rotate(-61.702) scale(34.063 61.4731)">
   <stop stop-color="#F4BAB3"/>
   <stop offset="0.77" stop-color="#8D6FC7"/>
   <stop offset="0.96" stop-color="#B695E5"/>
  </radialGradient>
  <radialGradient id="paint27_radial_110_3490" cx="0" cy="0" r="1" gradientUnits="userSpaceOnUse" gradientTransform="translate(535.84 52.3714) rotate(-61.702) scale(9.15601 8.1686)">
   <stop offset="0.02" stop-color="#AB5E75"/>
   <stop offset="0.25" stop-color="#9F577B"/>
   <stop offset="0.67" stop-color="#7F458C"/>
   <stop offset="0.99" stop-color="#61349C"/>
  </radialGradient>
  <linearGradient id="paint28_linear_110_3490" x1="0.79073" y1="0.55287" x2="0.02472" y2="0.1233">
   <stop stop-color="#FFFF18"/>
   <stop offset="1" stop-color="#FF7400"/>
  </linearGradient>
  <radialGradient id="paint29_radial_110_3490" cx="0" cy="0" r="1" gradientUnits="userSpaceOnUse" gradientTransform="translate(607.061 91.0251) rotate(-61.702) scale(16.1744 29.336)">
   <stop offset="0.02" stop-color="#8881BC"/>
   <stop offset="0.29" stop-color="#8375B7"/>
   <stop offset="0.77" stop-color="#7555AA"/>
   <stop offset="0.99" stop-color="#6D43A3"/>
  </radialGradient>
  <radialGradient id="paint30_radial_110_3490" cx="0" cy="0" r="1" gradientUnits="userSpaceOnUse" gradientTransform="translate(567.39 69.5773) rotate(-61.702) scale(17.199 17.0304)">
   <stop offset="0.02" stop-color="#8881BC"/>
   <stop offset="0.29" stop-color="#8375B7"/>
   <stop offset="0.77" stop-color="#7555AA"/>
   <stop offset="0.99" stop-color="#6D43A3"/>
  </radialGradient>
  <radialGradient id="paint31_radial_110_3490" cx="0" cy="0" r="1" gradientUnits="userSpaceOnUse" gradientTransform="translate(552.714 62.4888) rotate(-61.702) scale(21.3977 35.3445)">
   <stop offset="0.02" stop-color="#725EB0"/>
   <stop offset="0.38" stop-color="#6D52AA"/>
   <stop offset="0.99" stop-color="#61349C"/>
  </radialGradient>
  <linearGradient id="paint32_linear_110_3490" x1="0.92606" y1="0.72372" x2="0.04424" y2="0.23841">
   <stop stop-color="#FFFF29"/>
   <stop offset="1" stop-color="#FF7E59"/>
  </linearGradient>
  <radialGradient id="paint33_radial_110_3490" cx="0" cy="0" r="1" gradientUnits="userSpaceOnUse" gradientTransform="translate(628.83 102.43) rotate(-61.702) scale(6.35389 11.5242)">
   <stop offset="0.02" stop-color="#725EB0"/>
   <stop offset="0.38" stop-color="#6D52AA"/>
   <stop offset="0.99" stop-color="#61349C"/>
  </radialGradient>
  <radialGradient id="paint34_radial_110_3490" cx="0" cy="0" r="1" gradientUnits="userSpaceOnUse" gradientTransform="translate(548.011 58.98) rotate(-61.702) scale(11.7094 11.5945)">
   <stop offset="0.02" stop-color="#8881BC"/>
   <stop offset="0.29" stop-color="#8375B7"/>
   <stop offset="0.77" stop-color="#7555AA"/>
   <stop offset="0.99" stop-color="#6D43A3"/>
  </radialGradient>
  <linearGradient id="paint35_linear_110_3490" x1="0.93794" y1="0.73538" x2="0.06091" y2="0.26532">
   <stop stop-color="#8DC7FF"/>
   <stop offset="0.32" stop-color="#5C4D86"/>
  </linearGradient>
  <radialGradient id="paint36_radial_110_3490" cx="0" cy="0" r="1" gradientUnits="userSpaceOnUse" gradientTransform="translate(595.853 85.627) rotate(-61.702) scale(0.631788 0.625595)">
   <stop offset="0.02" stop-color="#8881BC"/>
   <stop offset="0.29" stop-color="#8375B7"/>
   <stop offset="0.77" stop-color="#7555AA"/>
   <stop offset="1" stop-color="#6D43A3"/>
  </radialGradient>
  <linearGradient id="paint37_linear_110_3490" x1="0.94413" y1="0.73696" x2="0.06208" y2="0.26556">
   <stop stop-color="#8DC7FF"/>
   <stop offset="0.32" stop-color="#5C4D86"/>
  </linearGradient>
  <radialGradient id="paint38_radial_110_3490" cx="0" cy="0" r="1" gradientUnits="userSpaceOnUse" gradientTransform="translate(592.409 83.7722) rotate(-61.702) scale(0.631788 0.625593)">
   <stop offset="0.02" stop-color="#8881BC"/>
   <stop offset="0.29" stop-color="#8375B7"/>
   <stop offset="0.77" stop-color="#7555AA"/>
   <stop offset="1" stop-color="#6D43A3"/>
  </radialGradient>
  <radialGradient id="paint39_radial_110_3490" cx="0" cy="0" r="1" gradientUnits="userSpaceOnUse" gradientTransform="translate(562.695 82.7423) rotate(-61.702) scale(0.631788 0.625593)">
   <stop stop-color="#F4BAB3"/>
   <stop offset="1" stop-color="#8D6FC7"/>
  </radialGradient>
  <radialGradient id="paint40_radial_110_3490" cx="0" cy="0" r="1" gradientUnits="userSpaceOnUse" gradientTransform="translate(553.483 76.1876) rotate(-61.702) scale(0.631788 0.625595)">
   <stop stop-color="#F4BAB3"/>
   <stop offset="1" stop-color="#8D6FC7"/>
  </radialGradient>
  <radialGradient id="paint41_radial_110_3490" cx="0" cy="0" r="1" gradientUnits="userSpaceOnUse" gradientTransform="translate(574.047 80.3443) rotate(-61.702) scale(0.631788 0.625595)">
   <stop stop-color="#F4BAB3"/>
   <stop offset="1" stop-color="#8D6FC7"/>
  </radialGradient>
  <radialGradient id="paint42_radial_110_3490" cx="0" cy="0" r="1" gradientUnits="userSpaceOnUse" gradientTransform="translate(580.766 69.8823) rotate(-61.702) scale(0.631788 0.625593)">
   <stop stop-color="#F4BAB3"/>
   <stop offset="1" stop-color="#8D6FC7"/>
  </radialGradient>
  <radialGradient id="paint43_radial_110_3490" cx="0" cy="0" r="1" gradientUnits="userSpaceOnUse" gradientTransform="translate(578.232 58.9855) rotate(-61.702) scale(0.631788 0.625595)">
   <stop stop-color="#F4BAB3"/>
   <stop offset="1" stop-color="#8D6FC7"/>
  </radialGradient>
  <radialGradient id="paint44_radial_110_3490" cx="0" cy="0" r="1" gradientUnits="userSpaceOnUse" gradientTransform="translate(565.253 53.4585) rotate(-61.702) scale(0.631788 0.625595)">
   <stop stop-color="#F4BAB3"/>
   <stop offset="1" stop-color="#8D6FC7"/>
  </radialGradient>
  <radialGradient id="paint45_radial_110_3490" cx="0" cy="0" r="1" gradientUnits="userSpaceOnUse" gradientTransform="translate(555.886 55.5799) rotate(-61.702) scale(0.631788 0.625595)">
   <stop stop-color="#F4BAB3"/>
   <stop offset="1" stop-color="#8D6FC7"/>
  </radialGradient>
  <radialGradient id="paint46_radial_110_3490" cx="0" cy="0" r="1" gradientUnits="userSpaceOnUse" gradientTransform="translate(549.85 64.3909) rotate(-61.702) scale(0.631788 0.625593)">
   <stop stop-color="#F4BAB3"/>
   <stop offset="1" stop-color="#8D6FC7"/>
  </radialGradient>
  <linearGradient id="paint47_linear_110_3490" x1="1.00518" y1="0.91688" x2="0.00518" y2="0.08297">
   <stop stop-color="#A43411"/>
   <stop offset="1" stop-color="#C73634"/>
  </linearGradient>
  <linearGradient id="paint48_linear_110_3490" x1="0.42707" y1="1.01468" x2="0.68941" y2="0.2158">
   <stop stop-color="#FFFF18"/>
   <stop offset="1" stop-color="#FF7400"/>
  </linearGradient>
  <linearGradient id="paint49_linear_110_3490" x1="0.26294" y1="0.91794" x2="0.60513" y2="0.30132">
   <stop stop-color="#FFFF18"/>
   <stop offset="1" stop-color="#FF7400"/>
  </linearGradient>
  <linearGradient id="paint50_linear_110_3490" x1="0.96529" y1="0.79684" x2="0.03504" y2="0.20375">
   <stop stop-color="#8DC7FF"/>
   <stop offset="0.32" stop-color="#5C4D86"/>
  </linearGradient>
  <linearGradient id="paint51_linear_110_3490" x1="0.96855" y1="0.77515" x2="0.03754" y2="0.22809">
   <stop stop-color="#8DC7FF"/>
   <stop offset="0.32" stop-color="#5C4D86"/>
  </linearGradient>
  <linearGradient id="paint52_linear_110_3490" x1="0.93908" y1="0.73506" x2="0.06242" y2="0.26574">
   <stop stop-color="#8DC7FF"/>
   <stop offset="0.32" stop-color="#5C4D86"/>
  </linearGradient>
  <radialGradient id="paint53_radial_110_3490" cx="0" cy="0" r="1" gradientUnits="userSpaceOnUse" gradientTransform="translate(604.135 88.0346) rotate(-82.7944) scale(5.38395 5.317)">
   <stop stop-color="#003CEE"/>
   <stop offset="0.06" stop-color="#0036D6"/>
   <stop offset="0.2" stop-color="#00289E"/>
   <stop offset="0.34" stop-color="#001C6D"/>
   <stop offset="0.48" stop-color="#001246"/>
   <stop offset="0.62" stop-color="#000A27"/>
   <stop offset="0.75" stop-color="#000412"/>
   <stop offset="0.88" stop-color="#000104"/>
   <stop offset="1"/>
  </radialGradient>
  <radialGradient id="paint54_radial_110_3490" cx="0" cy="0" r="1" gradientUnits="userSpaceOnUse" gradientTransform="translate(572.812 46.3761) rotate(-82.7943) scale(4.29561 4.24218)">
   <stop stop-color="#FF9A00"/>
   <stop offset="0.09" stop-color="#D68100"/>
   <stop offset="0.23" stop-color="#9E5F00"/>
   <stop offset="0.36" stop-color="#6E4200"/>
   <stop offset="0.5" stop-color="#462A00"/>
   <stop offset="0.63" stop-color="#271800"/>
   <stop offset="0.76" stop-color="#120B00"/>
   <stop offset="0.89" stop-color="#040300"/>
   <stop offset="1"/>
  </radialGradient>
  <radialGradient id="paint55_radial_110_3490" cx="0" cy="0" r="1" gradientUnits="userSpaceOnUse" gradientTransform="translate(536.693 52.9221) rotate(-82.7943) scale(4.29561 4.24218)">
   <stop stop-color="#FF9A00"/>
   <stop offset="0.09" stop-color="#D68100"/>
   <stop offset="0.23" stop-color="#9E5F00"/>
   <stop offset="0.36" stop-color="#6E4200"/>
   <stop offset="0.5" stop-color="#462A00"/>
   <stop offset="0.63" stop-color="#271800"/>
   <stop offset="0.76" stop-color="#120B00"/>
   <stop offset="0.89" stop-color="#040300"/>
   <stop offset="1"/>
  </radialGradient>
  <radialGradient id="paint56_radial_110_3490" cx="0" cy="0" r="1" gradientUnits="userSpaceOnUse" gradientTransform="translate(551.257 86.0537) rotate(-82.7944) scale(2.22003 2.19243)">
   <stop stop-color="#FF9A00"/>
   <stop offset="0.09" stop-color="#D68100"/>
   <stop offset="0.23" stop-color="#9E5F00"/>
   <stop offset="0.36" stop-color="#6E4200"/>
   <stop offset="0.5" stop-color="#462A00"/>
   <stop offset="0.63" stop-color="#271800"/>
   <stop offset="0.76" stop-color="#120B00"/>
   <stop offset="0.89" stop-color="#040300"/>
   <stop offset="1"/>
  </radialGradient>
  <radialGradient id="paint57_radial_110_3490" cx="0" cy="0" r="1" gradientUnits="userSpaceOnUse" gradientTransform="translate(609.889 77.5569) rotate(-82.7944) scale(2.07556 2.04976)">
   <stop stop-color="#003CEE"/>
   <stop offset="0.06" stop-color="#0036D6"/>
   <stop offset="0.2" stop-color="#00289E"/>
   <stop offset="0.34" stop-color="#001C6D"/>
   <stop offset="0.48" stop-color="#001246"/>
   <stop offset="0.62" stop-color="#000A27"/>
   <stop offset="0.75" stop-color="#000412"/>
   <stop offset="0.88" stop-color="#000104"/>
   <stop offset="1"/>
  </radialGradient>
  <radialGradient id="paint58_radial_110_3490" cx="0" cy="0" r="1" gradientUnits="userSpaceOnUse" gradientTransform="translate(599.009 101.965) rotate(-82.7944) scale(2.07556 2.04975)">
   <stop stop-color="#003CEE"/>
   <stop offset="0.06" stop-color="#0036D6"/>
   <stop offset="0.2" stop-color="#00289E"/>
   <stop offset="0.34" stop-color="#001C6D"/>
   <stop offset="0.48" stop-color="#001246"/>
   <stop offset="0.62" stop-color="#000A27"/>
   <stop offset="0.75" stop-color="#000412"/>
   <stop offset="0.88" stop-color="#000104"/>
   <stop offset="1"/>
  </radialGradient>
 </defs>
 <g>
  <title>Layer 1</title>
  <g clip-path="url(#clip1_110_3490)" id="svg_195">
   <path d="m624.797,111.23l39.763,19.951l7.303,-16.95l-37.406,-20.5624c0,0 -7.932,12.3284 -9.66,17.5614z" fill="url(#paint23_linear_110_3490)" id="svg_196"/>
   <path fill-rule="evenodd" clip-rule="evenodd" d="m618.133,76.4162l2.417,-7.4468c0,0 13.053,5.6245 22.592,21.2759l-0.346,0.6415l-18.393,-10.5662l-0.775,1.332l-5.495,-5.2364z" fill="url(#paint24_linear_110_3490)" id="svg_197"/>
   <path fill-rule="evenodd" clip-rule="evenodd" d="m601.491,107.401l-5.022,6.281c0,0 11.883,7.797 30.199,7.147l0.346,-0.642l-18.939,-9.518l0.685,-1.381l-7.269,-1.887z" fill="url(#paint25_linear_110_3490)" id="svg_198"/>
   <path fill-rule="evenodd" clip-rule="evenodd" d="m537.364,52.9408c-4.727,8.7797 8.782,33.7856 28.847,43.156c20.064,9.3702 53.515,15.6912 53.515,15.6912l6.166,-11.188l5.945,-11.3055c0,0 -23.71,-24.4472 -42.562,-36.0367c-18.852,-11.5895 -47.216,-9.0374 -51.911,-0.317z" fill="url(#paint26_radial_110_3490)" id="svg_199"/>
   <path fill-rule="evenodd" clip-rule="evenodd" d="m619.73,111.794c0,0 5.762,-13.4097 12.111,-22.4936c0,0 -5.532,13.2266 -12.111,22.4936z" fill="#31165F" id="svg_200"/>
   <path fill-rule="evenodd" clip-rule="evenodd" d="m539.821,69.4778c0,0 2.798,-14.5315 14.082,-23.7245c0,0 -13.053,0.8485 -16.539,7.1874c-3.137,5.7034 2.457,16.5371 2.457,16.5371z" fill="url(#paint27_radial_110_3490)" id="svg_201"/>
   <path d="m554.014,45.893c-10.602,8.467 -13.977,23.4563 -14.018,23.6202l-0.347,-0.0736c0.03,-0.1513 3.44,-15.2789 14.147,-23.8246l0.218,0.278z" fill="#53345F" id="svg_202"/>
   <path fill-rule="evenodd" clip-rule="evenodd" d="m536.459,56.2662l3.868,-6.3991c0,0 -4.145,2.0658 -3.868,6.3991z" fill="#53345F" id="svg_203"/>
   <path fill-rule="evenodd" clip-rule="evenodd" d="m536.641,55.1834c0.464,-1.3283 1.101,-2.5894 1.896,-3.7507c0,0 -3.481,-0.941 -4.196,0.1287c-0.714,1.0696 2.3,3.622 2.3,3.622z" fill="url(#paint28_linear_110_3490)" id="svg_204"/>
   <path opacity="0.5" fill-rule="evenodd" clip-rule="evenodd" d="m598.036,106.824c0,0 4.065,-22.2875 16.125,-34.3289c7.12,6.2463 17.678,16.8081 17.678,16.8081c0,0 -5.823,7.9525 -12.11,22.4928c0.002,-0.002 -11.263,-1.562 -21.693,-4.972z" fill="url(#paint29_radial_110_3490)" id="svg_205"/>
   <path opacity="0.5" fill-rule="evenodd" clip-rule="evenodd" d="m551.035,61.249c-3.65,8.2409 2.641,18.9176 10.588,23.6625c7.946,4.7449 16.975,-0.1038 21.073,-8.2565c4.098,-8.1526 2.226,-17.7551 -7.192,-21.6227c-8.506,-3.5082 -20.413,-2.9423 -24.469,6.2167z" fill="url(#paint30_radial_110_3490)" id="svg_206"/>
   <path fill-rule="evenodd" clip-rule="evenodd" d="m549.738,60.5507c-3.65,8.2409 2.641,18.9177 10.587,23.6625c7.947,4.7449 16.976,-0.1038 21.077,-8.2549c4.1,-8.1511 2.225,-17.7552 -7.195,-21.6242c-8.503,-3.5068 -20.41,-2.9408 -24.469,6.2166z" fill="#31165F" id="svg_207"/>
   <path fill-rule="evenodd" clip-rule="evenodd" d="m548.834,60.0638c-3.65,8.2408 2.641,18.9176 10.587,23.6625c7.946,4.7449 16.976,-0.1039 21.076,-8.255c4.101,-8.151 2.226,-17.7551 -7.194,-21.6242c-8.504,-3.5067 -20.41,-2.9408 -24.469,6.2167z" fill="url(#paint31_radial_110_3490)" id="svg_208"/>
   <path fill-rule="evenodd" clip-rule="evenodd" d="m552.022,61.1023c-3.393,7.3296 2.023,14.8382 8.236,18.5513c6.213,3.7131 13.27,-0.1198 16.492,-6.5241c3.222,-6.4043 1.774,-13.9235 -5.574,-16.9501c-6.664,-2.746 -15.623,-2.74 -19.154,4.9229z" fill="#A6345F" id="svg_209"/>
   <path fill-rule="evenodd" clip-rule="evenodd" d="m578.027,65.2476c0.328,2.692 -0.169,5.4202 -1.427,7.8228c-3.066,6.0945 -10.463,10.0766 -16.367,6.548c-2.021,-1.2046 -3.797,-2.7792 -5.235,-4.6414c-2.83,-3.6739 -4.094,-8.4406 -1.925,-13.349c3.183,-7.267 11.901,-7.2933 18.227,-4.6896c4.06,1.6937 6.221,4.8147 6.727,8.3092z" fill="url(#paint32_linear_110_3490)" id="svg_210"/>
   <path d="m581.415,75.94l-0.085,0.1583l22.612,12.1742l0.085,-0.1582l-22.612,-12.1743z" fill="#53345F" id="svg_211"/>
   <path d="m598.111,106.835l-0.174,-0.036c5.472,-25.0573 16.046,-34.279 16.15,-34.3692l0.116,0.1356c-0.096,0.0976 -10.621,9.2878 -16.092,34.2696z" fill="#53345F" id="svg_212"/>
   <path d="m589.665,104.486l-0.177,0.017c-0.01,-0.089 -0.7,-9.1246 5.075,-21.3748l0.155,0.0837c-5.765,12.1974 -5.06,21.1861 -5.053,21.2741z" fill="#53345F" id="svg_213"/>
   <path fill-rule="evenodd" clip-rule="evenodd" d="m621.659,94.3339l-9.928,-4.937l0.778,-3.0622l10.289,5.8826l-1.139,2.1166z" fill="#31165F" id="svg_214"/>
   <path fill-rule="evenodd" clip-rule="evenodd" d="m620.929,110.041c0,0 4.33,-10.2695 10.327,-19.3899l4.053,2.9442l-10.293,17.9677l-4.087,-1.522z" fill="url(#paint33_radial_110_3490)" id="svg_215"/>
   <path opacity="0.5" fill-rule="evenodd" clip-rule="evenodd" d="m622.997,110.804c0.141,-3.016 0.985,-5.958 2.464,-8.591c2.452,-4.337 8.914,-9.3064 8.914,-9.3064l-3.119,-2.2555c0,0 -6.625,9.8939 -10.327,19.3899l2.068,0.763z" fill="#31165F" id="svg_216"/>
   <path d="m558.091,58.7314c1.952,-0.599 3.989,-0.874 6.03,-0.814l-0.052,-1.9961c0,0 -3.419,-0.3317 -5.58,1.326l-0.398,1.4841z" fill="white" id="svg_217"/>
   <path d="m563.405,78.4938l2.874,-0.0782l0.056,1.6559l-2.322,-0.0803l-0.608,-1.4974z" fill="white" id="svg_218"/>
   <path opacity="0.5" fill-rule="evenodd" clip-rule="evenodd" d="m542.403,74.148c0,0 0.35,-15.849 15.394,-28.6531l-3.894,0.2584c0,0 -9.37,7.0196 -14.082,23.7246l2.582,4.6701z" fill="url(#paint34_radial_110_3490)" id="svg_219"/>
   <path fill-rule="evenodd" clip-rule="evenodd" d="m595.797,84.5326c0.092,0.0498 0.173,0.1173 0.238,0.1985c0.066,0.0812 0.115,0.1746 0.144,0.2747c0.029,0.1002 0.039,0.2052 0.028,0.3089c-0.012,0.1038 -0.043,0.2043 -0.094,0.2958c-0.099,0.1858 -0.267,0.3247 -0.469,0.3865c-0.201,0.0617 -0.418,0.0411 -0.605,-0.0572c-0.184,-0.1013 -0.321,-0.2716 -0.38,-0.4736c-0.06,-0.202 -0.036,-0.4193 0.064,-0.6043c0.049,-0.0923 0.115,-0.174 0.196,-0.2406c0.08,-0.0665 0.173,-0.1165 0.273,-0.1471c0.099,-0.0306 0.204,-0.0412 0.308,-0.0312c0.104,0.01 0.205,0.0405 0.297,0.0896z" fill="url(#paint35_linear_110_3490)" id="svg_220"/>
   <path fill-rule="evenodd" clip-rule="evenodd" d="m595.721,84.6739c0.145,0.0835 0.251,0.22 0.297,0.3806c0.045,0.1607 0.026,0.3327 -0.053,0.4797c-0.079,0.147 -0.212,0.2574 -0.371,0.3079c-0.16,0.0504 -0.332,0.0368 -0.481,-0.0379c-0.145,-0.0835 -0.251,-0.2201 -0.297,-0.3807c-0.045,-0.1606 -0.026,-0.3327 0.053,-0.4796c0.079,-0.1471 0.212,-0.2575 0.371,-0.3079c0.159,-0.0504 0.332,-0.0368 0.481,0.0379z" fill="url(#paint36_radial_110_3490)" id="svg_221"/>
   <path fill-rule="evenodd" clip-rule="evenodd" d="m592.364,82.6841c0.183,0.1025 0.319,0.2733 0.377,0.4751c0.057,0.2019 0.033,0.4185 -0.068,0.6025c-0.1,0.1857 -0.269,0.3243 -0.471,0.3857c-0.201,0.0614 -0.419,0.0406 -0.606,-0.0578c-0.181,-0.1027 -0.316,-0.2728 -0.373,-0.4736c-0.058,-0.2008 -0.034,-0.4162 0.066,-0.5997c0.048,-0.0928 0.114,-0.175 0.195,-0.242c0.08,-0.0669 0.173,-0.1173 0.273,-0.1482c0.1,-0.0308 0.205,-0.0416 0.309,-0.0317c0.105,0.01 0.206,0.0404 0.298,0.0897z" fill="url(#paint37_linear_110_3490)" id="svg_222"/>
   <path fill-rule="evenodd" clip-rule="evenodd" d="m592.288,82.8253c0.145,0.0835 0.251,0.2201 0.296,0.3807c0.046,0.1606 0.027,0.3327 -0.052,0.4796c-0.079,0.1471 -0.212,0.2575 -0.372,0.3079c-0.159,0.0504 -0.331,0.0368 -0.481,-0.0379c-0.073,-0.0397 -0.137,-0.0937 -0.189,-0.1587c-0.052,-0.065 -0.09,-0.1397 -0.112,-0.2198c-0.023,-0.08 -0.029,-0.1638 -0.019,-0.2463c0.011,-0.0824 0.038,-0.162 0.079,-0.234c0.037,-0.0743 0.089,-0.1405 0.152,-0.1947c0.063,-0.0541 0.137,-0.095 0.216,-0.1203c0.079,-0.0253 0.163,-0.0345 0.245,-0.027c0.083,0.0075 0.164,0.0314 0.237,0.0705z" fill="url(#paint38_radial_110_3490)" id="svg_223"/>
   <path d="m563.052,82.7578c0.209,-0.3886 0.067,-0.8712 -0.316,-1.0779c-0.384,-0.2067 -0.865,-0.0592 -1.074,0.3294c-0.21,0.3886 -0.068,0.8712 0.316,1.0779c0.384,0.2067 0.865,0.0592 1.074,-0.3294z" fill="#31165F" id="svg_224"/>
   <path fill-rule="evenodd" clip-rule="evenodd" d="m562.658,81.8169c0.145,0.0835 0.251,0.2201 0.297,0.3807c0.045,0.1606 0.026,0.3326 -0.053,0.4796c-0.079,0.147 -0.212,0.2575 -0.371,0.3079c-0.16,0.0504 -0.332,0.0368 -0.481,-0.0379c-0.144,-0.0839 -0.25,-0.2204 -0.295,-0.3807c-0.045,-0.1602 -0.026,-0.3316 0.053,-0.4781c0.038,-0.0744 0.089,-0.1406 0.152,-0.1947c0.063,-0.0541 0.137,-0.095 0.216,-0.1203c0.079,-0.0253 0.163,-0.0345 0.245,-0.027c0.083,0.0075 0.164,0.0314 0.237,0.0705z" fill="url(#paint39_radial_110_3490)" id="svg_225"/>
   <path fill-rule="evenodd" clip-rule="evenodd" d="m553.552,75.1429c0.185,0.1013 0.322,0.2716 0.381,0.4736c0.06,0.2021 0.036,0.4193 -0.064,0.6043c-0.049,0.0924 -0.116,0.1743 -0.196,0.2411c-0.08,0.0667 -0.173,0.1169 -0.273,0.1478c-0.1,0.0308 -0.205,0.0417 -0.309,0.032c-0.104,-0.0098 -0.205,-0.0399 -0.298,-0.0887c-0.091,-0.0503 -0.172,-0.1181 -0.238,-0.1997c-0.065,-0.0815 -0.114,-0.1751 -0.143,-0.2755c-0.029,-0.1003 -0.038,-0.2055 -0.027,-0.3094c0.011,-0.1039 0.043,-0.2045 0.094,-0.2961c0.099,-0.1858 0.267,-0.3248 0.468,-0.3865c0.202,-0.0617 0.419,-0.0412 0.605,0.0571z" fill="#31165F" id="svg_226"/>
   <path fill-rule="evenodd" clip-rule="evenodd" d="m553.472,75.2928c0.144,0.0835 0.251,0.2201 0.296,0.3807c0.046,0.1606 0.027,0.3326 -0.052,0.4796c-0.079,0.147 -0.213,0.2575 -0.372,0.3079c-0.159,0.0504 -0.332,0.0368 -0.481,-0.0379c-0.144,-0.0835 -0.251,-0.2201 -0.296,-0.3807c-0.046,-0.1606 -0.027,-0.3327 0.052,-0.4796c0.079,-0.1471 0.213,-0.2575 0.372,-0.3079c0.159,-0.0504 0.331,-0.0368 0.481,0.0379z" fill="url(#paint40_radial_110_3490)" id="svg_227"/>
   <path fill-rule="evenodd" clip-rule="evenodd" d="m574.056,79.2784c0.092,0.0499 0.172,0.1173 0.238,0.1985c0.066,0.0813 0.114,0.1746 0.144,0.2748c0.029,0.1001 0.039,0.2051 0.027,0.3089c-0.011,0.1037 -0.043,0.2042 -0.093,0.2957c-0.099,0.1858 -0.268,0.3248 -0.469,0.3865c-0.201,0.0617 -0.419,0.0412 -0.605,-0.0571c-0.184,-0.1013 -0.321,-0.2716 -0.381,-0.4736c-0.059,-0.2021 -0.036,-0.4193 0.065,-0.6043c0.049,-0.0923 0.115,-0.1741 0.195,-0.2406c0.081,-0.0665 0.174,-0.1166 0.273,-0.1472c0.1,-0.0306 0.205,-0.0412 0.309,-0.0311c0.104,0.01 0.205,0.0404 0.297,0.0895z" fill="#31165F" id="svg_228"/>
   <path fill-rule="evenodd" clip-rule="evenodd" d="m573.975,79.4281c0.145,0.0836 0.251,0.2201 0.297,0.3807c0.045,0.1607 0.026,0.3327 -0.053,0.4797c-0.079,0.147 -0.212,0.2574 -0.371,0.3078c-0.16,0.0505 -0.332,0.0369 -0.481,-0.0378c-0.145,-0.0836 -0.251,-0.2201 -0.297,-0.3807c-0.045,-0.1606 -0.027,-0.3327 0.053,-0.4797c0.079,-0.147 0.212,-0.2574 0.371,-0.3078c0.159,-0.0504 0.332,-0.0369 0.481,0.0378z" fill="url(#paint41_radial_110_3490)" id="svg_229"/>
   <path fill-rule="evenodd" clip-rule="evenodd" d="m580.762,68.8268c0.092,0.0499 0.173,0.1174 0.239,0.1987c0.065,0.0813 0.114,0.1747 0.144,0.2749c0.03,0.1002 0.039,0.2053 0.028,0.3092c-0.011,0.104 -0.042,0.2048 -0.092,0.2966c-0.1,0.1856 -0.269,0.3242 -0.471,0.3857c-0.202,0.0614 -0.419,0.0406 -0.606,-0.0579c-0.184,-0.1013 -0.321,-0.2716 -0.381,-0.4736c-0.059,-0.202 -0.036,-0.4193 0.065,-0.6043c0.049,-0.0923 0.115,-0.174 0.196,-0.2406c0.08,-0.0665 0.173,-0.1165 0.273,-0.1471c0.099,-0.0306 0.204,-0.0412 0.308,-0.0312c0.104,0.01 0.205,0.0405 0.297,0.0896z" fill="#31165F" id="svg_230"/>
   <path fill-rule="evenodd" clip-rule="evenodd" d="m580.681,68.9766c0.145,0.0835 0.251,0.22 0.296,0.3806c0.046,0.1607 0.027,0.3327 -0.052,0.4797c-0.079,0.147 -0.212,0.2574 -0.372,0.3078c-0.159,0.0504 -0.331,0.0369 -0.481,-0.0378c-0.073,-0.0398 -0.137,-0.0937 -0.189,-0.1588c-0.051,-0.065 -0.09,-0.1397 -0.112,-0.2198c-0.023,-0.08 -0.029,-0.1637 -0.019,-0.2462c0.011,-0.0825 0.038,-0.1621 0.079,-0.234c0.038,-0.0744 0.089,-0.1406 0.152,-0.1947c0.063,-0.0541 0.137,-0.095 0.216,-0.1203c0.079,-0.0253 0.163,-0.0345 0.245,-0.0271c0.083,0.0075 0.164,0.0315 0.237,0.0706z" fill="url(#paint42_radial_110_3490)" id="svg_231"/>
   <path d="m578.561,59.029c0.209,-0.3886 0.068,-0.8711 -0.316,-1.0778c-0.384,-0.2067 -0.865,-0.0593 -1.074,0.3293c-0.209,0.3886 -0.068,0.8712 0.316,1.0779c0.384,0.2067 0.865,0.0592 1.074,-0.3294z" fill="#31165F" id="svg_232"/>
   <path fill-rule="evenodd" clip-rule="evenodd" d="m578.168,58.0924c0.145,0.0836 0.251,0.2201 0.297,0.3807c0.045,0.1607 0.027,0.3327 -0.053,0.4797c-0.079,0.147 -0.212,0.2574 -0.371,0.3078c-0.159,0.0505 -0.332,0.0369 -0.481,-0.0378c-0.145,-0.0836 -0.251,-0.2201 -0.296,-0.3807c-0.046,-0.1606 -0.027,-0.3327 0.052,-0.4796c0.079,-0.1471 0.212,-0.2575 0.371,-0.3079c0.16,-0.0504 0.332,-0.0368 0.481,0.0378z" fill="url(#paint43_radial_110_3490)" id="svg_233"/>
   <path fill-rule="evenodd" clip-rule="evenodd" d="m565.307,52.4436c0.092,0.0499 0.173,0.1173 0.239,0.1985c0.065,0.0813 0.114,0.1746 0.143,0.2748c0.03,0.1001 0.039,0.2051 0.028,0.3088c-0.011,0.1038 -0.043,0.2043 -0.093,0.2958c-0.099,0.1858 -0.268,0.3248 -0.469,0.3865c-0.202,0.0617 -0.419,0.0412 -0.605,-0.0572c-0.184,-0.101 -0.321,-0.2707 -0.381,-0.472c-0.059,-0.2014 -0.037,-0.4181 0.063,-0.603c0.048,-0.0927 0.115,-0.175 0.195,-0.2419c0.081,-0.067 0.173,-0.1173 0.273,-0.1482c0.1,-0.0309 0.205,-0.0417 0.31,-0.0317c0.104,0.0099 0.205,0.0404 0.297,0.0896z" fill="#31165F" id="svg_234"/>
   <path fill-rule="evenodd" clip-rule="evenodd" d="m565.231,52.5849c0.145,0.0835 0.251,0.2201 0.297,0.3807c0.045,0.1606 0.027,0.3326 -0.053,0.4796c-0.079,0.147 -0.212,0.2575 -0.371,0.3079c-0.159,0.0504 -0.332,0.0368 -0.481,-0.0379c-0.145,-0.0835 -0.251,-0.2201 -0.297,-0.3807c-0.045,-0.1606 -0.026,-0.3327 0.053,-0.4796c0.079,-0.147 0.212,-0.2575 0.371,-0.3079c0.16,-0.0504 0.332,-0.0368 0.481,0.0379z" fill="url(#paint44_radial_110_3490)" id="svg_235"/>
   <path fill-rule="evenodd" clip-rule="evenodd" d="m555.963,54.5675c0.091,0.0498 0.172,0.1173 0.238,0.1985c0.065,0.0812 0.114,0.1746 0.144,0.2747c0.029,0.1002 0.038,0.2052 0.027,0.3089c-0.011,0.1038 -0.043,0.2043 -0.093,0.2958c-0.099,0.1858 -0.268,0.3247 -0.469,0.3865c-0.201,0.0617 -0.419,0.0411 -0.605,-0.0572c-0.185,-0.1013 -0.322,-0.2716 -0.381,-0.4736c-0.059,-0.202 -0.036,-0.4193 0.065,-0.6042c0.048,-0.0923 0.115,-0.1741 0.195,-0.2406c0.081,-0.0666 0.173,-0.1166 0.273,-0.1472c0.1,-0.0306 0.205,-0.0412 0.309,-0.0312c0.104,0.0101 0.204,0.0405 0.297,0.0896z" fill="#31165F" id="svg_236"/>
   <path fill-rule="evenodd" clip-rule="evenodd" d="m555.882,54.7172c0.145,0.0835 0.251,0.2201 0.297,0.3807c0.045,0.1606 0.026,0.3327 -0.053,0.4796c-0.079,0.147 -0.212,0.2575 -0.371,0.3079c-0.159,0.0504 -0.332,0.0368 -0.481,-0.0379c-0.145,-0.0835 -0.251,-0.22 -0.297,-0.3807c-0.045,-0.1606 -0.026,-0.3326 0.053,-0.4796c0.079,-0.147 0.212,-0.2574 0.371,-0.3079c0.16,-0.0504 0.332,-0.0368 0.481,0.0379z" fill="url(#paint45_radial_110_3490)" id="svg_237"/>
   <path fill-rule="evenodd" clip-rule="evenodd" d="m549.94,63.3713c0.185,0.1013 0.321,0.2716 0.381,0.4736c0.059,0.202 0.036,0.4193 -0.065,0.6042c-0.048,0.0923 -0.115,0.1741 -0.195,0.2407c-0.081,0.0665 -0.173,0.1165 -0.273,0.1471c-0.1,0.0306 -0.205,0.0412 -0.309,0.0312c-0.104,-0.01 -0.205,-0.0405 -0.297,-0.0896c-0.091,-0.0499 -0.173,-0.1174 -0.238,-0.1987c-0.066,-0.0812 -0.115,-0.1747 -0.145,-0.2749c-0.029,-0.1002 -0.039,-0.2053 -0.028,-0.3093c0.011,-0.1039 0.042,-0.2047 0.092,-0.2965c0.1,-0.1856 0.269,-0.3243 0.471,-0.3857c0.202,-0.0614 0.42,-0.0406 0.606,0.0579z" fill="#31165F" id="svg_238"/>
   <path fill-rule="evenodd" clip-rule="evenodd" d="m549.859,63.521c0.073,0.0398 0.138,0.0938 0.19,0.1588c0.051,0.065 0.09,0.1397 0.112,0.2198c0.023,0.08 0.029,0.1637 0.018,0.2462c-0.01,0.0825 -0.037,0.1621 -0.079,0.234c-0.037,0.0744 -0.088,0.1406 -0.151,0.1947c-0.064,0.0541 -0.137,0.095 -0.216,0.1203c-0.079,0.0253 -0.163,0.0345 -0.246,0.0271c-0.082,-0.0075 -0.163,-0.0315 -0.236,-0.0705c-0.145,-0.0836 -0.251,-0.2201 -0.297,-0.3808c-0.045,-0.1606 -0.026,-0.3326 0.053,-0.4796c0.079,-0.147 0.212,-0.2574 0.371,-0.3078c0.16,-0.0505 0.332,-0.0369 0.481,0.0378z" fill="url(#paint46_radial_110_3490)" id="svg_239"/>
   <path fill-rule="evenodd" clip-rule="evenodd" d="m627.007,120.198l0.279,-0.517l-18.966,-9.544l-0.257,0.525l18.944,9.536z" fill="#6F2561" id="svg_240"/>
   <path fill-rule="evenodd" clip-rule="evenodd" d="m624.405,80.3106l-0.297,0.5037l18.498,10.4114l0.189,-0.3504l-18.39,-10.5647z" fill="#6F2561" id="svg_241"/>
   <path fill-rule="evenodd" clip-rule="evenodd" d="m608.251,84.7715l0.998,-1.8537l28.331,17.6442l-0.695,1.292l-28.634,-17.0825z" fill="url(#paint47_linear_110_3490)" id="svg_242"/>
   <path fill-rule="evenodd" clip-rule="evenodd" d="m608.251,84.7715l5.796,4.786l22.838,12.2965l-28.634,-17.0825z" fill="#FF4C61" id="svg_243"/>
   <path opacity="0.5" fill-rule="evenodd" clip-rule="evenodd" d="m610.12,83.4596l21.721,5.8408l-2.656,4.3509l4.626,2.5638l-0.806,1.4976l-22.885,-14.2531z" fill="#31165F" id="svg_244"/>
   <path d="m547.243,78.5763c0,0 -2.117,-0.9026 -2.663,-2.8662l0.618,-1.0267c0.836,1.0789 1.614,2.201 2.331,3.3617l-0.286,0.5312z" fill="white" id="svg_245"/>
   <g id="svg_246">
    <path d="m609.205,69.8382l-7.679,-6.6351l0.29,-0.5397l7.733,6.5361l-0.344,0.6387z" fill="white" id="svg_247"/>
   </g>
   <path fill-rule="evenodd" clip-rule="evenodd" d="m571.382,46.5765c0,0 1.094,-3.6357 3.606,0.7969l-3.606,-0.7969z" fill="url(#paint48_linear_110_3490)" id="svg_248"/>
   <path fill-rule="evenodd" clip-rule="evenodd" d="m550.412,84.482c0,0 -0.745,3.5169 2.528,2.4945l-2.528,-2.4945z" fill="url(#paint49_linear_110_3490)" id="svg_249"/>
   <g opacity="0.5" id="svg_250">
    <path fill-rule="evenodd" clip-rule="evenodd" d="m621.121,108.446c0,0 -30.394,-5.459 -51.464,-12.535l-0.041,1.0426c0,0 31.745,11.9664 50.317,14.3694l1.188,-2.877z" fill="white" id="svg_251"/>
   </g>
   <g id="svg_252">
    <path fill-rule="evenodd" clip-rule="evenodd" d="m599.705,61.8398l-4.853,-3.8701l0.277,-0.5143l4.853,3.8701l-0.277,0.5143z" fill="white" id="svg_253"/>
   </g>
   <g id="svg_254">
    <path fill-rule="evenodd" clip-rule="evenodd" d="m590.069,100.65c0,0 0.546,-6.938 2.911,-12.5497c0,0 -1.688,5.951 -2.911,12.5497z" fill="white" id="svg_255"/>
   </g>
   <g id="svg_256">
    <path fill-rule="evenodd" clip-rule="evenodd" d="m583.615,76.8911l19.892,10.5383c0,0 -6.997,-4.2193 -19.892,-10.5383z" fill="white" id="svg_257"/>
   </g>
   <g id="svg_258">
    <path fill-rule="evenodd" clip-rule="evenodd" d="m599.4,102.328c0,0 3.312,-15.4396 12.686,-26.9003c0.014,0.0076 -7.403,8.2393 -12.686,26.9003z" fill="white" id="svg_259"/>
   </g>
   <path fill-rule="evenodd" clip-rule="evenodd" d="m548.96,71.3252c0,0 1.703,-1.4304 -1.08,-4.3031c0.183,1.4729 0.546,2.918 1.08,4.3031z" fill="white" id="svg_260"/>
   <g id="svg_261">
    <path fill-rule="evenodd" clip-rule="evenodd" d="m581.257,73.8245c0,0 2.126,-4.4904 0.227,-12.1826c-0.014,-0.0076 2.586,5.394 -0.227,12.1826z" fill="white" id="svg_262"/>
   </g>
   <g id="svg_263">
    <path fill-rule="evenodd" clip-rule="evenodd" d="m576.569,73.4327c0,0 4.08,-2.7239 1.763,-7.3358c0.008,0.0045 0.706,2.9937 -1.763,7.3358z" fill="white" id="svg_264"/>
   </g>
   <g opacity="0.36" id="svg_265">
    <g opacity="0.36" id="svg_266">
     <path fill-rule="evenodd" clip-rule="evenodd" d="m584.657,78.7462c0.031,0.3082 0.009,0.8574 0.39,0.9681c0.179,0.0303 0.359,0.0506 0.54,0.0608c0.158,0.0305 0.312,0.077 0.461,0.1389c0.244,0.1012 0.511,0.1303 0.771,0.0836c0.167,-0.0452 0.116,-0.2147 0.042,-0.3419c-0.062,-0.1453 -0.161,-0.2717 -0.287,-0.3662c-0.179,-0.099 -0.347,-0.2162 -0.501,-0.3497c-0.059,-0.0535 -0.092,-0.1407 -0.156,-0.1972c-0.089,-0.0611 -0.183,-0.1121 -0.283,-0.1521c-0.158,-0.0801 -0.338,-0.1082 -0.513,-0.0803c-0.176,0.028 -0.338,0.1105 -0.464,0.236z" fill="white" id="svg_267"/>
    </g>
    <g opacity="0.36" id="svg_268">
     <path fill-rule="evenodd" clip-rule="evenodd" d="m586.999,81.195c-0.048,-0.0056 -0.093,-0.0253 -0.129,-0.0566c-0.037,-0.0313 -0.063,-0.0728 -0.076,-0.1191c0.183,-0.3391 0.914,-0.0987 0.87,0.2862c-0.048,0.448 -0.569,0.2255 -0.726,-0.0047l0.061,-0.1058z" fill="white" id="svg_269"/>
    </g>
    <g opacity="0.36" id="svg_270">
     <path fill-rule="evenodd" clip-rule="evenodd" d="m587.874,89.6962c0.01,-0.2208 -0.027,-0.4302 0.123,-0.6008c0.126,-0.1395 0.294,-0.2346 0.478,-0.2713c0.227,-0.0349 0.46,-0.0205 0.681,0.0422c0.111,0.004 0.218,0.0402 0.308,0.1041c0.337,0.316 0.366,0.9257 0.289,1.3398c-0.032,0.2416 -0.091,0.4788 -0.177,0.7068c-0.08,0.1498 -0.127,0.3178 -0.181,0.4785c-0.025,0.139 -0.079,0.2713 -0.158,0.3886c-0.094,0.0814 -0.199,0.1475 -0.313,0.1959c-0.147,0.0741 -0.309,0.1111 -0.473,0.1079c-0.164,-0.0032 -0.325,-0.0466 -0.469,-0.1263c-0.501,-0.2952 -0.577,-1.1347 -0.56,-1.6683c0.018,-0.4317 0.101,-1.094 0.452,-0.6971z" fill="white" id="svg_271"/>
    </g>
    <g opacity="0.36" id="svg_272">
     <path fill-rule="evenodd" clip-rule="evenodd" d="m588.052,87.6999c0.119,0.1257 0.141,0.1924 0.298,0.1239c0.05,-0.0318 0.092,-0.0739 0.124,-0.1235c0.031,-0.0496 0.052,-0.1055 0.06,-0.1639c0.038,-0.2128 -0.11,-0.5877 -0.362,-0.5594c-0.127,0.0191 -0.38,0.0904 -0.467,0.1897c-0.054,0.1308 -0.061,0.2766 -0.018,0.4116c0.043,0.1351 0.132,0.2507 0.252,0.3264l0.113,-0.2048z" fill="white" id="svg_273"/>
    </g>
    <g opacity="0.36" id="svg_274">
     <path fill-rule="evenodd" clip-rule="evenodd" d="m596.699,83.6222c0.064,0.0642 0.138,0.1166 0.22,0.1545c0.198,0.1065 0.395,0.213 0.596,0.321c0.373,0.2009 0.718,0.4597 1.1,0.6651c0.276,0.14 0.563,0.2567 0.858,0.349c0.151,0.0551 0.304,0.1024 0.46,0.1417c0.016,-0.031 -0.057,-0.0778 -0.08,-0.1086c-0.079,-0.1044 -0.18,-0.195 -0.25,-0.3019c-0.156,-0.2446 -0.324,-0.4952 -0.498,-0.7273c-0.039,-0.0385 -0.073,-0.0814 -0.102,-0.128c-0.028,-0.0626 -0.044,-0.1407 -0.068,-0.2046c-0.043,-0.1212 -0.105,-0.2346 -0.184,-0.3358c-0.201,-0.2183 -0.447,-0.3896 -0.722,-0.5014c-0.087,-0.0472 -0.183,-0.0659 -0.269,-0.1087c-0.094,-0.051 -0.192,-0.0962 -0.292,-0.1352c-0.216,-0.0666 -0.444,-0.09 -0.67,-0.069c-0.26,0.0093 -0.679,-0.045 -0.875,0.1845c-0.096,0.1092 0.017,0.2317 0.108,0.3063c0.091,0.0745 0.245,0.161 0.364,0.2508c0.12,0.0898 0.341,0.2889 0.304,0.2476z" fill="white" id="svg_275"/>
    </g>
    <g opacity="0.36" id="svg_276">
     <path fill-rule="evenodd" clip-rule="evenodd" d="m595.079,82.4001c-0.063,-0.1068 -0.211,-0.285 -0.085,-0.4104c0.126,-0.1255 0.306,-0.0209 0.409,0.0526c0.239,0.1795 -0.202,0.3758 -0.371,0.2558l0.047,0.102z" fill="white" id="svg_277"/>
    </g>
    <g opacity="0.36" id="svg_278">
     <path fill-rule="evenodd" clip-rule="evenodd" d="m598.097,80.7079c0.06,0.1062 0.154,0.1891 0.267,0.2349c0.078,0.026 0.164,0.0209 0.238,-0.0143c0.075,-0.0351 0.133,-0.0977 0.163,-0.1746c0.129,-0.2402 0.168,-0.4343 -0.038,-0.6071c-0.086,-0.0532 -0.182,-0.0875 -0.283,-0.1007c-0.1,-0.0132 -0.202,-0.0049 -0.299,0.0242c-0.077,0.0301 -0.142,0.0846 -0.186,0.1552c-0.079,0.147 -0.015,0.2724 0.063,0.3982l0.075,0.0842z" fill="white" id="svg_279"/>
    </g>
    <g opacity="0.36" id="svg_280">
     <path fill-rule="evenodd" clip-rule="evenodd" d="m608.478,79.3132c0.014,-0.4558 0.083,-0.9083 0.204,-1.3479c0.144,-0.3701 0.308,-0.7319 0.493,-1.0835c0.183,-0.5178 0.329,-1.0479 0.438,-1.5864c0.098,-0.4727 0.31,-0.9141 0.619,-1.285c0.128,-0.1494 0.285,-0.2712 0.461,-0.358c0.177,-0.0867 0.369,-0.1366 0.565,-0.1466c0.238,0.0095 0.473,0.0593 0.694,0.1473c0.099,0.0533 0.2,0.0822 0.299,0.1211c0.065,0.0147 0.128,0.0364 0.188,0.0646c0.093,0.0502 0.072,0.0897 0.024,0.1773c-0.072,0.1591 -0.192,0.2919 -0.343,0.3802c-0.251,0.1699 -0.47,0.3824 -0.648,0.628c-0.182,0.23 -0.372,0.441 -0.539,0.683l-0.498,0.7014c-0.146,0.1981 -0.299,0.393 -0.444,0.5954c-0.146,0.2024 -0.263,0.4128 -0.392,0.6199c-0.13,0.2072 -0.192,0.3561 -0.288,0.5341c-0.061,0.113 -0.138,0.2098 -0.199,0.3228c-0.047,0.0873 -0.1,0.1707 -0.16,0.2493c-0.049,0.0815 -0.094,0.1654 -0.135,0.2515c-0.101,0.1228 -0.214,0.234 -0.339,0.3315z" fill="white" id="svg_281"/>
    </g>
    <g opacity="0.36" id="svg_282">
     <path fill-rule="evenodd" clip-rule="evenodd" d="m608.165,76.1778c0.016,0.0781 0.016,0.1728 0.076,0.2235c0.034,0.0253 0.071,0.0453 0.11,0.0593c0.178,0.0485 0.331,-0.2154 0.401,-0.3454c0.219,-0.3727 0.289,-0.8142 0.196,-1.2361c-0.034,-0.1439 -0.101,-0.2779 -0.195,-0.3918c-0.094,-0.1139 -0.213,-0.2046 -0.348,-0.2651c-0.372,-0.1089 -0.753,0.1524 -0.991,0.4252c-0.238,0.2728 -0.456,0.6582 -0.352,1.006c0.029,0.1226 0.099,0.2318 0.197,0.3104c0.091,0.0434 0.183,0.0813 0.278,0.1132c0.119,0.0639 0.187,0.1808 0.337,0.1811c0.103,0.0049 0.205,-0.0232 0.291,-0.0803z" fill="white" id="svg_283"/>
    </g>
    <g opacity="0.36" id="svg_284">
     <path fill-rule="evenodd" clip-rule="evenodd" d="m609.357,74.0241c-0.039,-0.0041 -0.075,-0.0205 -0.104,-0.0466c-0.03,-0.0261 -0.05,-0.0608 -0.058,-0.099c-0.023,-0.0374 -0.033,-0.0814 -0.028,-0.125c0.005,-0.0436 0.025,-0.0842 0.055,-0.1154c0.026,-0.0287 0.058,-0.0516 0.093,-0.067c0.036,-0.0153 0.074,-0.0229 0.113,-0.0221c0.039,0.0007 0.077,0.0098 0.112,0.0266c0.034,0.0167 0.065,0.0408 0.09,0.0705c0.027,0.0464 0.042,0.0988 0.044,0.1526c0.002,0.0537 -0.01,0.107 -0.035,0.155c-0.025,0.052 -0.066,0.094 -0.118,0.119c-0.052,0.0251 -0.111,0.0317 -0.167,0.0188l0.003,-0.0674z" fill="white" id="svg_285"/>
    </g>
    <g opacity="0.36" id="svg_286">
     <path fill-rule="evenodd" clip-rule="evenodd" d="m603.099,67.0573c-0.03,0.1376 -0.006,0.2816 0.069,0.4013c0.013,0.0354 0.037,0.0662 0.067,0.0886c0.031,0.0223 0.068,0.0352 0.105,0.0372c0.256,-0.0027 0.501,-0.0966 0.693,-0.2648c0.062,-0.0585 0.112,-0.1287 0.146,-0.2066c0.035,-0.0778 0.053,-0.1617 0.055,-0.2468c-0.021,-0.1508 -0.065,-0.2975 -0.131,-0.4347c-0.046,-0.1235 -0.1,-0.24 -0.168,-0.3641c-0.03,-0.1055 -0.093,-0.1986 -0.179,-0.2656c-0.087,-0.067 -0.193,-0.1043 -0.302,-0.1065c-0.119,0.0119 -0.233,0.0527 -0.332,0.1187c-0.099,0.0661 -0.18,0.1556 -0.237,0.2604c-0.063,0.1494 -0.089,0.3115 -0.076,0.473c0.011,0.1698 -0.008,0.3128 0.29,0.5099z" fill="white" id="svg_287"/>
    </g>
    <g opacity="0.36" id="svg_288">
     <path fill-rule="evenodd" clip-rule="evenodd" d="m603.508,68.2212c0.066,-0.1037 0.152,-0.1937 0.252,-0.2652c0.048,0.0259 0.105,-0.0198 0.15,0.0333c0.044,0.053 -0.032,0.1943 -0.068,0.2549c-0.047,0.0803 -0.122,0.1401 -0.211,0.1674c-0.033,0.0076 -0.172,0.0494 -0.143,-0.0258l0.02,-0.1646z" fill="white" id="svg_289"/>
    </g>
    <g opacity="0.36" id="svg_290">
     <path fill-rule="evenodd" clip-rule="evenodd" d="m604.507,81.3671c0.085,0.1332 0.18,0.2825 0.381,0.234c0.084,-0.0369 0.156,-0.0982 0.205,-0.1759c0.05,-0.0778 0.075,-0.1685 0.073,-0.2608c0.009,-0.0902 0.016,-0.1919 -0.06,-0.2473c-0.075,-0.0554 -0.172,-0.0928 -0.257,-0.1385c-0.2,-0.108 -0.232,-0.3947 -0.523,-0.3145c-0.069,0.022 -0.132,0.0587 -0.185,0.1074c-0.053,0.0487 -0.096,0.1083 -0.124,0.1748c-0.071,0.2276 0.085,0.4462 0.219,0.6097l0.271,0.0111z" fill="white" id="svg_291"/>
    </g>
    <g opacity="0.36" id="svg_292">
     <path fill-rule="evenodd" clip-rule="evenodd" d="m603.087,101.761c-0.073,0.257 -0.072,0.528 0.001,0.784l0.088,0.048c0.055,0.073 0.126,0.133 0.207,0.177c0.081,0.043 0.17,0.069 0.262,0.075c0.584,0.005 0.789,-0.504 1.022,-0.944c0.233,-0.439 0.625,-1.038 -0.134,-1.166c-0.336,-0.053 -0.898,-0.18 -1.229,-0.005c-0.178,0.093 -0.17,0.193 -0.195,0.361c-0.059,0.231 -0.073,0.471 -0.041,0.707l0.019,-0.037z" fill="white" id="svg_293"/>
    </g>
    <g opacity="0.36" id="svg_294">
     <path fill-rule="evenodd" clip-rule="evenodd" d="m606.699,96.7804c-0.085,-0.1404 -0.272,-0.3758 -0.193,-0.5702c0.079,-0.1943 0.179,-0.1625 0.313,-0.2288c0.294,-0.1476 0.637,-0.255 0.81,0.1408c0.034,0.1059 0.043,0.2182 0.027,0.3283c-0.016,0.11 -0.058,0.2149 -0.121,0.3064c-0.112,0.1402 -0.44,0.3026 -0.593,0.1543l-0.243,-0.1308z" fill="white" id="svg_295"/>
    </g>
    <g opacity="0.36" id="svg_296">
     <path fill-rule="evenodd" clip-rule="evenodd" d="m578.305,52.5927c0.26,0.3626 0.272,0.3874 0.682,0.4801c0.306,0.1075 0.634,0.1377 0.955,0.0878c0.435,-0.1304 0.551,-0.5232 0.807,-0.8227c0.099,-0.0851 0.174,-0.1948 0.218,-0.318c0.043,-0.1232 0.053,-0.2556 0.029,-0.3839c-0.064,-0.3368 -0.19,-0.6589 -0.37,-0.9503c-0.314,-0.4447 -0.722,-0.8149 -1.195,-1.0846c-0.472,-0.2696 -0.999,-0.432 -1.541,-0.4757c-0.663,-0.0474 -1.47,-0.0187 -1.97,0.5033c-0.215,0.2134 -0.368,0.4809 -0.444,0.7742c-0.076,0.2934 -0.071,0.6018 0.014,0.8927c0.108,0.2812 0.282,0.5322 0.507,0.7322c0.225,0.1999 0.495,0.3429 0.787,0.417l0.417,0.093c0.165,0.069 0.323,0.1541 0.472,0.2541c0.18,0.0643 0.382,0.0488 0.632,-0.1992z" fill="white" id="svg_297"/>
    </g>
    <g opacity="0.36" id="svg_298">
     <path fill-rule="evenodd" clip-rule="evenodd" d="m579.145,54.3025c0.467,-0.1897 0.375,-0.1623 0.749,-0.0376c0.162,0.058 0.227,0.0126 0.35,0.1226c0.076,0.0893 0.123,0.1994 0.136,0.3161c0.013,0.1167 -0.01,0.2344 -0.066,0.3379c-0.077,0.1441 -0.48,0.2152 -0.618,0.2139c-0.085,0.0033 -0.169,-0.0186 -0.242,-0.063c-0.072,-0.0443 -0.13,-0.1091 -0.167,-0.1863l-0.142,-0.7036z" fill="white" id="svg_299"/>
    </g>
    <g opacity="0.36" id="svg_300">
     <path fill-rule="evenodd" clip-rule="evenodd" d="m560.655,88.4548c0.245,0.2228 0.548,0.5134 0.933,0.2982c0.256,-0.1502 0.304,-0.5652 0.26,-0.8408c-0.116,-0.4725 -0.38,-0.8955 -0.754,-1.2074c-0.345,-0.2517 -0.984,-0.0126 -1.212,0.3093c-0.464,0.658 0.435,1.6229 0.923,1.955l-0.15,-0.5143z" fill="white" id="svg_301"/>
    </g>
    <g opacity="0.36" id="svg_302">
     <path fill-rule="evenodd" clip-rule="evenodd" d="m563.604,90.6691c-0.104,-0.0046 -0.432,0.0372 -0.519,-0.0458c-0.048,-0.0259 -0.018,-0.1011 -0.046,-0.145c-0.05,-0.0722 -0.085,-0.1544 -0.101,-0.2411c-0.016,-0.0867 -0.014,-0.1759 0.007,-0.2615c0.049,-0.1736 0.153,-0.3264 0.297,-0.4347c0.144,-0.1083 0.32,-0.1661 0.5,-0.1644c0.117,-0.0163 0.237,0.0108 0.336,0.0762c0.099,0.0653 0.17,0.1645 0.202,0.279c0.042,0.1532 0.026,0.3167 -0.045,0.4588c-0.071,0.1422 -0.193,0.2529 -0.341,0.3107l-0.29,0.1678z" fill="white" id="svg_303"/>
    </g>
    <g opacity="0.36" id="svg_304">
     <path fill-rule="evenodd" clip-rule="evenodd" d="m617.6,79.6136c0.388,0.4744 0.921,0.8087 1.517,0.952c0.379,0.1163 0.854,0.3101 1.206,0.0221c0.823,-0.6758 -0.66,-2.3346 -1.162,-2.8122c-0.434,-0.418 -0.951,-0.7399 -1.517,-0.9448c-0.339,-0.1093 -1.083,-0.1964 -1.405,0.0236c-0.415,0.2832 -0.412,0.8721 -0.228,1.2624c0.402,0.9455 1.396,1.28 2.06,1.9692l-0.471,-0.4723z" fill="white" id="svg_305"/>
    </g>
    <g opacity="0.36" id="svg_306">
     <path fill-rule="evenodd" clip-rule="evenodd" d="m617.238,79.9946c-0.099,0.2211 -0.166,0.4549 -0.199,0.6947c0.01,0.1296 0.024,0.3339 0.13,0.4348c0.075,0.0489 0.161,0.0781 0.251,0.0848c0.089,0.0067 0.179,-0.0092 0.26,-0.0464c0.062,-0.0176 0.118,-0.0502 0.164,-0.095c0.046,-0.0447 0.079,-0.1002 0.098,-0.1613c0.012,-0.0958 -0.063,-0.2202 -0.103,-0.3032c-0.075,-0.1522 -0.168,-0.2952 -0.277,-0.4262c-0.043,-0.0689 -0.095,-0.1321 -0.153,-0.1885c-0.101,-0.0834 -0.182,-0.0284 -0.285,-0.0473l0.114,0.0536z" fill="white" id="svg_307"/>
    </g>
    <g opacity="0.36" id="svg_308">
     <path fill-rule="evenodd" clip-rule="evenodd" d="m621.47,82.9041l0.288,-0.2096c0.102,0.0807 0.255,0.1083 0.269,0.258c-0.014,0.1425 -0.076,0.2761 -0.175,0.3795c-0.05,0.0511 -0.116,0.084 -0.187,0.0933c-0.071,0.0093 -0.143,-0.0055 -0.205,-0.0419c-0.153,-0.0822 -0.137,-0.2598 -0.088,-0.4119l0.098,-0.0674z" fill="white" id="svg_309"/>
    </g>
    <g opacity="0.36" id="svg_310">
     <path fill-rule="evenodd" clip-rule="evenodd" d="m620.273,99.6494c0.041,0.0626 0.102,0.1101 0.172,0.1355c0.07,0.0255 0.147,0.0274 0.219,0.0056c0.122,-0.0285 0.229,-0.1022 0.3,-0.2063c0.07,-0.1042 0.098,-0.2311 0.079,-0.3552c-0.058,-0.3593 -0.347,-0.8792 -0.726,-0.9883c-0.236,-0.0689 -0.635,0.077 -0.625,0.363c0,0.1611 0.018,0.3217 0.056,0.4784c0.097,0.2307 0.268,0.4227 0.486,0.546l0.039,0.0213z" fill="white" id="svg_311"/>
    </g>
    <g opacity="0.36" id="svg_312">
     <path fill-rule="evenodd" clip-rule="evenodd" d="m555.187,50.7274c0.04,0.1491 0.042,0.2195 0.156,0.3134c0.118,0.1166 0.277,0.1827 0.444,0.1843c0.388,-0.0856 0.736,-0.3028 0.983,-0.6149c0.1,-0.1027 0.175,-0.2272 0.219,-0.3636c0.043,-0.1365 0.055,-0.2812 0.033,-0.4229c-0.013,-0.1657 -0.062,-0.3266 -0.143,-0.4719c-0.081,-0.1453 -0.192,-0.2717 -0.325,-0.3707c-0.122,-0.1115 -0.277,-0.1818 -0.441,-0.2009c-0.164,-0.0192 -0.33,0.0138 -0.475,0.0942c-0.308,0.143 -0.584,0.3483 -0.809,0.603c-0.081,0.1017 -0.136,0.2209 -0.161,0.3479c-0.025,0.127 -0.02,0.2582 0.015,0.3829c0.051,0.2499 0.19,0.6159 0.504,0.5192z" fill="white" id="svg_313"/>
    </g>
    <g opacity="0.36" id="svg_314">
     <path fill-rule="evenodd" clip-rule="evenodd" d="m557.415,48.9927c-0.085,-0.0457 -0.184,-0.0989 -0.162,-0.193c0.038,-0.0773 0.092,-0.1461 0.158,-0.2021c0.066,-0.056 0.142,-0.0981 0.225,-0.1238c0.13,-0.0299 0.266,-0.011 0.383,0.0533c0.064,0.0654 0.102,0.1518 0.106,0.243c0.014,0.0661 0.007,0.135 -0.02,0.1968c-0.028,0.0619 -0.074,0.1135 -0.132,0.1475c-0.084,0.0463 -0.273,0.1741 -0.362,0.0895l-0.196,-0.2112z" fill="white" id="svg_315"/>
    </g>
    <g opacity="0.36" id="svg_316">
     <path fill-rule="evenodd" clip-rule="evenodd" d="m543.041,50.2091c0.116,0.0846 0.258,0.125 0.401,0.1141c0.261,-0.019 0.514,-0.0973 0.739,-0.229c0.307,-0.1547 0.556,-0.4038 0.711,-0.7108c0.035,-0.1231 0.034,-0.2539 -0.003,-0.3764c-0.038,-0.1224 -0.11,-0.2314 -0.209,-0.3135c-0.257,-0.1739 -0.568,-0.251 -0.878,-0.2175c-0.276,0.0378 -0.54,0.1412 -0.768,0.3017c-0.229,0.1605 -0.415,0.3733 -0.545,0.6206c-0.248,0.5769 0.558,1.0364 0.552,0.8108z" fill="white" id="svg_317"/>
    </g>
    <g opacity="0.36" id="svg_318">
     <path fill-rule="evenodd" clip-rule="evenodd" d="m546.254,48.8518c-0.085,0.0303 -0.177,0.0365 -0.265,0.0178c0.007,-0.1017 -0.067,-0.1743 -0.053,-0.2801c0.025,-0.103 0.089,-0.1923 0.178,-0.2502c0.055,-0.0403 0.12,-0.0652 0.188,-0.0722c0.068,-0.007 0.136,0.0041 0.198,0.0322c0.141,0.076 0.147,0.1408 0.144,0.2886c-0.003,0.1478 0.007,0.1352 -0.105,0.195c-0.068,0.0431 -0.14,0.0789 -0.215,0.1069l-0.07,-0.038z" fill="white" id="svg_319"/>
    </g>
   </g>
   <path fill-rule="evenodd" clip-rule="evenodd" d="m599.482,100.855c0.443,0.239 0.664,0.697 0.489,1.022c-0.175,0.325 -0.678,0.393 -1.122,0.154c-0.444,-0.239 -0.661,-0.695 -0.486,-1.02c0.175,-0.325 0.675,-0.394 1.119,-0.156z" fill="url(#paint50_linear_110_3490)" id="svg_320"/>
   <path fill-rule="evenodd" clip-rule="evenodd" d="m599.415,100.98c0.351,0.188 0.522,0.547 0.384,0.804c-0.139,0.257 -0.532,0.311 -0.883,0.123c-0.35,-0.189 -0.522,-0.547 -0.383,-0.805c0.138,-0.257 0.535,-0.309 0.882,-0.122z" fill="white" id="svg_321"/>
   <path fill-rule="evenodd" clip-rule="evenodd" d="m610.455,76.4596c0.202,0.0852 0.363,0.2463 0.447,0.4486c0.085,0.2023 0.087,0.4297 0.006,0.6334c-0.126,0.18 -0.316,0.3036 -0.532,0.3443c-0.215,0.0408 -0.438,-0.0046 -0.621,-0.1264c-0.202,-0.0853 -0.363,-0.2465 -0.448,-0.449c-0.085,-0.2025 -0.088,-0.4302 -0.007,-0.6345c0.126,-0.1798 0.318,-0.3032 0.534,-0.3436c0.215,-0.0404 0.439,0.0053 0.621,0.1272z" fill="url(#paint51_linear_110_3490)" id="svg_322"/>
   <path fill-rule="evenodd" clip-rule="evenodd" d="m610.38,76.5981c0.16,0.0672 0.286,0.194 0.353,0.3533c0.067,0.1592 0.069,0.3383 0.005,0.499c-0.099,0.1414 -0.25,0.2385 -0.419,0.2704c-0.17,0.0319 -0.346,-0.0039 -0.489,-0.0998c-0.159,-0.0671 -0.286,-0.1939 -0.353,-0.3532c-0.067,-0.1593 -0.068,-0.3384 -0.005,-0.499c0.099,-0.1415 0.25,-0.2386 0.419,-0.2705c0.17,-0.0319 0.346,0.004 0.489,0.0998z" fill="white" id="svg_323"/>
   <path d="m604.787,88.6255c0.242,-0.4494 0.078,-1.0079 -0.367,-1.2474c-0.445,-0.2395 -1.002,-0.0692 -1.244,0.3802c-0.242,0.4495 -0.077,1.008 0.368,1.2474c0.444,0.2395 1.001,0.0693 1.243,-0.3802z" fill="url(#paint52_linear_110_3490)" id="svg_324"/>
   <path fill-rule="evenodd" clip-rule="evenodd" d="m604.327,87.5504c0.168,0.0925 0.293,0.2477 0.347,0.4318c0.054,0.1841 0.032,0.382 -0.059,0.5505c-0.09,0.1693 -0.244,0.296 -0.427,0.3523c-0.184,0.0564 -0.382,0.0378 -0.552,-0.0516c-0.168,-0.0925 -0.292,-0.2477 -0.346,-0.4318c-0.054,-0.1841 -0.033,-0.382 0.059,-0.5505c0.09,-0.1693 0.244,-0.296 0.427,-0.3523c0.183,-0.0564 0.381,-0.0378 0.551,0.0516z" fill="white" id="svg_325"/>
   <path d="m604.807,82.611c0.695,0.0856 1.366,0.3084 1.974,0.6553c0.608,0.3469 1.141,0.8111 1.568,1.3656c0.428,0.5546 0.741,1.1885 0.921,1.865c0.181,0.6764 0.225,1.382 0.131,2.0757c-0.178,1.4085 -0.905,2.6901 -2.021,3.5667c-1.117,0.8766 -2.534,1.2777 -3.945,1.1163c-0.695,-0.0861 -1.365,-0.309 -1.973,-0.6561c-0.608,-0.347 -1.141,-0.8112 -1.568,-1.3657c-0.428,-0.5545 -0.741,-1.1882 -0.921,-1.8645c-0.181,-0.6762 -0.226,-1.3817 -0.132,-2.0753c0.178,-1.4086 0.904,-2.6901 2.021,-3.5667c1.117,-0.8767 2.534,-1.2777 3.945,-1.1163z" fill="url(#paint53_radial_110_3490)" id="svg_326"/>
   <path d="m573.391,42.1687c0.554,0.0684 1.09,0.2461 1.575,0.5229c0.485,0.2767 0.911,0.647 1.252,1.0893c0.341,0.4424 0.591,0.948 0.736,1.4877c0.144,0.5396 0.18,1.1026 0.105,1.6562c-0.143,1.1242 -0.723,2.1466 -1.615,2.846c-0.892,0.6995 -2.023,1.0196 -3.149,0.8912c-0.554,-0.069 -1.089,-0.2472 -1.574,-0.5243c-0.486,-0.2772 -0.911,-0.6477 -1.252,-1.0903c-0.341,-0.4425 -0.591,-0.9483 -0.735,-1.488c-0.144,-0.5398 -0.18,-1.1027 -0.106,-1.6564c0.144,-1.1237 0.724,-2.1457 1.615,-2.8446c0.892,-0.699 2.022,-1.0186 3.148,-0.8897z" fill="url(#paint54_radial_110_3490)" id="svg_327"/>
   <path d="m537.221,48.6977c0.554,0.0684 1.09,0.2461 1.575,0.5228c0.485,0.2768 0.911,0.647 1.252,1.0894c0.341,0.4423 0.591,0.948 0.736,1.4877c0.144,0.5396 0.18,1.1026 0.105,1.6562c-0.141,1.1248 -0.721,2.1483 -1.613,2.848c-0.892,0.6998 -2.024,1.0193 -3.151,0.8891c-0.554,-0.0684 -1.089,-0.2461 -1.575,-0.5228c-0.485,-0.2768 -0.91,-0.647 -1.252,-1.0894c-0.341,-0.4424 -0.591,-0.948 -0.735,-1.4877c-0.145,-0.5396 -0.181,-1.1026 -0.106,-1.6562c0.143,-1.1245 0.723,-2.1474 1.614,-2.847c0.892,-0.6996 2.024,-1.0194 3.15,-0.8901z" fill="url(#paint55_radial_110_3490)" id="svg_328"/>
   <path d="m551.478,83.7761c0.286,0.0353 0.563,0.1271 0.814,0.27c0.25,0.143 0.47,0.3342 0.647,0.5627c0.176,0.2285 0.305,0.4896 0.38,0.7684c0.075,0.2788 0.093,0.5696 0.055,0.8556c-0.074,0.5813 -0.374,1.1101 -0.835,1.4719c-0.46,0.3619 -1.045,0.5275 -1.627,0.461c-0.287,-0.0355 -0.564,-0.1275 -0.814,-0.2707c-0.251,-0.1432 -0.471,-0.3347 -0.647,-0.5635c-0.176,-0.2288 -0.305,-0.4902 -0.38,-0.7692c-0.074,-0.279 -0.093,-0.57 -0.054,-0.8562c0.075,-0.5804 0.374,-1.1083 0.835,-1.4695c0.46,-0.3612 1.044,-0.5266 1.626,-0.4605z" fill="url(#paint56_radial_110_3490)" id="svg_329"/>
   <path d="m610.17,75.4387c0.269,0.0322 0.529,0.1176 0.765,0.2511c0.235,0.1336 0.442,0.3125 0.608,0.5266c0.166,0.2141 0.287,0.4591 0.358,0.7206c0.07,0.2615 0.088,0.5344 0.052,0.8028c-0.068,0.5436 -0.348,1.0382 -0.779,1.3761c-0.432,0.338 -0.979,0.4918 -1.523,0.4281c-0.268,-0.0328 -0.526,-0.1185 -0.76,-0.2519c-0.235,-0.1335 -0.44,-0.3122 -0.605,-0.5256c-0.165,-0.2135 -0.285,-0.4576 -0.355,-0.7181c-0.07,-0.2604 -0.087,-0.5322 -0.051,-0.7994c0.067,-0.5421 0.345,-1.0359 0.774,-1.3747c0.428,-0.3387 0.973,-0.4952 1.516,-0.4356z" fill="url(#paint57_radial_110_3490)" id="svg_330"/>
   <path d="m599.228,99.7708c0.268,0.033 0.526,0.1189 0.76,0.2522c0.235,0.134 0.44,0.313 0.605,0.527c0.165,0.214 0.285,0.458 0.355,0.719c0.069,0.26 0.086,0.532 0.05,0.8c-0.069,0.543 -0.349,1.037 -0.779,1.375c-0.43,0.338 -0.977,0.492 -1.52,0.43c-0.268,-0.033 -0.527,-0.119 -0.762,-0.252c-0.234,-0.134 -0.44,-0.313 -0.605,-0.527c-0.165,-0.214 -0.286,-0.458 -0.355,-0.719c-0.07,-0.261 -0.087,-0.533 -0.051,-0.801c0.069,-0.543 0.349,-1.037 0.78,-1.375c0.431,-0.3378 0.978,-0.492 1.522,-0.4292z" fill="url(#paint58_radial_110_3490)" id="svg_331"/>
  </g>
 </g>
</svg>