<svg width="682" height="614" xmlns="http://www.w3.org/2000/svg" fill="none">
 <defs>
  <clipPath id="clip0_110_3490">
   <rect id="svg_1" fill="white" height="562" width="552"/>
  </clipPath>
  <clipPath id="clip1_110_3490">
   <rect id="svg_2" transform="rotate(-61.702 521 73.1113)" x="521" y="73.1113" fill="white" height="153.935" width="52.3698"/>
  </clipPath>
  <radialGradient gradientTransform="translate(269.268 332.713) rotate(151.643) scale(52.3805)" gradientUnits="userSpaceOnUse" r="1" cy="0" cx="0" id="paint3_radial_110_3490">
   <stop stop-color="#F4DBEE"/>
   <stop stop-color="#D1BDE5" offset="1"/>
  </radialGradient>
  <linearGradient y2="0.49686" x2="-0.19501" y1="0.40842" x1="1.01028" id="paint4_linear_110_3490">
   <stop stop-color="#AA367C"/>
   <stop stop-color="#4A2FBD" offset="1"/>
  </linearGradient>
  <linearGradient y2="0.66774" x2="-0.39359" y1="0.32036" x1="1.0193" id="paint5_linear_110_3490">
   <stop stop-color="#9579A7"/>
   <stop stop-color="white" offset="1"/>
  </linearGradient>
  <radialGradient gradientTransform="translate(335.19 504.066) rotate(151.643) scale(55.8371)" gradientUnits="userSpaceOnUse" r="1" cy="0" cx="0" id="paint6_radial_110_3490">
   <stop stop-color="#F4F1FF"/>
   <stop stop-color="#D1BDE5" offset="1"/>
  </radialGradient>
  <radialGradient gradientTransform="translate(429.565 303.374) rotate(151.643) scale(57.1759)" gradientUnits="userSpaceOnUse" r="1" cy="0" cx="0" id="paint7_radial_110_3490">
   <stop stop-color="#F4DBEE"/>
   <stop stop-color="#D1BDE5" offset="1"/>
  </radialGradient>
  <radialGradient gradientTransform="translate(462.568 446.789) rotate(151.643) scale(67.3269)" gradientUnits="userSpaceOnUse" r="1" cy="0" cx="0" id="paint8_radial_110_3490">
   <stop stop-color="#F4F1FF"/>
   <stop stop-color="#D1BDE5" offset="1"/>
  </radialGradient>
  <linearGradient y2="0.55455" x2="-0.16142" y1="0.37407" x1="1.05971" id="paint9_linear_110_3490">
   <stop stop-color="#AA367C"/>
   <stop stop-color="#4A2FBD" offset="1"/>
  </linearGradient>
  <linearGradient y2="0.59323" x2="-0.13738" y1="0.37278" x1="1.0877" id="paint10_linear_110_3490">
   <stop stop-color="#AA367C"/>
   <stop stop-color="#4A2FBD" offset="1"/>
  </linearGradient>
  <linearGradient y2="0.50574" x2="-0.0608" y1="0.41626" x1="0.92177" id="paint11_linear_110_3490">
   <stop stop-color="#AA367C"/>
   <stop stop-color="#4A2FBD" offset="1"/>
  </linearGradient>
  <linearGradient y2="0.65526" x2="0.02839" y1="0.3049" x1="0.88755" id="paint12_linear_110_3490">
   <stop stop-color="white"/>
   <stop stop-color="#9579A7" offset="1"/>
  </linearGradient>
  <linearGradient y2="0.04792" x2="0.27733" y1="0.94355" x1="0.72055" id="paint13_linear_110_3490">
   <stop stop-color="#D1BDE5"/>
   <stop stop-color="white" offset="1"/>
  </linearGradient>
  <linearGradient y2="0.52649" x2="-0.11685" y1="0.37088" x1="1.08647" id="paint14_linear_110_3490">
   <stop stop-color="#AA367C"/>
   <stop stop-color="#4A2FBD" offset="1"/>
  </linearGradient>
  <linearGradient y2="0.89186" x2="-0.02402" y1="0.28542" x1="1.03936" id="paint15_linear_110_3490">
   <stop stop-color="white"/>
   <stop stop-color="#9579A7" offset="1"/>
  </linearGradient>
  <linearGradient y2="0.10047" x2="-0.05568" y1="0.95822" x1="0.95754" id="paint16_linear_110_3490">
   <stop stop-color="#D1BDE5"/>
   <stop stop-color="#F4DBEE" offset="1"/>
  </linearGradient>
  <linearGradient y2="1.08222" x2="0.11194" y1="0.2049" x1="0.94806" id="paint17_linear_110_3490">
   <stop stop-color="white"/>
   <stop stop-color="#9579A7" offset="1"/>
  </linearGradient>
  <linearGradient y2="0.94193" x2="0.01816" y1="0.35466" x1="0.98712" id="paint18_linear_110_3490">
   <stop stop-color="white"/>
   <stop stop-color="#9579A7" offset="1"/>
  </linearGradient>
  <linearGradient y2="0.55451" x2="-0.08945" y1="0.32874" x1="1.05466" id="paint19_linear_110_3490">
   <stop stop-color="#5A30B2"/>
   <stop stop-color="#AA367C" offset="1"/>
   <stop stop-color="#4A2FBD" offset="1"/>
  </linearGradient>
  <linearGradient y2="0.67275" x2="0.10397" y1="-0.01346" x1="0.99603" id="paint20_linear_110_3490">
   <stop stop-color="white"/>
   <stop stop-color="#9579A7" offset="1"/>
  </linearGradient>
  <linearGradient y2="0.78442" x2="-0.04406" y1="0.38268" x1="1.12312" id="paint21_linear_110_3490">
   <stop stop-color="#9579A7"/>
   <stop stop-color="white" offset="1"/>
  </linearGradient>
  <linearGradient y2="0.53861" x2="-0.11896" y1="0.36901" x1="1.04797" id="paint22_linear_110_3490">
   <stop stop-color="#AA367C"/>
   <stop stop-color="#4A2FBD" offset="1"/>
  </linearGradient>
  <radialGradient gradientTransform="translate(276.007 275.972) scale(276.007 275.972)" gradientUnits="userSpaceOnUse" r="1" cy="0" cx="0" id="paint0_radial_110_3490">
   <stop stop-color="#008BC4" offset="0.81"/>
   <stop stop-opacity="0" offset="0.97917"/>
  </radialGradient>
  <radialGradient gradientTransform="translate(221.372 192.218) scale(352.047 352.003)" gradientUnits="userSpaceOnUse" r="1" cy="0" cx="0" id="paint1_radial_110_3490">
   <stop stop-color="#7C83FF"/>
   <stop stop-color="#482088" offset="0.84"/>
   <stop stop-color="#403B77" offset="0.95"/>
   <stop stop-color="#4D79D1" offset="1"/>
  </radialGradient>
  <radialGradient gradientTransform="translate(425.22 481.752) rotate(-32.6268) scale(126.439 60.6876)" gradientUnits="userSpaceOnUse" r="1" cy="0" cx="0" id="paint2_radial_110_3490">
   <stop stop-color="#2C6AFF"/>
   <stop stop-opacity="0" offset="1"/>
  </radialGradient>
 </defs>
 <g>
  <title>Layer 1</title>
  <g id="svg_3" clip-path="url(#clip0_110_3490)">
   <path id="svg_4" fill="url(#paint0_radial_110_3490)" d="m552.013,275.985c0,152.404 -123.596,275.946 -276.019,275.946c-40.554,0.055 -80.616,-8.871 -117.31,-26.134c-7.025,-3.295 -13.892,-6.906 -20.588,-10.768c-26.729,-15.44 -50.6776,-35.255 -70.8471,-58.621c-7.3521,-8.463 -14.1751,-17.371 -20.4303,-26.674c-8.5544,-12.705 -16.0235,-26.107 -22.3284,-40.065c-16.16878,-35.716 -24.50561,-74.479 -24.45038,-113.684c-0.05087,-39.276 8.31326,-78.108 24.52948,-113.881c5.0135,-11.095 10.7781,-21.834 17.2538,-32.144c13.8906,-22.271 30.8995,-42.4376 50.5088,-59.8863c50.4861,-45.1949 115.8981,-70.1376 183.6621,-70.0342c22.061,-0.01412 44.046,2.61408 65.482,7.82844c28.796,7.00776 56.266,18.63776 81.339,34.43716c4.824,3.0444 9.543,6.2074 14.13,9.5418c3.849,2.7544 7.632,5.6407 11.322,8.606c18.119,14.4269 34.341,31.0855 48.282,49.5801c29.804,39.445 48.377,86.22 53.751,135.363c1.153,10.156 1.725,20.369 1.713,30.589z" clip-rule="evenodd" fill-rule="evenodd"/>
   <path id="svg_5" fill="url(#paint1_radial_110_3490)" d="m532.044,275.985c0,141.387 -114.673,255.993 -256.051,255.993c-37.634,0.056 -74.813,-8.231 -108.86,-24.263c-6.511,-3.044 -12.878,-6.392 -19.099,-9.977c-24.793,-14.33 -47.011,-32.71 -65.7328,-54.377c-6.8185,-7.851 -13.1442,-16.117 -18.9409,-24.751c-7.9405,-11.788 -14.8802,-24.219 -20.7466,-37.165c-14.9922,-33.125 -22.7223,-69.074 -22.6711,-105.433c-0.052,-36.436 7.7056,-72.459 22.7502,-105.645c4.6504,-10.295 10.0012,-20.26 16.0147,-29.824c12.8899,-20.66 28.674,-39.367 46.8715,-55.5504c46.835,-41.9235 107.513,-65.0632 170.375,-64.9734c20.468,-0.0099 40.864,2.4324 60.75,7.2749c26.712,6.4927 52.192,17.2773 75.447,31.9332c4.482,2.8335 8.845,5.7724 13.102,8.8564c3.585,2.5567 7.091,5.2716 10.545,7.9866c16.793,13.4123 31.828,28.8877 44.749,46.0607c27.655,36.583 44.886,79.972 49.863,125.559c1.076,9.393 1.621,18.84 1.634,28.295z" clip-rule="evenodd" fill-rule="evenodd"/>
   <g id="svg_6" opacity="0.5">
    <g id="svg_7" opacity="0.5">
     <path id="svg_8" fill="#C4B0B8" d="m530.463,247.624c-0.895,1.647 -1.662,3.361 -2.294,5.126c-0.963,2.559 -2.173,5.017 -3.611,7.341c-1.491,3.039 -2.811,6.159 -3.955,9.344c-2.979,6.893 -5.167,14.379 -7.645,21.469c-2.754,7.908 -5.351,15.815 -8.738,23.459c-1.516,3.466 -3.731,6.59 -5.273,9.977c-1.542,3.387 -3.058,6.708 -4.943,9.989c-4.666,8.013 -8.884,16.185 -13.826,24.066c-8.884,14.194 -19.574,26.806 -29.934,39.919c-5.272,6.59 -11.415,12.349 -17.412,18.306c-6.775,6.695 -12.733,14.194 -19.771,20.744c-5.35,5.307 -11.134,10.156 -17.293,14.497c-3.533,2.333 -6.933,4.929 -10.466,7.223c-4.521,2.939 -9.833,4.599 -14.657,6.971c-16.041,7.723 -33.216,12.547 -50.087,17.964c-16.529,5.271 -32.465,12.507 -49.336,16.724c-3.467,0.87 -6.973,1.213 -10.479,1.924c-3.796,0.751 -7.447,1.845 -11.335,2.254c-7.751,0.87 -15.25,3.466 -23.08,3.954c-5.47,0.263 -10.545,-0.791 -15.896,-1.055c-6.857,-0.116 -13.715,0.183 -20.536,0.896c-7.58,0.488 -15.19,0.196 -22.71,-0.869c-6.512,-3.045 -12.878,-6.392 -19.099,-9.977l0.711,0.224c4.456,1.437 8.594,3.954 13.076,5.048c4.784,1.094 9.754,1.884 14.696,2.715c6.473,1.133 13.089,1.173 19.574,0.118c3.467,-0.566 6.973,-0.988 10.439,-1.7c3.77,-0.791 7.566,0.185 11.336,-0.672c5.272,-1.318 11.045,-0.264 16.383,-0.461c9.227,-0.303 18.23,-3.69 27.127,-5.496c9.872,-1.99 19.244,-5.575 29.301,-6.774c5.733,-0.685 10.241,-2.636 15.672,-4.336c4.666,-1.437 7.645,-4.033 11.52,-6.972c7.46,-5.575 14.999,-11.294 23.725,-14.906c8.714,-3.537 17.762,-6.186 27.008,-7.907c7.958,-1.545 15.395,-5.082 21.616,-10.28c2.571,-2.306 5.009,-4.718 7.54,-7.051c3.235,-2.683 6.315,-5.548 9.226,-8.579c3.164,-3.625 6.775,-6.933 9.899,-10.544c3.467,-4.019 6.301,-8.54 9.728,-12.573c5.456,-6.444 13.787,-9.792 19.164,-16.342c1.134,-1.318 1.885,-3.018 3.058,-4.336c1.173,-1.318 2.518,-2.069 3.269,-3.835c0.91,-2.148 3.137,-7.117 1.925,-9.528c-2.412,-4.864 -15.185,7.643 -17.215,9.594c-3.163,2.978 -5.76,6.036 -9.569,8.211c-2.241,1.408 -4.58,2.654 -6.999,3.729c-4.073,1.661 -8.778,1.845 -13.075,2.755c-11.942,2.557 -24.108,3.954 -36.155,5.838c-16.318,2.517 -32.807,5.944 -48.862,9.858c-15.026,3.664 -29.907,7.908 -44.933,11.453c-7.988,1.924 -15.975,3.954 -23.989,5.693c-9.793,2.188 -19.402,5.193 -29.235,7.078c-16.199,2.938 -32.491,6.523 -49.007,6.971c-12.956,0.343 -25.794,1.015 -38.764,1.015c-17.465,0 -36.195,1.766 -53.33,-2.333c-0.2195,-0.045 -0.4353,-0.107 -0.6458,-0.184c-6.8185,-7.851 -13.1442,-16.117 -18.9409,-24.751c6.2662,2.806 12.8401,4.868 19.5867,6.142c4.9033,0.87 10.0966,1.99 14.1563,4.929c2.5403,2.053 5.4047,3.67 8.4757,4.784c11.151,3.585 21.089,3.361 32.253,0.079c4.174,-1.239 8.317,-2.53 12.43,-3.875c3.044,-1.028 5.839,-2.833 8.883,-3.663c8.634,-2.254 17.557,-3.875 26.257,-5.865c4.138,-0.949 8.475,-1.74 12.548,-2.979c4.587,-1.436 8.884,-3.769 13.286,-5.574c8.436,-3.467 16.278,-7.038 25.32,-8.593c5.681,-0.936 12.272,-1.648 17.478,-4.284c1.687,-0.83 4.218,-2.003 3.954,-4.256c-0.303,-2.794 -3.954,-2.043 -5.957,-1.701c-5.839,1.015 -11.784,1.542 -17.584,3.084c-10.244,2.665 -20.733,4.281 -31.304,4.824c-15.896,1.054 -32.095,2.003 -48.031,1.173c-12.654,-0.646 -25.386,-1.779 -38.04,-1.661c-12.245,0.119 -24.147,-0.935 -35.7857,-4.784c-13.1413,-4.322 -26.5199,-8.276 -38.6726,-14.945c-14.9922,-33.125 -22.7223,-69.074 -22.6711,-105.433c-0.052,-36.436 7.7056,-72.459 22.7502,-105.645c-1.7004,4.679 -3.1239,9.463 -5.0878,13.97c-3.9467,8.702 -6.06,18.123 -6.2082,27.676c0.2374,3.736 0.211,7.484 -0.0791,11.216c-0.6459,4.744 -1.0149,7.802 0.3427,12.586c1.0149,3.506 1.3181,6.893 2.8602,10.28c0.4954,1.058 1.1839,2.014 2.0299,2.82c0.7541,1.067 1.4239,2.19 2.0035,3.361c2.0694,3.387 5.0483,7.907 8.6203,9.858c2.3883,1.186 4.887,2.135 7.4603,2.833c3.0052,0.857 4.1784,1.2 7.1968,0.106c2.4393,-0.979 4.996,-1.634 7.6052,-1.951c1.4358,0.159 2.85,0.472 4.2179,0.936c1.8058,0.303 3.5852,0.145 5.4305,0.527c7.5263,1.582 14.868,3.427 22.592,3.348c6.063,-0.066 12.021,0.949 18.163,0.949c7.381,0 14.684,0.224 21.986,-0.712c4.943,-0.646 10.254,-1.885 15.184,-2.188c4.93,-0.303 10.215,0.145 15.25,0.079c17.518,-0.276 35.589,-4.494 50.812,-13.337c8.12,-4.783 16.82,-8.504 25.888,-11.071c11.678,-3.36 23.606,-6.668 35.588,-8.935c11.123,-2.153 21.944,-5.645 32.227,-10.398c4.542,-2.148 8.89,-4.683 12.996,-7.578c3.77,-2.557 7.909,-4.508 11.52,-7.183c10.545,-7.802 19.771,-16.949 28.998,-26.253c5.272,-5.272 10.624,-10.543 16.133,-15.591c4.548,-4.151 9.372,-5.997 15.211,-7.42c9.306,-2.227 14.499,-12.691 19.508,-20.19c6.327,-9.45 11.573,-20.296 11.863,-31.934c0.151,-4.796 -0.215,-9.5946 -1.095,-14.3122c-0.312,-2.1168 -0.906,-4.1823 -1.766,-6.1415c-0.735,-1.1937 -1.353,-2.456 -1.845,-3.7692c-0.264,-1.1202 -0.303,-2.2932 -0.527,-3.308c-0.224,-1.0148 -0.752,-2.0427 -0.976,-2.8598c-0.527,-2.1878 -1.621,-5.2058 -1.476,-7.6176l0,-0.145c3.585,2.5568 7.091,5.2717 10.545,7.9866c0.065,1.0019 0.039,2.0077 -0.079,3.0048c-0.224,1.2125 -0.646,2.2273 -0.87,3.4266c-0.303,1.7792 -0.976,2.794 -0.936,4.7445c-0.08,1.9483 0.07,3.8991 0.448,5.8121c1.239,4.7445 4.337,9.1467 4.297,14.1547c-0.143,5.084 -1.271,10.092 -3.322,14.747c-1.805,4.521 -3.756,8.698 -5.944,13.034c-1.407,2.864 -3.084,5.587 -5.009,8.132c-1.945,2.321 -3.707,4.788 -5.272,7.38c-1.131,2.081 -2.151,4.219 -3.058,6.405c-1.661,3.954 -4.337,6.023 -7.342,8.962c-6.182,5.957 -13.906,10.781 -20.536,16.501c-5.445,4.519 -10.382,9.619 -14.723,15.208c-1.884,2.636 -11.52,10.135 -8.923,14.089c1.16,1.74 4.824,1.173 6.472,1.173c3.787,-0.037 7.524,-0.873 10.966,-2.451c9.372,-4.257 18.717,-9.305 28.589,-12.244c4.442,-1.318 9.227,-2.03 13.405,-3.954c5.07,-2.36 9.979,-5.05 14.697,-8.052c3.73,-2.307 5.945,-5.272 8.739,-8.593c1.582,-1.885 3.796,-2.939 5.536,-4.665c2.03,-2.043 3.308,-4.415 5.575,-6.181c5.546,-4.419 10.394,-9.649 14.381,-15.512c3.664,-5.272 5.008,-11.862 6.59,-17.858c0.516,-1.541 0.869,-3.131 1.054,-4.745c0.066,-2.029 0,-4.138 0,-6.181l0,-0.329c27.664,36.598 44.896,80.005 49.864,125.611z" clip-rule="evenodd" fill-rule="evenodd"/>
    </g>
    <g id="svg_9" opacity="0.5">
     <path id="svg_10" fill="#C4B0B8" d="m413.773,80.7884c-0.976,5.7988 -1.503,11.5186 -2.636,17.3174c-1.134,5.7992 -1.424,12.2432 -3.77,17.5942c-3.954,9.225 -5.193,19.466 -11.441,27.597c-2.636,3.466 -4.719,7.196 -8.106,10.095c-1.292,0.85 -2.65,1.595 -4.06,2.228c-1.318,0.87 -2.715,2.188 -3.954,3.123c-6.709,4.903 -13.827,9.951 -19.771,15.815c-6.367,6.26 -12.43,12.402 -19.956,17.331c-2.267,1.463 -4.64,2.517 -6.973,3.809c-1.811,1.2 -3.7,2.278 -5.655,3.229c-2.37,0.732 -4.624,1.797 -6.695,3.163c-1.831,1.353 -3.818,2.482 -5.919,3.36c-3.611,1.424 -7.117,3.124 -10.729,4.521c-1.661,0.672 -3.4,1.054 -5.088,1.647c-4.784,1.819 -8.29,1.661 -14.498,2.148c-1.951,-0.856 -0.29,-0.935 1.318,-1.647c0.991,-0.451 1.865,-1.123 2.557,-1.964c1.336,-1.442 2.796,-2.765 4.363,-3.953c2.715,-1.964 6.3,-2.939 9.226,-4.705c3.73,-2.333 7.421,-5.167 11.033,-7.684c3.057,-2.109 5.351,-5.43 7.908,-8.066c2.715,-2.859 5.997,-5.416 8.963,-8.092c3.467,-3.084 6.445,-6.589 9.951,-9.647c3.628,-3.085 6.623,-6.845 8.818,-11.07c0.976,-1.806 2.558,-3.124 3.573,-4.969c1.063,-1.668 2.018,-3.402 2.86,-5.192c0.87,-2.149 2.003,-4.152 2.939,-6.221c1.054,-2.412 1.015,-5.272 1.542,-7.789c1.582,-7.538 3.098,-15.143 4.482,-22.721c0.974,-6.442 1.454,-12.9498 1.436,-19.4655c0.224,-6.181 1.964,-12.2039 1.991,-18.4509c0.218,-2.2881 -0.088,-4.596 -0.897,-6.7477c-1.318,-2.939 -2.794,-5.4957 -3.848,-8.5533c-3.217,-9.4074 -9.187,-17.6311 -17.135,-23.6039c-1.2,-0.8698 -5.009,-3.163 -8.779,-5.9174c26.711,6.4926 52.192,17.2772 75.447,31.9331c2.056,6.9891 2.568,14.3413 1.503,21.548z" clip-rule="evenodd" fill-rule="evenodd"/>
    </g>
    <g id="svg_11" opacity="0.5">
     <path id="svg_12" fill="#C4B0B8" d="m339.565,81.1969c-0.554,3.2421 -2.518,5.6934 -3.427,8.7774c-1.041,3.5047 -1.821,7.0816 -2.333,10.7017c-0.752,5.495 -0.264,10.952 -0.897,16.487c-1.39,10.437 -4.508,20.569 -9.226,29.983c-4.6,9.37 -12.469,17.053 -21.09,22.865c-8.883,6.063 -18.756,10.689 -28.47,15.17c-5.536,2.53 -11.375,3.584 -17.03,5.733c-4.745,1.766 -9.411,3.795 -14.13,5.64c-4.718,1.845 -8.963,5.008 -13.629,6.524c-2.899,0.936 -5.76,1.911 -8.659,2.965c-4.983,1.78 -9.504,4.415 -14.354,6.485c-6.857,2.962 -13.969,5.296 -21.248,6.971c-7.197,1.687 -14.156,0.593 -21.392,-0.303c-6.084,-0.561 -12.133,-1.44 -18.124,-2.636c-10.953,-2.635 -22.75,-1.884 -33.927,-1.884c-8.476,0 -18.269,0.83 -25.7689,-3.77c-2.1485,-1.317 -4.5211,-2.714 -5.7205,-4.968c-1.4763,-2.794 -1.6608,-6.326 -2.3067,-9.344c-1.3181,-6.208 -7.223,-10.438 -11.2564,-14.985c-5.2723,-5.957 -7.2758,-13.482 -8.3303,-21.166c-1.0116,-6.618 -0.8554,-13.362 0.4614,-19.927c12.892,-20.65 28.6759,-39.348 46.8714,-55.5235c-4.284,8.1316 -7.5266,16.7635 -11.2964,25.1595c-5.6809,12.573 -10.6896,26.279 -10.2019,40.328c0.1845,5.509 0.6326,11.677 3.572,16.461c2.2671,3.69 5.9973,6.365 9.6088,8.553c5.9185,3.545 11.8625,7.459 18.2295,9.898c7.196,2.754 14.393,5.39 21.55,8.144c4.179,1.582 8.212,3.387 12.733,3.954c5.552,0.444 11.128,0.492 16.687,0.145c19.692,-0.527 37.882,-9.753 56.414,-15.327c5.958,-1.806 12.139,-2.636 18.005,-4.587c3.528,-1.306 6.955,-2.87 10.255,-4.678c8.238,-4.257 17.24,-7.46 24.964,-12.771c7.708,-5.345 14.675,-11.687 20.72,-18.859c4.6,-5.509 6.67,-11.005 8.924,-17.779c4.442,-13.337 6.142,-26.174 7.341,-40.078c0.528,-5.9043 2.571,-11.176 3.955,-16.9089c0.896,-3.7956 0.369,-8.1711 -2.637,-10.9255c-6.102,-5.3771 -15.105,-8.7378 -22.908,-10.5434c-4.745,-1.1334 -9.226,-2.6358 -14.156,-2.6358c-4.93,0 -9.609,0 -14.433,0c-4.824,0 -9.148,-1.0148 -13.787,-1.0148c-5.457,0 -10.545,1.5419 -15.936,1.9637c-5.644,0.3998 -11.263,1.1037 -16.832,2.1086c-6.59,1.1598 -12.956,3.7957 -19.362,5.7198c-12.777,3.7729 -24.766,9.8227 -35.391,17.8578c-2.636,2.0296 -5.496,3.6507 -8.251,5.4562c-2.412,1.621 -3.282,3.4661 -4.824,5.8779c-3.144,4.7802 -5.436,10.0684 -6.775,15.6305c-0.837,4.0239 -1.13,8.1419 -0.87,12.2439c-0.066,5.545 -0.609,11.074 -1.621,16.526c-1.318,7.684 -8.7,19.097 -0.567,25.238c1.131,0.815 2.412,1.398 3.769,1.715c1.358,0.316 2.765,0.361 4.139,0.13c4.153,-0.665 8.253,-1.621 12.272,-2.859c11.269,-3.163 23.053,-6.933 34.731,-8.409c3.546,-0.448 6.894,-0.184 10.4,-1.08c2.188,-0.607 4.257,-1.318 6.472,-1.74c5.127,-0.936 10.254,-4.257 14.274,-7.604c1.846,-1.542 3.362,-3.427 5.273,-4.969c2.557,-2.109 5.641,-3.506 8.093,-5.772c3.506,-3.229 6.854,-6.735 10.136,-10.201c6.735,-7.077 11.599,-15.9338 17.32,-23.7227c3.624,-4.9422 7.644,-10.3193 8.633,-16.4608c0.751,-4.7445 -5.048,-7.2749 -8.594,-8.7773c-3.848,-1.6318 -8.058,-2.2183 -12.205,-1.7002c-5.76,1.028 -11.033,4.4546 -16.384,6.7478c-11.784,5.1662 -24.938,6.4446 -35.18,14.7211c-3.73,2.9785 -3.545,5.8384 -4.705,9.9899c-0.802,1.9856 -1.772,3.8991 -2.9,5.7197c-1.542,2.8599 -1.74,3.5716 -0.949,6.5895c0.791,3.018 1.516,7.038 4.943,8.356c2.965,1.173 7.75,0.158 10.32,-1.463c1.446,-1.142 3.026,-2.103 4.706,-2.86c1.094,-0.422 3.77,-1.661 4.824,-1.318c1.885,0.712 0.488,1.871 -0.303,2.899c-0.68,0.896 -1.251,1.869 -1.701,2.9c-0.202,1.038 -0.586,2.033 -1.133,2.939c-3.005,3.426 -8.989,5.153 -13.181,6.589c-3.651,1.318 -6.393,2.781 -10.386,2.821c-5.391,0 -3.203,-3.954 -3.955,-7.908c-1.054,-5.008 -6.827,-6.879 -7.46,-12.085c-0.633,-5.2058 0.975,-10.952 3.084,-15.512c0.968,-1.9128 2.092,-3.7422 3.361,-5.4693c1.991,-3.0444 4.93,-4.85 7.975,-6.8927c8.963,-5.9043 20.153,-8.7378 30.316,-12.1644c10.162,-3.4266 21.247,-4.0197 31.304,-7.6044c6.854,-2.4514 14.051,-3.2421 21.09,-4.5205c6.511,-1.1597 12.245,1.397 14.947,7.3408c2.873,6.2997 6.261,13.1133 4.257,20.0851c-2.715,9.5945 -5.905,19.123 -10.953,27.7954c-6.222,10.688 -13.787,20.783 -25.044,26.701c-7.908,4.177 -16.502,6.51 -24.859,9.634c-6.322,2.521 -12.891,4.372 -19.6,5.522c-10.439,1.581 -20.008,7.749 -30.21,10.319c-14.045,3.505 -28.265,6.268 -42.601,8.276c-5.043,0.93 -10.199,1.085 -15.289,0.462c-2.412,-0.343 -4.64,-0.119 -6.934,-1.134c-1.621,-0.711 -3.282,-1.476 -4.89,-2.148c-5.575,-2.412 -10.966,-6.405 -10.333,-13.179c0.606,-6.366 2.913,-12.771 4.112,-19.018c0.83,-4.151 0.909,-8.25 1.924,-12.401c0.752,-3.163 1.463,-6.392 2.333,-9.529c0.68,-2.739 1.788,-5.355 3.282,-7.749c2.966,-4.1516 5.273,-9.0016 8.397,-12.9553c1.341,-1.4487 2.549,-3.0144 3.611,-4.6786c0.719,-1.5263 1.646,-2.9456 2.755,-4.2174c1.199,-1.3179 2.03,-3.0443 3.308,-4.3623c2.509,-2.2741 5.207,-4.3289 8.067,-6.1415c6.138,-4.5158 12.723,-8.3889 19.653,-11.5581c6.748,-2.939 13.787,-4.9027 20.72,-7.2354c6.221,-2.1482 11.981,-5.5353 18.163,-7.9075c6.998,-2.6074 14.281,-4.3769 21.696,-5.2717c14.77,-1.9741 29.65,-3.0086 44.551,-3.0971c18.69,0.0791 39.397,-6.9981 57.139,1.9242c4.526,2.0848 8.085,5.8182 9.951,10.4379c3.137,7.5084 4.676,15.5871 4.521,23.7225c-0.039,3.453 0.369,7.0377 -0.197,10.3852z" clip-rule="evenodd" fill-rule="evenodd"/>
    </g>
   </g>
   <g id="svg_13" opacity="0.63">
    <g id="svg_14" opacity="0.63">
     <path id="svg_15" fill="#C4B0B8" d="m50.2326,161.629c1.3181,3.453 3.0051,6.471 4.1255,9.977c0.6888,2.501 1.699,4.902 3.0053,7.143c1.3971,2.267 2.2407,4.85 3.572,7.183c1.4989,2.573 2.6721,5.322 3.4929,8.184c0.5404,2.109 0.6326,4.336 1.2126,6.471c0.7381,2.728 1.4763,5.469 2.2408,8.198c0.5402,1.699 1.3262,3.311 2.333,4.784c1.0017,1.607 2.1617,4.125 3.7302,5.271c5.0482,3.572 12.2845,2.056 18.1104,1.424c5.2724,-0.567 10.6767,-0.607 15.9887,-1.318c2.791,-0.317 5.606,-0.383 8.409,-0.198c2.684,0.132 5.356,0.436 8.001,0.909c2.293,0.448 4.521,0.514 6.827,0.883c3.309,0.528 6.591,1.318 9.912,1.661c3.704,0.29 7.514,0.83 11.217,0.909c5.273,0.093 10.716,-0.448 16.015,0.119c4.622,0.681 9.277,1.121 13.945,1.318c6.077,0 12.14,-1.806 17.781,-3.862c9.398,-3.426 19.086,-6.22 28.524,-9.673c3.415,-1.47 6.696,-3.234 9.806,-5.272c2.887,-1.687 5.984,-2.794 8.765,-4.652c5.262,-3.258 11.066,-5.544 17.135,-6.748c5.932,-1.318 11.666,-3.466 17.544,-4.85c3.954,-0.922 7.724,-2.926 11.652,-3.44c-0.738,3.084 -7.473,4.205 -9.886,5.074c-5.575,1.99 -11.625,3.084 -17.016,5.509c-3.519,1.595 -6.024,4.639 -8.792,7.223c-2.636,2.372 -4.468,4.836 -7.407,6.8c-2.886,1.967 -6.149,3.313 -9.583,3.954c-7.579,1.515 -14.973,4.23 -22.526,5.904c-7.552,1.674 -14.934,3.4 -21.88,6.59c-1.924,0.896 -7.579,3.123 -7.816,5.904c-0.185,2.227 2.517,1.41 4.086,1.41c3.374,0 7.829,-0.804 11.006,0.527c2.271,1.13 4.646,2.039 7.091,2.715c5.768,0.982 11.695,0.362 17.135,-1.792c7.25,-2.821 15.171,-4.257 22.79,-5.707c5.272,-1.015 10.4,-2.53 15.659,-3.637c4.046,-0.718 8.13,-1.202 12.232,-1.45c5.957,-0.567 11.928,-1.252 17.846,-2.24c4.732,-0.804 9.912,-1.318 14.249,-3.387c3.598,-1.767 7.816,-2.874 10.993,-5.351c0.843,-0.659 5.641,-4.797 6.761,-3.849c2.333,2.004 -10.94,9.555 -11.862,10.175c-4.277,2.708 -8.828,4.956 -13.577,6.708c-6.036,2.464 -12.231,3.545 -18.453,5.113c-7.17,1.78 -14.314,3.256 -21.445,5.074c-7.131,1.819 -14.499,2.729 -21.63,5.114c-3.586,1.103 -7.084,2.474 -10.465,4.099c-3.085,1.581 -6.367,2.636 -9.411,4.283c-6.591,3.519 -12.746,8.461 -19.877,10.754c-6.199,2.145 -12.626,3.56 -19.152,4.218c-8.554,0.685 -17.135,-0.514 -25.597,-1.397c-8.671,-1.015 -17.395,-1.508 -26.124,-1.477c-8.067,0.132 -16.121,1.819 -24.174,2.201c-5.549,0.264 -10.0043,-1.713 -15.1053,-3.611c-5.5508,-2.154 -10.8753,-4.851 -15.896,-8.052c-4.4911,-2.815 -9.715,-4.236 -15.013,-4.086c-1.1319,0.157 -2.2478,0.413 -3.3348,0.765c-1.2819,0.097 -2.5581,-0.252 -3.6116,-0.989c-4.7451,-2.227 -9.5033,-5.891 -11.8627,-10.794c-2.2986,-5.278 -3.7958,-10.871 -4.4419,-16.592c-0.2505,-3.285 -0.2901,-6.582 -0.1186,-9.871c0,-4.363 -0.7909,-8.659 -0.7513,-13.048c0,-6.932 -0.7909,-14.286 1.3971,-20.994c2.0431,-6.313 6.2477,-12.204 10.0833,-17.529c2.188,-3.018 3.9543,-6.26 6.2346,-9.225c0.804,1.582 -1.1072,4.613 -1.5026,6.247c-0.4877,2.333 -1.3708,6.642 -2.5966,4.296z" clip-rule="evenodd" fill-rule="evenodd"/>
    </g>
    <g id="svg_16" opacity="0.63">
     <path id="svg_17" fill="#C4B0B8" d="m375.667,199.454c-2.043,2.636 -5.72,6.023 -6.287,9.489c-0.567,3.466 3.216,2.873 5.668,2.504c5.272,-0.83 10.808,-1.318 15.817,-3.4c2.965,-1.226 5.733,-2.926 8.699,-4.165c2.452,-1.041 5.075,-1.41 7.526,-2.438c5.839,-2.465 12.127,-3.769 17.913,-6.432c5.068,-2.554 9.677,-5.929 13.642,-9.989c2.847,-2.729 5.589,-4.85 7.553,-8.369c1.436,-2.636 3.15,-5.14 4.336,-7.908c1.456,-3.7 2.409,-7.578 2.834,-11.532c0.283,-2.102 0.31,-4.23 0.079,-6.339c-0.659,-4.823 -5.509,-5.271 -9.609,-4.705c-5.048,0.699 -9.108,3.638 -12.851,6.853c-3.743,3.216 -6.59,6.801 -10.676,9.226c-4.495,2.741 -8.871,5.509 -13.181,8.474c-2.329,1.47 -4.498,3.18 -6.472,5.1c-1.634,1.674 -3.216,3.467 -4.996,4.995c-1.837,1.507 -3.79,2.869 -5.839,4.073c-1.647,1.028 -3.163,2.477 -4.85,3.36c-2.213,1.109 -4.241,2.554 -6.011,4.284c-1.275,1.104 -2.373,2.397 -3.255,3.835c-1.384,2.609 -1.108,5.825 -0.04,3.084z" clip-rule="evenodd" fill-rule="evenodd"/>
    </g>
    <g id="svg_18" opacity="0.63">
     <path id="svg_19" fill="#C4B0B8" d="m434.19,129.525c0.87,-2.715 1.45,-3.73 3.954,-5.035c1.556,-0.817 2.636,-1.028 3.757,0.699c2.03,3.334 0.566,7.393 -0.752,10.609c-0.949,2.346 -4.732,4.705 -6.458,1.753c-1.16,-2.003 -1.121,-7.907 1.647,-8.738l-2.148,0.712z" clip-rule="evenodd" fill-rule="evenodd"/>
    </g>
    <g id="svg_20" opacity="0.63">
     <path id="svg_21" fill="#C4B0B8" d="m220.094,228.712c1.318,-2.439 1.621,-2.702 3.954,-3.585c1.477,-0.736 3.068,-1.218 4.706,-1.424c2.016,-0.197 4.218,-1.317 6.261,-0.553c3.137,1.12 2.544,3.875 0.421,5.825c-0.844,0.912 -1.933,1.562 -3.137,1.872c-1.641,0.43 -3.326,0.669 -5.021,0.711c-2.874,0 -5.273,0.119 -7.777,-1.568c-0.065,-0.262 -0.035,-0.539 0.086,-0.781c0.121,-0.241 0.324,-0.432 0.573,-0.537l-0.066,0.04z" clip-rule="evenodd" fill-rule="evenodd"/>
    </g>
    <g id="svg_22" opacity="0.63">
     <path id="svg_23" fill="#C4B0B8" d="m100.188,409.201c8.189,2.852 16.794,4.326 25.465,4.362c10.26,0.292 20.528,-0.016 30.751,-0.923c6.801,-0.645 13.55,-0.474 20.325,-1.436c3.282,-0.475 6.406,-0.33 9.688,-0.488c1.885,-0.079 3.862,-1.199 5.707,-0.619c7.131,2.174 -5.536,6.273 -6.973,6.985c-5.153,2.556 -10.913,3.439 -16.383,5.034c-2.109,0.606 -4.258,1.213 -6.327,1.924c-1.903,0.849 -3.857,1.576 -5.852,2.175c-8.397,1.832 -16.793,2.636 -25.163,4.441c-3.151,0.826 -6.435,1.018 -9.661,0.567c-3.348,-0.619 -6.472,-2.636 -9.451,-4.125c-3.726,-1.647 -7.306,-3.604 -10.703,-5.852c-1.744,-1.17 -3.3805,-2.493 -4.8898,-3.953c-0.6441,-0.86 -1.0938,-1.849 -1.3181,-2.9c-0.8436,-2.161 -0.804,-3.031 1.0545,-4.613c0.6744,-0.609 1.4948,-1.033 2.3817,-1.232c0.8868,-0.198 1.8097,-0.164 2.6797,0.099c0.013,0.211 0.053,0.409 -1.331,0.554z" clip-rule="evenodd" fill-rule="evenodd"/>
    </g>
    <g id="svg_24" opacity="0.63">
     <path id="svg_25" fill="#C4B0B8" d="m317.382,493.455c-4.26,1.191 -8.307,3.041 -11.995,5.483c-1.608,1.133 -3.585,3.07 -1.212,4.52c3.203,1.951 8.409,0.909 11.862,0.606c5.958,-0.54 11.863,-1.634 17.768,-2.412c4.033,-0.54 7.988,-0.962 11.968,-1.766c5.179,-1.149 10.281,-2.619 15.277,-4.401c3.706,-1.188 7.248,-2.835 10.545,-4.903c3.514,-1.967 6.891,-4.168 10.109,-6.59c4.099,-3.439 9.504,-6.128 11.085,-11.624c1.318,-4.573 -8.567,-2.925 -10.544,-2.635c-7.34,1.048 -14.552,2.845 -21.525,5.363c-3.018,1.068 -6.247,1.885 -9.226,3.177c-3.954,1.752 -7.737,3.835 -11.771,5.39c-1.911,0.751 -3.585,1.95 -5.523,2.636c-1.7,0.632 -3.413,1.199 -5.101,1.884c-1.687,0.686 -3.769,1.621 -5.694,2.241c-4.349,1.489 -8.725,2.688 -6.023,3.031z" clip-rule="evenodd" fill-rule="evenodd"/>
    </g>
    <g id="svg_26" opacity="0.63">
     <path id="svg_27" fill="#C4B0B8" d="m396.375,460.151c0.751,-2.464 2.332,-3.598 4.165,-5.377c1.423,-1.384 2.781,-2.873 4.85,-3.163c1.529,-0.224 3.954,1.542 3.282,3.295c-0.572,0.965 -1.267,1.851 -2.069,2.636c-0.676,1.087 -1.608,1.992 -2.715,2.636c-2.211,1.013 -4.718,1.172 -7.039,0.448l-0.474,-0.475z" clip-rule="evenodd" fill-rule="evenodd"/>
    </g>
    <g id="svg_28" opacity="0.63">
     <path id="svg_29" fill="#C4B0B8" d="m422.064,400.212c-1.732,1.041 -3.554,1.923 -5.444,2.636c-1.435,0.33 -2.887,0.581 -4.349,0.751c-4.363,0.686 -8.871,0.989 -13.274,1.424c-5.628,0.553 -11.216,1.318 -16.845,1.779c-9.938,0.751 -20.39,1.608 -29.894,4.665c-7.997,2.552 -15.737,5.848 -23.119,9.845c-6.546,3.383 -12.771,7.353 -18.598,11.861c-1.896,1.607 -3.688,3.332 -5.365,5.167c-1.221,1.139 -2.241,2.475 -3.018,3.953c-1.041,2.346 -0.092,3.954 1.964,5.272c3.203,2.043 7.091,2.227 10.755,2.728c5.444,0.751 10.861,1.437 16.279,2.28c5.604,0.919 11.253,1.534 16.924,1.845c5.813,0.264 11.863,0.145 17.399,-1.963c3.925,-1.405 7.734,-3.12 11.388,-5.127c3.559,-2.043 7.104,-4.059 10.479,-6.392c2.505,-1.477 4.886,-3.156 7.117,-5.021c0.936,-0.883 1.885,-1.648 2.86,-2.465c1.516,-1.318 2.637,-2.912 4.152,-4.191c3.434,-2.873 6.529,-6.127 9.227,-9.7c2.083,-2.741 4.613,-5.074 6.67,-7.815c1.212,-1.634 2.478,-2.491 3.202,-4.494c0.774,-2.279 1.274,-4.641 1.49,-7.038z" clip-rule="evenodd" fill-rule="evenodd"/>
    </g>
    <g id="svg_30" opacity="0.63">
     <path id="svg_31" fill="#C4B0B8" d="m433.953,392.068c0.92,-1.687 2.165,-3.175 3.664,-4.376c1.2,-1.133 2.782,-3.123 4.442,-3.651c0.411,-0.169 0.86,-0.223 1.299,-0.155c0.439,0.067 0.851,0.253 1.192,0.538c0.294,0.343 0.512,0.745 0.639,1.179c0.127,0.434 0.161,0.89 0.1,1.338c-0.343,2.003 -2.294,3.558 -3.955,4.428c-2.069,1.068 -3.282,0.527 -5.457,0.224l-1.924,0.475z" clip-rule="evenodd" fill-rule="evenodd"/>
    </g>
    <g id="svg_32" opacity="0.63">
     <path id="svg_33" fill="#C4B0B8" d="m509.611,321.243c-1.092,0.841 -2.082,1.805 -2.953,2.873c-1.318,1.911 -2.425,3.953 -3.954,5.706c-1.542,1.948 -2.914,4.024 -4.099,6.208c-1.556,2.715 -3.388,5.271 -4.838,7.999c-3.137,5.957 -5.628,12.231 -8.435,18.346c-1.411,3.057 -2.637,6.194 -3.955,9.225c-1.569,3.25 -2.699,6.693 -3.361,10.24c-0.408,2.557 -1.067,6.946 2.373,7.407c4.27,0.58 8.567,-3.097 11.678,-5.548c8.136,-6.542 15.114,-14.406 20.641,-23.262c5.536,-8.751 10.901,-19.268 9.517,-29.929c-0.507,-4.827 -0.401,-9.698 0.316,-14.498c0.659,-5.1 2.228,-10.2 2.32,-15.366c0,-3.664 0.672,-7.249 -0.132,-10.86c-0.11,-1.18 -0.666,-2.274 -1.555,-3.058c-0.949,-0.553 -1.608,0 -2.465,0.646c-2.565,1.862 -4.63,4.33 -6.011,7.183c-1.687,3.505 -1.779,7.288 -3.202,10.886c-0.396,1.279 -0.858,2.537 -1.384,3.769c-0.528,0.988 -1.174,1.937 -1.714,2.939c-0.811,1.808 -1.404,3.706 -1.766,5.654c-0.317,1.199 -0.501,2.319 -0.831,3.519c-0.263,0.935 -0.672,1.937 -0.856,2.886c-0.185,0.949 0.145,1.713 4.666,-2.965z" clip-rule="evenodd" fill-rule="evenodd"/>
    </g>
    <g id="svg_34" opacity="0.63">
     <path id="svg_35" fill="#C4B0B8" d="m470.121,384.516c-0.856,0.843 -6.037,5.851 -4.033,7.13c0.554,0.356 2.083,0 2.636,-0.251c1.045,-0.496 2.002,-1.159 2.834,-1.963c0.534,-0.384 0.949,-0.91 1.199,-1.518c0.249,-0.608 0.322,-1.274 0.211,-1.922c0,-2.254 -1.423,-2.188 -3.321,-1.424l0.474,-0.052z" clip-rule="evenodd" fill-rule="evenodd"/>
    </g>
    <g id="svg_36" opacity="0.63">
     <path id="svg_37" fill="#C4B0B8" d="m482.485,396.403c1.107,-1.476 1.423,-2.108 2.979,-2.714c1.135,-0.664 2.337,-1.207 3.585,-1.621c1.647,-0.264 2.412,0.355 2.544,2.016c0.237,2.833 -3.256,6.497 -4.825,8.514c-1.899,2.615 -4.113,4.987 -6.59,7.064c-3.572,2.794 -6.169,-1.714 -4.837,-5.061c0.804,-2.03 1.133,-4.428 2.399,-6.234c1.977,-2.833 4.929,-2.82 8.093,-3.4l-3.348,1.436z" clip-rule="evenodd" fill-rule="evenodd"/>
    </g>
    <g id="svg_38" opacity="0.63">
     <path id="svg_39" fill="#C4B0B8" d="m206.531,88.1292c-1.508,0.8176 -2.825,1.9449 -3.865,3.3077c-1.041,1.3629 -1.781,2.9305 -2.172,4.5998c-0.501,1.621 -1.134,5.0743 0.224,6.4713c2.32,2.398 8.541,-0.224 10.795,-1.094c4.389,-1.6872 8.858,-4.1912 13.431,-5.2719c8.634,-1.9901 18.111,-2.794 25.532,-8.1052c4.188,-3.1454 7.804,-6.9883 10.689,-11.3604c1.872,-2.7281 4.337,-4.9423 4.587,-8.4611c0.488,-7.1168 -9.451,-7.5912 -14.13,-6.4973c-9.995,2.2046 -19.719,5.4971 -28.998,9.8185c-5.456,2.6358 -12.231,5.9833 -16.08,10.886c-0.974,1.3668 -1.754,2.8614 -2.32,4.4414c-0.475,1.1202 -1.529,4.3491 2.307,1.2652z" clip-rule="evenodd" fill-rule="evenodd"/>
    </g>
    <g id="svg_40" opacity="0.63">
     <path id="svg_41" fill="#C4B0B8" d="m225.089,108.109c-1.173,-2.636 -1.753,-2.86 0.198,-4.455c1.646,-1.264 3.412,-2.363 5.272,-3.281c2.217,-1.104 4.668,-1.6556 7.144,-1.6082c4.983,0.593 2.716,6.2072 1.174,8.9092c-0.963,1.7 -1.674,3.268 -3.283,4.178c-1.898,1.08 -3.176,1.634 -5.272,0.935c-1.474,-0.563 -2.819,-1.42 -3.954,-2.517c-0.844,-0.751 -2.808,-2.122 -2.636,-3.466l0.619,-0.119l0.738,1.424z" clip-rule="evenodd" fill-rule="evenodd"/>
    </g>
    <g id="svg_42" opacity="0.63">
     <path id="svg_43" fill="#C4B0B8" d="m190.108,169.484c0.118,-2.359 -0.079,-2.886 1.397,-4.375c2.188,-2.241 5.404,-3.954 7.988,-5.615c5.892,-3.739 12.246,-6.699 18.901,-8.803c5.915,-1.899 11.977,-3.305 18.123,-4.204c4.587,-0.712 8.924,-2.228 13.537,-2.873c7.105,-0.976 15.817,-4.415 21.498,2.319c4.561,5.456 -3.875,12.678 -7.908,15.644c-3.422,2.468 -7.324,4.187 -11.455,5.047c-4.916,1.239 -9.767,2.715 -14.683,3.954c-9.134,2.267 -17.623,6.59 -26.362,10.03c-6.023,2.345 -10.32,2.121 -15.738,-1.463c-2.939,-2.017 -7.934,-7.17 -5.298,-9.661z" clip-rule="evenodd" fill-rule="evenodd"/>
    </g>
    <g id="svg_44" opacity="0.63">
     <path id="svg_45" fill="#C4B0B8" d="m272.896,128.813c-1.186,2.188 -4.138,6.194 -0.329,7.565c2.162,0.778 3.717,-0.962 5.272,-2.201c1.556,-1.239 3.862,-2.636 5.048,-4.652c0.34,-0.425 0.571,-0.927 0.672,-1.462c0.101,-0.535 0.07,-1.087 -0.091,-1.607c-0.162,-0.52 -0.448,-0.993 -0.834,-1.377c-0.386,-0.384 -0.86,-0.667 -1.381,-0.826c-4.468,-1.99 -6.59,2.293 -9.134,5.272l0.777,-0.712z" clip-rule="evenodd" fill-rule="evenodd"/>
    </g>
    <g id="svg_46" opacity="0.63">
     <path id="svg_47" fill="#C4B0B8" d="m342.847,85.2825c-3.954,4.1119 -6.34,8.8959 -5.694,14.7345c0.646,5.838 4.455,6.932 9.226,4.547c1.438,-0.588 2.823,-1.298 4.139,-2.122c1.318,-1.028 2.135,-2.9524 3.137,-4.2966c2.273,-2.8377 3.481,-6.3813 3.414,-10.0162c0,-3.598 0.422,-7.4463 -0.54,-10.9256c-0.528,-1.9242 -1.318,-4.5073 -3.006,-5.6934c-2.003,-1.3179 -3.532,0.4349 -4.995,1.621c-1.417,0.8846 -2.638,2.0509 -3.585,3.4266c-1.585,2.9846 -2.794,6.1542 -3.599,9.4363l1.503,-0.7116z" clip-rule="evenodd" fill-rule="evenodd"/>
    </g>
    <g id="svg_48" opacity="0.63">
     <path id="svg_49" fill="#C4B0B8" d="m262.194,208.02c0.171,-2.715 0.092,-2.899 2.056,-4.402c1.437,-1.198 2.947,-2.307 4.521,-3.321c3.028,-1.644 6.352,-2.67 9.78,-3.018c2.708,-0.344 5.458,0.114 7.908,1.318c1.543,0.87 1.832,2.636 1.45,4.468c-0.54,2.57 -3.097,4.204 -5.008,5.72c-1.912,1.515 -4.548,3.545 -6.96,4.125c-2.905,0.873 -5.984,0.995 -8.95,0.356c-1.792,-0.475 -5.575,-1.226 -5.536,-3.77l0.739,-1.476z" clip-rule="evenodd" fill-rule="evenodd"/>
    </g>
    <g id="svg_50" opacity="0.63">
     <path id="svg_51" fill="#C4B0B8" d="m297.162,183.046c1.753,-2.478 2.861,-4.679 5.536,-6.3c1.16,-0.712 4.073,-2.886 5.563,-2.886c0.599,0.114 1.152,0.402 1.588,0.829c0.436,0.427 0.736,0.973 0.863,1.569c0.159,1.252 -1.067,2.926 -1.74,3.954c-1.502,2.256 -3.607,4.046 -6.076,5.166c-1.104,0.575 -2.383,0.716 -3.585,0.396c-1.318,-0.369 -1.793,-1.595 -2.86,-1.99l0.711,-0.738z" clip-rule="evenodd" fill-rule="evenodd"/>
    </g>
    <g id="svg_52" opacity="0.63">
     <path id="svg_53" fill="#C4B0B8" d="m157.999,77.4277c-3.506,3.4793 -6.366,7.1563 -7.5,12.138c-0.269,0.7178 -0.317,1.5001 -0.136,2.2451c0.181,0.7451 0.582,1.4185 1.151,1.9327c1.859,1.6474 4.231,0.7512 6.406,0c6.089,-2.0691 11.863,-5.7066 17.135,-9.2254c4.851,-3.1894 11.349,-4.0856 15.066,-8.7246c2.016,-2.5041 4.125,-5.2717 2.188,-8.5929c-1.687,-2.8335 -5.971,-4.046 -8.99,-4.0987c-4.395,0.0562 -8.705,1.2164 -12.535,3.3739c-4.937,2.7785 -9.281,6.4995 -12.785,10.9519z" clip-rule="evenodd" fill-rule="evenodd"/>
    </g>
    <g id="svg_54" opacity="0.63">
     <path id="svg_55" fill="#C4B0B8" d="m138.017,62.4429c6.749,-1.3179 12.574,-2.7018 18.453,-6.2997c1.186,-0.7117 2.373,-1.0543 3.506,-1.7001c1.134,-0.6457 1.318,-1.397 2.162,-2.1877c-0.58,-2.7413 -7.975,-1.0939 -9.675,-0.369c-2.267,0.9489 -4.56,2.28 -6.762,3.387c-1.191,0.5291 -2.337,1.155 -3.427,1.8715c-2.201,1.6342 -3.519,4.4677 -4.995,6.7213l0.738,-1.4233z" clip-rule="evenodd" fill-rule="evenodd"/>
    </g>
   </g>
   <g id="svg_56" opacity="0.47">
    <g id="svg_57" opacity="0.47">
     <path id="svg_58" fill="#C4B0B8" d="m347.842,212.831c-1.939,1.219 -3.946,2.328 -6.01,3.321c-3.388,1.384 -6.472,3.334 -9.833,4.784c-3.954,1.713 -8.225,2.846 -12.298,4.243c-5.758,1.868 -11.295,4.356 -16.515,7.42c-5.273,3.216 -10.308,7.908 -13.01,13.496c-1.542,3.229 -2.175,7.591 -0.29,10.846c1.1,2.062 2.789,3.75 4.851,4.85c3.466,1.555 6.84,0.567 10.32,-0.25c4.403,-0.96 8.668,-2.47 12.693,-4.494c2.149,-1.12 4.192,-2.425 6.34,-3.559c2.149,-1.133 4.745,-2.056 7.105,-3.018c1.832,-0.751 3.704,-1.41 5.589,-2.003c2.314,-0.77 4.48,-1.929 6.405,-3.426c3.834,-2.752 7.037,-6.287 9.398,-10.373c2.94,-5.271 4.469,-10.648 3.454,-16.553c-0.791,-4.573 -4.152,-6.813 -8.199,-5.284z" clip-rule="evenodd" fill-rule="evenodd"/>
    </g>
    <g id="svg_59" opacity="0.47">
     <path id="svg_60" fill="#C4B0B8" d="m283.125,245.607c-1.318,-1.753 -2.162,-1.581 -4.271,-1.463c-1.63,0.176 -3.246,0.462 -4.837,0.857c-7.909,1.661 -15.975,2.504 -23.831,4.52c-4.352,0.957 -8.567,2.453 -12.548,4.455c-3.954,2.135 -8.08,4.046 -11.968,6.379c-8.865,5.509 -18.591,9.491 -28.774,11.782c-6.367,1.318 -12.733,2.636 -19.126,3.822c-3.848,0.711 -7.75,1.318 -11.586,2.109c-3.835,0.79 -7.631,1.91 -11.48,2.767c-6.89,1.407 -13.669,3.31 -20.285,5.694c-6.736,2.543 -13.603,4.902 -18.875,10.003c-2.702,2.635 -6.169,6.444 -6.156,10.451c0.142,2.826 1.053,5.561 2.636,7.907c5.273,8.725 15.409,13.904 24.214,18.372c12.205,6.194 26.717,6.998 40.069,8.54c17.434,1.881 35.055,0.991 52.21,-2.636c7.71,-1.568 15.474,-3.097 23.211,-4.547c9.332,-1.752 18.77,-2.991 28.075,-4.942c7.658,-1.621 15.369,-3.413 22.895,-5.601c4.139,-1.142 8.195,-2.564 12.14,-4.257c3.429,-1.648 6.76,-3.492 9.978,-5.522c2.746,-1.513 5.388,-3.208 7.908,-5.074c2.086,-1.81 3.953,-3.858 5.563,-6.102c2.741,-3.532 4.507,-7.433 6.695,-11.268c1.438,-2.703 3.022,-5.325 4.745,-7.855c1.78,-2.438 3.876,-4.731 5.813,-7.051c4.06,-4.889 9.042,-9.107 12.838,-14.181c2.215,-2.952 4.376,-6.668 4.68,-10.398c0.21,-2.543 0.224,-5.153 -2.439,-6.313c-2.604,-1.007 -5.428,-1.307 -8.185,-0.87c-2.758,0.539 -5.466,1.31 -8.093,2.307c-4.674,1.345 -9.207,3.136 -13.537,5.351c-10.861,5.825 -21.551,13.06 -33.782,15.656c-5.049,1.081 -10.097,1.635 -14.947,-0.369c-3.639,-1.392 -7.103,-3.206 -10.321,-5.403c-4.218,-3.044 -2.939,-6.656 -1.094,-10.82c0.791,-1.845 3.084,-5.839 2.465,-6.3z" clip-rule="evenodd" fill-rule="evenodd"/>
    </g>
    <g id="svg_61" opacity="0.47">
     <path id="svg_62" fill="#C4B0B8" d="m517.69,188.989c-0.032,4.444 -0.389,8.88 -1.067,13.272c-0.277,1.964 -0.607,3.954 -0.91,5.878c-0.408,2.636 -1.66,4.955 -2.28,7.551c-1.107,4.653 -3.321,8.685 -5.272,12.995c-1.951,4.31 -3.269,9.028 -5.273,13.456c-5.456,12.547 -8.712,25.844 -14.037,38.431c-2.636,6.233 -5.035,12.678 -7.909,18.78c-2.636,5.496 -5.76,10.754 -8.488,16.184c-1.028,2.03 -3.836,5.772 -1.7,7.907c1.7,1.687 4.797,0.132 6.59,-0.83c7.17,-3.835 10.215,-12.915 14.631,-19.281c2.24,-3.216 5.681,-5.641 8.014,-8.83c3.044,-4.165 6.656,-9.133 8.659,-13.838c4.166,-9.74 6.723,-19.835 10.334,-29.772c2.992,-8.211 3.44,-16.171 3.44,-24.79c0,-3.611 0.409,-7.235 -0.685,-10.688c-1.002,-3.256 -1.793,-8.646 -4.047,-26.425z" clip-rule="evenodd" fill-rule="evenodd"/>
    </g>
    <g id="svg_63" opacity="0.47">
     <path id="svg_64" fill="#C4B0B8" d="m504.378,201.352c-3.031,2.912 -9.226,10.068 -6.274,14.826c1.621,2.636 6.34,1.476 8.001,-0.764c1.423,-1.924 1.12,-5.14 1.12,-7.394c0,-1.239 0.409,-3.097 0,-4.217c-0.408,-1.12 -1.582,-1.318 -1.832,-2.451l-1.015,0z" clip-rule="evenodd" fill-rule="evenodd"/>
    </g>
    <g id="svg_65" opacity="0.47">
     <path id="svg_66" fill="#C4B0B8" d="m446.33,339.351c-3.876,2.296 -7.597,4.845 -11.138,7.63c-3.391,2.284 -6.977,4.265 -10.716,5.918c-9.43,4.484 -19.445,7.617 -29.749,9.304c-13.181,2.307 -26.731,4.06 -39.543,8.29c-9.727,3.203 -19.362,6.59 -28.998,10.029c-9.094,3.216 -19.428,5.523 -27.521,10.966c-1.99,1.317 -4.666,3.413 -3.954,6.102c1.133,4.296 9.951,4.467 13.088,4.599c9.464,0.395 19.06,0 28.537,0c4.547,0 9.108,-0.25 13.642,0.198c5.645,0.56 11.332,0.56 16.977,0c7.104,-0.633 14.499,-0.488 21.379,-2.636c13.181,-4.231 26.269,-9.226 39.174,-14.273c11.572,-4.573 28.365,-14.023 27.35,-28.48c-0.435,-6.26 -4.31,-15.011 -8.528,-17.647z" clip-rule="evenodd" fill-rule="evenodd"/>
    </g>
    <g id="svg_67" opacity="0.47">
     <path id="svg_68" fill="#C4B0B8" d="m465.363,350.738c-1.925,-3.954 -2.439,-4.995 -0.356,-8.646c1.318,-2.319 5.272,-5.733 8.225,-5.746c5.891,0 6.076,6.748 4.758,10.846c-1.16,3.585 -2.636,9.041 -6.92,9.226c-0.673,0.102 -1.36,0.05 -2.011,-0.15c-0.65,-0.201 -1.247,-0.546 -1.746,-1.01c-1.397,-1.028 -3.321,-4.31 -4.811,-4.56l2.861,0.04z" clip-rule="evenodd" fill-rule="evenodd"/>
    </g>
    <g id="svg_69" opacity="0.47">
     <path id="svg_70" fill="#C4B0B8" d="m50.5225,362.151c-1.0676,4.481 -1.7135,8.566 0.4745,12.876c3.0184,5.996 9.6879,10.016 15.817,11.953c3.8576,1.125 7.8456,1.741 11.8627,1.832c4.4947,0.211 8.9762,0.91 13.4709,0.989c6.7283,0.083 13.4434,0.615 20.1004,1.594c3.704,0.541 7.289,1.621 10.98,2.069c2.871,0.308 5.722,0.774 8.541,1.397c6.011,1.397 11.995,1.437 18.058,2.28c6.43,0.755 12.935,0.604 19.323,-0.448c5.549,-0.83 11.428,-1.568 14.064,-6.932c2.069,-4.217 0.553,-6.484 -3.137,-9.357c-3.282,-2.557 -8.792,-3.664 -12.641,-4.929c-5.891,-1.951 -11.744,-3.756 -17.794,-5.272c-8.435,-2.043 -16.555,-5.047 -24.898,-7.512c-17.135,-5.048 -33.5718,-12.085 -51.4978,-13.706c-7.4208,-0.686 -16.1992,-0.765 -23.0532,2.636c-2.2069,1.193 -3.8894,3.167 -4.7188,5.535c-1.4762,3.571 0.3032,5.72 5.0483,4.995z" clip-rule="evenodd" fill-rule="evenodd"/>
    </g>
    <g id="svg_71" opacity="0.47">
     <path id="svg_72" fill="#C4B0B8" d="m49.5205,330.758c0.9886,3.137 0.7908,4.112 3.6906,4.995c1.864,0.77 3.9153,0.967 5.8919,0.566c2.4516,-0.711 5.3778,-2.517 5.6941,-5.087c0.3559,-2.86 -2.1749,-4.981 -4.5079,-6.233c-4.6792,-2.504 -8.4489,-2.307 -10.7687,2.899l0,2.86z" clip-rule="evenodd" fill-rule="evenodd"/>
    </g>
    <g id="svg_73" opacity="0.47">
     <path id="svg_74" fill="#C4B0B8" d="m250.304,120.484c-0.115,-1.705 0.236,-3.408 1.015,-4.929c0.935,-2.126 2.027,-4.179 3.269,-6.141c0.91,-1.318 1.489,-2.781 2.346,-4.152c1.213,-1.937 2.452,-3.703 3.493,-5.746c1.495,-2.5478 3.263,-4.9252 5.273,-7.0904c1.282,-1.4609 2.396,-3.0613 3.321,-4.7709c0.751,-1.4233 1.885,-2.5304 2.636,-3.9537c1.002,-1.7397 1.674,-3.7825 2.636,-5.6012c0.944,-1.9665 2.009,-3.8724 3.19,-5.7066c0.76,-1.3986 1.739,-2.6667 2.9,-3.756c0.868,-0.8775 1.817,-1.6717 2.834,-2.3723c2.293,-1.0016 3.466,-0.2109 4.653,1.911c1.838,3.738 2.682,7.8866 2.451,12.0458c-0.18,4.3124 -0.974,8.577 -2.359,12.6652c-1.124,2.8414 -2.51,5.5724 -4.139,8.1581c-2.807,4.942 -6.168,9.515 -9.45,14.154c-1.938,2.742 -5.207,5.008 -7.909,7.077c-1.654,1.301 -3.529,2.292 -5.536,2.926c-1.133,0.369 -2.715,1.147 -3.954,0.896c-1.151,-0.356 -2.275,-0.796 -3.361,-1.318c-2.742,-1.014 -4.06,-3.373 -3.309,-4.296z" clip-rule="evenodd" fill-rule="evenodd"/>
    </g>
    <g id="svg_75" opacity="0.47">
     <path id="svg_76" fill="#C4B0B8" d="m239.839,124.293c-1.648,0.83 -3.375,1.41 -4.073,3.216c-0.198,0.487 -0.514,1.528 -0.172,2.042c1.318,1.911 5.853,-0.645 6.881,-1.673c1.028,-1.028 2.162,-2.913 1.173,-4.271c-0.228,-0.274 -0.509,-0.5 -0.827,-0.663c-0.318,-0.163 -0.665,-0.26 -1.021,-0.285c-0.356,-0.024 -0.714,0.024 -1.051,0.141c-0.337,0.118 -0.647,0.303 -0.91,0.544l0,0.949z" clip-rule="evenodd" fill-rule="evenodd"/>
    </g>
    <g id="svg_77" opacity="0.47">
     <path id="svg_78" fill="#C4B0B8" d="m324.051,56.2618c-1.107,0.4817 -2.12,1.1554 -2.992,1.9901c-0.408,0.7572 -0.718,1.5632 -0.923,2.3986c-1.118,3.0123 -1.861,6.1504 -2.214,9.344c-0.316,3.1367 -0.409,8.6851 3.256,9.9767c7.117,2.504 17.517,-2.6358 18.097,-10.6092c0.329,-4.5337 -2.135,-8.751 -4.785,-12.204c-1.295,-1.8372 -2.819,-3.5023 -4.534,-4.9554c-0.596,-0.4705 -1.278,-0.8187 -2.009,-1.0245c-0.731,-0.2058 -1.495,-0.2652 -2.248,-0.1748c-2.465,0.5008 -4.337,2.9522 -1.648,5.2585z" clip-rule="evenodd" fill-rule="evenodd"/>
    </g>
    <g id="svg_79" opacity="0.47">
     <path id="svg_80" fill="#C4B0B8" d="m322.614,95.2723c0,-1.5552 0,-1.9374 1.028,-2.9522c0.653,-0.7252 1.441,-1.3161 2.32,-1.7396c1.687,-0.5535 2.781,0.6985 2.86,2.2932c0.066,1.2125 0.119,3.677 -0.975,4.5204c-1.094,0.8435 -5.523,0.0791 -5.272,-1.6474l0.039,-0.4744z" clip-rule="evenodd" fill-rule="evenodd"/>
    </g>
    <g id="svg_81" opacity="0.47">
     <path id="svg_82" fill="#C4B0B8" d="m374.481,62.9173c-0.725,2.9653 -0.619,6.0229 -1.186,9.0541c-0.906,4.9666 -1.452,9.9922 -1.635,15.0375c-0.092,2.6358 0,5.1794 -0.131,7.7757c-0.35,3.1766 -0.455,6.3754 -0.317,9.5684c0.422,4.125 0.883,8.461 3.625,11.755c1.951,2.346 4.679,1.49 7.249,0.541c2.049,-0.998 3.978,-2.228 5.747,-3.664c1.44,-0.943 2.799,-2.005 4.06,-3.176c5.681,-5.272 10.795,-11.0838 13.075,-18.7146c1.648,-5.5484 3.269,-11.8612 1.912,-17.581c-0.731,-3.6591 -2.377,-7.0734 -4.785,-9.9239c-1.897,-2.0726 -4.169,-3.7674 -6.696,-4.995c-2.096,-1.1202 -4.363,-1.2125 -6.59,-1.7396c-1.869,-0.4186 -3.779,-0.6219 -5.694,-0.6063c-1.771,0.008 -3.536,0.1845 -5.273,0.5272c-3.73,0.6985 -4.653,5.6539 -3.361,6.1415z" clip-rule="evenodd" fill-rule="evenodd"/>
    </g>
    <g id="svg_83" opacity="0.47">
     <path id="svg_84" fill="#C4B0B8" d="m380.188,124.767c0.659,-2.069 2.149,-4.204 4.587,-3.071c0.867,0.393 1.547,1.109 1.894,1.995c0.347,0.886 0.334,1.873 -0.036,2.75c-0.34,0.646 -0.893,1.156 -1.565,1.444c-0.672,0.288 -1.422,0.337 -2.125,0.137c-0.921,-0.384 -1.719,-1.013 -2.307,-1.818c-0.857,-1.147 -0.158,-2.043 0,-3.348l-0.448,1.911z" clip-rule="evenodd" fill-rule="evenodd"/>
    </g>
    <g id="svg_85" opacity="0.47">
     <path id="svg_86" fill="#C4B0B8" d="m386.858,175.665c-1.884,0.178 -3.742,0.571 -5.536,1.173c-0.169,0.422 -0.405,0.814 -0.699,1.16c-0.382,0.501 -1.516,1.16 -1.318,1.885c2.399,1.014 5.826,-0.607 7.909,-1.727c1.097,-0.533 2.12,-1.207 3.044,-2.003c0.595,-0.523 1.137,-1.101 1.622,-1.727c0.764,-1.383 0,-2.108 -1.411,-2.095c-1.41,0.013 -4.863,1.107 -4.995,2.86l1.384,0.474z" clip-rule="evenodd" fill-rule="evenodd"/>
    </g>
    <g id="svg_87" opacity="0.47">
     <path id="svg_88" fill="#C4B0B8" d="m465.837,167.586c0.05,1.617 -0.318,3.219 -1.067,4.653c-0.672,1.7 -1.621,3.716 -1.318,5.614c0.659,4.494 6.867,3.598 10.03,3.189c3.717,-0.487 7.25,-1.318 10.031,-3.953c2.046,-1.697 3.355,-4.12 3.651,-6.761c0.659,-4.771 1.766,-12.837 -5.272,-12.745c-2.928,0.197 -5.737,1.231 -8.093,2.979c-1.62,1.143 -3.048,2.535 -4.231,4.125c-1.635,1.911 -3.441,3.506 -3.731,2.899z" clip-rule="evenodd" fill-rule="evenodd"/>
    </g>
    <g id="svg_89" opacity="0.47">
     <path id="svg_90" fill="#C4B0B8" d="m416.356,426.333c2.057,-6.668 5.273,-12.335 11.376,-16.118c1.423,-0.883 2.636,-2.029 4.336,-1.146c1.397,0.738 1.134,2.359 0.699,3.743c-0.839,2.142 -2.038,4.126 -3.546,5.864c-1.429,1.613 -2.947,3.144 -4.547,4.587c-0.905,0.989 -2.049,1.728 -3.322,2.148c-1.702,0.059 -3.385,0.37 -4.996,0.922z" clip-rule="evenodd" fill-rule="evenodd"/>
    </g>
    <g id="svg_91" opacity="0.47">
     <path id="svg_92" fill="#C4B0B8" d="m174.172,433.99c0.119,-2.556 1.595,-3.756 3.611,-5.443c4.498,-3.486 9.62,-6.081 15.092,-7.643c4.667,-1.463 10.229,-2.491 15.066,-1.16c2.162,0.606 4.864,1.647 5.787,3.861c1.581,3.822 -2.531,9.45 -5.576,11.558c-3.836,2.636 -9.385,3.453 -13.774,4.784c-4.095,1.223 -8.398,1.586 -12.64,1.068c-1.527,-0.088 -3.037,-0.367 -4.495,-0.83c-1.383,-0.342 -2.747,-0.755 -4.086,-1.239c-1.186,-0.633 -2.728,-1.621 -2.834,-3.031c-0.034,-0.847 0.166,-1.686 0.58,-2.425c0.751,-1.213 2.333,-1.371 3.269,0.5z" clip-rule="evenodd" fill-rule="evenodd"/>
    </g>
   </g>
   <g id="svg_93">
    <g id="svg_94">
     <path id="svg_95" fill="#C4B0FF" d="m458.943,150.401c-1.555,1.041 -4.508,2.517 -3.954,4.863c0.348,1.045 0.753,2.07 1.213,3.071c0.293,0.925 0.483,1.88 0.567,2.846c0.168,1.589 0.775,3.099 1.753,4.363c0.711,0.777 1.463,0 1.95,-0.751c0.605,-0.76 0.988,-1.672 1.108,-2.636c0.018,-1.242 0.164,-2.478 0.434,-3.69c0.132,-0.475 0.488,-0.897 0.594,-1.318c0.111,-0.671 0.138,-1.353 0.079,-2.03c-0.043,-1.082 -0.428,-2.122 -1.101,-2.97c-0.673,-0.849 -1.599,-1.461 -2.643,-1.748z" clip-rule="evenodd" fill-rule="evenodd"/>
    </g>
    <g id="svg_96">
     <path id="svg_97" fill="#C4B0FF" d="m434.084,284.209c-0.276,0.145 -0.606,0.25 -0.751,0.54c-0.066,0.16 -0.106,0.329 -0.119,0.501c-0.065,0.751 0.976,1.081 1.49,1.226c0.747,0.239 1.536,0.32 2.317,0.239c0.78,-0.082 1.535,-0.325 2.217,-0.714c0.504,-0.306 0.939,-0.714 1.277,-1.197c0.338,-0.483 0.572,-1.031 0.687,-1.61c0.001,-0.722 -0.201,-1.43 -0.583,-2.043c-0.382,-0.613 -0.929,-1.106 -1.579,-1.423c-0.543,-0.397 -1.183,-0.641 -1.852,-0.708c-0.67,-0.068 -1.345,0.045 -1.957,0.326c-0.448,0.265 -0.8,0.667 -1.002,1.147c-0.145,0.395 -0.118,0.817 -0.237,1.212c-0.119,0.395 -0.514,0.923 -0.435,1.502c0.055,0.385 0.241,0.739 0.527,1.002z" clip-rule="evenodd" fill-rule="evenodd"/>
    </g>
    <g id="svg_98">
     <path id="svg_99" fill="#C4B0FF" d="m442.56,286.753c-0.008,-0.157 0.025,-0.312 0.097,-0.451c0.072,-0.139 0.179,-0.256 0.311,-0.34c0.108,-0.124 0.257,-0.205 0.419,-0.227c0.163,-0.022 0.328,0.017 0.464,0.108c0.122,0.09 0.224,0.203 0.302,0.332c0.078,0.13 0.129,0.273 0.151,0.423c0.022,0.149 0.015,0.302 -0.022,0.448c-0.037,0.146 -0.103,0.284 -0.193,0.405c-0.14,0.143 -0.313,0.249 -0.504,0.309c-0.191,0.06 -0.394,0.071 -0.59,0.034c-0.209,-0.06 -0.391,-0.189 -0.515,-0.367c-0.125,-0.177 -0.185,-0.392 -0.171,-0.608l0.251,-0.066z" clip-rule="evenodd" fill-rule="evenodd"/>
    </g>
    <g id="svg_100">
     <path id="svg_101" fill="#C4B0FF" d="m463.399,255.109c-0.51,0.044 -0.983,0.285 -1.318,0.673c-0.121,0.093 -0.216,0.216 -0.276,0.357c-0.06,0.141 -0.083,0.294 -0.067,0.447c0.145,0.965 0.643,1.843 1.397,2.464c0.244,0.187 0.528,0.315 0.83,0.374c0.302,0.06 0.613,0.049 0.91,-0.031c0.537,-0.239 1.031,-0.564 1.463,-0.962c0.412,-0.295 0.803,-0.617 1.173,-0.962c0.372,-0.243 0.666,-0.586 0.848,-0.99c0.182,-0.404 0.245,-0.852 0.18,-1.29c-0.097,-0.434 -0.308,-0.834 -0.612,-1.158c-0.303,-0.325 -0.688,-0.562 -1.114,-0.688c-0.58,-0.105 -1.177,-0.051 -1.727,0.159c-0.685,0.184 -1.173,0.184 -1.687,1.607z" clip-rule="evenodd" fill-rule="evenodd"/>
    </g>
    <g id="svg_102">
     <path id="svg_103" fill="#C4B0FF" d="m459.51,257.89c0.419,0.155 0.798,0.402 1.107,0.725c-0.079,0.211 0.132,0.395 0,0.62c-0.132,0.224 -0.725,0.079 -0.962,0c-0.325,-0.119 -0.59,-0.36 -0.738,-0.673c0,-0.118 -0.29,-0.632 0,-0.579l0.593,-0.093z" clip-rule="evenodd" fill-rule="evenodd"/>
    </g>
    <g id="svg_104">
     <path id="svg_105" fill="#C4B0FF" d="m413.219,275.023c-0.422,0.475 -0.896,0.989 -0.593,1.727c0.173,0.276 0.43,0.49 0.734,0.609c0.304,0.119 0.638,0.136 0.953,0.05c0.33,0 0.699,-0.132 0.844,-0.488c0.145,-0.356 0.197,-0.791 0.316,-1.16c0.277,-0.896 1.318,-1.318 0.791,-2.385c-0.118,-0.238 -0.288,-0.446 -0.498,-0.609c-0.21,-0.162 -0.455,-0.274 -0.715,-0.327c-0.857,0 -1.529,0.791 -2.03,1.489l0.198,1.094z" clip-rule="evenodd" fill-rule="evenodd"/>
    </g>
    <g id="svg_106">
     <path id="svg_107" fill="#C4B0FF" d="m287.646,364.483c0.263,-0.566 0.579,-1.607 1.555,-1.963c0.589,-0.206 1.23,-0.206 1.819,0c1.463,0.237 2.913,0.698 1.951,2.148c-0.684,0.787 -1.613,1.321 -2.637,1.516c-0.87,0.145 -2.478,-0.132 -2.399,-0.87l-0.289,-0.831z" clip-rule="evenodd" fill-rule="evenodd"/>
    </g>
    <g id="svg_108">
     <path id="svg_109" fill="#C4B0FF" d="m376.089,57.1844c-0.33,1.3179 -0.778,2.9653 0.724,3.9538c1.029,0.6326 2.637,0 3.493,-0.6985c1.476,-1.341 2.483,-3.1192 2.874,-5.074c0.224,-1.7265 -1.859,-3.5716 -3.44,-3.7692c-3.23,-0.3954 -4.956,4.7313 -5.141,7.1431l1.49,-1.5552z" clip-rule="evenodd" fill-rule="evenodd"/>
    </g>
    <g id="svg_110">
     <path id="svg_111" fill="#C4B0FF" d="m368.892,347.93c-0.986,1.505 -1.363,3.328 -1.055,5.101c0.132,1.067 0.145,2.504 1.542,2.86c3.296,0.83 6.71,-5.272 7.593,-7.288c0.765,-1.583 1.123,-3.332 1.041,-5.088c-0.092,-0.962 -0.804,-2.846 -1.951,-3.242c-0.802,-0.147 -1.629,-0.084 -2.4,0.181c-0.771,0.266 -1.46,0.725 -2.002,1.335c-2.478,2.478 -2.294,5.338 -3.638,8.013l0.87,-1.872z" clip-rule="evenodd" fill-rule="evenodd"/>
    </g>
    <g id="svg_112">
     <path id="svg_113" fill="#C4B0FF" d="m367.165,347.706c-0.86,0.127 -1.705,0.348 -2.517,0.659c-0.409,0.238 -1.055,0.607 -1.2,0.989c-0.145,0.382 0.159,0.975 0.554,1.318c0.169,0.122 0.365,0.203 0.571,0.235c0.206,0.032 0.417,0.015 0.615,-0.051c0.322,-0.19 0.607,-0.435 0.844,-0.725c0.378,-0.404 0.714,-0.845 1.002,-1.318c0.168,-0.205 0.309,-0.431 0.421,-0.672c0.119,-0.369 -0.158,-0.461 -0.237,-0.738l-0.053,0.303z" clip-rule="evenodd" fill-rule="evenodd"/>
    </g>
    <g id="svg_114">
     <path id="svg_115" fill="#C4B0FF" d="m363.396,362.335l1.107,0.33c-0.119,0.369 0,0.777 -0.475,1.054c-0.466,0.195 -0.975,0.263 -1.476,0.198c-0.488,-0.106 -0.765,-0.382 -0.699,-0.804c0.066,-0.422 0.673,-0.738 1.239,-0.883l0.304,0.105z" clip-rule="evenodd" fill-rule="evenodd"/>
    </g>
    <g id="svg_116">
     <path id="svg_117" fill="#C4B0FF" d="m307.614,374.645c0,0.395 0,0.672 0.448,0.843c0.379,0.118 0.782,0.136 1.17,0.053c0.388,-0.083 0.748,-0.265 1.045,-0.527c0.804,-0.752 1.516,-2.135 1.015,-2.887c-0.284,-0.289 -0.66,-0.472 -1.063,-0.518c-0.403,-0.046 -0.81,0.049 -1.152,0.268c-0.4,0.283 -0.771,0.605 -1.107,0.962c-0.181,0.243 -0.308,0.521 -0.374,0.816c-0.066,0.295 -0.069,0.601 -0.008,0.897l0.026,0.093z" clip-rule="evenodd" fill-rule="evenodd"/>
    </g>
    <g id="svg_118">
     <path id="svg_119" fill="#C4B0FF" d="m248.959,279.61c-0.395,0.355 -0.593,0.474 -0.685,0.975c-0.08,0.268 -0.107,0.549 -0.077,0.828c0.029,0.278 0.114,0.548 0.248,0.793c0.861,1.02 2.049,1.709 3.362,1.95c0.461,0.133 0.947,0.155 1.418,0.066c0.472,-0.089 0.916,-0.288 1.297,-0.58c0.471,-0.307 0.872,-0.712 1.174,-1.188c0.302,-0.475 0.5,-1.009 0.579,-1.566c0.142,-0.543 0.107,-1.116 -0.099,-1.638c-0.206,-0.521 -0.573,-0.963 -1.048,-1.262c-0.905,-0.693 -1.948,-1.187 -3.058,-1.449c-0.428,-0.077 -0.867,-0.05 -1.283,0.078c-0.415,0.129 -0.793,0.355 -1.103,0.66c-0.659,0.553 -1.529,1.555 -0.725,2.333z" clip-rule="evenodd" fill-rule="evenodd"/>
    </g>
    <g id="svg_120">
     <path id="svg_121" fill="#C4B0FF" d="m257.606,283.471c0,-0.316 0,-0.698 0.317,-0.791c0.29,-0.004 0.578,0.049 0.848,0.158c0.269,0.109 0.514,0.27 0.72,0.475c0.29,0.337 0.449,0.768 0.448,1.212c-0.095,0.295 -0.291,0.547 -0.553,0.712c-0.18,0.157 -0.406,0.251 -0.644,0.268c-0.238,0.016 -0.475,-0.045 -0.674,-0.176c-0.277,-0.171 -0.949,-0.527 -0.844,-0.935l0.382,-0.923z" clip-rule="evenodd" fill-rule="evenodd"/>
    </g>
    <g id="svg_122">
     <path id="svg_123" fill="#C4B0FF" d="m92.1473,249.732c-2.4745,-3.361 -3.6877,-7.485 -3.427,-11.65c0.0922,-1.779 -0.1054,-4.995 2.4253,-4.745c3.4006,0.33 5.1405,5.602 6.0895,8.237c1.4104,3.954 2.7809,7.908 2.2803,12.138c-0.6854,5.786 -8.3039,-5.733 -9.0553,-6.8l1.6872,2.82z" clip-rule="evenodd" fill-rule="evenodd"/>
    </g>
    <g id="svg_124">
     <path id="svg_125" fill="#C4B0FF" d="m99.4759,230.609c-0.6063,3.361 0.8961,8.132 4.5341,9.226c1.318,0.382 1.779,-0.422 2.465,-1.648c0.388,-0.572 0.646,-1.223 0.755,-1.906c0.109,-0.683 0.068,-1.382 -0.122,-2.047c-0.419,-0.896 -0.946,-1.737 -1.569,-2.504c-0.358,-0.438 -0.672,-0.91 -0.936,-1.411c-0.25,-0.54 -0.158,-0.962 -0.58,-1.436c-1.015,-1.147 -4.9426,-2.082 -4.5471,0.593l0,1.133z" clip-rule="evenodd" fill-rule="evenodd"/>
    </g>
    <g id="svg_126">
     <path id="svg_127" fill="#C4B0FF" d="m136.541,468.955c0.799,-2.13 2.253,-3.952 4.151,-5.206c2.17,-1.462 4.579,-2.532 7.118,-3.163c2.404,-0.554 4.919,-0.361 7.21,0.554c2.228,1.186 4.205,2.952 6.314,4.322c1.911,1.252 3.835,1.951 5.509,3.612c1.498,1.537 2.652,3.374 3.388,5.39c1.16,3.057 2.003,7.749 0.698,10.859c-1.186,2.834 -2.86,2.874 -5.694,2.821c-3.954,-0.066 -7.816,-3.308 -10.32,-6.208c-1.122,-1.52 -2.389,-2.928 -3.783,-4.204c-1.806,-1.423 -3.691,-2.741 -5.589,-4.033c-1.861,-1.028 -3.661,-2.164 -5.391,-3.4c-0.725,-0.632 -3.071,-2.425 -3.611,-1.344z" clip-rule="evenodd" fill-rule="evenodd"/>
    </g>
    <g id="svg_128">
     <path id="svg_129" fill="#C4B0FF" d="m205.054,289.27c-0.25,1.45 -0.619,2.082 0.448,2.794c0.329,0.235 0.723,0.361 1.127,0.361c0.405,0 0.799,-0.126 1.127,-0.361c0.804,-0.475 2.637,-2.188 2.36,-3.203c-0.475,-2.122 -5.8,-2.201 -5.523,0.369l0.461,0.04z" clip-rule="evenodd" fill-rule="evenodd"/>
    </g>
    <g id="svg_130">
     <path id="svg_131" fill="#C4B0FF" d="m304.82,357.34c-0.857,-3.953 3.176,-9.713 7.737,-12.942c6.498,-4.612 16.371,-5.614 23.646,-4.639c6.103,0.804 11.112,4.033 12.338,8.409c0.329,1.173 0.105,2.398 0.382,3.571c0.224,0.896 0.461,1.41 -0.857,2.162c-3.282,1.858 -8.475,3.004 -12.166,3.611c-4.112,0.815 -8.29,1.257 -12.482,1.318c-3.533,-0.079 -6.907,-0.593 -10.439,-0.725c-1.684,0.006 -3.365,-0.14 -5.022,-0.435c-0.831,-0.158 -2.9,0.132 -3.137,-0.33z" clip-rule="evenodd" fill-rule="evenodd"/>
    </g>
    <g id="svg_132">
     <path id="svg_133" fill="#C4B0FF" d="m338.286,332.972c0.606,0.751 0.633,1.186 1.832,1.318c0.935,-0.007 1.848,-0.276 2.636,-0.778c0.963,-0.553 2.294,-1.871 1.819,-2.635c-0.843,-1.437 -6.59,-0.58 -5.997,1.318l-0.29,0.777z" clip-rule="evenodd" fill-rule="evenodd"/>
    </g>
    <g id="svg_134">
     <path id="svg_135" fill="#C4B0FF" d="m428.575,256.533c0.179,-1.088 0.578,-2.129 1.173,-3.058c0.279,-0.183 0.592,-0.309 0.92,-0.37c0.328,-0.061 0.665,-0.056 0.991,0.014c0.602,0.037 1.187,0.213 1.708,0.515c0.522,0.302 0.966,0.721 1.297,1.225c0.575,0.542 1.025,1.204 1.318,1.937c0.91,4.152 -6.406,2.359 -7.368,-0.263l-0.039,0z" clip-rule="evenodd" fill-rule="evenodd"/>
    </g>
   </g>
   <path id="svg_136" fill="url(#paint2_radial_110_3490)" d="m454.916,528.005c58.817,-37.654 91.749,-91.211 73.556,-119.623c-18.194,-28.412 -80.623,-20.92 -139.441,16.734c-58.817,37.654 -91.749,91.211 -73.556,119.623c18.194,28.412 80.623,20.92 139.441,-16.734z"/>
  </g>
  <path id="svg_137" fill="#CAB3DA" d="m582.013,432.573c10.754,-1.522 21.584,-6.119 32.466,-15.704c24.268,-21.373 19.638,-57.973 1.431,-79.763c-18.611,-22.203 -56.388,-35.345 -101.621,0.711c-76.614,61.071 -108.493,38.815 -108.804,38.569l-5.564,7.19c1.477,1.171 37.014,27.531 120.092,-38.663c40.082,-31.891 72.243,-21.969 88.98,-1.985c15.466,18.508 19.686,49.385 -0.462,67.112c-25.006,22.001 -49.922,13.551 -76.299,4.619c-10.611,-3.604 -21.582,-7.322 -32.638,-8.999c-39.483,-5.988 -64.105,17.56 -65.136,18.561l6.356,6.497c7.855,-6.646 17.049,-11.521 26.958,-14.293c9.908,-2.772 20.297,-3.375 30.46,-1.769c10.25,1.543 20.845,5.135 31.092,8.61c17.181,5.861 34.833,11.834 52.689,9.307z"/>
  <path id="svg_138" fill="#CAB3DA" d="m525.546,517.354c0,0 22.627,20.254 39.771,10.362l-39.771,-10.362z" clip-rule="evenodd" fill-rule="evenodd"/>
  <path id="svg_139" fill="url(#paint3_radial_110_3490)" d="m212.762,349.467c8.982,16.667 52.068,32.41 73.976,26.053c0.978,-0.279 1.94,-0.614 2.88,-1.001c12.927,-5.473 20.84,-20.736 24.734,-30.657c1.189,-2.931 2.202,-5.931 3.033,-8.984l-5.615,-44.74c0,0 -0.567,0.191 -1.532,0.59c-5.74,2.337 -11.183,5.35 -16.212,8.973c-8.325,6.201 -38.376,16.844 -54.913,15.528c-16.537,-1.316 -23.008,-5.602 -26.783,-4.488c-3.775,1.114 -5.899,8.038 -5.899,8.038c0,0 -3.137,13.125 6.331,30.688z" clip-rule="evenodd" fill-rule="evenodd"/>
  <path id="svg_140" fill="#684D73" d="m206.431,318.779c0,0 6.409,-3.46 9.71,0.364c3.301,3.824 10.489,28.872 -3.368,30.309c-13.857,1.437 -6.329,-30.675 -6.329,-30.675l-0.013,0.002z" clip-rule="evenodd" fill-rule="evenodd"/>
  <path id="svg_141" fill="#53345F" d="m210.151,319.812c0,0 4.09,13.398 -2.101,26.1c0,0 -9.084,-15.921 2.101,-26.1z" clip-rule="evenodd" fill-rule="evenodd"/>
  <path id="svg_142" fill="#D9D9D9" d="m177.826,323.256c5.032,7.268 12.063,12.92 20.242,16.273c3.584,1.593 7.343,2.761 11.199,3.479c2.647,-5.55 3.315,-11.838 1.893,-17.82c0,0 -0.94,-1.578 -2.491,-3.856c-3.471,-5.028 -9.626,-13.512 -14.455,-16.043l0.57,6.363c0,0 -6.379,-8.218 -20.122,-5.679c0.014,-0.002 -6.491,2.685 3.164,17.283z" clip-rule="evenodd" fill-rule="evenodd"/>
  <path id="svg_143" fill="url(#paint4_linear_110_3490)" d="m256.825,313.632c0,0 9.576,10.235 13.826,33.919c4.249,23.683 -11.773,27.566 -11.773,27.566c0,0 10.084,2.422 17.041,1.851c0,0 37.241,-15.013 -4.463,-67.201l-14.631,3.865z"/>
  <path id="svg_144" fill="url(#paint5_linear_110_3490)" d="m314.352,343.862c1.062,3.41 2.36,6.924 3.737,10.607l10.216,-26.283l-13.953,-38.717l-4.026,0.805c-0.048,0.145 -0.07,0.286 -0.116,0.444c-5.741,2.338 -11.183,5.35 -16.212,8.973c0,0 34.116,25.196 -4.393,74.733c12.941,-5.378 20.853,-20.641 24.747,-30.562z" clip-rule="evenodd" fill-rule="evenodd"/>
  <path id="svg_145" fill="#311745" d="m364.587,554.764c0,0 5.754,-15.592 43.541,-17.202c0.005,0.041 -12.025,20.33 -43.541,17.202z" clip-rule="evenodd" fill-rule="evenodd"/>
  <path id="svg_146" fill="#311745" d="m528.776,477.199c0,0 -23.97,3.393 -32.477,32.194c0,0 11.011,2.829 22.943,-6.656c11.931,-9.485 9.534,-25.538 9.534,-25.538z" clip-rule="evenodd" fill-rule="evenodd"/>
  <path id="svg_147" fill="url(#paint6_radial_110_3490)" d="m392.296,559.853l16.421,-8.865c0,0 -0.904,-4.44 -2.089,-11.543c-3.038,-17.95 -7.926,-52.775 -4.918,-75.195l-68.904,-29.792c0,0 0.319,4.301 0.905,11.076c1.805,19.669 0.219,60.033 6.663,75.044c8.685,20.117 51.922,39.275 51.922,39.275z" clip-rule="evenodd" fill-rule="evenodd"/>
  <path id="svg_148" fill="#CAB3DA" d="m332.802,434.431c18.33,16.766 41.396,27.453 66.038,30.598l2.87,-0.779l15.329,-4.198c-0.004,-0.05 -0.011,-0.1 -0.021,-0.149l-0.044,-0.311c-0.018,-0.081 -0.03,-0.162 -0.035,-0.244c-0.021,-0.103 -0.036,-0.206 -0.044,-0.311c-0.849,-6.972 -4.875,-50.916 21.574,-93.819c-3.805,-3.331 -7.382,-6.914 -10.707,-10.724c-0.658,-0.748 -1.364,-1.545 -2.117,-2.377c-3.413,-3.836 -7.547,-8.673 -12.443,-14.796c-10.703,-13.222 -28.559,-34.676 -40.856,-49.41c-3.69,-4.432 -6.894,-8.255 -9.258,-11.108c-0.881,-1.062 -1.663,-2 -2.305,-2.737l-1.962,-2.358c0,0 -29.689,19.919 -48.007,16.648c0,0 -0.202,0.622 -0.499,1.837c-0.047,0.158 -0.068,0.299 -0.117,0.444c-1.472,6.362 -4.507,25.475 4.11,53.107c1.076,3.408 2.36,6.924 3.748,10.591c0.516,1.307 1.033,2.614 1.603,3.913c0.067,22.257 3.289,44.393 9.569,65.746c1.114,3.582 2.29,7.017 3.574,10.437z" clip-rule="evenodd" fill-rule="evenodd"/>
  <path id="svg_149" fill="url(#paint7_radial_110_3490)" d="m375.717,315.913c0.742,0.958 1.541,1.921 2.359,2.923c12.892,15.533 31.457,29.905 49.724,35.736c11.196,3.548 22.237,3.862 31.786,-0.719c21.326,-10.277 28.205,-30.113 29.791,-35.87c0.037,-0.184 0.085,-0.366 0.143,-0.545c0.025,-0.16 0.063,-0.317 0.113,-0.471c0.097,-0.387 0.138,-0.585 0.138,-0.585c0,0 6.524,-5.96 2.533,-13.785c-3.991,-7.824 -13.132,-18.493 -13.132,-18.493l-4.396,0.429c0,0 -3.489,-5.15 -9.491,-4.176c-6.003,0.974 -18.105,8.082 -37.131,6.636c-16.734,-1.247 -42.471,-7.607 -51.187,-10.692c-0.916,-0.278 -1.804,-0.642 -2.651,-1.087c-2.96,-1.547 -6.183,-2.528 -9.503,-2.891l-2.391,1.138l-1.578,0.748l-4.846,2.314c0,0 -1.35,12.982 19.719,39.39z" clip-rule="evenodd" fill-rule="evenodd"/>
  <path id="svg_150" fill="url(#paint8_radial_110_3490)" d="m417.038,460.052c0,0 39.858,25.983 49.554,33.166c9.695,7.182 36.457,16.102 49.604,16.076c0.32,0.011 0.642,0.002 0.962,-0.025c12.354,-0.452 16.249,-9.2 16.249,-9.2c0,0 -0.673,-2.416 -1.75,-6.223c-1.449,-5.066 -3.613,-12.556 -5.964,-20.005c-3.087,-9.912 -6.484,-19.78 -8.763,-23.597c-3.877,-6.53 -44.855,-49.782 -65.983,-71.932c-7.481,-7.813 -12.465,-13 -12.465,-13c-30.762,30.958 -22.911,86.033 -21.576,93.806c0.008,0.105 0.023,0.209 0.044,0.311c0.006,0.082 0.018,0.164 0.035,0.244l0.038,0.27c0.007,0.036 0.012,0.072 0.015,0.109z" clip-rule="evenodd" fill-rule="evenodd"/>
  <path id="svg_151" fill="#53345F" d="m353.272,277.64c0,0 -14.401,14.457 -20.642,17.355c-6.24,2.898 -21.77,-6.508 -21.77,-6.508c0,0 15.639,-0.158 42.412,-10.847z" clip-rule="evenodd" fill-rule="evenodd"/>
  <path id="svg_152" fill="#53345F" d="m364.798,272.311c0,0 7.163,52.648 53.527,79.463c0,0 -41.119,-17.54 -65.053,-74.134l11.526,-5.329z" clip-rule="evenodd" fill-rule="evenodd"/>
  <path id="svg_153" fill="#53345F" d="m314.346,289.525c0,0 -1.785,40.613 5.349,68.883c0,0 -15.659,-30.209 -13.268,-65.954l4.433,-3.967l3.486,1.038z" clip-rule="evenodd" fill-rule="evenodd"/>
  <path id="svg_154" fill="#53345F" d="m446.146,373.252c0,0 -21.426,20.584 -22.635,91.002l-6.432,-4.208c0,0 -12.947,-66.414 21.426,-94.764l7.641,7.97z" clip-rule="evenodd" fill-rule="evenodd"/>
  <path id="svg_155" fill="#53345F" d="m329.299,424.205c0,0 36.495,38.299 72.396,40.033l-0.472,4.372c0,0 -36.03,3.196 -67.772,-26.282l-4.152,-18.123z" clip-rule="evenodd" fill-rule="evenodd"/>
  <path id="svg_156" fill="#684D73" d="m489.781,316.352c0,0 6.525,-5.96 2.533,-13.784c-3.991,-7.824 -13.132,-18.493 -13.132,-18.493l-4.396,0.429c0,0 -11.674,22.612 14.995,31.848z" clip-rule="evenodd" fill-rule="evenodd"/>
  <path id="svg_157" fill="#53345F" d="m490.823,308.699c0,0 -16.281,-11.494 -11.687,-24.563c0.046,-0.061 16.32,18.305 11.687,24.563z" clip-rule="evenodd" fill-rule="evenodd"/>
  <path id="svg_158" fill="#D9D9D9" d="m479.245,293.297c0,0 -2.487,-11.819 6.12,-19.053l2.653,4.896c0,0 9.735,-14.763 23.28,-10.995c0,0 5.058,23.444 -22.674,38.864c-4.578,-3.388 -7.881,-8.218 -9.379,-13.712z" clip-rule="evenodd" fill-rule="evenodd"/>
  <path id="svg_159" fill="url(#paint9_linear_110_3490)" d="m504.774,435.724c0,0 8.001,15.288 -9.708,34.353c-17.709,19.064 -37.238,16.986 -37.238,16.986c0,0 10.726,8.223 17.809,11.277c7.083,3.054 38.159,-14.674 46.004,-36.938c0,0 -2.471,-8.688 -5.791,-12.744c-3.32,-4.055 -11.076,-12.934 -11.076,-12.934z"/>
  <path id="svg_160" fill="url(#paint10_linear_110_3490)" d="m401.07,491.702c0,0 -11.024,16.38 -26.575,26.709c-9.298,6.159 -20.536,8.683 -31.574,7.091c0,0 7.434,9.917 15.467,14.714c0,0 20.018,-4.214 29.455,-12.214c9.437,-8.001 14.419,-20.669 14.419,-20.669l-1.192,-15.631z"/>
  <path id="svg_161" fill="url(#paint11_linear_110_3490)" d="m423.203,286.521c0,0 -22.239,41.452 21.737,70.702c-5.414,0.217 -10.821,-0.57 -15.948,-2.323c-12.035,-3.816 -48.636,-49.689 -19.203,-70.634l13.414,2.255z"/>
  <path id="svg_162" fill="#53345F" d="m401.449,464.549l0.499,-0.567c-0.299,-0.262 -29.79,-26.609 -42.019,-49.246c-10.59,-19.64 -12.88,-30.851 -16.045,-46.381c-1.19,-5.875 -2.546,-12.527 -4.541,-20.386c-4.276,-16.902 -7.309,-34.094 -9.075,-51.439l-0.758,0.108c1.781,17.384 4.825,34.615 9.106,51.558c1.978,7.833 3.334,14.486 4.536,20.345c3.174,15.598 5.466,26.823 16.116,46.592c12.292,22.697 41.81,49.137 42.181,49.416z"/>
  <path id="svg_163" fill="url(#paint12_linear_110_3490)" d="m405.296,540.171l1.278,-0.719c-3.038,-17.949 -7.926,-52.774 -4.918,-75.195l15.383,-4.205c0,0 39.857,25.983 49.567,33.164c9.709,7.18 36.444,16.104 49.59,16.078c0.321,0.006 0.641,-0.008 0.96,-0.039l14.492,-15.477c-1.433,-5.054 -3.611,-12.542 -5.949,-19.993l-1.571,-0.178c0,0 -13.969,22.675 -34.017,24.34c-20.047,1.665 -60.246,-39.89 -61.025,-48.514c-2.894,-32.238 12.803,-58.786 21.858,-71.148l-12.467,-13.013c-3.805,-3.331 -7.382,-6.914 -10.708,-10.723c11.196,3.548 22.238,3.861 31.798,-0.735c21.313,-10.275 28.193,-30.097 29.777,-35.868c-1.892,6.132 -10.799,28.794 -43.617,35.771c-6.697,1.379 -13.649,0.822 -20.041,-1.606c-28.498,-10.164 -49.879,-50.961 -52.508,-59.985c-0.403,-1.359 -0.665,-2.755 -0.783,-4.167c-0.618,-8.067 4.541,-11.682 4.541,-11.682c-0.901,-0.281 -1.778,-0.637 -2.62,-1.064c-2.96,-1.546 -6.183,-2.527 -9.502,-2.891l-2.392,1.139c0.192,0.87 0.417,2.066 0.728,3.485c2.925,13.374 7.139,26.432 12.584,38.992c4.192,9.877 9.708,19.137 16.398,27.525c22.434,27.084 29.027,31.16 29.027,31.16c0,0 -6.53,51.343 -18.211,65.525c-11.68,14.183 -51.901,0.448 -62.764,-7.77c-5.17,-3.863 -8.64,-6.545 -10.91,-8.252c1.066,3.437 2.229,6.873 3.526,10.291c0,0 0.319,4.301 0.906,11.076c10.892,8.71 47.898,39.016 56.04,52.283c9.554,15.633 15.55,42.395 15.55,42.395z" clip-rule="evenodd" fill-rule="evenodd"/>
  <g id="svg_164" opacity="0.5">
   <path id="svg_165" fill="#53345F" d="m364.796,272.297c0,0 -2.706,29.622 -26.602,50.598c-23.896,20.975 -39.055,-26.65 -39.055,-26.65l7.287,-3.791l3.935,-2.13l54.435,-18.027z" clip-rule="evenodd" fill-rule="evenodd"/>
  </g>
  <path id="svg_166" fill="url(#paint13_linear_110_3490)" d="m224.484,267.93c0.235,0.297 0.455,0.584 0.715,0.864c3.301,3.824 9.015,7.734 16.243,11.127c0,0 0.431,0.215 1.249,0.54c15.828,6.92 33.002,10.217 50.268,9.65c30.015,-1.145 72.936,-11.705 97.388,-36.457c24.452,-24.752 25.037,-84.954 14.161,-102.125c-3.734,-5.983 -7.833,-11.73 -12.274,-17.208c-14.4,-17.707 -37.886,-38.3773 -71.769,-40.287c-25.608,-1.4527 -58.176,7.393 -82.07,19.22c-6.799,3.282 -13.271,7.202 -19.33,11.706c-3.242,2.407 -6.202,5.173 -8.823,8.244l-0.908,1.191c-0.604,0.778 -1.152,1.598 -1.639,2.454c-25.188,44.215 0.734,110.365 16.789,131.081z" clip-rule="evenodd" fill-rule="evenodd"/>
  <path id="svg_167" fill="url(#paint14_linear_110_3490)" d="m227.891,262.949c0.231,0.271 0.422,0.547 0.665,0.803c7.407,5.436 32.109,18.815 68.07,4.604c44.222,-17.464 44.36,-57.816 44.36,-57.816l8.72,-2.835c-1.081,-5.781 -1.81,-11.128 -2.273,-16.057c-2.641,-27.623 3,-41.972 2.135,-45.837c-1.012,-4.617 -15.841,-29.245 -50.716,-35.14c-23.11,-3.89 -43.656,1.378 -57.918,7.26c-6.378,3.073 -12.447,6.751 -18.122,10.982c-3.048,2.246 -5.826,4.839 -8.275,7.726l-0.85,1.114c-0.57,0.731 -1.083,1.505 -1.535,2.315c-9.816,17.216 -11.351,37.951 -8.734,57.712c3.679,27.835 15.659,53.791 24.473,65.169z"/>
  <path id="svg_168" fill="url(#paint15_linear_110_3490)" d="m242.692,280.461c15.828,6.92 33.002,10.217 50.267,9.65c30.015,-1.145 72.937,-11.705 97.388,-36.457c24.452,-24.752 25.037,-84.954 14.162,-102.125c-3.734,-5.983 -7.833,-11.73 -12.274,-17.208c-4.606,-3.294 -9.804,-4.821 -15.634,-2.727c-21.388,7.692 -14.774,80.246 -14.774,80.246l-10.903,0.963c0,0 0.227,42.246 -40.997,63.439c-36.011,18.537 -61.486,6.524 -67.235,4.219z" clip-rule="evenodd" fill-rule="evenodd"/>
  <path id="svg_169" fill="url(#paint16_linear_110_3490)" d="m400.449,238.95c-9.05,11.119 -28.873,10.476 -37.222,-25.791c-8.348,-36.267 6.299,-75.402 6.299,-75.402c-29.835,8.362 -15.17,71.318 -15.17,71.318c1.033,2.613 2.023,5.026 3.046,7.282l0.104,0.247c21.387,47.861 41.244,24.477 42.943,22.346z" clip-rule="evenodd" fill-rule="evenodd"/>
  <path id="svg_170" fill="#53345F" d="m406.915,156.542c-5.215,-11.984 -14.427,-19.166 -21.543,-17.772c-7.116,1.394 -20.877,36.554 -10.765,72.116c10.111,35.562 31.197,20.076 33.528,5.547l1.471,-7.935c0,0 -13.778,25.78 -26.579,5.142c-14.617,-23.526 0.831,-59.243 12.34,-56.705c11.508,2.538 15.663,22.923 15.663,22.923c0,0 -0.643,-15.363 -4.115,-23.316z" clip-rule="evenodd" fill-rule="evenodd"/>
  <path id="svg_171" fill="#D9D9D9" d="m413.506,554.504l-3.362,-4.257l-1.943,-12.654c0,0 -24.366,16.392 -43.555,17.205c7.818,4.98 16.841,7.742 26.107,7.991c0,0 -13.755,9.371 -10.475,25.133l33.228,-33.418z" clip-rule="evenodd" fill-rule="evenodd"/>
  <path id="svg_172" fill="#D9D9D9" d="m496.387,509.339l26.588,3.301l2.581,4.781c0,0 17.713,14.299 39.769,10.349c0,0 -6.502,-18.052 -29.183,-23.976l-7.347,-26.557c-1.232,7.84 -4.463,15.231 -9.381,21.46c-7.814,9.813 -21.792,10.591 -23.027,10.642z" clip-rule="evenodd" fill-rule="evenodd"/>
  <path id="svg_173" fill="#CAB3DA" d="m413.506,554.504l2.935,1.82l-34.348,33.798l-1.862,-2.234l33.275,-33.384z" clip-rule="evenodd" fill-rule="evenodd"/>
  <path id="svg_174" fill="url(#paint17_linear_110_3490)" d="m364.587,554.765c7.817,4.98 16.84,7.742 26.106,7.991c0,0 15.53,-7.262 22.813,-8.252l-3.362,-4.257l-1.943,-12.654c0,0 -24.422,16.387 -43.614,17.172z" clip-rule="evenodd" fill-rule="evenodd"/>
  <path id="svg_175" fill="url(#paint18_linear_110_3490)" d="m496.388,509.339l26.587,3.301c5.032,-1.857 9.546,-4.89 13.167,-8.846l-7.347,-26.557c-1.232,7.84 -4.463,15.231 -9.38,21.46c-7.815,9.813 -21.793,10.591 -23.027,10.642z" clip-rule="evenodd" fill-rule="evenodd"/>
  <path id="svg_176" fill="white" d="m333.909,147.973c0,0 -1.91,-10.769 -3.558,-13.833c-5.22,-3.05 -10.988,-5.047 -16.976,-5.876l-3.249,20.136c0,0 18.477,-1.166 23.783,-0.427z"/>
  <path id="svg_177" fill="url(#paint19_linear_110_3490)" d="m227.967,263.587c0.218,0.272 0.422,0.547 0.666,0.802c7.393,5.439 32.064,18.794 67.987,4.603c44.167,-17.457 44.259,-57.747 44.259,-57.747l8.692,-2.831c-1.067,-5.782 -1.794,-11.116 -2.271,-16.043c0,0 -86.1,-61.206 -143.776,6.057c3.668,27.864 15.632,53.794 24.443,65.159z"/>
  <path id="svg_178" fill="white" d="m334.393,219.035c0,0 -0.851,9.586 -4.171,15.768l-5.824,-2.156c0,0 2.736,-8.942 3.71,-14.241l6.285,0.629z"/>
  <path id="svg_179" fill="url(#paint20_linear_110_3490)" d="m508.768,286.137c0,0 -7.558,11.143 -16.782,12.945c-9.224,1.803 -12.976,-7.449 -12.976,-7.449c0,0 0.055,7.995 9.56,15.384c0,0 15.757,-8.385 20.198,-20.88z" clip-rule="evenodd" fill-rule="evenodd"/>
  <path id="svg_180" fill="url(#paint21_linear_110_3490)" d="m198.081,339.527c3.585,1.593 7.344,2.761 11.2,3.479c2.647,-5.55 3.315,-11.838 1.893,-17.82c0,0 -0.941,-1.578 -2.491,-3.856c0,0 1.821,9.94 -10.602,18.197z" clip-rule="evenodd" fill-rule="evenodd"/>
  <path id="svg_181" fill="#684D73" d="m347.918,335.151c0.927,1.721 2.185,3.242 3.702,4.476c1.516,1.234 3.261,2.156 5.135,2.714c1.874,0.557 3.839,0.74 5.784,0.536c1.944,-0.203 3.829,-0.789 5.546,-1.723c1.723,-0.925 3.245,-2.183 4.48,-3.699c1.235,-1.516 2.158,-3.262 2.716,-5.136c0.558,-1.874 0.74,-3.84 0.535,-5.785c-0.204,-1.945 -0.791,-3.83 -1.727,-5.547c-0.927,-1.721 -2.185,-3.242 -3.701,-4.476c-1.517,-1.234 -3.262,-2.156 -5.136,-2.714c-1.874,-0.558 -3.839,-0.74 -5.783,-0.537c-1.945,0.204 -3.83,0.789 -5.547,1.723c-1.721,0.927 -3.242,2.185 -4.476,3.702c-1.234,1.516 -2.156,3.261 -2.714,5.135c-0.558,1.874 -0.74,3.839 -0.537,5.784c0.204,1.944 0.789,3.829 1.723,5.547z" clip-rule="evenodd" fill-rule="evenodd"/>
  <path id="svg_182" fill="url(#paint22_linear_110_3490)" d="m352.777,332.531c1.181,2.169 3.175,3.78 5.543,4.479c2.368,0.7 4.917,0.431 7.086,-0.747c1.076,-0.584 2.025,-1.374 2.794,-2.324c0.77,-0.951 1.345,-2.044 1.691,-3.217c0.347,-1.173 0.459,-2.403 0.329,-3.619c-0.129,-1.217 -0.497,-2.396 -1.082,-3.47c-1.181,-2.168 -3.174,-3.779 -5.542,-4.479c-2.369,-0.7 -4.917,-0.431 -7.087,0.748c-2.169,1.181 -3.78,3.174 -4.48,5.542c-0.699,2.368 -0.43,4.917 0.748,7.087z" clip-rule="evenodd" fill-rule="evenodd"/>
  <path id="svg_183" fill="#684D73" d="m403.726,283.248c0,0 -11.54,17.419 -24.238,-6.104c0,0 17.532,4.639 24.238,6.104z" clip-rule="evenodd" fill-rule="evenodd"/>
  <path id="svg_184" fill="#53345F" d="m371.19,487.074c10.041,-1.491 19.967,-3.67 29.709,-6.524l-0.227,-0.727c-0.489,0.152 -48.9,14.635 -65.206,3.546l-0.422,0.625c7.857,5.401 22.619,4.994 36.146,3.08z"/>
  <path id="svg_185" fill="#53345F" d="m437.51,474.829l0.757,-0.107c-1.823,-8.855 -2.262,-17.94 -1.301,-26.929c2.563,-22.937 27.811,-54.439 28.057,-54.75l-0.593,-0.482c-0.245,0.311 -25.635,31.985 -28.221,55.146c-0.963,9.054 -0.524,18.202 1.301,27.122z"/>
  <path id="svg_186" fill="#53345F" d="m477.805,339.559l0.596,-0.471c-31.844,-40.53 -13.037,-58.273 -12.853,-58.437l-0.494,-0.565c-0.209,0.181 -5.045,4.619 -5.907,14.22c-0.85,8.814 1.814,23.835 18.658,45.253z"/>
  <path id="svg_187" fill="#53345F" d="m241.459,369.911c14.534,-29.116 -17.596,-57.146 -17.911,-57.418l-0.499,0.567c0.316,0.286 32.006,27.937 17.74,56.504l0.67,0.347z"/>
  <path id="svg_188" fill="white" d="m378.113,368.808c1.666,2.942 3.701,5.659 6.057,8.084l5.838,-3.986c-1.71,-3.039 -4.277,-5.507 -7.38,-7.097l-4.515,2.999z"/>
  <path id="svg_189" fill="white" d="m452.532,287.254c-2.235,1.056 -4.691,1.56 -7.161,1.468l-2.145,3.561c0,0 5.751,2.318 9.098,-1.137l0.208,-3.892z"/>
  <path id="svg_190" fill="white" d="m491.641,441.198c2.937,1.768 5.401,4.222 7.18,7.153l-3.723,4.404l-6.492,-7.36l3.035,-4.197z"/>
  <path id="svg_191" fill="white" d="m213.422,311.042c2.414,0.836 4.502,2.415 5.964,4.51l4.877,0.234c-1.019,-1.123 -2.17,-2.118 -3.428,-2.964c-1.957,-1.255 -7.413,-1.78 -7.413,-1.78z"/>
  <path id="svg_192" fill="white" d="m343.913,496.84c0,0 -1.045,12.112 0.992,17.536l-5.034,0.602c-1.909,-5.436 -2.486,-11.25 -1.682,-16.955l5.724,-1.183z"/>
  <path id="svg_193" fill="white" d="m316.974,107.292c0,0 -29.569,-6.329 -47.441,-3.137c0,0 62.321,-17.4871 47.441,3.137z"/>
  <path id="svg_194" fill="white" d="m362.711,164.869l-11.044,-1.307l-0.9,11.967l10.522,0.345l1.422,-11.005z"/>
 </g>
</svg>