<svg width="4000" height="4000" xmlns="http://www.w3.org/2000/svg" version="1.2">

 <g>
  <title>Layer 1</title>
  <path id="svg_17" fill="#fff" d="m2625.2,1332.5c0,0 30.4,282.9 -129,548.8c-111.6,186.1 -378,318.4 -378,318.4l-218.2,-212.9c0,0 255.4,-149.2 341.3,-270.9c114.2,-161.7 123.3,-280.2 127.3,-325.1" class="b"/>
  <path id="svg_18" fill="#fff" d="m2507.3,1862.2q-5.4,9.6 -11.1,19.1c-68.3,113.9 -194.5,207.6 -282.2,263.2c-55.7,35.3 -95.8,55.2 -95.8,55.2l-218.2,-212.9c0,0 255.4,-149.2 341.3,-270.9c114.2,-161.7 123.3,-280.2 127.3,-325.1l256.6,-58.3c0,0 28.9,269.5 -117.9,529.7z" class="b"/>
  <path id="svg_19" fill="#fff" d="m2627.5,1400.3c-1,96.3 -18.3,281.4 -120.2,461.9q-5.4,9.6 -11.1,19.1c-68.3,113.9 -194.5,207.6 -282.2,263.2c-55.7,35.3 -95.8,55.2 -95.8,55.2l-218.2,-212.9c0,0 255.4,-149.2 341.3,-270.9c114.2,-161.7 123.3,-280.2 127.3,-325.1l133,-30.2l123.6,-28.1c0,0 2.7,25.3 2.3,67.8z" class="b"/>
  <path id="svg_20" fill="#e8e8e8" d="m2627.5,1400.3c-48.3,45.1 -120.6,45.1 -120.6,45.1l-5.3,-84.8l123.6,-28.1c0,0 2.7,25.3 2.3,67.8z" class="c"/>
  <path id="svg_21" fill="#e8e8e8" d="m2507.3,1862.2q-5.4,9.6 -11.1,19.1c-68.3,113.9 -194.5,207.6 -282.2,263.2c-17.5,-89.7 -35,-186.1 -30.9,-186.1c6.2,0 202.9,9.2 324.2,-96.2z" class="c"/>
  <path id="svg_22" fill="#371a45" d="m2115.1,2219.2l-241.5,-235.7l18.3,-10.6c2.5,-1.5 253.4,-148.8 336.3,-266.3c110.2,-156 120.4,-271.8 124.2,-315.4l0.2,-1.8c0.8,-8.9 8.5,-15.4 17.4,-14.6c8.8,0.8 15.4,8.6 14.6,17.4l-0.2,1.8c-4,46 -14.8,168.1 -129.9,331.1c-74.5,105.5 -267.9,227.9 -328.4,264.7l195,190.3c49.2,-26.1 265.6,-147.4 361.3,-307.1c154.8,-258.3 127.1,-536 126.8,-538.8c-1,-8.8 5.4,-16.7 14.2,-17.7c8.8,-0.9 16.8,5.5 17.7,14.3c1.3,11.8 29.2,291.3 -131.1,558.7c-112.7,188.1 -373.6,319.1 -384.7,324.6l-10.2,5.1z" class="d"/>
  <path id="svg_23" fill="#fff" d="m2267.9,1676.1c0,0 111.6,135 269.4,127.8" class="b"/>
  <path id="svg_24" fill="#371a45" d="m2525,1820.3c-156.9,0 -264.8,-128.4 -269.5,-134c-5.6,-6.8 -4.7,-16.9 2.2,-22.6c6.8,-5.6 16.9,-4.7 22.6,2.1c1.1,1.3 108.7,128.8 256.3,122.1c8.7,-0.4 16.4,6.4 16.8,15.3c0.4,8.9 -6.5,16.4 -15.4,16.8q-6.5,0.3 -13,0.3z" class="d"/>
  <path id="svg_25" fill="#ffffff" d="m2500.1,1381.7l-216.4,115.3c-9.8,5.2 -22,1.5 -27.2,-8.3l-21.1,-39.6c-5.2,-9.8 -1.5,-22 8.3,-27.2l216.5,-115.3c9.8,-5.2 21.9,-1.5 27.1,8.3l21.1,39.6c5.2,9.8 1.5,22 -8.3,27.2z" class="e"/>
  <path id="svg_26" fill="#ffffff" d="m2497.9,1334.7l12.3,23.1c4.2,8 1.2,17.9 -6.8,22.1l-223,118.9c-8,4.2 -17.9,1.2 -22.2,-6.8l-12.3,-23.1l252,-134.2z" class="f"/>
  <path id="svg_27" fill="#371a45" d="m2274.3,1515.4c-13,0 -25.5,-6.9 -32,-19.1l-21.1,-39.7c-4.5,-8.5 -5.5,-18.3 -2.7,-27.5c2.8,-9.2 9.1,-16.8 17.6,-21.4l216.5,-115.3c17.6,-9.3 39.5,-2.6 48.9,14.9l21.1,39.7c4.5,8.5 5.5,18.3 2.7,27.5c-2.8,9.2 -9.1,16.8 -17.6,21.4l-216.5,115.3c-5.4,2.8 -11.2,4.2 -16.9,4.2zm195.3,-195.1q-1,0 -1.9,0.5l-216.5,115.3c-1.2,0.6 -1.7,1.6 -1.9,2.4c-0.3,0.7 -0.4,1.8 0.3,3l21.1,39.7c1,1.9 3.5,2.7 5.4,1.6l216.5,-115.3c1.2,-0.6 1.7,-1.6 2,-2.4c0.2,-0.7 0.3,-1.8 -0.3,-3l-21.2,-39.7c-0.7,-1.3 -2.1,-2.1 -3.5,-2.1z" class="d" fill-rule="evenodd"/>
  <path id="svg_28" fill="#ffffff" d="m2289.8,1527.1l-11.6,6.2c-9.8,5.2 -21.9,1.5 -27.1,-8.3l-48.9,-91.7c-5.2,-9.8 -1.5,-21.9 8.3,-27.1l11.6,-6.2c9.8,-5.2 22,-1.5 27.2,8.3l48.8,91.7c5.2,9.7 1.5,21.9 -8.3,27.1z" class="e"/>
  <path id="svg_29" fill="#ffffff" d="m2284.4,1467.85l15.5,29.2c4.2,7.9 1.2,17.8 -6.8,22.1l-18.2,9.6c-7.9,4.3 -17.8,1.3 -22.1,-6.7l-15.5,-29.1l47.1,-25.1z" class="f"/>
  <path id="svg_30" fill="#371a45" d="m2268.9,1551.7c-13,0 -25.5,-7 -32,-19.1l-48.8,-91.7c-9.4,-17.6 -2.7,-39.6 14.9,-48.9l11.6,-6.2c17.6,-9.4 39.5,-2.7 48.9,14.9l48.8,91.7c9.4,17.6 2.7,39.5 -14.9,48.9l-11.6,6.2c-5.4,2.8 -11.2,4.2 -16.9,4.2zm-37.4,-138q-0.9,0 -1.8,0.5l-11.6,6.1c-2,1.1 -2.7,3.5 -1.7,5.5l48.8,91.7c0.7,1.2 1.7,1.7 2.4,1.9c0.8,0.2 1.9,0.4 3.1,-0.3l11.6,-6.2c1.9,-1 2.7,-3.4 1.6,-5.4l-48.8,-91.7c-0.7,-1.3 -2.1,-2.1 -3.6,-2.1z" class="d" fill-rule="evenodd"/>
  <path id="svg_31" fill="#f0fafc" d="m3152.9,984.6c23.2,43.6 19.8,90.7 -7.5,105.2c-27.3,14.6 -68.3,-8.9 -91.5,-52.5c-23.2,-43.6 -19.9,-90.7 7.5,-105.2c27.3,-14.6 68.3,8.9 91.5,52.5z" class="g"/>
  <path id="svg_32" fill="#371a45" d="m3127.6,1110.2c-31.3,0 -66.2,-24.7 -87.9,-65.3c-27.8,-52.2 -21.6,-108 14.1,-127c35.7,-19 85.4,7 113.2,59.1c27.8,52.2 21.6,108 -14,127c-8,4.2 -16.5,6.2 -25.4,6.2zm-48.5,-166.3c-3.8,0 -7.2,0.8 -10.2,2.3c-16.7,8.9 -21.1,45.4 -0.8,83.6c20.3,38.1 53.1,54.7 69.7,45.9c16.7,-8.9 21.2,-45.4 0.9,-83.6c-16.7,-31.4 -41.9,-48.2 -59.6,-48.2z" class="d" fill-rule="evenodd"/>
  <path id="svg_33" fill="#ffffff" d="m2740.4,1281.9l-334.2,178c-9.8,5.3 -22,1.6 -27.2,-8.2l-44.5,-83.6c-5.2,-9.8 -1.5,-22 8.3,-27.2l334.2,-178c9.8,-5.2 22,-1.5 27.2,8.3l44.5,83.6c5.2,9.8 1.5,21.9 -8.3,27.1z" class="e"/>
  <g id="svg_34" opacity="0.6">
   <path id="svg_35" fill="#fff" d="m2699.8,1205.7l-334.3,178c-9.7,5.2 -21.9,1.5 -27.1,-8.3l-3.9,-7.3c-5.2,-9.8 -1.5,-22 8.3,-27.2l334.2,-178c9.8,-5.2 22,-1.5 27.2,8.3l3.9,7.3c5.2,9.8 1.5,21.9 -8.3,27.2z" class="b"/>
  </g>
  <path id="svg_36" fill="#ffffff" d="m2737.1,1233l13.7,25.7c4.2,7.9 0.6,18.1 -8,22.7l-338.4,180.3c-8.7,4.6 -19.1,1.8 -23.3,-6.2l-13.7,-25.6l369.7,-196.9z" class="f"/>
  <path id="svg_37" fill="#e8e8e8" d="m2551.8,1331.7l21,39.5l-82.8,44.1l-21,-39.5l82.8,-44.1z" class="c"/>
  <path id="svg_38" fill="#fff" d="m2572.8,1371.2l-82.8,44.1l-63.4,-119l82.8,-44.1l63.4,119z" class="b"/>
  <path id="svg_39" fill="#e8e8e8" d="m2551.8,1331.7l21,39.5l-82.8,44.1l-21,-39.5l82.8,-44.1z" class="c"/>
  <path id="svg_40" fill="#371a45" d="m2483.4,1437l-78.5,-147.4l111.2,-59.2l78.4,147.4l-111.1,59.2zm-35,-134.1l48.3,90.6l54.4,-28.9l-48.3,-90.7l-54.4,29z" class="d" fill-rule="evenodd"/>
  <path id="svg_41" fill="#371a45" d="m2396.8,1478.4c-13,0 -25.5,-7 -32,-19.2l-44.5,-83.6c-9.4,-17.6 -2.7,-39.5 14.9,-48.9l334.3,-178c8.5,-4.5 18.2,-5.5 27.5,-2.6c9.2,2.8 16.8,9 21.4,17.5l44.5,83.6c4.5,8.5 5.5,18.3 2.6,27.5c-2.8,9.3 -9,16.9 -17.5,21.4l-334.3,178c-5.4,2.9 -11.2,4.3 -16.9,4.3zm289.6,-301.8c-0.5,0 -1.2,0.1 -1.8,0.5l-334.3,178c-1.9,1 -2.7,3.5 -1.6,5.4l44.5,83.6c1,2 3.5,2.7 5.4,1.7l334.3,-178.1c1.2,-0.6 1.7,-1.6 1.9,-2.3c0.2,-0.7 0.4,-1.9 -0.3,-3.1l-44.5,-83.6c-0.6,-1.2 -1.6,-1.7 -2.4,-1.9c-0.3,-0.1 -0.7,-0.2 -1.2,-0.2zm54,105.3l0.1,0l-0.1,0z" class="d" fill-rule="evenodd"/>
  <path id="svg_42" fill="#ffffff" d="m3065.4,1134.9l-336.2,179.1c-9.8,5.2 -21.9,1.5 -27.1,-8.3l-66.2,-124.2c-5.2,-9.8 -1.5,-22 8.3,-27.2l336.1,-179.1c9.8,-5.2 22,-1.5 27.2,8.3l66.2,124.3c5.2,9.8 1.5,21.9 -8.3,27.1z" class="e"/>
  <g id="svg_43" opacity="0.6">
   <path id="svg_44" fill="#fff" d="m3031.7,1028.9l-371.7,197.9l-20.8,-39.2l371.6,-197.9l20.9,39.2z" class="b"/>
  </g>
  <path id="svg_45" fill="#ffffff" d="m3051.3,1065.7l24.1,45.4c4.3,7.9 1.3,17.8 -6.7,22.1l-342.8,182.5c-8,4.3 -17.8,1.3 -22.1,-6.7l-24.1,-45.4l371.6,-197.9z" class="f"/>
  <path id="svg_46" fill="#371a45" d="m2719.8,1332.4c-3.5,0 -7.1,-0.5 -10.6,-1.6c-9.2,-2.8 -16.8,-9 -21.3,-17.5l-66.2,-124.3c-4.5,-8.5 -5.5,-18.3 -2.7,-27.5c2.8,-9.3 9.1,-16.8 17.6,-21.4l336.2,-179c17.6,-9.4 39.5,-2.7 48.9,14.9l66.2,124.2c9.3,17.6 2.6,39.6 -15,48.9l-336.1,179.1c-5.3,2.8 -11.1,4.2 -17,4.2zm270,-343.4q-1,-0.1 -1.9,0.4l-336.2,179.1c-1.2,0.6 -1.7,1.6 -1.9,2.3c-0.3,0.8 -0.4,1.9 0.3,3.1l66.1,124.3c0.7,1.2 1.7,1.7 2.4,1.9c0.7,0.2 1.8,0.4 3.1,-0.3l336.1,-179c2,-1.1 2.7,-3.5 1.7,-5.5l-66.2,-124.2c-0.7,-1.4 -2.1,-2.1 -3.5,-2.1z" class="d" fill-rule="evenodd"/>
  <path id="svg_47" fill="#ffffff" d="m3155.9,1129.1l-234,124.7c-9.8,5.2 -22,1.5 -27.2,-8.3l-102.4,-192.3c-5.2,-9.8 -1.5,-21.9 8.3,-27.1l234,-124.7c9.8,-5.2 22,-1.5 27.2,8.3l102.4,192.2c5.2,9.8 1.5,22 -8.3,27.2z" class="e"/>
  <g id="svg_48" opacity="0.6">
   <path id="svg_49" fill="#fff" d="m3102.6,986.2l-269.5,143.5l-24.4,-45.8l269.4,-143.5l24.5,45.8z" class="b"/>
  </g>
  <path id="svg_50" fill="#ffffff" d="m3125.5,1029.3l39.2,73.5c4.9,9.3 1.4,20.9 -7.9,25.8l-235.8,125.6c-9.3,5 -20.9,1.4 -25.8,-7.9l-39.2,-73.5l269.5,-143.5z" class="f"/>
  <path id="svg_51" fill="#371a45" d="m2912.5,1272.2c-3.6,0 -7.1,-0.5 -10.6,-1.6c-9.2,-2.8 -16.8,-9.1 -21.4,-17.6l-102.4,-192.2c-9.3,-17.6 -2.6,-39.5 15,-48.9l234,-124.7c17.6,-9.3 39.5,-2.6 48.9,14.9l102.4,192.3c4.5,8.5 5.5,18.3 2.7,27.5c-2.9,9.3 -9.1,16.8 -17.6,21.4l-234.1,124.6c-5.3,2.9 -11.1,4.3 -16.9,4.3zm131.6,-357.1q-1,0 -1.9,0.5l-234,124.6c-2,1.1 -2.7,3.5 -1.7,5.5l102.4,192.2c0.6,1.2 1.6,1.8 2.4,2c0.7,0.2 1.8,0.3 3,-0.3l234.1,-124.7c1.2,-0.6 1.7,-1.6 1.9,-2.3c0.2,-0.8 0.4,-1.9 -0.3,-3.1l-102.4,-192.2c-0.7,-1.4 -2.1,-2.2 -3.5,-2.2zm111.8,214l0.1,0l-0.1,0z" class="d" fill-rule="evenodd"/>
  <path id="svg_52" fill="#fff" d="m3155.9,1129.1l-15.1,8.1c-9.8,5.2 -21.9,1.5 -27.2,-8.3l-102.3,-192.3c-5.3,-9.8 -1.6,-21.9 8.2,-27.1l15.1,-8.1c9.8,-5.2 22,-1.5 27.2,8.3l102.4,192.2c5.2,9.8 1.5,22 -8.3,27.2z" class="b"/>
  <path id="svg_53" fill="#371a45" d="m3131.4,1155.6c-3.5,0 -7.1,-0.5 -10.6,-1.6c-9.2,-2.8 -16.8,-9.1 -21.3,-17.6l-102.4,-192.2c-9.4,-17.6 -2.7,-39.5 14.9,-48.9l15.1,-8.1c17.6,-9.3 39.5,-2.6 48.9,14.9l102.4,192.3c4.5,8.5 5.5,18.3 2.7,27.5c-2.9,9.3 -9.1,16.8 -17.6,21.4l-15.1,8c-5.3,2.9 -11.1,4.3 -17,4.3zm-87.3,-240.5q-1,0 -1.9,0.5l-15.1,8c-2,1.1 -2.7,3.5 -1.7,5.5l102.4,192.2c0.7,1.2 1.7,1.8 2.4,2c0.7,0.2 1.8,0.3 3.1,-0.3l15.1,-8.1c1.2,-0.6 1.7,-1.6 1.9,-2.3c0.2,-0.8 0.4,-1.9 -0.3,-3.1l-102.4,-192.2c-0.7,-1.4 -2.1,-2.2 -3.5,-2.2zm111.8,214l0.1,0l-0.1,0z" class="d" fill-rule="evenodd"/>
  <path id="svg_54" fill="#fff" d="m2359.5,1332.3c0,0 -31.8,-111.2 119,-162.9c10.1,-3.4 18.4,-39.8 65.5,-41.6c47,-1.7 74.6,43.3 59.2,80.8c-11.3,27.7 -49.3,39.5 -64.4,45.7c-15.2,6.3 -15.1,28.9 -62.7,43.8c-44,13.8 -63.3,5.8 -63.3,5.8l-53.3,28.4z" class="b"/>
  <path id="svg_55" fill="#fff" d="m2603.2,1208.6c-11.3,27.6 -49.3,39.5 -64.5,45.7c-15.1,6.3 -15.1,28.9 -62.6,43.8c-44,13.8 -63.3,5.8 -63.3,5.8l-53.3,28.4c0,0 -10.1,-35.2 7.9,-75.1c14,-31.1 45.1,-65.2 111.1,-87.8c10.1,-3.4 18.4,-39.8 65.5,-41.5c25.1,-1 44.7,11.4 55.1,28.9c9.1,15.2 11.2,34.3 4.1,51.8z" class="b"/>
  <path id="svg_56" fill="#e8e8e8" d="m2603.2,1208.6c-11.3,27.6 -49.3,39.5 -64.5,45.7c-15.1,6.3 -15.1,28.9 -62.6,43.8c-44,13.8 -63.3,5.8 -63.3,5.8l-53.3,28.4c0,0 -10.1,-35.2 7.9,-75.1c16,10.6 43,21.8 82.2,16.1c44.9,-6.6 52.9,-36.2 67,-43.3c12.8,-6.4 80.8,-32 82.5,-73.2c9.1,15.2 11.2,34.3 4.1,51.8z" class="c"/>
  <path id="svg_57" fill="#371a45" d="m2359.5,1348.3c-2.2,0 -4.3,-0.4 -6.3,-1.3c-4.5,-1.8 -7.8,-5.7 -9.2,-10.3c-0.3,-1.3 -33.8,-125.5 127.3,-181.8c1,-1.1 2.4,-3.1 3.5,-4.6c9.6,-12.9 27.4,-37 68.6,-38.5c27.3,-1 51.6,10.8 66.6,32.3c14.6,20.9 17.6,47.3 8.1,70.6c-12.7,31 -48.5,44.8 -67.7,52.3c-2.1,0.8 -3.9,1.5 -5.5,2.2c-1.6,0.6 -3.9,3.5 -6.7,6.8c-8.6,10.4 -21.7,26.2 -57.3,37.4c-33.8,10.6 -55.2,9.6 -66.1,7.6l-47.8,25.4c-2.3,1.3 -4.9,1.9 -7.5,1.9zm187,-204.4q-1,0 -1.9,0c-25.8,0.9 -35.8,14.6 -43.9,25.5c-4.8,6.5 -9.4,12.6 -17,15.2c-96.8,33.2 -111,91.3 -111.1,122.5l32.6,-17.4c4.5,-2.4 8.9,-2.9 13.4,-0.8c2.2,0.6 18.8,4.5 52.7,-6.2c26.5,-8.3 34.8,-18.3 42.2,-27.2c4.8,-5.8 10.2,-12.3 19.1,-16c1.8,-0.7 3.9,-1.6 6.2,-2.4c14.7,-5.8 42.1,-16.4 49.5,-34.6c5.4,-13.1 3.7,-28.1 -4.7,-40c-8.3,-11.9 -21.7,-18.6 -37.1,-18.6z" class="d" fill-rule="evenodd"/>
  <path id="svg_58" fill="#fff" d="m2431.3,1464.7c0,0 -6.8,-59.6 4.1,-106.2c11.9,-51.3 87.4,-103.6 113.7,-86c48.3,32.3 -13.6,83.3 -14.3,88.6c-0.7,5.2 18.6,41.3 6.7,81" class="b"/>
  <path id="svg_59" fill="#371a45" d="m2419.4,1466.9c-8.6,-39.2 -8.7,-80.2 2.3,-118.9c12.3,-43.4 90,-117.5 136.5,-89.7c19.6,11.8 31.2,36.4 24,58.8c-6.4,21.9 -19.6,35.8 -33.5,51.8c1.6,-2.4 2.4,-5.9 2.1,-8.8c8.4,24.7 13.8,58.1 2.2,85.5c-5.7,13.5 -25.8,7.3 -23.1,-7c4.4,-22.6 -1.3,-46 -9.2,-67.7c-1.1,-3 -2.4,-7.9 -1.9,-11.6c0.4,-4.8 4,-9.8 6.7,-12.9c4.9,-5.7 10.5,-12.1 14.6,-18.1c7,-10.9 14.7,-22.2 8.4,-33.6c-2,-3.6 -10,-9.7 -10.3,-8.7c-20.6,0.1 -43,17.6 -58.6,32.5c-12,11.8 -22.3,25.7 -27.4,39.9c-2.5,7.8 -4.4,16.5 -5.8,24.6c-4.6,26.1 -5.3,53.9 -3.3,80.2c0.9,14.6 -20.1,17.9 -23.7,3.7z" class="d"/>
  <path id="svg_60" fill="#ffd243" d="m3542.9,2753.55c-73.1,111.3 -159.4,212.5 -256.5,301.7c-97,89.4 -204.7,166.8 -320.8,230.2c-67.6,37 -138,69.2 -210.8,96.3c-32.7,12.2 -65.9,23.4 -99.5,33.5c-204.1,61.3 -423.8,83 -649,56.9c-214.5,-24.8 -414.3,-90.5 -592.6,-188.4c-56.8,-31.2 -111.3,-65.7 -163.5,-103.2c-460.8,-330.9 -733.3,-895.2 -663.6,-1498.7c56.9,-492.2 329.5,-907.3 712.6,-1161.4c71.6,-47.5 164,19 140.8,101.8c-7.8,27.9 -14.9,56.2 -21.3,84.8c-12.1,54.8 -21.7,110.8 -28.3,167.6c-13.9,120.4 -14.2,239.1 -2.1,354.8c2.2,20.6 4.8,41.1 7.7,61.6c7.2,50 16.6,99.3 28.4,147.8c8.4,35.2 18.1,69.9 28.9,104.1c5.1,16.6 10.7,33.1 16.4,49.5c14.4,41.2 30.4,81.6 48,121.2c9.5,21.7 19.6,43.1 30.2,64.2c7.4,14.9 14.9,29.7 22.8,44.4c9.3,17.1 18.8,34.1 28.6,50.9c21,36 43.3,71.1 66.9,105.3c3.3,4.7 6.5,9.3 9.7,13.9c19.6,27.6 39.9,54.6 61.2,80.9l0,0.1c5,6.1 9.9,12.2 14.9,18.2c21.4,25.9 43.6,51 66.5,75.4c12.4,13.2 25,26.2 37.9,39c2.7,2.7 5.4,5.4 8.2,8c1.9,2 3.8,3.8 5.8,5.7c4.1,4.1 8.4,8.1 12.5,12.1c22.4,21.3 45.4,42 69,61.9c7.1,6.1 14.3,12 21.5,17.9c7.7,6.3 15.6,12.7 23.5,18.9c20.7,16.3 41.9,32.2 63.4,47.5c33.6,23.9 68.2,46.4 103.6,67.7c36.4,21.8 73.6,42.4 111.8,61.3c50.7,25.2 103,47.9 156.6,67.7c50.4,18.7 102.1,35.1 155,48.7c10.8,2.9 21.7,5.6 32.5,8.2c23.5,5.5 47.2,10.6 71,15.2c39.2,7.4 79,13.6 119.4,18.3c2.6,0.3 5.2,0.7 7.9,0.8c31.8,3.6 63.5,6.1 95.1,7.8c63.8,3.3 127.1,2.8 189.5,-1.3c18.6,-1.2 37.2,-2.7 55.7,-4.6c96.3,-9.7 190.5,-27.9 281.6,-54c82.2,-23.5 149.9,68.2 102.9,139.8z" class="h"/>
  <path id="svg_61" fill="#ffa92c" d="m992.5,790.5c90.9,-100.4 194,-189.1 306.6,-263.8c26.2,-17.4 55,-19.5 80.1,-11.2c-282.7,254.1 -477.4,608.5 -524.5,1015.8c-16,138.1 -13.9,274.2 4.1,405.9q11.1,-7.9 23.6,-14.1c113.3,-55.7 261.8,29.4 331.4,190.1c69.6,160.8 34.2,336.3 -79.2,392c-23.9,11.8 -49.4,17.3 -75.3,17.1c246.8,428.3 686.3,738.2 1215,799.2c225.3,26.1 444.9,4.4 649.1,-56.9c47.7,-14.3 94.5,-30.8 140.4,-49.4c-116.2,70.6 -241.6,126.7 -373.5,166.3c-204.1,61.3 -423.8,82.9 -649,56.9c-886.3,-102.3 -1522,-903.9 -1419.7,-1790.2c38,-328.6 172.1,-622.8 370.9,-857.7z" class="i"/>
  <path id="svg_62" fill="#ffa92c" d="m2829.7,3053.5c-29.8,80.3 -130.6,117.8 -225.2,83.6c-94.5,-34.2 -146.9,-127.1 -117,-207.5c29.9,-80.4 130.7,-117.8 225.2,-83.6c94.5,34.2 146.9,127.1 117,207.5z" class="i"/>
  <path id="svg_63" fill="#ffd243" d="m2812.8,3051.8c3.4,60.9 -55,111.8 -130.4,113.6c-75.5,1.9 -139.4,-46 -142.7,-107c-3.4,-60.9 55,-111.8 130.4,-113.6c75.5,-1.9 139.4,46 142.7,107z" class="h"/>
  <path id="svg_64" fill="#ffd243" d="m1949.7,3122.4c-5,14.3 -11.8,28 -20.5,40.9c-61.8,91 -195.4,105.8 -298.4,32.8c-77.4,-54.8 -115.6,-143.4 -103.6,-222.7l422.5,149z" class="h"/>
  <path id="svg_65" fill="#371a45" d="m1955.7,3124.5c-19.6,84.4 -109.5,139.6 -194.8,134.4c-113.7,-3.7 -219.1,-91.9 -240.1,-203.8c-5.3,-27.4 -4.9,-55.8 1.3,-82.5c1.5,-6 10.6,-4.7 10.2,1.6c-2.8,52 13.7,102.4 42.4,143.5c68.6,101.6 226.3,149.4 324.2,63c18.9,-16.6 34.2,-37.3 44.7,-60.3c3.2,-7 13.9,-3.3 12.1,4.1z" class="d"/>
  <path id="svg_66" fill="#ffd243" d="m1310.4,2158.3c32.5,138.1 15.4,268.6 -45.5,355.6c-36.1,51.5 -85.7,87.3 -145.3,99.2c-160.1,32 -331.8,-120.4 -383.6,-340.4c-20.4,-87.1 -19,-171.8 0.1,-244.3c29.2,-110.5 94,-191.2 190.7,-210.5c53.4,-10.6 108,-0.8 159.1,25.1l224.5,315.3z" class="h"/>
  <path id="svg_67" fill="#371a45" d="m926.8,1817.9c-161.8,45.6 -205.8,243.5 -185.6,390.9c20,145.7 95,294.6 227.2,367.4c74.3,41.2 167.6,41.9 238.3,-7.9c21.8,-14.9 41.1,-33.6 58.2,-54.4c-13.9,23 -31.5,44.2 -52.4,62c-91.8,77.9 -218.7,62 -310.6,-7.1c-154.9,-115.4 -226,-334.8 -184,-521.2c23.1,-105.1 94.1,-215.7 208.9,-229.7z" class="d"/>
  <path id="svg_68" fill="#371a45" d="m2599.9,3149.7c-99.2,-27 -176.7,-138.3 -130.6,-239.2c17,-39.1 50.9,-69.7 90,-85.4c135.2,-58.4 321.9,50.8 295.6,206.4c-7.4,40.4 -32.9,75.4 -67.3,96.9c-2.3,1.7 -5.5,1.2 -7.2,-1.1c-1.7,-2.4 -1,-5.6 1.2,-7.3c6.8,-6.3 14,-12.1 19.8,-19.2c17.8,-20.4 29.3,-45.9 32.3,-72.7c12.4,-111.4 -107.5,-196.1 -210.7,-183.9c-119.4,11.1 -178,128.5 -104.4,226.8c21.4,28.9 51.6,51.6 85.6,66.7c7.3,3.2 3.2,14.1 -4.3,12z" class="d"/>
  <path id="svg_69" fill="#371a45" d="m2916,2979.1c23.7,75.9 -4.6,164.3 -66.5,214.7c-61.2,52.2 -146.5,69.7 -224.6,56.8c-134.7,-19.7 -263.7,-140.5 -247.7,-283.8c2.4,-19.4 7.6,-38.3 15.3,-56c1.2,-2.6 4.2,-3.7 6.8,-2.6c2.4,1.1 3.6,3.7 2.9,6.2c-5.2,17.5 -8,35.6 -8.4,53.6c-1.8,168 187.6,282.3 341.8,245.9c109.6,-22.8 186.5,-118.2 167.9,-232c-1.1,-7.7 10.2,-10.3 12.5,-2.8z" class="d"/>
  <path id="svg_70" fill="#ffa92c" d="m1778.8,2899.8c66.6,24.8 132.7,95.1 95.4,187.8c-3.2,8.4 -7.5,16.5 -13.1,24c-39.5,53.6 -125.3,62 -191.6,18.8c-49.7,-32.4 -74.4,-84.6 -66.9,-131.3c20.8,-101.8 100.9,-127.4 176.2,-99.3z" class="i"/>
  <path id="svg_71" fill="#ffd243" d="m1808.2,2999.2c38,24.8 62.7,59.9 71.6,96.3c-3.2,8.4 -7.5,16.5 -13.1,24c-39.5,53.5 -125.3,61.9 -191.6,18.8c-49.8,-32.4 -74.4,-84.7 -66.9,-131.3c47.1,-47.1 132.7,-51.6 200,-7.8z" class="h"/>
  <path id="svg_72" fill="#371a45" d="m1820.1,2912.7c55,32.2 90.7,101.6 74.6,165.5c-16,70.3 -89.6,108.8 -157.7,96.3c-98.1,-15.4 -176.8,-125.5 -132.4,-220.9c7.3,-14.7 17.2,-27.9 29.5,-38.4c12.2,-10.5 26.4,-18.2 41.4,-22.8c2.7,-0.8 5.6,0.7 6.4,3.4c0.8,2.5 -0.4,5 -2.6,6.1c-117.5,63.2 -51.1,221.7 63.3,238.7c69.9,11.8 132,-37.1 127.3,-109.5c-2.3,-42.1 -24.8,-80.2 -57.2,-108c-5.9,-4.9 0.8,-14.3 7.4,-10.4z" class="d"/>
  <path id="svg_73" fill="#ffa92c" d="m1148.4,2499.3c-112.3,55 -258.6,-27.8 -326.9,-185.1c-68.2,-157.3 -32.6,-329.4 79.7,-384.5c112.3,-55 258.6,27.8 326.9,185.1c68.2,157.3 32.6,329.4 -79.7,384.5z" class="i"/>
  <path id="svg_74" fill="#ffd243" d="m1104.3,2495.9c-78.4,48.3 -196.8,-16.8 -264.4,-145.4c-67.6,-128.6 -58.8,-272 19.6,-320.3c78.4,-48.3 196.8,16.7 264.4,145.3c67.6,128.6 58.8,272.1 -19.6,320.4z" class="h"/>
  <path id="svg_75" fill="#371a45" d="m979.1,2493.1c79.6,37.6 168.1,16.6 216.8,-57.8c75.7,-117.6 51.2,-281 -23.5,-393.4c-58.1,-89.5 -176,-158.7 -274.3,-90.2c-92.6,68.5 -107.8,198.9 -87.8,306c1.2,6.4 -8.3,8.6 -10,2.3c-31.3,-112 -17.4,-255.3 81.2,-331.3c80.4,-61.1 187.5,-37.9 258.6,25.7c69.1,59.8 111.7,146.3 127.6,235.1c20.8,116.1 -6.6,261.9 -118.7,322.3c-27.7,14.1 -59.1,20.7 -89.7,18.9c-30.4,-1.8 -59.7,-11.5 -86,-26.2c-7.1,-4 -1.5,-14.7 5.8,-11.4z" class="d"/>
  <path id="svg_76" stroke-width="25.8" stroke-linecap="round" stroke="#371a45" fill="none" class="j"/>
  <g id="svg_77" opacity="0.3">
   <path id="svg_78" fill="#fff" d="m1865.4,2227.2c462.5,714.6 1459.3,490.8 1547.3,540.6c94.1,53.4 -143.9,286.2 -143.9,286.2l12.7,8.8c97,-89.3 183.3,-190.6 256.4,-301.8c47,-71.5 -20.7,-163.3 -102.9,-139.7c-198.7,56.9 -411.7,76.4 -629.9,51.3c-368.1,-42.6 -693,-205.7 -939.7,-445.4z" class="b"/>
  </g>
  <path id="svg_79" fill="#371a45" d="m2193.2,3506.4q-1.3,0 -2.7,0c-3,0 -6,0 -9.1,-0.1l-2.1,0l-1.7,0l-3.9,0c-4.4,-0.1 -9,-0.1 -13.5,-0.2l-14.3,-0.4q-7,-0.2 -14.1,-0.4c-6.9,-0.3 -13.8,-0.6 -20.7,-1q-1.6,0 -3.1,-0.1q-5.4,-0.3 -10.9,-0.6l0,0.1l-19.7,-1.4q-7.4,-0.5 -14.9,-1.1l-9.9,-0.9c-2.7,-0.2 -5.6,-0.4 -8.6,-0.8c-1.8,-0.1 -3.6,-0.2 -5.4,-0.4c-3.6,-0.3 -7,-0.7 -10.2,-1c-1.7,-0.2 -3.3,-0.3 -4.8,-0.5q-3.9,-0.4 -7.8,-0.8l-1.3,-0.1q-4.7,-0.6 -9.4,-1.1c-2.7,-0.3 -5.7,-0.7 -8.7,-1l-3.8,-0.5q-3.5,-0.4 -7.1,-0.9q-4.5,-0.6 -9.1,-1.2l-0.3,0.4l-9.5,-1.7c-4.9,-0.7 -9.8,-1.4 -14.7,-2.1c-2.7,-0.4 -5.4,-0.8 -8.2,-1.3l-3.4,-0.5c-4.2,-0.6 -8.5,-1.3 -12.6,-2l-2,-0.3q-1.2,-0.2 -2.5,-0.4c-5.6,-0.9 -11.7,-2 -17.7,-3.1c-0.4,0 -0.9,-0.1 -1.2,-0.2l-3.5,-0.6c-4.4,-0.8 -8.9,-1.6 -13.3,-2.5c-3.9,-0.7 -7.9,-1.5 -11.9,-2.3l-5.8,-1.1c-4.9,-1 -9.7,-2 -14.5,-3l-3.3,-0.7q-8.9,-1.9 -17.8,-3.8q-6.4,-1.5 -12.7,-3l-4.8,-1.1c-369.8,-87.2 -700.1,-303.8 -930.1,-610.1c-231,-307.6 -346.6,-687.3 -325.4,-1068.9c1,-17.3 2.1,-32.6 3.3,-47c1.2,-14.9 2.8,-30.3 4.7,-47.1c1.3,-11.7 2.8,-24 4.5,-36.5c1.9,-13.5 3.6,-25.3 5.3,-36.3c2,-12 3.9,-23.7 6,-34.9c1,-5.9 2.1,-11.8 3.3,-17.7l0.2,-1.2c0.8,-4.4 1.7,-8.8 2.6,-13.2l0.8,-4.2c1.3,-6.1 2.5,-12.1 3.9,-18.2c1.2,-5.9 2.5,-11.8 3.8,-17.7c1.4,-5.8 2.8,-11.7 4.2,-17.5c1.3,-5.8 2.8,-11.6 4.2,-17.5c1.5,-5.8 3,-11.6 4.5,-17.4l0.8,-3.2c1.3,-4.7 2.5,-9.5 3.9,-14.2c0.5,-1.9 1.1,-4.1 1.7,-6.3l3.8,-13.3c1.5,-5.6 3.2,-11.3 5,-17c8.2,-27.6 17.3,-55.2 26.9,-82l4.4,-12.3c2.6,-7 5.2,-14 7.9,-21c1.4,-3.6 2.8,-7.3 4.3,-11c9.2,-23.5 19.1,-47.1 29.4,-70.1c1.4,-3.1 2.8,-6.3 4.2,-9.4l1.4,-3.1q1.2,-2.7 2.5,-5.4c2.2,-5 4.7,-10.2 7.3,-15.6c9.6,-20.3 20.1,-41.3 31.1,-62.2c2.7,-5 5.4,-10.2 8.2,-15.3c21.8,-40.2 45.6,-80.1 71,-118.6q9,-13.8 18.4,-27.5c13.6,-19.7 27.2,-38.6 40.5,-56.3c2.9,-3.8 5.9,-7.8 8.9,-11.7c14.1,-18.5 29.2,-37.3 44.9,-56c6.6,-8 13.3,-15.8 20.1,-23.6c9.8,-11.2 19.7,-22.3 29.6,-33.1c5.1,-5.5 10.2,-11 15.3,-16.4c34,-36 70.2,-70.9 107.5,-103.8c12.7,-11.2 25.8,-22.4 38.9,-33.2c7.5,-6.2 15.1,-12.4 22.7,-18.4c8.1,-6.6 16.3,-13 24.6,-19.4c14.4,-11 29.3,-22 45.7,-33.7c9.6,-6.9 19.7,-14 30.9,-21.6c5.2,-3.5 10.5,-7 15.7,-10.5c3.1,-2.1 6.4,-4 9.6,-5.7q1.4,-0.8 2.7,-1.4c1.4,-0.8 2.8,-1.4 4.2,-2q1.1,-0.5 2.3,-1q1.1,-0.4 2.2,-0.9l1.4,-0.5c1.5,-0.6 2.5,-0.9 3.5,-1.2l1.7,-0.6q1.3,-0.4 2.5,-0.8l0.8,-0.2c20.4,-6 41.9,-5.6 62.5,1c0.3,0 0.8,0.2 1.2,0.3l3.3,1.1c4.2,1.6 8.4,3.4 12.7,5.6c44.7,23.2 67.9,71.7 57.6,120.5c-0.5,2.5 -1.1,5 -1.8,7.6c-2.3,7.9 -4.4,15.7 -6.4,23.5c-1.3,5 -2.6,9.8 -3.8,14.7c-2.1,8.5 -4.2,17 -6.2,25.5c-1.3,5.4 -2.5,10.7 -3.7,15.9c-6.7,30 -12.7,60.6 -17.7,90.8c-0.9,5.3 -1.7,10.4 -2.5,15.6c-0.9,5.5 -1.7,10.8 -2.4,16.1c-2.1,14.6 -3.8,27.6 -5.3,39.7l-0.1,0.7q0,0.6 -0.1,1.3l-0.6,5.4q-0.8,6.9 -1.6,13.8l-0.2,2.7c-0.7,6.1 -1.3,11.9 -1.8,17.8c-0.4,3.6 -0.7,7.1 -1,10.5c-0.4,5.2 -0.8,10.2 -1.2,15.3c-0.1,1.5 -0.3,2.7 -0.3,3.9l-0.1,0.6c-0.5,6.9 -1,13.8 -1.4,20.8q-0.7,11.6 -1.2,23c-0.5,10.3 -0.9,20.6 -1.2,30.8q-0.2,8 -0.3,16q-0.1,3.3 -0.1,6.7l-0.1,3.8c-2.7,238.3 46.9,469 147.2,685.7c163.4,352.9 447.8,634.1 800.6,791.8c82.5,36.9 168.9,66.9 256.7,89.2q5.1,1.3 10.2,2.5l5.2,1.3q3.5,0.9 7.2,1.7l0.9,0.2c5.8,1.5 11.4,2.8 17.1,4c3.5,0.9 7,1.6 10.5,2.4c8.8,1.9 18.2,3.9 28.8,6c11.8,2.3 23.9,4.6 37,7l2.1,0.3q9.9,1.7 19.9,3.3c7.8,1.3 15.6,2.5 23.4,3.6l0.1,0q0.4,0.1 0.7,0.1c7.8,1.2 15.6,2.3 23.4,3.3c7.3,0.9 14.6,1.9 22.1,2.7c39.9,4.7 80.7,7.9 121.2,9.6c6.7,0.2 13.3,0.5 20,0.7c6.8,0.2 13.5,0.3 20.1,0.4c6.7,0.2 13.3,0.2 19.9,0.2c123.8,0.4 247.7,-13.5 368.1,-41.7l5.9,-1.4c4.3,-1 8.6,-2 12.9,-3.1l15,-3.8q11.8,-2.9 23.5,-6.2l18.7,-5.3c15.3,-4.3 30.8,-5.5 46,-3.3c2.7,0.4 5.1,0.9 7.4,1.4c4.5,1 9,2.3 13.8,4l3.8,1.5c7.5,3 14.7,7 21.4,11.7c12.9,9.2 24,21.2 32.2,34.9c10.9,18.6 16.2,39.5 15.3,60.5c-0.8,16.2 -5.1,31.8 -12.9,46.4c-0.7,1.3 -1.6,2.9 -2.6,4.5c-0.9,1.6 -1.8,3.1 -2.8,4.6c-7.6,11.5 -15.9,23.7 -25.3,37.3q-6.5,9.2 -13,18.4c-12.9,17.9 -26.6,36.1 -40.7,54.1c-10.3,13.2 -19.5,24.7 -28.3,35.2c-42.6,51.3 -88.6,100.4 -136.7,145.7l-0.8,0.8c-4.7,4.4 -9.4,8.8 -14.2,13.2c-5.7,5.2 -11.4,10.4 -17.1,15.5c-5.1,4.7 -10.4,9.3 -15.6,13.9c-13.9,12.1 -25.6,21.9 -36.8,31.1c-23.3,19.2 -47.4,37.9 -71.6,55.7q-2.2,1.6 -4.3,3.1l-7.1,5.1q-4.3,3.1 -8.6,6.2q-0.6,0.4 -1.5,1l-3.9,2.8c-2.6,1.8 -5.1,3.6 -7.7,5.4l-5.6,3.8c-1.4,1.1 -3,2.1 -4.5,3.1c-2.7,1.9 -5.5,3.8 -8.4,5.8c-2.2,1.5 -4.3,2.9 -6.4,4.2c-2.6,1.8 -5.2,3.6 -7.8,5.3l-6.8,4.4q-2.3,1.6 -4.7,3q-1.4,1 -2.7,1.9c-5.4,3.4 -10.8,6.9 -16.2,10.3c-0.5,0.3 -1.3,0.8 -2.2,1.3c-3.4,2.2 -6.8,4.3 -10.2,6.4l-0.6,0.4c-2.4,1.5 -4.9,3 -7.3,4.4c-6,3.7 -12.3,7.5 -18.6,11.3l-0.5,0.2c-0.6,0.4 -1.1,0.7 -1.7,1c-0.9,0.5 -1.9,1.1 -2.9,1.7c-2.5,1.5 -5.1,3 -7.6,4.5c-2.6,1.5 -5.4,3.1 -8.2,4.7q-1.9,1.1 -3.9,2.2l-1.8,1c-0.2,0.2 -0.7,0.4 -1.2,0.7l-0.6,0.3q-5.4,3.1 -10.8,6.1l-3.2,1.7c-4.4,2.5 -9,5 -13.6,7.4q-2.5,1.4 -5,2.8l-2,1.1c-3.8,2 -7.4,3.9 -11,5.7l-0.6,0.3c-1.5,0.9 -3.2,1.7 -4.8,2.5c-2.7,1.5 -5.9,3.1 -9,4.7l-5.1,2.6q-4.6,2.3 -9.1,4.6l-4.6,2.3c-5.3,2.6 -10.5,5.1 -15.8,7.7q-1.2,0.6 -2.6,1.2l-5,2.4q-4.1,1.9 -8.2,3.9c-1.1,0.5 -2.6,1.2 -4.1,1.9l-10.5,4.8c-4.1,1.9 -8,3.7 -12,5.5c-4.7,2.1 -9.2,4.1 -13.8,6q-2.8,1.3 -5.7,2.5q-7.7,3.4 -15.5,6.6c-1.9,0.8 -3.9,1.7 -6,2.5l-1.6,0.7c-1.2,0.5 -2.7,1.1 -4.1,1.7l-1.1,0.4c-1.7,0.7 -3.7,1.5 -5.8,2.3c-2.8,1.3 -6.1,2.5 -9.3,3.8l-1.1,0.4q-0.9,0.4 -1.8,0.7l-0.6,0.3c-6,2.3 -11.7,4.6 -17.6,6.8c-1.7,0.7 -3.7,1.4 -5.7,2.1c-4.5,1.8 -9.4,3.5 -14.2,5.3l-3.4,1.3c-0.8,0.3 -1.8,0.7 -3,1.1c-1.5,0.6 -3,1.1 -4.5,1.6q-7.3,2.6 -14.6,5.1q-0.5,0.2 -0.9,0.4c-0.7,0.2 -1.2,0.4 -1.5,0.5l-3.8,1.3c-3.9,1.3 -7.7,2.6 -11.6,3.9c-1.7,0.6 -3.6,1.3 -5.7,1.9c-5.7,1.9 -11.4,3.8 -17.1,5.5c-3.3,1.1 -6.7,2.2 -10.1,3.2c-4,1.3 -8.3,2.6 -12.5,3.9l-0.1,0l-21.7,6.4c-1,0.3 -2.3,0.7 -3.7,1.1c-3.7,1 -7.9,2.2 -12,3.3l-5,1.4c-11.1,3.1 -23.1,6.2 -37.7,9.8c-16.9,4.2 -32.4,7.8 -47.2,10.9c-5.2,1.2 -10.8,2.4 -16.3,3.5q-1.3,0.3 -2.5,0.5q-4.1,0.9 -8.2,1.7l-0.7,0.1c-3,0.6 -6.1,1.2 -9.2,1.8c-4.2,0.8 -8.6,1.6 -13,2.4l-3.9,0.7q-8.6,1.6 -17.2,3.1q-1.7,0.3 -3.3,0.5c-4.6,0.8 -9.2,1.6 -13.9,2.3c-4.9,0.8 -10.1,1.6 -15.3,2.3l-0.9,0.1q-4.9,0.8 -9.8,1.5c-1.4,0.2 -2.6,0.4 -3.9,0.5q-2.3,0.4 -4.5,0.6c-3.9,0.6 -7.8,1.1 -11.7,1.6c-6.9,0.9 -13.9,1.8 -21,2.6c-11.5,1.3 -21.7,2.4 -31.1,3.3l-17.8,1.7l-0.1,-0.1c-3.3,0.3 -6.6,0.6 -9.9,0.9l-11.2,0.9l-0.1,-0.1q-0.6,0.1 -1.2,0.1q-6.5,0.5 -12.8,0.8l-8.1,0.6c-2.9,0.1 -5.7,0.3 -8.6,0.4c-1.1,0.1 -2.2,0.2 -3.4,0.2q-3.1,0.2 -6.4,0.3l-4.3,0.2q-3.7,0.2 -7.5,0.3q-0.9,0.1 -1.9,0.1l-4.4,0.2c-3.5,0.1 -7.1,0.2 -10.7,0.3l-1.5,0.1q-1.7,0 -3.5,0c-0.4,0.1 -1,0.1 -1.3,0.1c-2.4,0.1 -4.8,0.1 -7.3,0.1c-1.9,0.1 -3.9,0.2 -5.8,0.2c-1.1,0 -2.4,0 -3.7,0c-1.1,0.1 -2.1,0.1 -3,0.1c-1.5,0 -3.1,0 -4.7,0q-4.2,0.1 -8.5,0.1l-0.9,0l-0.4,0l-0.3,0l-5.7,0q-1,0 -1.9,0zm-2.3,-34.5l0.5,0q1.4,0.1 2.8,0.1l6.2,-0.1q1.2,0 2.4,0c2.4,0 5,0 7.6,-0.1l0.3,0l0.4,0q1.9,0.1 3.8,0l0.5,0l0.9,0l0.7,-0.1l1.2,0c1.3,0.1 2.6,0 3.9,0q2.3,0 4.6,-0.1l0.7,0c2.3,0 4.6,-0.1 6.9,-0.2l1.8,0q1.5,0 3,-0.1l1.9,0c3.5,-0.1 6.9,-0.2 10.2,-0.3l5.9,-0.3q3.9,-0.2 7.7,-0.3l4.2,-0.2c2,-0.1 4.1,-0.2 6.2,-0.4l0.8,0l0.7,0q0.4,0 0.7,0l1.3,-0.1c2.7,-0.1 5.5,-0.3 8.3,-0.4l7.8,-0.6c4.3,-0.2 8.3,-0.5 12.4,-0.8c2.4,-0.1 4.9,-0.3 7.3,-0.5l5.6,-0.4c5.2,-0.5 10.6,-0.9 15.8,-1.4c0.1,0 0.1,0 0,0l8.6,-1.5l0.6,0.6l1.7,-0.1c9.3,-0.9 19.2,-1.9 30.5,-3.2q10.3,-1.2 20.5,-2.6c3.8,-0.4 7.5,-0.9 11.3,-1.5l0.6,-0.1q1.8,-0.2 3.6,-0.5l1,-0.1q1.2,-0.1 2.4,-0.3l0.6,-0.1q4.9,-0.7 9.7,-1.4l1,-0.2c5.1,-0.7 10,-1.5 15,-2.3c4.7,-0.7 9.3,-1.5 13.8,-2.2l1,-0.2q0.5,0 1.1,-0.1l0.5,-0.1c5.7,-1 11.4,-2 17.1,-3.1l3.9,-0.7c4.3,-0.8 8.5,-1.5 12.8,-2.4c3.1,-0.5 5.9,-1.1 8.8,-1.7l0.9,-0.2q4.1,-0.8 8.2,-1.6l1.7,-0.4c5.5,-1.1 11,-2.2 16.4,-3.4c14.6,-3.1 29.7,-6.6 46.2,-10.7c14.2,-3.5 25.9,-6.6 36.8,-9.6l5,-1.4q6.1,-1.6 12.1,-3.4c1.2,-0.3 1.9,-0.5 2.7,-0.7l18.4,-5.4q8,-2.5 16.1,-5c3.3,-0.9 6.2,-1.9 9.2,-2.9l0.5,-0.2c5.7,-1.7 11.2,-3.6 16.8,-5.4l0.7,-0.2c1.5,-0.5 3,-1 4.4,-1.5c4.2,-1.4 7.9,-2.6 11.7,-3.9l5.9,-2.1q7.2,-2.4 14.3,-5l0.5,-0.2c1.2,-0.4 2.3,-0.8 3.4,-1.2l6.8,-2.5c4.7,-1.8 9.4,-3.5 14.2,-5.3c1.9,-0.7 3.6,-1.3 5.2,-2c6,-2.2 11.5,-4.4 17.1,-6.6l3.8,-1.5c3,-1.2 6,-2.3 9,-3.6c2.1,-0.8 3.9,-1.5 5.6,-2.3l1.4,-0.5q1.7,-0.7 3.5,-1.5l1.9,-0.7q2.8,-1.2 5.6,-2.4c5.4,-2.2 10.4,-4.4 15.5,-6.6l0.5,-0.2q2.2,-0.9 4.4,-1.9l0.6,-0.3c4.4,-1.8 8.8,-3.8 13.1,-5.8c4.3,-1.9 8.1,-3.6 11.9,-5.4l10.9,-5c1.4,-0.5 2.3,-1 3.3,-1.5c3,-1.4 5.7,-2.7 8.3,-3.9l5.3,-2.5c0.6,-0.3 1.1,-0.5 1.5,-0.7l0.7,-0.4c5.1,-2.4 10.2,-4.9 15.2,-7.4l4.8,-2.4c3,-1.5 5.9,-3 8.8,-4.4l5,-2.5q4.5,-2.4 9,-4.7c1.7,-0.8 3,-1.5 4.2,-2.2l0.9,-0.5c3.8,-1.9 7.2,-3.7 10.7,-5.6l2,-1.1q2.2,-1.1 4.3,-2.3l0.5,-0.3c4.5,-2.4 9.1,-4.9 13.7,-7.4l3.2,-1.8c3.3,-1.8 6.8,-3.8 10.3,-5.8c0.4,-0.2 0.9,-0.5 1.4,-0.8l2.1,-1.1q1.7,-1 3.3,-2l0.7,-0.4c2.6,-1.4 5.2,-2.9 7.8,-4.4c2.5,-1.5 4.8,-2.8 7.1,-4.2c1.4,-0.9 2.9,-1.7 4.3,-2.5q0.7,-0.4 1.2,-0.7q9.1,-5.4 18.1,-11c2.6,-1.5 4.9,-2.9 7.2,-4.3l0.5,-0.3q5.2,-3.2 10.5,-6.6l1.7,-1c5.3,-3.3 10.5,-6.7 15.8,-10.1c0.7,-0.5 1.4,-0.9 2,-1.3l1.6,-1q1.4,-0.9 2.8,-1.9l7.6,-5c2.4,-1.5 4.9,-3.1 7.2,-4.8l0.9,-0.6c1.8,-1.1 3.7,-2.4 5.4,-3.6c3,-2 5.8,-3.9 8.5,-5.8l0.5,-0.3c1.1,-0.8 2.2,-1.5 3.3,-2.3l6.1,-4.2q3.6,-2.5 7.2,-5l5.3,-3.8q0,0 0.1,0l0.2,-0.2c3.1,-2.2 5.8,-4.1 8.5,-6.1l1.3,-0.9l6.1,-4.4c1.3,-1 2.5,-1.8 3.6,-2.6c23.8,-17.5 47.4,-35.8 70.2,-54.6c11,-9 22.5,-18.7 36,-30.4c5,-4.5 10.2,-9.1 15.4,-13.7c5.6,-5 11.2,-10.1 16.7,-15.2c4.6,-4.2 9.3,-8.6 13.9,-12.9l0.8,-0.8c47,-44.3 92.1,-92.3 133.8,-142.7c8.6,-10.2 17.6,-21.5 27.7,-34.3c13.8,-17.6 27.2,-35.5 39.8,-53q6.4,-9 12.7,-18c9.3,-13.3 17.4,-25.3 24.9,-36.7c0.8,-1.2 1.4,-2.3 2,-3.3c0.5,-0.8 1,-1.7 1.5,-2.7c5.6,-10.3 8.6,-21 9.1,-31.9c0.6,-14.3 -3.1,-28.6 -10.6,-41.5c-5.7,-9.5 -13.4,-17.9 -22.4,-24.3c-5.3,-3.7 -11,-6.7 -17,-8.9l-1.9,-0.7c-2.5,-0.8 -5,-1.5 -7.3,-2l-0.6,-0.1q-2.3,-0.5 -4.6,-0.9c-10.4,-1.4 -21,-0.6 -31.8,2.4l-18.8,5.3q-12.1,3.4 -24.2,6.4l-15.1,3.9c-4.5,1.1 -9,2.1 -13.5,3.2l-5.7,1.3c-121.1,28.4 -245.6,42.7 -370,42.7q-3.1,0 -6.2,0c-6.8,0 -13.7,-0.1 -20.4,-0.2c-6.8,-0.1 -13.6,-0.3 -20.5,-0.5c-6.7,-0.2 -13.5,-0.4 -20.3,-0.7c-41.5,-1.7 -83.1,-5 -123.9,-9.8c-7.6,-0.8 -15,-1.8 -22.5,-2.7q-12.1,-1.6 -24.1,-3.4q-0.3,0 -0.7,-0.1c-8,-1.1 -16,-2.4 -24,-3.7q-10,-1.6 -20,-3.3l-2.3,-0.4c-13.5,-2.4 -25.9,-4.7 -37.8,-7.1c-10.8,-2.2 -20.5,-4.2 -29.5,-6.2c-3.5,-0.7 -7.2,-1.5 -10.7,-2.4c-5.8,-1.3 -11.7,-2.6 -17.6,-4l-0.7,-0.2q-3.8,-0.9 -7.6,-1.8l-5.2,-1.3q-5.2,-1.3 -10.5,-2.6c-89.6,-22.8 -177.8,-53.4 -262.2,-91.2c-360.4,-161 -650.8,-448.3 -817.8,-808.7c-102.5,-221.5 -153.1,-457.2 -150.3,-700.6l0,-3.8q0.1,-3.4 0.1,-6.9q0.2,-8.2 0.4,-16.4c0.3,-10.5 0.6,-20.9 1.2,-31.4c0.3,-7.8 0.7,-15.7 1.2,-23.6c0.5,-7 0.9,-14 1.5,-21.1q0.1,-2.4 0.4,-4.8c0.3,-5 0.7,-10.2 1.2,-15.4c0.3,-3.5 0.6,-7.2 1,-10.9c0.5,-5.8 1.1,-11.8 1.8,-17.8l0.2,-2.7c0.5,-5 1.1,-9.7 1.6,-14.5l1,-7.8c1.4,-12 3.1,-25.3 5.3,-40.1q1.1,-8.3 2.5,-16.6c0.8,-5.3 1.6,-10.6 2.5,-16c5.1,-30.8 11.2,-62 18.1,-92.7c1.3,-5.4 2.5,-10.8 3.8,-16.2c2,-8.6 4.1,-17.3 6.3,-26c1.3,-5 2.5,-10 3.9,-15c2,-7.9 4.2,-16 6.5,-24c0.4,-1.7 0.9,-3.5 1.3,-5.3c8.1,-38.9 -14.2,-69.7 -39.8,-83q-4.3,-2.2 -8.4,-3.7l-3.4,-1.1c-14.1,-4.5 -28.8,-4.8 -42.5,-0.7l-0.6,0.1q-0.4,0.2 -0.9,0.4l-2.8,0.9q-0.5,0.1 -1,0.3l-1.5,0.6q-1,0.4 -1.9,0.8l-1.1,0.5c-0.9,0.3 -1.7,0.7 -2.5,1.1l-1,0.5c-0.3,0.1 -0.6,0.3 -0.9,0.5l-0.4,0.2c-2.3,1.2 -4.5,2.5 -6.7,4q-7.7,5.1 -15.4,10.3c-11,7.5 -20.9,14.4 -30.3,21.1c-16,11.5 -30.6,22.3 -44.6,33.1c-8.1,6.2 -16.2,12.4 -24.2,18.8c-7.4,6 -14.9,12.1 -22.2,18.2c-12.9,10.6 -25.7,21.5 -38.1,32.4c-36.6,32.3 -72,66.5 -105.2,101.7c-5,5.3 -10.1,10.7 -15,16c-9.7,10.5 -19.4,21.5 -29,32.5c-6.7,7.6 -13.2,15.3 -19.7,23c-15.3,18.3 -30.1,36.8 -44,54.9c-2.9,3.8 -5.8,7.6 -8.6,11.3c-13.1,17.4 -26.4,36 -39.7,55.2q-9.1,13.4 -18,26.9c-24.8,37.7 -48.2,76.8 -69.5,116.1q-4.1,7.5 -8,14.9c-10.8,20.6 -21.1,41 -30.5,61c-2.5,5.2 -4.9,10.3 -7.2,15.4c-0.9,1.9 -1.6,3.5 -2.3,5.1l-1.4,2.9q-2.1,4.7 -4.1,9.3c-10.1,22.6 -19.8,45.7 -28.9,68.8c-1.4,3.6 -2.8,7.2 -4.1,10.7c-2.7,6.9 -5.2,13.6 -7.7,20.4l-4.4,12.1c-9.4,26.2 -18.3,53.2 -26.3,80.3c-1.7,5.5 -3.3,11 -4.9,16.6l-3.7,13q-0.9,3.1 -1.7,6.2c-1.3,4.8 -2.5,9.3 -3.7,13.9l-0.9,3.2c-1.5,5.7 -2.9,11.4 -4.3,17c-1.5,5.7 -2.9,11.4 -4.2,17.1c-1.4,5.8 -2.8,11.5 -4.1,17.3c-1.3,5.7 -2.5,11.4 -3.8,17.2c-1.3,5.9 -2.5,11.8 -3.7,17.7l-0.8,4.2c-0.9,4.3 -1.7,8.5 -2.6,12.8l-0.2,1.2c-1.1,5.8 -2.2,11.6 -3.2,17.4c-2,11 -4,22.5 -5.8,34.2c-1.7,10.8 -3.4,22.4 -5.3,35.5c-1.6,12.2 -3.1,24.3 -4.4,35.8c-1.8,16.4 -3.3,31.5 -4.6,46.1c-1.2,14 -2.2,29.1 -3.2,46c-43,774.3 473.8,1465.6 1228.9,1643.6l4.7,1.1q6.3,1.4 12.5,2.8c5.8,1.3 11.5,2.6 17.3,3.8l3.3,0.7q7.1,1.5 14.2,2.9l5.8,1.1q5.8,1.2 11.7,2.3c4.4,0.8 8.6,1.6 12.9,2.4l4.7,0.8q8.7,1.6 17.5,3l1.9,0.4q1.3,0.1 2.5,0.4c3.7,0.6 7.9,1.2 12,1.8l3.6,0.6q3.8,0.6 7.7,1.2q3.7,0.5 7.4,1.1l0.4,-0.4l10.7,1.9c4.8,0.7 9.7,1.3 14.7,2c2.3,0.3 4.5,0.5 6.7,0.8l3.8,0.4c2.8,0.4 5.6,0.7 8.5,1c3.2,0.4 6,0.7 8.8,1.1l1.6,0.1q3.9,0.4 7.8,0.8l1,0.1c0.9,0.1 1.8,0.2 2.9,0.3l0.6,0.1c3.2,0.3 6.5,0.7 9.8,1c1.9,0.2 3.4,0.3 4.9,0.4l0.9,0c2.6,0.3 5.3,0.6 8,0.8l10,0.8c4.7,0.4 9.6,0.8 14.6,1.1l11.7,0.8c6.2,0.4 12.5,0.8 18.7,1.1l0.8,0l0.3,0l1.1,0.1c6.8,0.4 13.7,0.7 20.6,0.9q7,0.3 13.9,0.5l13.8,0.3q6.7,0.2 13.4,0.2l3.5,0.1l3.5,0l0.8,0c2.8,0 5.6,0.1 8.4,0l0.5,0zm64.6,-1.1q0,0 0,0zm80.1,-5.1q0,0 0.1,0l-0.1,0zm378.2,-81.2q0,0 -0.1,0l0.1,0zm403,-207.6q0,0 -0.1,0q0.1,0 0.1,0zm-0.1,0.1q0,0 0,0l0,-0.1q0,0.1 0,0.1zm0,-0.1q0,0 0,0zm-2100.2,-2412.3l0.1,0l-0.1,0z" class="d" fill-rule="evenodd"/>
  <path id="svg_80" fill="#ffd243" d="m1037.7,1456.6c-91.8,-15.4 -152,-155.7 -134.5,-313.3c17.6,-157.7 106.3,-272.9 198.1,-257.5c91.9,15.5 152.1,155.7 134.5,313.4c-5.8,52.5 -19.6,100.3 -38.7,140.1l-159.4,117.3z" class="h"/>
  <path id="svg_81" fill="#371a45" d="m1075.6,891.2c-82.2,25.3 -123.3,116 -146.4,192.4c-7.7,26.6 -13.9,54.9 -13.5,82.6c-1.2,94.8 20.4,250.1 122.9,285.3c2.7,0.8 4.3,3.7 3.4,6.5c-0.7,2.3 -2.8,3.7 -5.1,3.6c-15.4,-0.7 -30.8,-5.2 -44.6,-12.6c-13.9,-7.3 -26.2,-17.4 -37,-28.5c-72.2,-79.9 -82.5,-199.5 -61.3,-300.9c17.1,-72.1 46.8,-143.7 100.2,-196.7c21.5,-20.9 48.5,-37.6 78.3,-44.1c8,-1.4 11,9.9 3.1,12.4z" class="d"/>
  <path id="svg_82" fill="#ffa92c" d="m1126.2,983.2q3.9,2.1 7.6,4.6c52.3,35.5 76.6,136.5 54.4,232.5c-23.3,100.6 -88.8,157.6 -146.3,127.2c-31,-16.3 -53.4,-54.8 -63.8,-102.5c-8.8,-40.7 -8.9,-88.3 1.8,-134.6c23.3,-100.6 88.8,-157.5 146.3,-127.2z" class="i"/>
  <path id="svg_83" fill="#ffd243" d="m1099.1,1395.2c-45.1,11.9 -92.9,-44.9 -106.9,-126.7c-14,-81.8 11.3,-157.8 56.3,-169.6c45.1,-11.9 93,44.8 106.9,126.7c14,81.8 -11.3,157.8 -56.3,169.6z" class="h"/>
  <path id="svg_84" fill="#371a45" d="m1158.1,1281.4c22.6,-60.3 26.4,-127.8 9.3,-189.7c-14.4,-54.1 -60.7,-115.2 -117.1,-66.8c-64.5,59.2 -78.9,184.5 -49.4,264.3c10.9,28.5 29.9,57.6 60.8,65.6c2.8,0.7 4.6,3.5 3.9,6.3c-0.7,2.5 -3.1,4.1 -5.6,3.9c-9,-1 -17.8,-3.7 -26,-7.9c-24.2,-12.4 -41.2,-35.6 -52.8,-59.4c-36,-79.6 -30.4,-179.2 11.9,-255.4c19.3,-32.5 47.9,-63.6 88.8,-68.5c41.8,-5.7 78.4,25.4 95.9,59.5c39.9,76.9 32.9,178.9 -8.2,253.6c-4,6.8 -14.3,1.8 -11.5,-5.5z" class="d"/>
  <path id="svg_85" fill="#fff" d="m2183.1,1958.4c116.5,75.4 294.7,132.8 392.5,277c107.8,158.9 -104.6,504.6 -443.1,490.4c-403,-16.7 -602.8,-557.8 -602.6,-725.8c0.1,-90.4 461.8,-305.5 551.6,-139.7" class="b"/>
  <path id="svg_86" fill="#fff" d="m2535.7,2526.2c-79.6,113.4 -223.7,207.1 -403.2,199.7c-236.5,-9.9 -403.1,-200.4 -500.3,-390.1c-49.5,-96.6 -81,-193 -94.6,-265.2c-5.1,-27.5 -7.8,-51.5 -7.7,-70.6c0.1,-90.4 461.8,-305.4 551.7,-139.7l29.5,28.6l72,69.5c116.5,75.4 294.7,132.8 392.6,277c50.6,74.6 30.6,190.4 -40,290.8z" class="b"/>
  <path id="svg_87" fill="#e8e8e8" d="m1769.3,2135.3c-137.6,-1.9 -204,-41 -231.7,-64.7c-5.1,-27.5 -7.8,-51.5 -7.7,-70.6c0.1,-90.4 461.8,-305.4 551.7,-139.7l29.5,28.6c6.8,101.6 -79.4,249.9 -341.8,246.4z" class="c"/>
  <path id="svg_88" fill="#e8e8e8" d="m1721.2,2132.9c-99.2,-8.5 -152.8,-37.8 -178.9,-58.5l68.8,-19.2c0,0 67.5,23.8 110.1,77.7z" class="c"/>
  <path id="svg_89" fill="#e8e8e8" d="m2535.7,2526.2c-79.6,113.4 -223.7,207.1 -403.2,199.7c-236.5,-9.9 -403.1,-200.4 -500.3,-390.1l97.3,-4.5c0,0 65,151.3 140.3,170.3c75.3,18.9 206.9,-233.4 211,-227.3c4.1,6.2 192.9,46.8 161.4,94.9c-31.6,48.2 -88.1,7.9 -127.9,41.1c-41.8,34.8 -58.3,156.4 -5.1,183.6c65.3,33.3 101,-18.8 138.3,-70c42.2,-58.2 240.1,-73.7 288.2,2.3z" class="c"/>
  <path id="svg_90" fill="#371a45" d="m2067.4,1868c-53.9,-94.1 -237.1,-40.2 -318.2,-8.3c-61.6,24.8 -163.1,72.9 -199.2,128.4c-2.4,5.1 -4.4,8 -4,13.7c0.4,28.5 5.5,58 11.9,87c48.1,197.7 155.7,401.5 319.8,526.1c224.9,172.5 547.6,99.1 676.2,-152.9c33.6,-67.8 51.6,-156.7 4.7,-221.9c-3,-4.6 -9.6,-13.2 -13,-17.6c-93.4,-121.3 -246.9,-168.2 -366.9,-257.3c-7.7,-5.9 0.1,-18.1 8.7,-13.5c141.3,72.7 302.9,133.7 398.5,269.3c90.7,130 -10.8,315.7 -117.2,404.4c-210,177.8 -493.1,148.5 -681.9,-44.6c-130.7,-132.7 -217.2,-304.8 -260.5,-485c-6.5,-30.4 -12,-61.2 -12.4,-93.7c-0.1,-4.1 0.5,-11.7 2.1,-16c9.9,-29.1 34.8,-49.5 57.4,-67.5c75.6,-55.9 162.4,-93.3 252.6,-117.8c61.5,-15.2 125.6,-25.8 188.9,-9.1c32.8,8.7 64.6,30 80.8,61c9.6,19.1 -17.8,33.5 -28.3,15.3z" class="d"/>
  <path id="svg_91" fill="#fff" d="m2326.7,2120.5c64,-133.4 277.7,-152.4 340.8,0.3c55.9,135.3 -53.2,238.2 -53.2,238.2c0,0 -343.3,-122.4 -287.6,-238.5z" class="b"/>
  <path id="svg_92" fill="#fff" d="m2675.6,2254.2c-18.1,64 -61.3,104.8 -61.3,104.8c0,0 -343.3,-122.4 -287.6,-238.5c26.4,-55 78.3,-90.6 134.5,-102.6c80.2,-17.2 169.2,13.2 206.3,102.9c20.7,50.1 18.8,95.8 8.1,133.4z" class="b"/>
  <path id="svg_93" fill="#e8e8e8" d="m2675.6,2254.2c-18.1,64 -61.3,104.8 -61.3,104.8c0,0 -343.3,-122.4 -287.6,-238.5c26.4,-55 78.3,-90.6 134.5,-102.6c29.9,10.8 62.4,35.1 94.2,82c30.9,45.6 45.4,150.7 120.2,154.3z" class="c"/>
  <path id="svg_94" fill="#371a45" d="m2618.2,2377.4l-9.3,-3.3c-10.4,-3.7 -255.2,-92 -297.7,-195.2c-9.3,-22.6 -9,-44.6 1,-65.3c33.7,-70.2 110.3,-116.4 192,-116.4q3,0 6,0.1c78.3,2.2 142.7,46 172.1,117.3c59.5,144 -55.8,254.9 -56.9,256l-7.2,6.8zm-114.1,-348c-69.5,0 -134.6,39 -163,98.2c-5.9,12.3 -6,25.1 -0.2,39.1c29.4,71.4 195.7,146.2 269.1,173.6c21.9,-24.2 86.2,-107.8 42.6,-213.3c-24.9,-60.2 -77.1,-95.7 -143.3,-97.5q-2.6,-0.1 -5.2,-0.1z" class="d" fill-rule="evenodd"/>
  <path id="svg_95" fill="#fff" d="m1682.5,2374.2c0,0 -302.4,106.9 -424.6,-47.2c-146,-184.3 11.9,-527.6 92.1,-609.3c96.9,-98.8 187.6,212.5 187.6,212.5l-30.8,154.1l104.3,-29.1c0,0 144,50.8 144,172c0,121.2 -72.6,147 -72.6,147z" class="b"/>
  <path id="svg_96" fill="#fff" d="m1755.1,2227.2c0,48.6 -11.6,81.8 -25.6,104.1c-20.9,33.6 -47,42.9 -47,42.9c0,0 -302.4,106.9 -424.5,-47.2c-146.1,-184.3 11.8,-527.6 92,-609.3c96.9,-98.8 187.6,212.5 187.6,212.5l-27.1,135.4l-3.7,18.7l104.3,-29.1c0,0 144,50.8 144,172z" class="b"/>
  <path id="svg_97" fill="#e8e8e8" d="m1721.2,2132.9c-99.2,-8.5 -152.8,-37.8 -178.9,-58.5l68.8,-19.2c0,0 67.5,23.8 110.1,77.7z" class="c"/>
  <path id="svg_98" fill="#e8e8e8" d="m1729.5,2331.3c-20.9,33.6 -47,42.9 -47,42.9c0,0 -302.4,106.9 -424.5,-47.2c-146.1,-184.3 11.8,-527.6 92,-609.3c96.9,-98.8 187.6,212.5 187.6,212.5l-27.1,135.4c-40.7,-12.1 -185.7,-46.1 -234.3,69.7c-53.4,127.3 79.2,278.5 453.3,196z" class="c"/>
  <path id="svg_99" fill="#371a45" d="m1686.5,2385.6c-110.6,37.9 -253.2,62.1 -363.5,12.2c-59.1,-26.2 -102,-82.2 -121.9,-142.7c-39.2,-119.3 -12,-249.1 31,-363.1c23.1,-58.7 71.1,-160.8 121.7,-198.3c102.2,-63.8 177,162.1 199.2,232c0.8,2.6 0.9,5.2 0.3,7.7l-30.8,154l-20,-18.6l104.3,-29c8.5,-2.4 17.4,2.6 19.7,11.1c2.4,8.6 -2.6,17.4 -11.1,19.8l-104.3,29.1c-8.5,2.4 -17.4,-2.6 -19.8,-11.2c-0.7,-2.5 -0.7,-5.1 -0.3,-7.5l30.8,-154l0.4,7.6c-17.2,-55.3 -38.7,-111.9 -68.4,-161.6c-15,-23.2 -38.6,-60.6 -68.2,-58.4c-10.6,1.3 -20.7,10.1 -27.8,18.2c-24,26.8 -42.2,58.1 -59.4,90.3c-63.3,125.8 -110.9,283.3 -67,421.4c18.1,53 53.6,100.2 105.5,123.6c102.4,46.1 236.7,24.9 341.6,-5.4c14.9,-4.8 22.8,16.9 8,22.8z" class="d"/>
  <path id="svg_100" fill="#371a45" d="m1335.1,2401.5c-2.8,0 -5.6,-0.7 -8.2,-2.3c-26.5,-15.9 -39.6,-65.8 -31.9,-121.4c5.5,-39.6 36.9,-172.4 209.7,-219.6c8.5,-2.4 17.4,2.7 19.7,11.2c2.3,8.6 -2.7,17.4 -11.3,19.8c-149.6,40.8 -180.1,148.6 -186.3,193c-6.6,47.9 5.4,82.8 16.7,89.5c7.6,4.6 10,14.5 5.4,22.1c-3,5 -8.3,7.7 -13.8,7.7z" class="d"/>
  <path id="svg_101" fill="#fff" d="m2237.1,1569.6c2.4,83.9 -16.3,168.9 -57.5,246.8c-8.3,15.9 -17.6,31.5 -27.8,46.7c-5,7.4 -10.2,14.7 -15.7,22c-16.4,21.9 -34.3,42.1 -53.4,60.6c-16.4,15.9 -33.8,30.6 -51.9,44c-21.9,16.1 -44.8,30.4 -68.6,42.7q-13.1,6.7 -26.4,12.7c-162.5,72.7 -358,59.2 -510.5,-52.2c-224.6,-164.1 -270.4,-478.3 -102.4,-701.8c32.3,-43.1 70.3,-79.7 112.1,-109.4q7.3,-5.3 14.8,-10.2q20.2,-13.4 41.3,-24.6c32.5,-17.4 66.7,-31.1 101.8,-41.1c35,-10 71.1,-16.2 107.3,-18.6q17.3,-1.2 34.7,-1.2c17.4,0.1 34.8,0.9 52.2,2.8c86.5,8.8 171.8,39.9 246.6,94.5c129.2,94.4 199.2,238.4 203.4,386.3z" class="b"/>
  <path id="svg_102" fill="#371a45" d="m1725.1,2091.7c-106.8,0 -212.5,-33.1 -300.7,-97.5c-108.6,-79.3 -179.2,-195.9 -198.9,-328.3c-19.9,-133.4 14.2,-266.9 96.1,-375.8c31.9,-42.4 69.7,-79.4 112.4,-109.7c4.7,-3.4 9.5,-6.8 14.9,-10.3c13.4,-8.8 27.3,-17.1 41.4,-24.7c32.3,-17.2 66.7,-31.1 102.1,-41.1c35.1,-10 71.4,-16.3 107.7,-18.7c11.7,-0.8 23.6,-1.2 34.8,-1.2c17.8,0 35.4,1 52.3,2.7c89.4,9.2 175,42 247.4,94.9c125.3,91.5 199.7,232.8 204.2,387.6c2.4,85.8 -17.5,171.4 -57.7,247.6c-8.5,16.1 -17.9,31.8 -28,46.8c-4.7,6.9 -9.8,14.2 -15.7,22.1c-16.2,21.6 -34.3,42.1 -53.6,60.7c-16.1,15.7 -33.7,30.6 -52.1,44.2c-21.5,15.9 -44.7,30.3 -68.8,42.8c-8.6,4.5 -17.5,8.8 -26.4,12.8c-67.7,30.2 -139.8,45.1 -211.4,45.1zm9.1,-1004.1c-11.1,0 -22.5,0.4 -33.8,1.2c-36.2,2.4 -72.2,8.6 -107.1,18.6c-35.2,10 -69.4,23.7 -101.5,40.9c-13.9,7.5 -27.8,15.7 -41.1,24.5c-5.3,3.5 -10.2,6.9 -14.8,10.2c-42.4,30.2 -80,66.9 -111.8,109c-81.2,108.3 -115.1,240.9 -95.4,373.5c19.6,131.5 89.8,247.3 197.6,326.1c146.4,107 341.4,126.9 508.9,52c8.8,-4 17.7,-8.2 26.2,-12.6c24,-12.5 47,-26.8 68.4,-42.6c18.3,-13.6 35.7,-28.3 51.8,-43.9c19.2,-18.5 37.1,-38.8 53.2,-60.3c5.9,-7.9 11,-15.1 15.6,-22c10,-14.9 19.4,-30.5 27.8,-46.5c40,-75.7 59.8,-160.8 57.3,-246c-4.4,-153.8 -78.3,-294.2 -202.8,-385.1c-72,-52.6 -157,-85.2 -245.8,-94.2c-16.9,-1.8 -34.3,-2.7 -52,-2.8q-0.3,0 -0.7,0z" class="d" fill-rule="evenodd"/>
  <path id="svg_103" fill="#e8e8e8" d="m1221.7,1594.9c30.7,97.1 91.5,185.6 180.5,250.6c152.5,111.4 348,124.9 510.5,52.2q13.3,-5.9 26.4,-12.6c23.7,-12.4 46.7,-26.6 68.6,-42.8c18.1,-13.4 35.4,-28 51.9,-44c19.1,-18.4 37,-38.6 53.4,-60.5c5.5,-7.3 10.7,-14.6 15.6,-22q15.4,-22.9 27.9,-46.7c39.3,-74.4 58.2,-155.2 57.7,-235.3c13.9,44 21.6,89.7 22.9,135.8c2.5,83.9 -16.3,168.9 -57.5,246.8c-8.4,15.9 -17.6,31.5 -27.8,46.7c-5,7.4 -10.3,14.7 -15.6,22c-16.5,21.9 -34.4,42.1 -53.5,60.6c-16.4,15.9 -33.9,30.6 -51.9,44c-21.9,16.1 -44.8,30.4 -68.6,42.7q-13.1,6.7 -26.4,12.7c-162.5,72.7 -358,59.2 -510.5,-52.2c-132.5,-96.9 -202.8,-246 -203.6,-398z" class="c"/>
  <path id="svg_104" fill="#371a45" d="m1725.1,2102.5c-109.1,0 -217,-33.7 -307.1,-99.6c-110.9,-81 -183.1,-200.1 -203.2,-335.4c-20.3,-136.3 14.5,-272.7 98.1,-383.9c32.6,-43.4 71.3,-81.1 114.8,-112.1c4.7,-3.4 9.8,-6.8 15.3,-10.4c13.6,-9.1 27.8,-17.5 42.2,-25.2c33,-17.6 68.1,-31.8 104.3,-42c35.8,-10.3 72.8,-16.7 109.9,-19.1c12,-0.8 23.8,-1.4 35.6,-1.2c18.1,0 36,1 53.4,2.8c91.2,9.3 178.6,42.8 252.6,96.9c128,93.4 204,237.8 208.6,395.9c2.5,87.7 -17.9,175.2 -58.9,253c-8.7,16.5 -18.3,32.6 -28.6,47.8c-4.7,7.1 -10,14.5 -16,22.6c-16.6,22.1 -35,43 -54.8,62c-16.4,16 -34.3,31.2 -53.1,45.1c-22,16.3 -45.7,31 -70.3,43.8c-8.8,4.5 -17.9,8.9 -27,12.9c-69,30.9 -142.7,46.1 -215.8,46.1zm9.1,-1004c-10.8,0 -22,0.4 -33.1,1.1c-35.4,2.3 -70.7,8.5 -104.8,18.2c-34.5,9.8 -67.9,23.3 -99.4,40.1c-13.6,7.3 -27.2,15.3 -40.2,24c-5.3,3.4 -10,6.6 -14.4,9.9c-41.6,29.6 -78.4,65.5 -109.5,106.8c-79.5,105.8 -112.7,235.6 -93.4,365.3c19.2,128.6 87.8,241.9 193.3,318.9c143.3,104.7 334.1,124.2 498,50.9c8.7,-3.9 17.4,-8 25.8,-12.4c23.4,-12.1 45.9,-26.1 66.9,-41.6c17.9,-13.3 34.9,-27.7 50.6,-43c18.8,-18.1 36.4,-38 52.2,-59.1c5.7,-7.6 10.7,-14.7 15.2,-21.4c9.8,-14.6 19,-29.9 27.2,-45.6c39.1,-74 58.5,-157.2 56.1,-240.6c-4.3,-150.5 -76.7,-287.7 -198.4,-376.6c-70.4,-51.5 -153.6,-83.4 -240.5,-92.3c-16.5,-1.7 -33.6,-2.6 -50.9,-2.6q-0.3,0 -0.7,0z" class="d" fill-rule="evenodd"/>
  <path id="svg_105" fill="#371a45" d="m1725.1,2106.1c-109.8,0 -218.5,-34 -309.2,-100.3c-111.7,-81.5 -184.4,-201.5 -204.7,-337.7c-20.4,-137.3 14.7,-274.7 98.8,-386.7c32.9,-43.6 71.8,-81.6 115.7,-112.8c4.7,-3.4 9.7,-6.9 15.4,-10.6c13.6,-9 27.9,-17.6 42.4,-25.3c33.2,-17.7 68.5,-32 105,-42.3c36,-10.3 73.3,-16.8 110.7,-19.2c12,-0.9 24,-1.2 35.8,-1.2c18.2,0 36.3,0.9 53.7,2.8c92,9.4 179.9,43.1 254.4,97.6c128.9,94.1 205.5,239.4 210.1,398.7c2.5,88.3 -18,176.4 -59.3,254.8c-8.8,16.6 -18.5,32.8 -28.8,48.2c-4.8,7.1 -10,14.5 -16.1,22.6c-16.7,22.3 -35.3,43.3 -55.1,62.5c-16.6,16.1 -34.6,31.4 -53.6,45.4c-22.1,16.4 -46,31.2 -70.7,44.1c-8.9,4.5 -18,8.9 -27.2,13c-69.5,31.1 -143.7,46.4 -217.3,46.4zm9.1,-1004c-10.8,0 -21.8,0.4 -32.9,1.1c-35.1,2.3 -70.1,8.4 -104,18.1c-34.3,9.7 -67.5,23.1 -98.7,39.7c-13.5,7.3 -27,15.3 -39.9,23.9c-5.2,3.4 -9.9,6.6 -14.3,9.8c-41.3,29.4 -77.9,65 -108.7,106c-79,105.1 -111.9,233.9 -92.7,362.6c19,127.7 87.1,240.1 191.8,316.6c142.3,104 331.7,123.3 494.5,50.5c8.6,-3.8 17.2,-8 25.5,-12.3c23.3,-12 45.6,-26 66.4,-41.3c17.8,-13.2 34.7,-27.5 50.3,-42.7c18.7,-18 36.1,-37.7 51.8,-58.6c5.7,-7.6 10.6,-14.6 15.1,-21.3c9.7,-14.5 18.8,-29.7 27,-45.3c38.8,-73.5 58.1,-156.1 55.7,-238.8c-4.3,-149.3 -76.1,-285.6 -196.9,-373.8c-69.9,-51.1 -152.5,-82.7 -238.8,-91.6c-16.4,-1.7 -33.4,-2.6 -50.5,-2.6q-0.3,0 -0.7,0z" class="d" fill-rule="evenodd"/>
  <path id="svg_106" fill="#371a45" d="m2224.1,1697.7c-153.3,326.7 -577.7,404.2 -776,109.6c-134.9,-200.5 -39.4,-487.6 164.9,-605.2c148.6,-85.5 330.9,-105.1 526.2,85.5c0,0 73.1,97.6 85.3,183.9c12.1,86.3 9.2,172.3 9.2,172.3l-9.6,53.9z" class="d"/>
  <path id="svg_107" fill="#220f2d" d="m1385.5,1604.5c206.1,294.2 586.6,296.8 840.6,82.3l-2,10.9c-153.2,326.7 -577.7,404.2 -776,109.6c-41.6,-61.9 -61.3,-132 -62.6,-202.8z" class="k"/>
  <path id="svg_108" fill="#371a45" d="m1782.8,2059c-29.2,0 -58.3,-2.6 -86.9,-7.9c-125.2,-23.2 -230.9,-94.2 -305.7,-205.3c-68.8,-102.1 -90.1,-229.9 -59.9,-359.6c33.4,-144 127,-272.4 250.5,-343.5c68.6,-39.5 137.4,-63 204.6,-69.9l1.7,-0.2l1.6,0.2c92,9.4 179.9,43.1 254.4,97.6c128.9,94.1 205.5,239.4 210.1,398.7c2.5,88.3 -18,176.4 -59.3,254.8c-8.8,16.6 -18.5,32.8 -28.8,48.2c-4.8,7.1 -10,14.5 -16.1,22.6c-16.7,22.3 -35.3,43.3 -55.1,62.5l-2,1.6c-93.1,65.4 -202.2,100.2 -309.1,100.2zm4.3,-954.1c-62.2,6.7 -126.2,28.8 -190.3,65.7c-115.9,66.7 -203.8,187.4 -235.3,322.8c-28,121 -8.4,239.8 55.3,334.5c69.9,103.8 168.4,170.1 285,191.6c124.2,23 259.2,-8.4 370.6,-86.3c18.3,-17.7 35.4,-37.2 50.9,-57.7c5.7,-7.6 10.6,-14.6 15.1,-21.3c9.7,-14.5 18.8,-29.7 27,-45.3c38.8,-73.5 58.1,-156.1 55.7,-238.8c-4.3,-149.3 -76.1,-285.6 -196.9,-373.8c-69.5,-50.8 -151.4,-82.3 -237.1,-91.4z" class="d" fill-rule="evenodd"/>
  <path id="svg_109" fill="#371a45" d="m1785.6,1998.2c-139.2,0 -263,-66.8 -343.7,-186.7c-60.2,-89.3 -78.7,-201.1 -52.4,-314.7c29.3,-126.3 111.5,-238.9 219.7,-301.2c186.4,-107.2 366.5,-78.1 535.2,86.6l0.8,0.9c3,4 74.4,100.2 86.7,187.4c12.1,85.9 9.3,172.7 9.3,173.6l-0.1,1.1l-9.8,54.8l-0.4,0.9c-79.4,169.2 -237,282.6 -411.4,296q-17.1,1.3 -33.9,1.3zm40.1,-850.6c-68.6,0 -138.3,20.3 -209,61c-104.7,60.3 -184.2,169.3 -212.6,291.6c-25.4,109.5 -7.6,217.1 50.2,302.9c84.1,125 216.8,190.2 364.1,178.9c168.7,-13 321.3,-122.8 398.5,-286.6l9.3,-52.3c0.2,-7.3 2.3,-89.4 -9.1,-170.6c-11.4,-80.3 -78.2,-172.7 -83.6,-180c-99,-96.5 -202,-144.9 -307.8,-144.9zm398.4,550.1l0.1,0l-0.1,0z" class="d" fill-rule="evenodd"/>
  <path id="svg_110" fill="#fff" d="m1221,1841.1c-13.2,-67.8 9.2,-130.1 60.8,-153.2c66.3,-29.7 156.1,16.8 201.2,103.9c0.3,0.5 0.6,1.1 0.8,1.7c44.8,88.1 27,183.8 -39.8,213.7c-66.7,29.9 -157.2,-17.4 -202,-105.6c-10.2,-20.1 -17.1,-40.5 -21,-60.5z" class="b"/>
  <path id="svg_111" fill="#e8e8e8" d="m1221,1841.1c72.4,-27 128,-47.1 128,-47.1c0,0 77.5,34.9 107.3,28.1c17,-4 23.9,-18 26.7,-30.3c0.3,0.5 0.6,1.1 0.8,1.7c44.8,88.1 27,183.8 -39.8,213.7c-66.7,29.9 -157.2,-17.4 -202,-105.6c-10.2,-20.1 -17.1,-40.5 -21,-60.5z" class="c"/>
  <path id="svg_112" fill="#371a45" d="m1401.5,2032.1c-64.7,0 -135.4,-47.6 -173.8,-123.2c-28,-55.1 -34.2,-114.5 -17,-163c12,-34.1 34.3,-59.2 64.5,-72.7c74.4,-33.2 174.4,17.5 223,113c27.9,55.1 34.1,114.5 17,163c-12.1,34 -34.4,59.1 -64.6,72.6c-15.5,7 -32.1,10.3 -49.1,10.3zm-145.2,-137.8c40.9,80.6 122.2,124.6 181.2,98.2c21.9,-9.8 38.3,-28.5 47.4,-54c14,-39.7 8.3,-91.2 -15.4,-137.7c-40.9,-80.6 -122.2,-124.6 -181.1,-98.2c-22,9.8 -38.4,28.5 -47.4,54c-14.1,39.7 -8.3,91.2 15.3,137.7z" class="d" fill-rule="evenodd"/>
  <path id="svg_113" fill="#fff" d="m1262.8,1747.1c50.6,-22.2 121.5,18 158.3,89.7c36.8,71.8 25.6,147.9 -25,170.1c-50.6,22.1 -121.5,-18.1 -158.3,-89.8c-36.8,-71.8 -25.6,-147.9 25,-170z" class="b"/>
  <path id="svg_114" fill="#e8e8e8" d="m1396.1,2006.9c-50.6,22.1 -121.5,-18.1 -158.3,-89.8c-4,-7.8 -7.4,-15.7 -10.3,-23.5c38.3,42.9 89.6,62.7 129,45.4c44.4,-19.5 59,-79.9 37.7,-142.6c10.1,11.9 19.2,25.5 26.9,40.4c36.8,71.8 25.6,147.9 -25,170.1z" class="c"/>
  <path id="svg_115" fill="#371a45" d="m1365.7,2029.1c-51.9,0 -109.1,-40.2 -142.2,-104.7c-24,-46.7 -29.9,-98.1 -15.9,-137.4c9.2,-25.8 26,-44.7 48.8,-54.6c59.1,-26 137.8,16.7 179,97.1c24,46.8 30,98.1 16,137.4c-9.2,25.8 -26.1,44.7 -48.8,54.7c-11.7,5.1 -24.2,7.5 -36.9,7.5zm-73,-272c-8.3,0 -16.2,1.5 -23.4,4.7c-18.3,8 -27.2,24 -31.5,36c-11,31.1 -5.7,72.9 14.3,112c32.4,63.1 95.4,100.8 137.6,82.4c18.2,-8 27.1,-24 31.4,-36c11.1,-31.1 5.7,-73 -14.3,-112c-26.8,-52.3 -74.6,-87.1 -114.1,-87.1z" class="d" fill-rule="evenodd"/>
  <g id="svg_116" opacity="0.5">
   <path id="svg_117" fill="#fff" d="m1833.5,1197.2c99.1,-6.2 169.4,34.5 219.8,87c16.7,17.4 44.9,53.7 54.6,66.7q0.1,0 0.1,0q1.6,2.3 3.1,4.6q6.4,10.1 11.9,19.9c36.6,66.9 32.4,129.2 9.9,197c0,0 -0.8,-65.6 -45.6,-145.4c-14.7,-26.3 -32.6,-50.5 -66.1,-85.6c-25.4,-26.6 -76.9,-50.5 -112.5,-60.7q-0.2,0 -0.5,-0.1c-169.2,-48 -354,69.9 -354,69.9c-11.4,-4.7 94.1,-141.7 279.3,-153.3z" class="b"/>
  </g>
  <g id="svg_118" opacity="0.5">
   <path id="svg_119" fill="#fff" d="m1589.2,1617c9.8,39.2 -9.9,77.9 -43.9,86.5c-34.1,8.7 -69.7,-16.1 -79.5,-55.2c-9.8,-39.2 9.9,-77.9 43.9,-86.6c34.1,-8.6 69.7,16.1 79.5,55.3z" class="b"/>
  </g>
  <g id="svg_120" opacity="0.5">
   <path id="svg_121" fill="#fff" d="m1590.4,1766.5c2.6,16.5 -6.8,31.8 -21.1,34.1c-14.3,2.4 -28.1,-9 -30.7,-25.5c-2.7,-16.4 6.7,-31.7 21.1,-34.1c14.3,-2.4 28,9 30.7,25.5z" class="b"/>
  </g>
  <path id="svg_122" fill="#fff" d="m2017,2205.2l18.3,-79.4l446.8,0.3l-3.4,77c-0.3,7 -4,13.4 -9.8,17.3l-215.3,142.9c-21.1,14.1 -48.9,12.8 -68.7,-3l-157.7,-125.7c-8.8,-7 -12.8,-18.5 -10.2,-29.4z" class="b"/>
  <path id="svg_123" fill="#e8e8e8" d="m2479.7,2179.1l-1,24c-0.3,7 -4,13.5 -9.8,17.3l-215.3,142.9c-21.1,14.1 -48.9,12.9 -68.7,-3l-157.7,-125.8c-8.8,-6.9 -12.7,-18.3 -10.2,-29.3l7.7,-33.3c-0.2,9 3.8,17.6 11,23.3l157.7,125.7c19.8,15.9 47.6,17.1 68.7,3l215.2,-142.9c0.9,-0.5 1.7,-1.1 2.4,-1.9z" class="c"/>
  <path id="svg_124" fill="#371a45" d="m2221.3,2389.2c-16.4,0 -32.8,-5.5 -46.4,-16.3l-157.7,-125.8c-13.6,-10.8 -19.8,-28.7 -15.9,-45.5q0,0 0,0l18.4,-79.5c1.7,-7.2 8.2,-12.4 15.6,-12.4q0.1,0 0.1,0l446.7,0.3c4.4,0 8.5,1.8 11.6,5c3,3.1 4.6,7.4 4.4,11.8l-3.4,77c-0.5,12.1 -6.8,23.3 -16.9,30l-215.3,142.9c-12.5,8.4 -26.9,12.5 -41.2,12.5zm-188.7,-180.4c-1.1,4.9 0.7,10.1 4.6,13.2l157.7,125.8c14.5,11.5 34.5,12.3 49.9,2.1l215.2,-142.9c1.6,-1 2.6,-2.7 2.6,-4.6l2.7,-60.3l-417.2,-0.3l-15.5,67z" class="d" fill-rule="evenodd"/>
  <path id="svg_125" fill="#fff" d="m2050.2,2108.9l236.1,-130.2c11.8,-6.5 26.2,-5.3 36.7,3.1l146.7,117.6c17.6,14.1 16.2,41.4 -2.8,53.6l-213.7,137.7c-11.5,7.5 -26.5,7 -37.6,-1.2l-169.1,-125c-19.4,-14.4 -17.4,-44 3.7,-55.6z" class="b"/>
  <path id="svg_126" fill="#371a45" d="m2235.3,2312c-10.3,0 -20.6,-3.2 -29.2,-9.6l-169.1,-125c-13.6,-10 -21,-26 -19.9,-42.8c1.1,-16.8 10.6,-31.7 25.4,-39.8l236.1,-130.2c17.5,-9.6 38.9,-7.8 54.5,4.7l146.6,117.5c12.5,10 19.2,24.9 18.4,40.9c-0.8,16 -9,30.2 -22.5,38.8l-213.7,137.7c-8,5.2 -17.3,7.8 -26.6,7.8zm67,-321.4c-2.8,0 -5.6,0.7 -8.2,2.1l-236.1,130.2c-5.2,2.9 -8.4,7.9 -8.8,13.8c-0.4,5.9 2.1,11.3 6.9,14.9l169.1,125c5.6,4.2 13.4,4.4 19.3,0.6l213.7,-137.7c4.7,-3 7.5,-7.9 7.8,-13.4c0.3,-5.6 -2,-10.7 -6.4,-14.2l-146.6,-117.5c-3.1,-2.5 -6.9,-3.8 -10.7,-3.8zm-252.1,118.3l0.1,0l-0.1,0z" class="d" fill-rule="evenodd"/>
  <path id="svg_127" fill="#fff" d="m2210.6,2408.8c32.7,-50.5 156,-182.6 311,-130.6c161.4,54.1 196.5,300.9 202.6,320.6c17.9,7.1 102.4,27.3 123,87.3c6,17.1 9.3,40.4 -1,62.6c-48.5,105.3 -203.7,98.6 -279,67.5c-115,-47.5 -201.1,-245.9 -201.1,-245.9c0,0 -77.6,-2.4 -118.7,-46.4c-43.6,-46.7 -36.8,-115.1 -36.8,-115.1z" class="b"/>
  <path id="svg_128" fill="#fff" d="m2846.2,2748.8c-48.5,105.2 -203.7,98.5 -279,67.4c-115,-47.5 -201.1,-245.9 -201.1,-245.9c0,0 -77.6,-2.5 -118.6,-46.4c-43.7,-46.7 -36.9,-115.1 -36.9,-115.1c10,-15.3 28.2,-38.1 53.1,-61c57.3,-52.7 149.9,-105.9 257.9,-69.6c34.8,11.6 63.7,32.3 87.7,57.6c87.4,92.3 110.1,247.6 114.9,263c17.9,7.1 102.5,27.3 123.1,87.3c0.2,0.6 0.4,1.3 0.6,1.9c5.5,17 8.2,39.3 -1.7,60.8z" class="b"/>
  <path id="svg_129" fill="#e8e8e8" d="m2846.2,2748.8c-48.5,105.2 -203.7,98.5 -279,67.4c-115,-47.5 -201.1,-245.9 -201.1,-245.9c0,0 -77.6,-2.5 -118.6,-46.4c0,0 43.4,-74.1 16.2,-176.1c57.3,-52.7 149.9,-105.9 257.9,-69.6c34.8,11.6 63.7,32.3 87.7,57.6c-11.8,22.6 -37.5,52.6 -91,88.7c-46.2,31.2 -107.2,226.2 39.4,320.6c125.7,80.9 260.9,10.9 290.2,-57.1c5.5,17 8.2,39.3 -1.7,60.8z" class="c"/>
  <path id="svg_130" fill="#371a45" d="m2204,2404.5c63.9,-116.8 212.1,-192.7 340.4,-135.3c93.4,42.3 142.5,140.3 172,232.9c9.6,30.1 16.4,61.3 23.1,92c0,0 -9.4,-10.2 -9.4,-10.2c44.9,14.1 93.2,31.8 121.4,72.8c32,49.1 21.3,102.8 -20,143.4c-57.3,55.2 -144.1,61.3 -218,47.7c-58.9,-9.7 -107.3,-42.5 -145,-85.8c-24.7,-27.7 -46.1,-57.7 -64.8,-89c-18.5,-31.5 -34.3,-64.2 -44.9,-99.5c-1.2,-4.2 1.2,-8.7 5.4,-9.9c3.6,-1.1 7.3,0.5 9.1,3.6c18.9,29.9 37.4,60.2 56.6,89.5c36.8,55.6 81.1,115.4 142.3,142.8c82.2,32.1 220.3,31.9 259.7,-62.3c7.1,-18.7 2.7,-44.1 -8.8,-61.5c-13.3,-19.7 -33.6,-32.5 -55.6,-43c-11.5,-5.4 -23.6,-10 -35.7,-14.1c-7.6,-2.9 -20.7,-5.1 -23,-15c-18.7,-89.6 -45.1,-183.2 -107.2,-252.5c-59.9,-68.9 -159.4,-85.9 -241.5,-48.7c-27.3,11.9 -52.8,28.5 -76.7,47.2c-23.8,18.9 -46.3,40.2 -66.1,63.5c-5.8,7.3 -17.6,-0.2 -13.3,-8.6z" class="d"/>
  <path id="svg_131" fill="#371a45" d="m2415.5,2678.8c-6.6,0 -12.8,-4.1 -15.2,-10.7c-2.5,-7 -60.5,-172.9 14.4,-288.6c81.3,-125.4 195.8,-64 196.9,-63.3c7.8,4.3 10.6,14 6.3,21.8c-4.3,7.8 -14,10.6 -21.8,6.3c-3.6,-2 -89.7,-47.2 -154.4,52.7c-66.3,102.2 -11.7,258.8 -11.1,260.3c3,8.4 -1.4,17.6 -9.7,20.6c-1.8,0.6 -3.7,0.9 -5.4,0.9z" class="d"/>
  <path id="svg_132" fill="#fff" d="m1838,2608.5c-17.7,-102.6 141.3,-301.7 216.5,-352.2c56.6,-30.3 99.9,10.4 85.4,68.2c0,0 -157,104.5 -213.6,343.9c0,0 -75.3,11.2 -88.3,-59.9z" class="b"/>
  <path id="svg_133" fill="#fff" d="m2142.6,2300.1c0.3,7.6 -0.6,15.8 -2.7,24.4c0,0 -157,104.5 -213.6,343.9c0,0 -75.3,11.2 -88.3,-59.9c-2.9,-17 -1,-36.8 4.6,-58.1c28.3,-106.7 149.2,-252 211.9,-294.1c48.2,-25.8 86.7,-0.1 88.1,43.8z" class="b"/>
  <path id="svg_134" fill="#e8e8e8" d="m2142.6,2300.1c0.3,7.6 -0.6,15.8 -2.7,24.4c0,0 -157,104.5 -213.6,343.9c0,0 -75.3,11.2 -88.3,-59.9c-2.9,-17 -1,-36.8 4.6,-58.1c10.5,8.9 24,15.1 41.4,15.1c58.8,0 127.3,-221.1 258.6,-265.4z" class="c"/>
  <path id="svg_135" fill="#371a45" d="m1914.1,2685.3c-33.1,0 -81.1,-14.9 -91.9,-73.9q0,-0.1 0,-0.1c-19.5,-113.1 146.7,-316.8 223.3,-368.3q0.7,-0.4 1.4,-0.8c31,-16.7 62.9,-16.2 85.4,1.3c22.9,17.9 31.8,50.4 23.2,84.9c-1,3.8 -3.3,7.2 -6.7,9.4c-1.5,1 -152.5,104.5 -206.9,334.3c-1.5,6.4 -6.8,11.2 -13.3,12.2c-4.3,0.6 -9.2,1 -14.5,1zm-60.3,-79.6c7.7,41.5 41.8,47.3 59.7,47.4c53.9,-212.5 183.3,-317.1 212,-338.1c3.5,-19.7 -1.3,-37.1 -13,-46.2c-12.1,-9.4 -30.2,-8.9 -49.7,1.3c-77.1,52.3 -224.7,243.6 -209,335.6z" class="d" fill-rule="evenodd"/>
  <path id="svg_136" fill="#22a7f0" d="m2305.9,2064.4l16.6,-31.9l84.1,43.8l-16.6,31.9c-9.9,18.8 -36.6,24.3 -59.9,12.2c-23.2,-12.1 -34.1,-37.2 -24.2,-56z" class="l"/>
  <g id="svg_137" opacity="0.7">
   <path id="svg_138" fill="#fff" d="m2305.9,2064.4l16.6,-31.9l84.1,43.8l-3.7,7l-70.1,-36.6l-16.6,31.9c-5.2,9.9 -4.6,21.5 0.4,32c-13.5,-13.1 -18.4,-31.6 -10.7,-46.2z" class="b"/>
  </g>
  <path id="svg_139" fill="#1c7aea" d="m2324.1,2116.8c6,-3.1 10.9,-7.8 14.1,-13.8l16.6,-31.9l-41.3,-21.5l9,-17.1l84.1,43.8l-16.7,31.9c-9.8,18.8 -36.5,24.3 -59.8,12.2q-3.1,-1.6 -6,-3.6z" class="m"/>
  <path id="svg_140" fill="#371a45" d="m2355.5,2138.8c-10.2,0 -20.9,-2.5 -30.9,-7.7c-29.1,-15.2 -42.3,-47.6 -29.4,-72.3l16.6,-31.9c1.5,-2.8 4,-4.9 7.1,-5.9c3,-1 6.3,-0.7 9.1,0.8l84.1,43.8c2.9,1.5 5,4 6,7.1c0.9,3 0.6,6.3 -0.9,9.2l-16.6,31.8c-8.4,16.2 -25.9,25.1 -45.1,25.1zm-27.9,-90.1l-11,21.2c-6.8,13 1.8,30.8 19.1,39.8c17.3,9 36.8,5.8 43.6,-7.1l11,-21.2l-62.7,-32.7z" class="d" fill-rule="evenodd"/>
  <path id="svg_141" fill="#22a7f0" d="m2322.5,2032.5c9.8,-18.8 36.6,-24.3 59.8,-12.2c23.2,12.1 34.1,37.2 24.3,56c-9.8,18.8 -36.6,24.3 -59.8,12.2c-23.3,-12.1 -34.1,-37.2 -24.3,-56z" class="l"/>
  <g id="svg_142" opacity="0.7">
   <path id="svg_143" fill="#fff" d="m2322.5,2032.5c9.8,-18.8 36.6,-24.3 59.8,-12.2q3.8,2 7.1,4.4c-21.1,-7.4 -43.3,-1.2 -52,15.6c-8.8,16.8 -1.1,38.5 17.1,51.6q-4,-1.4 -7.7,-3.4c-23.3,-12.1 -34.1,-37.1 -24.3,-56z" class="b"/>
  </g>
  <path id="svg_144" fill="#1c7aea" d="m2329.7,2074.9c22.1,9.4 46.3,3.5 55.5,-14.2c6.9,-13.3 3.6,-29.7 -7.2,-42.4q2.2,0.9 4.3,2c23.2,12.1 34.1,37.2 24.3,56c-9.8,18.9 -36.6,24.3 -59.8,12.2c-6.9,-3.6 -12.7,-8.2 -17.1,-13.6z" class="m"/>
  <path id="svg_145" fill="#371a45" d="m2372.2,2107c-10.4,0 -21.1,-2.7 -31,-7.8c-29.1,-15.2 -42.3,-47.6 -29.4,-72.3c12.9,-24.7 47,-32.4 76.1,-17.3c29,15.2 42.2,47.6 29.4,72.3c-6.5,12.4 -18.3,20.9 -33.2,23.9q-5.8,1.2 -11.9,1.2zm-15.6,-81.1c-10.3,0 -19.3,4.2 -23.4,12.2c-6.6,12.7 2.1,30.9 19.1,39.7c8.8,4.6 18.4,6.2 27,4.4c7.7,-1.6 13.5,-5.6 16.6,-11.4c6.6,-12.7 -2.2,-31 -19.2,-39.8c-6.6,-3.5 -13.6,-5.1 -20.1,-5.1z" class="d" fill-rule="evenodd"/>
  <path id="svg_146" fill="#371a45" d="m2366.2,2234c-3.4,0 -6.9,-1.1 -9.8,-3.3l-69.2,-52.8c-11.6,-8.9 -25.4,-14.3 -39.9,-15.5l-37.4,-3.3c-17.4,-1.5 -34.3,-7.2 -49,-16.5l-72.4,-46c-7.5,-4.8 -9.7,-14.7 -5,-22.2c4.8,-7.5 14.7,-9.7 22.2,-4.9l72.4,46c10.4,6.5 22.3,10.6 34.5,11.6l37.4,3.3c20.7,1.8 40.3,9.4 56.7,21.9l69.2,52.9c7.1,5.4 8.4,15.4 3,22.5c-3.1,4.1 -7.9,6.3 -12.7,6.3z" class="d"/>
  <path id="svg_147" fill="#fff" d="m2592.5,2271.9c0,0 -49.6,128.8 -175.9,122.1c-126.4,-6.6 -182.1,-229.4 -137.5,-329.7c52.8,-118.6 223.3,-121.9 264.1,74.6l49.3,133z" class="b"/>
  <path id="svg_148" fill="#fff" d="m2592.6,2271.9c0,0 -45.7,118.4 -160.8,122.3q-7.4,0.2 -15.3,-0.2c-126.3,-6.6 -182,-229.4 -137.4,-329.7c50.6,-113.6 209,-121.4 258.2,50.5c0,0.1 0,0.1 0,0.1c2.2,7.6 4.2,15.6 5.9,23.9l49.4,133.1z" class="b"/>
  <path id="svg_149" fill="#e8e8e8" d="m2592.6,2271.9c0,0 -45.7,118.4 -160.8,122.3l-15.2,-98.2l35.4,-46.6c0,0 99.4,11.4 85.3,-134.5c2.2,7.6 4.2,15.6 5.9,23.9l49.4,133.1z" class="c"/>
  <path id="svg_150" fill="#371a45" d="m2600,2274.7c-18.5,87.6 -115.7,151.4 -204,133.8c-73.6,-15.8 -115.4,-89.9 -135.2,-156.6c-17.9,-64.2 -24,-136.9 4.2,-199.2c30.3,-66.9 109,-106.8 179.3,-78.6c43.6,16.7 76.9,55.9 92.9,98.6c8,20.9 12.6,42.7 13.9,64.5c0.2,4.5 -3.2,8.3 -7.7,8.6c-3.6,0.2 -6.9,-2 -8,-5.3c-20.7,-53.4 -46,-113.5 -102.9,-135.3c-54,-21 -112.9,12 -135.4,62.9c-16.4,35.4 -17,76.1 -13.2,114.7c8.5,74.5 46.8,185.1 132.5,194c30.8,2.3 61.9,-5.3 88.1,-22c33.2,-21.2 56.7,-54.4 80.5,-85.8c4.7,-7.8 16.9,-3.1 15,5.7z" class="d"/>
  <path id="svg_151" fill="#afafb2" d="m2471.5,2387.8c-16.4,4.9 -34.7,7.3 -55,6.2c-109.1,-5.7 -165.5,-172.7 -150.1,-282.7c12.8,-34.8 37.5,-74.7 84.6,-83.7c70.1,-13.5 133.8,48.7 158.4,179.5c12.6,67 20.3,149.7 -37.9,180.7z" class="n"/>
  <path id="svg_152" fill="#898989" d="m2471.5,2387.8c-16.4,4.9 -34.7,7.3 -55,6.2c-72.3,-3.7 -121.5,-78.4 -141.9,-160.4c25.9,46.2 63.4,78.6 110.9,77.3c121.8,-3.6 105.5,-119.9 92.9,-187q-2.4,-12.5 -5.2,-24.2c15.6,28.1 28.1,64 36.2,107.4c12.6,67 20.3,149.7 -37.9,180.7z" class="o"/>
  <path id="svg_153" fill="#371a45" d="m2425.9,2410.3q-5.1,0 -10.2,-0.2c-37.8,-2 -72.8,-21.3 -101.2,-55.8c-48.7,-59.1 -75.7,-162.2 -64,-245.3l0.2,-1.7l0.6,-1.6c19.5,-53 53,-85.5 96.6,-93.9c30,-5.8 59.6,0.5 85.6,18.2c44.2,30.1 76,90.3 91.7,174.2c13.8,73.3 21,162.1 -46.1,197.8l-1.5,0.8l-1.6,0.5c-16,4.7 -32.9,7 -50.1,7zm-143.8,-295.1c-9.8,73.5 14.7,167.2 57.2,218.7c22.8,27.7 49.1,42.6 78.1,44.1c16.6,0.9 32.7,-0.8 48,-5.1c47.1,-26.6 39.9,-100.9 28.2,-162.8c-13.9,-74.2 -41.7,-128.7 -78.2,-153.6c-19,-12.9 -39.7,-17.3 -61.4,-13.2c-32.1,6.2 -56.3,30.4 -71.9,71.9zm189.4,272.6l0.1,0l-0.1,0z" class="d" fill-rule="evenodd"/>
  <path id="svg_154" fill="#371a45" d="m2264.1,2153.9c-5.1,0 -10,-2.4 -13.2,-6.9c-5.1,-7.2 -3.3,-17.3 4,-22.3c2.8,-2 71.6,-48.9 215.9,-45.8c8.8,0.2 15.9,7.5 15.7,16.4c-0.2,8.8 -7.4,15.7 -16.1,15.7q-0.2,0 -0.3,0c-134,-2.9 -196.2,39.5 -196.8,40c-2.8,1.9 -6,2.9 -9.2,2.9z" class="d"/>
  <path id="svg_155" fill="#371a45" d="m2270.1,2229.5c-6.4,0 -12.5,-3.9 -15,-10.3c-3.2,-8.3 1,-17.6 9.2,-20.8c4.2,-1.6 103.9,-39.5 236.1,-44.2c9,-0.2 16.3,6.6 16.7,15.5c0.3,8.9 -6.7,16.3 -15.5,16.6c-126.6,4.5 -224.7,41.7 -225.7,42.1c-1.9,0.7 -3.8,1.1 -5.8,1.1z" class="d"/>
  <path id="svg_156" fill="#371a45" d="m2290.5,2298.3c-6.7,0 -12.9,-4.3 -15.2,-11c-2.8,-8.4 1.7,-17.5 10.1,-20.3c4,-1.4 100.3,-33.6 222.3,-37.5c8.7,-0.3 16.3,6.7 16.5,15.6c0.3,8.8 -6.6,16.3 -15.5,16.5c-117.2,3.8 -212.1,35.5 -213,35.8q-2.6,0.9 -5.2,0.9z" class="d"/>
  <path id="svg_157" fill="#371a45" d="m2325.5,2358.5c-6.9,0 -13.2,-4.5 -15.4,-11.4c-2.6,-8.4 2.2,-17.4 10.6,-20.1c3.3,-1 82.2,-25.1 195.4,-28.7c8.7,-0.3 16.3,6.6 16.6,15.5c0.2,8.9 -6.7,16.3 -15.6,16.6c-108.5,3.5 -186.1,27.1 -186.9,27.3q-2.3,0.8 -4.7,0.8z" class="d"/>
 </g>
</svg>