<svg width="3999.9999999999995" height="3999.9999999999995" xmlns="http://www.w3.org/2000/svg" version="1.2">

 <g>
  <title>Layer 1</title>
  <path id="svg_2" fill="#ffd243" d="m3277.7,3436.2l-2555.4,0c0,-76.2 6.7,-152.6 20.5,-228.6c24.3,-134 70.8,-266.3 140.5,-391.9c109,-196.1 262,-352.3 439.8,-463.1c28.6,-17.9 57.9,-34.5 87.7,-50c160.7,-83.3 337.4,-131.9 518.3,-142c1.6,-0.1 3.2,-0.2 4.7,-0.3c11.1,-0.6 22.1,-1 33.3,-1.3c22.1,-0.6 44.2,-0.6 66.2,-0.1c150.1,3.8 301,34.2 445.9,93.1c47.8,19.3 95.1,41.8 141.3,67.6c10,5.5 19.8,11.1 29.5,17c6,3.4 11.8,7 17.5,10.6c390.6,238.8 609.8,657.7 610.2,1089z" class="b"/>
  <path id="svg_3" fill="#fcac38" d="m828.1,3431.2l-120.8,0c0,-76.2 6.7,-152.6 20.5,-228.6c24.3,-134 70.8,-266.3 140.5,-391.9c109,-196.1 262,-352.3 439.8,-463.1c28.6,-17.9 57.9,-34.5 87.7,-50c160.7,-83.3 337.4,-131.9 518.3,-142c1.6,-0.1 3.2,-0.2 4.7,-0.3c11.1,-0.6 22.1,-1 33.3,-1.3c22.1,-0.6 44.2,-0.6 66.2,-0.1c150,3.8 301,34.2 445.9,93.1q8.4,3.4 16.7,6.9c-112.6,-34.8 -227.9,-53.3 -342.6,-56.2c-22,-0.6 -44.1,-0.6 -66.2,0.1c-11.2,0.2 -22.2,0.7 -33.3,1.3c-1.5,0 -3.1,0.2 -4.7,0.3c-180.9,10.1 -357.6,58.6 -518.3,141.9c-29.8,15.5 -59.1,32.1 -87.7,50c-177.8,110.8 -330.8,267 -439.8,463.1c-69.7,125.7 -116.2,258 -140.5,392c-11.2,61.4 -17.6,123.2 -19.7,184.8z" class="c"/>
  <path id="svg_4" fill="#ffd243" d="m2042.6,2694.9c-17.4,-63.4 77.9,-109.4 212.7,-102.7c134.8,6.7 258.1,63.5 275.5,126.9c17.3,63.4 -77.9,109.4 -212.7,102.7c-134.8,-6.7 -258.2,-63.5 -275.5,-126.9z" class="b"/>
  <path id="svg_5" fill="#fcac38" d="m3131.8,3436.2l-300.9,0c48.3,-84.8 116.1,-142 179.2,-142.2c62.5,-0.1 108.3,57.6 121.7,142.2z" class="c"/>
  <path id="svg_6" fill="#fcac38" d="m1546.8,2667.4c2,59.8 -53.3,110.6 -123.3,113.5c-70.1,2.9 -128.4,-43.3 -130.4,-103.1c-1.9,-59.8 53.3,-110.6 123.4,-113.4c70,-2.9 128.4,43.2 130.3,103z" class="c"/>
  <path id="svg_7" fill="#ffd243" d="m1535.5,2670.8c18.2,38.5 -6.1,86.7 -54.3,107.8c-48.2,21.1 -102.1,7.1 -120.4,-31.4c-18.2,-38.4 6,-86.7 54.3,-107.8c48.2,-21.1 102.1,-7.1 120.4,31.4z" class="b"/>
  <path id="svg_8" fill="#371a45" d="m1423.9,2791.7c-56.5,7.7 -120.8,-21.6 -143.2,-76.6c-25.2,-59.4 9.4,-125.8 64.5,-152.9c77.3,-41.6 195.9,-9.3 214.5,83.8c4,21.6 1.2,44 -8.3,63.6c-3,6.4 -7.2,12.2 -11,18c-1.5,2.2 -4.4,2.8 -6.6,1.3c-2.2,-1.4 -2.8,-4.3 -1.5,-6.4c11.9,-22.8 15.2,-48.9 8,-72c-21.8,-72.7 -118.9,-94.3 -180.4,-60.1c-71.6,37.7 -78.5,124.5 -8,168.1c20.8,13.1 45.8,20 71.5,21.4c7.2,0.3 7.5,10.9 0.5,11.8z" class="d"/>
  <path id="svg_9" fill="#371a45" d="m1584.1,2595.8c36.9,42.7 42.3,108.7 15.5,158.6c-25.8,51.1 -77.4,85.6 -132.1,98.2c-54.6,12.4 -114.1,5.1 -162.1,-24.5c-47.6,-27.9 -82.7,-81.4 -79.7,-137.3c0.3,-5.8 8.8,-6 9.5,-0.3c3.3,25.2 12.9,48.7 27.6,68.3c67.9,89.2 214.8,89.9 290.7,10.7c24.6,-25.9 40.3,-60.6 40.2,-96.6c0.2,-24.2 -6.9,-48.4 -19.3,-70.3c-3.6,-6.2 5.1,-12.3 9.7,-6.8z" class="d"/>
  <path id="svg_10" fill="#371a45" d="m1076,2964.7c166.6,15.6 251.3,194.8 208.3,346c-12.8,48.8 -36.7,94.3 -69.5,131.1c-2,2.3 -5.5,2.5 -7.8,0.5c-2,-1.8 -2.4,-4.7 -1.1,-6.9c23.6,-41.5 40.5,-85.8 48.6,-131.3c26.3,-139.4 -38.8,-283.9 -181.1,-325.9c-7.7,-2.2 -5.6,-14.2 2.6,-13.5z" class="d"/>
  <path id="svg_11" fill="#fcac38" d="m1173.7,3302.1c-11.7,57.6 -44,105 -86.3,134.1l-196.8,0c-59.6,-43.3 -91.4,-124.7 -74.4,-208.6c22.3,-110.3 120.4,-183 219.2,-162.5c98.7,20.6 160.6,126.7 138.3,237z" class="c"/>
  <path id="svg_12" fill="#ffd243" d="m1152.2,3341.5c-19.3,42.2 -49,74.7 -82.9,94.7l-107.1,0c-53.3,-59.8 -66.3,-159.3 -26.2,-247.3c25.9,-56.7 68.7,-97.5 116.3,-116.9c12.1,2.5 23.9,6.8 35.3,12.9c80.8,42.8 109.7,157.6 64.6,256.6z" class="b"/>
  <path id="svg_13" fill="#371a45" d="m860.3,3439.4c-19.5,-9.8 -34.5,-28.4 -41.2,-49c-1.7,-5.6 5.6,-9.8 9.5,-5.7c7.3,7.4 13.6,14.8 20.3,22c5.9,6.5 14.3,15 19.8,21.9c4.7,5.6 -1.9,13.9 -8.4,10.8z" class="d"/>
  <path id="svg_14" fill="#371a45" d="m817.7,3191.2c42,-106.5 173.2,-171.9 277.4,-110.1c88.8,52.8 108,170.6 63.6,259.1c-6.6,14.3 -15,27.7 -24.4,40.2c-19.2,24.8 -43.1,45.7 -70.4,59.8c-5.9,3 -11.2,-5.2 -5.9,-9.3c66.9,-50.9 105.3,-140.8 85.2,-223.3c-6.9,-29 -21.7,-56.6 -43.7,-76.9c-55.7,-54 -144.1,-46.5 -204.2,-3c-26.2,18.3 -47.7,42.1 -65.4,69.7c-4.2,7 -15.4,1.5 -12.2,-6.2z" class="d"/>
  <path id="svg_15" fill="#371a45" d="m1768.8,3443.1c-30.3,-28.6 -47.9,-67.8 -58.7,-107.3c-3.4,-13 -6.1,-26.3 -7.3,-39.7c-0.3,-2.7 1.7,-5.1 4.4,-5.4c2.1,-0.2 4,1 4.9,2.7l17.3,35.1c17,33.9 36.1,66.5 59.2,96.2c10,13.2 -7.5,29.3 -19.8,18.4z" class="d"/>
  <path id="svg_16" fill="#371a45" d="m2502.4,3212.3c17.1,77.8 4.4,165.1 -44.6,229.3c-10.6,13.9 -31.7,-0.3 -22.7,-15.4c9.9,-15.9 19.2,-32 26.9,-48.5c15.4,-33.6 22.9,-70.7 27.4,-107.4q3.2,-28.1 3.6,-57c0,-5.5 8.3,-6.5 9.4,-1z" class="d"/>
  <path id="svg_17" fill="#fcac38" d="m2226.9,3436.2l-254.4,0c-69.1,-39.4 -118.7,-110.6 -127.6,-195.8c-14.6,-140.7 87.6,-266.6 228.3,-281.2c140.7,-14.6 266.5,87.6 281.2,228.2c10.7,104.1 -42.3,200 -127.5,248.8z" class="c"/>
  <path id="svg_18" fill="#ffd243" d="m2365.2,3278c-11.2,67.1 -52.5,123.2 -109.2,158.2l-280.2,0c-50.8,-31.6 -87.5,-79.8 -102.5,-134.9c37.8,-121.9 168.8,-202.1 308,-183c78.7,10.9 144.3,51.1 186.1,106.9c1.4,17.2 0.8,35 -2.2,52.8z" class="b"/>
  <path id="svg_19" fill="#371a45" d="m2132.4,2962c110.1,9.3 212.5,97.8 226.4,210.1c14.5,92.1 -34.7,187.4 -113.1,235.8c-114.4,73.9 -276.8,51.2 -362.2,-56.2c-73.3,-89 -70.3,-220.5 10.3,-303.5c4.8,-4.8 12.2,1.7 8,7c-16,20.3 -28.6,43 -36.9,67c-16.5,47.6 -16.1,100.7 2.7,147.4c68.6,173.5 320.7,197.9 424.8,45.3c58.4,-84.3 44.4,-198.3 -28.8,-269.9c-35.4,-35.7 -82.5,-59.6 -133.1,-69.9c-8.1,-1.6 -6.3,-13.8 1.9,-13.1z" class="d"/>
  <path id="svg_20" fill="#ffd243" d="m2125.9,2771.4c-127.5,-37.7 -225.7,-112.1 -268.2,-202.1c-25.2,-53.3 -31.3,-110.3 -13.3,-164.3c48.3,-145.1 252.1,-214.1 455.1,-154.1c80.4,23.8 148.7,64.3 198.8,113.5c76.3,75.1 111.9,165.3 82.7,253c-16.1,48.3 -49.5,88.2 -94.3,117.7" class="b"/>
  <path id="svg_21" fill="#371a45" d="m2574.5,2615.2c23.4,-82.4 -15.7,-166.1 -73.3,-224.7c-116.5,-118.6 -300.3,-169.3 -461.7,-131.2c-80.3,19.7 -158.1,67.9 -189.8,147.5c-1.2,2.8 -4.4,4.2 -7.3,3c-2.6,-1 -4,-3.9 -3.2,-6.5c5.8,-21.5 15.2,-42.3 27.8,-61c37.9,-56.7 100,-93.7 164.3,-112.7c206.1,-61.8 490.7,41.4 561.1,256.1c6.3,21.9 9.7,44.9 8.8,67.7c-0.6,22.8 -5.4,45.3 -13.7,66.1c-1.4,3.5 -5.4,5.3 -8.9,3.9c-3.3,-1.3 -5,-4.9 -4.1,-8.2z" class="d"/>
  <path id="svg_22" fill="#fcac38" d="m1923.7,2481.3c7.3,-116.9 142.7,-197.6 302.4,-180.1c159.6,17.5 283.1,126.4 275.8,243.4c-7.3,116.9 -142.7,197.5 -302.4,180c-159.6,-17.4 -283.1,-126.4 -275.8,-243.3z" class="c"/>
  <path id="svg_23" fill="#ffd243" d="m1946.9,2447c-2.9,-86.3 105,-152.4 241,-147.7c136.1,4.7 248.7,78.4 251.6,164.7c3,86.2 -105,152.3 -241,147.6c-136,-4.7 -248.7,-78.4 -251.6,-164.6z" class="b"/>
  <path id="svg_24" fill="#371a45" d="m2007.8,2347.1c-66.7,47.4 -90.2,128.3 -52.4,201.7c60.4,115.2 203.9,170.5 329.1,162c98.7,-5.6 208.7,-68.2 199,-178.7c-12.5,-106.6 -110.8,-179.1 -206.5,-213.1c-6.5,-2.3 -3.5,-12.2 3.2,-10.6c106.4,26.1 217.4,104.3 233.7,220.4c12.7,94.7 -56.6,172.3 -142.3,200.9c-81.1,28.8 -172,23.2 -252.1,-5.3c-104.9,-37.3 -211.3,-128.3 -207.9,-248.5c1.5,-29.4 10.8,-58.2 26.7,-82.4c15.8,-24 37.5,-43.4 61.9,-57.9c7.7,-4.4 14.5,6.3 7.6,11.5z" class="d"/>
  <path id="svg_25" fill="#ffd243" d="m3057.8,3436.2l-224.8,0c38.9,-64 89.7,-106.7 136.3,-107.8c48,-1.2 80,41.9 88.5,107.8z" class="b"/>
  <path id="svg_26" fill="#371a45" d="m3112.5,3375.7c-36.8,-49.1 -88.1,-67.6 -144.9,-47c-54.8,20.1 -98.7,63.2 -137.9,107.2c-4,4.7 -12,-0.2 -9.4,-5.9c36.7,-87.4 137.9,-176.5 238,-135.1c16.2,7.2 30.5,18.2 41.7,31.1c11,13.1 19.5,27.8 24.6,43.3c1.2,3.6 -0.7,7.5 -4.4,8.8c-2.8,0.9 -5.9,-0.1 -7.7,-2.4z" class="d"/>
  <g id="svg_27" opacity="0.6">
   <path id="svg_28" fill="#fff" d="m3083.2,2943.6c136.6,319.3 -2.2,513.7 -43.8,343.4c-98,-401.3 -350.4,-527.9 -356.8,-682.4c-4.4,-108.8 274,43.1 400.6,339z" class="e"/>
  </g>
  <g id="svg_29" opacity="0.6">
   <path id="svg_30" fill="#fff" d="m2573,2383.1c160,150.2 84.2,210.9 -22,140.1c-99.3,-66.2 -211.1,-81.9 -247,-127.2c-67.6,-85.4 98.4,-173 269,-12.9z" class="e"/>
  </g>
  <path id="svg_31" fill="#371a45" d="m722.3,3453.7c-9.7,0 -17.5,-7.8 -17.5,-17.5c-0.1,-77.5 6.9,-155.5 20.7,-231.7c25.4,-139 73.3,-272.7 142.5,-397.3c106.7,-191.9 260.8,-354.2 445.9,-469.5c28.6,-17.9 58.6,-35 88.9,-50.7c161.8,-83.9 343.4,-133.7 525.3,-143.9l2.2,-0.1q1.4,-0.1 2.8,-0.2c11.8,-0.6 22.9,-1 33.6,-1.3c21.7,-0.6 44.3,-0.6 67,-0.1c155.7,4 307.8,35.7 452,94.4c48.7,19.7 97,42.7 143.3,68.5c9.7,5.4 19.9,11.2 30,17.2c5.9,3.5 11.9,7.1 17.8,10.8c191.1,116.9 349.3,282.3 457.2,478.3c105,190.8 160.8,406.8 161.2,624.5c0,4.7 -1.9,9.1 -5.1,12.4c-3.3,3.3 -7.8,5.2 -12.4,5.2l-2555.4,1q0,0 0,0zm1278.9,-1277.7c-11.3,0 -22.6,0.2 -33.6,0.5c-10.4,0.2 -21.1,0.7 -32.8,1.3l-2.4,0.1q-1.3,0.1 -2.6,0.2c-176.7,9.9 -353.5,58.3 -510.9,140c-29.5,15.2 -58.6,31.8 -86.5,49.3c-180,112.1 -330,270.1 -433.8,456.8c-67.4,121.3 -114,251.3 -138.6,386.6c-12.5,68.4 -19.2,138.2 -20.1,207.9l2520.1,-1c-6.6,-435.1 -230.5,-828.7 -601.6,-1055.6c-5.7,-3.6 -11.4,-7.1 -17.2,-10.4c-9.9,-5.9 -19.9,-11.6 -29.3,-16.8c-45,-25.1 -91.9,-47.5 -139.4,-66.7c-140.3,-57.1 -288.2,-88 -439.6,-91.8c-10.6,-0.2 -21.2,-0.4 -31.7,-0.4z" class="d" fill-rule="evenodd"/>
  <path id="svg_32" fill="#fff" d="m2588.6,1912.3c-2.7,56.9 -9.3,110.3 -20.2,153.3c-8.7,34 -36,59.8 -70.5,66.2c-38.5,7.2 -97.6,11.8 -176.1,-0.7l-56.5,-696.8c0,0 61.7,-5.5 127.7,3.3c45.7,6 93.4,18.9 124.1,45.1c51.1,43.8 79.8,253.6 71.5,429.6z" class="e"/>
  <path id="svg_33" fill="#371a45" d="m2416.4,2154.9c-28.1,0 -60.5,-2.2 -97.1,-8c-7.3,-1.2 -12.8,-7.2 -13.4,-14.5l-56.6,-696.8c-0.7,-8.7 5.8,-16.4 14.5,-17.2c2.6,-0.2 64.3,-5.6 131.3,3.3c59.1,7.8 103.6,24.3 132.4,48.9c58.2,49.8 85.3,268.4 77,442.4c-2.8,60.3 -9.9,114.5 -20.6,156.5c-10.2,39.9 -42.8,70.5 -83.1,78c-20.7,3.9 -49.1,7.4 -84.4,7.4zm-79.7,-37.7c71.9,10 125.4,5.1 158.3,-1.1c28.1,-5.2 50.8,-26.6 57.9,-54.4c10.2,-40.1 17,-92 19.7,-150.2q0,0 0,0c8.6,-181.2 -22.8,-379.8 -65.9,-416.6c-24,-20.6 -63,-34.5 -115.8,-41.5c-43.9,-5.8 -86.3,-5.1 -108.4,-4.1l54.2,667.9z" class="d" fill-rule="evenodd"/>
  <g id="svg_34" opacity="0.2">
   <path id="svg_35" fill="#371a45" d="m2588.6,1912.3c-2.7,56.9 -9.3,110.3 -20.2,153.3c-8.7,34 -36,59.8 -70.5,66.2c-38.5,7.2 -97.6,11.8 -176.1,-0.7l-56.5,-696.8c0,0 61.7,-5.5 127.7,3.3c-61.8,80.2 -242.8,364.6 195.6,474.7z" class="d"/>
  </g>
  <path id="svg_36" fill="#371a45" d="m2475.9,2003.2c-22.2,0 -42.1,-15.7 -46.6,-38.2c-3.6,-18.6 -6,-37.8 -7,-57.3c-0.4,-8.8 6.4,-16.3 15.2,-16.7c8.8,-0.4 16.3,6.3 16.7,15.2c0.9,17.8 3.1,35.5 6.5,52.6c1.6,8.3 9.8,13.8 18.2,12.1l49.4,-9.6c5.9,-1.1 10.6,-5.5 12.2,-11.5c19.4,-73 9.7,-162.4 4.7,-197.4c-0.3,-2.1 -2.1,-3.6 -4.2,-3.6q-0.1,0 -0.2,0c-60.9,2.3 -70.9,4.6 -71.8,4.8c-8.5,2.3 -17.3,-2.7 -19.6,-11.2c-2.3,-8.5 2.7,-17.3 11.2,-19.6c3.1,-0.8 12.4,-3.4 79,-5.9c18.4,-0.9 34.5,12.5 37.2,30.9c5.3,37 15.5,131.5 -5.5,210.2c-4.7,17.6 -19.2,31.2 -36.9,34.7l-49.4,9.6q-4.5,0.9 -9.1,0.9z" class="d"/>
  <path id="svg_37" fill="#fff" d="m2537.3,1871.6c-8.5,34.4 -41.7,101.7 -171.9,63.6c0,0 72.6,176.8 -38.8,360.9c-83.6,138.1 -129.9,298.9 -147.8,370.6c-9.5,37.9 -33.9,70.8 -68.5,89c-26.1,13.8 -58.3,19.9 -91.2,-0.3c-76,-46.7 -76.8,-65.5 -76.8,-66.2c0,0 -41.4,2.3 -75.4,-10.5l0,-0.1c-21.3,-8 -39.6,-22.1 -42.8,-46.4c-0.2,-1.2 -0.3,-2.4 -0.4,-3.6c-2.1,-28 6.1,-51.7 20.4,-69.7c19.7,-25.1 51.3,-39.3 83.7,-39.3c0,0 38.4,-161.4 67.4,-251l-99.4,-4.5l-0.1,-0.1l-5.8,-0.2c0,0 -111.4,244.6 -153.8,377.8c0,0 -5.2,42 -142.5,30.6c-112.6,-9.2 -192,-21.8 -219.1,-54c-0.1,-0.2 -0.2,-0.3 -0.3,-0.4c-5.8,-7 -9.1,-14.8 -9.8,-23.9c-4.1,-50.8 33.9,-117.8 137.2,-93.6c15.8,-122.7 39,-233.7 89.6,-301.1l-19.1,-432.4c0,0 39.6,-188.4 184.2,-235.6c144.5,-47.2 513.8,-36.4 513.8,-36.4c0,0 115,19.4 184.1,135c31.2,52.3 51.7,103.1 64.9,142.9l0,0.2c10,30.2 15.8,54.1 18.6,67.7c2.2,10.3 2.1,20.9 -0.4,31z" class="e"/>
  <path id="svg_38" fill="#371a45" d="m2063.4,2784.3c-18.3,0 -36,-5.1 -52.7,-15.3c-40.8,-25.1 -67.4,-46.7 -78.5,-63.7c-15.5,-0.1 -44.9,-1.8 -70.9,-11.7q-0.5,-0.2 -1,-0.4c-38.3,-14.8 -49.5,-40 -52,-58.7c-0.3,-1.5 -0.4,-3 -0.5,-4.6c-2.3,-30.6 6,-58.5 23.8,-80.9c19.8,-25.2 50.3,-41.4 83.5,-44.7c8.6,-35.5 35.5,-144.8 58.7,-220.7l-73.8,-3.4c-21.1,46.9 -111.3,249.2 -148.3,365.1c-3,15.1 -23.8,54 -159.4,42.8c-119.3,-9.8 -199.4,-23.2 -230,-59.7q-0.4,-0.4 -0.7,-0.8c-7.8,-9.5 -12.2,-20.4 -13.2,-32.4c-2.7,-34.8 10.7,-68.5 35.9,-90.2c18.4,-15.7 50.9,-31.7 103.7,-23.6c14,-103.7 36,-215.6 87,-287.1l-18.9,-426.8q0,-2 0.4,-4c1.7,-8 43.2,-198 194.8,-247.5c145.5,-47.5 504.1,-37.6 519.3,-37.1q1.1,0 2.2,0.2c5,0.8 123.1,21.9 195.1,142.6c26.9,45 49.2,94.1 66.4,146q0.2,0.6 0.3,1.2c10.5,32 16.3,56.6 18.7,68.5c2.8,12.7 2.6,25.6 -0.5,38.1c-5.5,22.1 -18.8,52.3 -51.3,71c-28.7,16.6 -66.3,20.3 -112,11.1c16.2,58.8 39.7,199.8 -49.2,346.7c-83.8,138.4 -130,302.2 -146,366.3c-10.8,43.2 -38.7,79.3 -76.5,99.3c-18.4,9.6 -36.7,14.4 -54.4,14.4zm-105.3,-97.9c1.4,2.9 11.5,19.9 69.3,55.4c23.4,14.3 48,14.3 75.5,-0.2c29.8,-15.7 51.8,-44.4 60.4,-78.8c20.3,-81.3 66.8,-238.1 149.7,-375c105.6,-174.6 38.3,-344.8 37.6,-346.5c-2.3,-5.7 -1.2,-12.2 2.9,-16.8c4.1,-4.5 10.5,-6.3 16.4,-4.6c50.1,14.6 89,14.3 115.7,-1.1c22.7,-13.1 32.2,-34.9 36.2,-51q0,0 0,0c1.9,-7.8 2,-15.8 0.3,-23.9c-2.4,-11.3 -7.9,-35 -18.2,-66q-0.1,-0.6 -0.3,-1.2c-16.4,-49.3 -37.6,-95.9 -63.1,-138.7c-61,-102.1 -161.2,-125 -172.1,-127.2c-23.8,-0.7 -371.1,-8.9 -507.2,35.6c-126.6,41.3 -168.5,202.7 -173,221.9l18.9,430.2c0.2,3.7 -0.9,7.3 -3.1,10.3c-51.9,69.1 -72.9,187.1 -86.6,293.5c-0.6,4.5 -3,8.5 -6.7,11.1c-3.7,2.6 -8.4,3.5 -12.8,2.4c-39.6,-9.3 -71.7,-4.6 -92.7,13.5c-20.7,17.7 -26.4,44.4 -24.9,63.4c0.4,5.6 2.4,10.3 6.2,14.9q0.3,0.3 0.6,0.7c25.3,29.2 114.8,40.4 207.8,48c107.1,8.9 124.4,-16.1 125.6,-18.3q0.2,-0.7 0.4,-1.3c42.2,-132.6 153.3,-377.1 154.5,-379.6c2.6,-5.9 8.7,-9.5 15.2,-9.3l5.8,0.2q0.6,0.1 1.2,0.2l98.4,4.5c4.9,0.2 9.5,2.7 12.4,6.8c2.8,4.1 3.6,9.3 2,14c-28.5,88 -66.7,248.2 -67,249.8c-1.8,7.2 -8.2,12.3 -15.6,12.3c-28.2,0 -54.8,12.4 -71.1,33.2c-12.8,16.1 -18.7,36.4 -17.1,58.7c0.1,0.6 0.1,1.3 0.2,2q0.1,0.3 0.1,0.6c0.7,5.5 3,22.4 32.6,33.6q0.5,0.1 0.9,0.3c30.1,11.2 67.7,9.3 68,9.2c4.5,-0.2 8.7,1.4 11.9,4.4c2.5,2.4 4.2,5.5 4.8,8.8zm-237.8,-47q0,0 0,0q0,0 0,0zm238,49.7q0,0 0,0.1q0,-0.1 0,-0.1zm0,0q0,0 0,0q0,0 0,0zm-238,-49.6q0,0.1 0,0.1q0,0 0,-0.1zm0,0q0,0 0,0q0,0 0,0zm0,0q0,0 0,0q0,0 0,0z" class="d" fill-rule="evenodd"/>
  <path id="svg_39" fill="#b1b1ba" d="m2231.4,2087.8l-253.8,131.4c-11.4,5.9 -24.3,8.4 -37,7.3l-412.9,-37.1l-32.5,-2.9c-23.8,-2.1 -44.6,-17.3 -53.8,-39.5l-132,-317.3c-4.2,-10.2 -2.8,-21.8 3.8,-30.6l21,-28.6c6,-8.1 15.6,-12.8 25.7,-12.6l441.6,6.5c20.4,0.3 38.4,13.2 45.2,32.4l79.5,223.6l285.3,19.6l13.8,1l6.1,46.8z" class="f"/>
  <g id="svg_40" opacity="0.6">
   <path id="svg_41" fill="#fff" d="m1357.8,1805.6c-6.6,8.8 -8,20.4 -3.8,30.6l132,317.3c6.9,16.5 20.1,29.1 36.3,35.4l-27.1,-2.4c-23.8,-2.1 -44.6,-17.3 -53.8,-39.5l-132,-317.3c-4.2,-10.2 -2.8,-21.8 3.8,-30.6l21,-28.6c6,-8.1 15.6,-12.8 25.7,-12.6l441.6,6.5c8.3,0.1 16.1,2.3 23,6.1l-420,-6.2c-10.1,-0.1 -19.6,4.6 -25.7,12.7l-21,28.6z" class="e"/>
  </g>
  <path id="svg_42" fill="#371a45" d="m1946.6,2242.7q-3.7,0 -7.4,-0.3l-445.4,-40c-29.9,-2.7 -55.6,-21.5 -67.1,-49.3l-132,-317.3c-6.4,-15.2 -4.2,-33 5.6,-46.2l21.1,-28.6c9,-12.2 23.6,-19.5 38.7,-19.1l441.7,6.5c26.9,0.4 51,17.7 60,43.1l76,213.7l288.6,19.8c7.6,0.5 13.8,6.4 14.7,13.9l6.1,46.8c0.9,6.7 -2.5,13.2 -8.5,16.3l-253.8,131.4c-11.9,6.2 -25,9.3 -38.3,9.3zm-587.2,-468.9c-4.9,0 -9.4,2.3 -12.3,6.2l-21.1,28.5c-3.2,4.4 -3.9,10.1 -1.8,15l132,317.4c6.9,16.7 22.4,28.1 40.5,29.7l445.3,40c9.8,0.9 19.5,-1.1 28.2,-5.6l243.9,-126.3l-3,-22.7l-286,-19.7c-6.3,-0.4 -11.8,-4.6 -13.9,-10.6l-79.5,-223.6c-4.6,-12.8 -16.8,-21.6 -30.4,-21.8l-441.7,-6.5q-0.1,0 -0.2,0z" class="d" fill-rule="evenodd"/>
  <path id="svg_43" fill="#371a45" d="m1990.3,2228.6c-6.7,0 -12.9,-4.2 -15.2,-10.9l-64,-192.3c-2.8,-8.3 1.7,-17.4 10.1,-20.2c8.3,-2.8 17.4,1.8 20.2,10.1l64,192.3c2.8,8.3 -1.7,17.4 -10.1,20.2c-1.6,0.5 -3.4,0.8 -5,0.8z" class="d"/>
  <path id="svg_44" fill="#371a45" d="m1973.2,2173.4c-4.5,0 -8.8,-2.4 -10.9,-6.7c-2.9,-6 -0.5,-13.3 5.5,-16.2l245,-120.9c6,-3 13.3,-0.5 16.2,5.5c3,6 0.5,13.3 -5.5,16.2l-245,120.9c-1.7,0.8 -3.5,1.2 -5.3,1.2z" class="d"/>
  <path id="svg_45" fill="#371a45" d="m1889.9,2233.9q-2.3,0 -4.6,-0.2c-6.7,-0.7 -11.5,-6.7 -10.8,-13.3c0.7,-6.7 6.7,-11.5 13.3,-10.8c6.8,0.7 13.2,-2 17.5,-7.3c4.3,-5.4 5.6,-12.2 3.4,-18.8l-108.2,-323.4c-4.9,-14.4 -18.4,-24.2 -33.6,-24.2l-421.7,-7.4c-5,-0.1 -9.5,2.2 -12.4,6.3c-2.9,4 -3.6,9 -1.9,13.7l3,8.5c2.2,6.3 -1.1,13.2 -7.4,15.4c-6.2,2.3 -13.2,-1 -15.4,-7.3l-3.1,-8.4c-4.3,-12.1 -2.4,-25.6 5.1,-36.1c7.5,-10.4 19.8,-16.7 32.5,-16.3l421.5,7.4c25.5,0 48.2,16.4 56.3,40.7l108.2,323.4c4.8,14.3 2,29.9 -7.4,41.6c-8.4,10.5 -21,16.5 -34.3,16.5z" class="d"/>
  <path id="svg_46" fill="#371a45" d="m1843.4,1784.6l-43.1,36.8l23.8,-51.5c9.7,-17.6 33.7,0.7 19.3,14.7z" class="d"/>
  <path id="svg_47" fill="#371a45" d="m1689.5,1994.6c0,47.9 -35.4,86.7 -79,86.7c-16.4,0 -31.6,-5.5 -44.3,-14.9c-6.4,-4.8 -4.3,-14.6 3.4,-16.6c29,-7.6 50.3,-31.8 50.3,-60.6c0,-25.3 -16.5,-47.1 -40.3,-57.1c-7.4,-3.2 -8.1,-13.6 -0.8,-17.1c9.7,-4.7 20.4,-7.2 31.7,-7.2c43.6,0 79,38.8 79,86.8z" class="d"/>
  <g id="svg_48" opacity="0.6">
   <path id="svg_49" fill="#fff" d="m1699.2,2009.1c0,47.9 -35.4,86.7 -79,86.7c-16.4,0 -31.7,-5.4 -44.3,-14.8c-3.5,-2.6 -4.5,-6.8 -3.4,-10.4c11.3,6.8 24.2,10.7 38,10.7c43.6,0 79,-38.8 79,-86.7c0,-16 -4,-30.9 -10.8,-43.8c12.8,15.4 20.5,35.9 20.5,58.3z" class="e"/>
  </g>
  <g id="svg_50" opacity="0.2">
   <path id="svg_51" fill="#371a45" d="m2231.4,2086.6l-253.8,131.4c-11.4,5.9 -24.3,8.4 -37,7.3l-412.9,-37.1l-0.3,-0.5c19.4,-5.9 316.5,-41.3 272.9,-351.3l43.6,-21.2l89,224.1c0,0 31.3,115.7 153.2,60.4c54.5,-24.8 96.1,-45.6 125.4,-60.9l13.8,1l6.1,46.8z" class="d"/>
  </g>
  <path id="svg_52" fill="#371a45" d="m1929.3,2503.8c55.7,12.2 107.9,37.5 153.1,71.8c-12.5,-6.1 -25,-11.8 -38,-16.4c-37.6,-13.8 -78,-22.7 -118,-23.6c-23.3,-0.9 -20.2,-35.2 2.9,-31.8z" class="d"/>
  <path id="svg_53" fill="#371a45" d="m1934.8,2675.1c23.5,-6.2 46.6,-5.1 70.3,-5.1c-15,7.4 -29.8,15.1 -43.6,24.2c-4.4,2.9 -8.8,6.1 -11.6,9c-6.2,6.9 -16.9,7.4 -23.7,1.2c-10.5,-9.5 -5,-26.7 8.6,-29.3z" class="d"/>
  <path id="svg_54" fill="#371a45" d="m1506.1,2485c31.7,15.4 64.2,29.7 93.2,50c-8.2,-3 -16.7,-4.9 -25.2,-6.7c-25.4,-5.3 -51.3,-9.2 -77,-12.7c-8.8,-1.1 -15,-9.2 -13.9,-18.1c1.2,-10.7 13.2,-17.2 22.9,-12.5z" class="d"/>
  <path id="svg_55" fill="#371a45" d="m1806.7,2458.1c-7.5,0 -14.1,-5.2 -15.6,-12.9c-10.1,-51.8 -40.6,-94.2 -85.8,-119.2c-46.9,-26.1 -104,-30.4 -152.8,-11.8c-8.2,3.2 -17.5,-1 -20.6,-9.2c-3.2,-8.3 1,-17.5 9.2,-20.6c57.5,-22 124.7,-16.9 179.7,13.6c53.6,29.7 89.7,79.9 101.6,141.1c1.7,8.7 -3.9,17.1 -12.6,18.7q-1.5,0.3 -3.1,0.3z" class="d"/>
  <path id="svg_56" fill="#371a45" d="m1889.9,2279.7c-3.5,0 -6.9,-1.1 -9.8,-3.3c-8.7,-4.8 -65.6,-28.4 -116.9,-48.9c-8.1,-3.3 -12.1,-12.6 -8.8,-20.8c3.2,-8.2 12.5,-12.2 20.7,-8.9c121.4,48.7 124.1,52.1 127.3,56c5.5,6.9 4.4,16.9 -2.5,22.4c-3,2.4 -6.5,3.5 -10,3.5zm-12.5,-5.9q0,0 0,0q0,0 0,0zm0,-0.1q0,0 0,0.1q0,-0.1 0,-0.1z" class="d" fill-rule="evenodd"/>
  <path id="svg_57" fill="#371a45" d="m2237.8,2470.2c-5.3,0 -10.5,-2.6 -13.5,-7.5c-30.7,-49.4 -115.6,-158.3 -240,-103.6c-8.1,3.5 -17.5,-0.1 -21,-8.2c-3.6,-8.1 0.1,-17.5 8.1,-21c102.3,-45 206.9,-1.7 280,115.9c4.6,7.5 2.3,17.4 -5.2,22c-2.6,1.7 -5.5,2.4 -8.4,2.4z" class="d"/>
  <path id="svg_58" fill="#371a45" d="m2184.9,1955.8c-5.9,0 -12.1,-0.7 -18.6,-2.3c-32.7,-8.1 -63.9,-22.5 -85.6,-39.4c-19.4,-15.1 -30.2,-38.3 -29.9,-62.8c-11.3,9.7 -22.3,18.8 -27.7,22.1c-10.5,6.7 -24.9,6 -36.6,-1.8c-7.8,-5.2 -25.3,-21.2 -19.1,-57.9c8.3,-49 103.2,-101.4 122.1,-111.4c23.2,-12.2 112.5,-5.5 151.2,-1.9l85.4,-5q1.5,-0.1 3.1,0.1c43.3,6 78,34.2 95.3,77.5c22.5,56.1 11.4,124.4 -28.1,173.8c-5.5,6.9 -15.5,8 -22.4,2.5q-0.3,-0.2 -0.5,-0.4c-3.4,2.1 -7.6,2.8 -11.8,1.8l-109.6,-26c-11.4,11.4 -35.7,31.1 -67.2,31.1zm-111.6,-161.5c2.7,0 5.4,0.7 7.8,2c6,3.4 9.2,10.1 7.9,16.9l-5.4,29.9c-3.3,17.7 3.1,35.2 16.7,45.8c18.1,14 45.7,26.6 73.8,33.6c32.8,8.2 59.8,-25.1 60.1,-25.4c3.8,-4.9 10.2,-7.1 16.2,-5.7l118.7,28.3c2.1,0.5 4.1,1.4 5.8,2.7c29.2,-39.7 37.3,-94.3 20,-137.6c-12.9,-32.2 -37.2,-52.6 -68.6,-57.4l-84.9,5q-1.2,0.1 -2.5,-0.1c-55.7,-5.2 -123.1,-7.2 -134.5,-1.7c-48.2,25.4 -101.6,65.1 -105.5,88.5c-1.9,11.2 -0.5,20.1 3.8,24.6c1.7,1.8 3.3,2.2 4,2.3c8.5,-5.7 38.6,-32 56,-47.6c3,-2.7 6.8,-4.1 10.6,-4.1z" class="d" fill-rule="evenodd"/>
  <path id="svg_59" fill="#371a45" d="m2238.1,1915.5l-27.8,-38.2l8.1,-1.5l-17.4,27.7l8.3,-31.6c1.1,-3.9 5.4,-4.2 8,-1.5l38,28c14.4,11.9 -5.4,31.6 -17.2,17.1z" class="d"/>
  <path id="svg_60" fill="#371a45" d="m2218.1,1721.6l-17.1,-73l43.6,61l-26.5,12z" class="d"/>
  <path id="svg_61" fill="#371a45" d="m1719.2,1757.9l14.5,-68.1l14.5,68.1l-29,0z" class="d"/>
  <path id="svg_62" fill="#371a45" d="m1846.3,1799c-8.6,0 -15.6,-6.8 -16,-15.4c-0.3,-8.8 6.6,-16.2 15.4,-16.5l159,-5.8c8.9,-0.3 16.3,6.6 16.6,15.4c0.3,8.8 -6.6,16.2 -15.4,16.5l-159,5.8q-0.3,0 -0.6,0z" class="d"/>
  <path id="svg_63" fill="#371a45" d="m1909.5,1987.9c-7.8,0 -14.2,-6.1 -14.5,-13.9c-0.3,-8.1 5.9,-14.8 13.9,-15.1l158.5,-6.3c9.1,-0.4 16.1,-7.8 16.1,-16.8l0,-28.8c0,-8.1 6.5,-14.6 14.6,-14.6c8,0 14.5,6.5 14.5,14.6l0,28.8c0,24.7 -19.3,44.8 -44,45.8l-158.5,6.3q-0.3,0 -0.6,0z" class="d"/>
  <path id="svg_64" fill="#371a45" d="m1900.4,1944.9c-7.8,0 -14.2,-6.1 -14.5,-13.9c-0.4,-8 5.9,-14.8 13.9,-15.2l106.2,-4.4c3.5,-0.2 6.7,-1.7 9,-4.3c2.3,-2.5 3.5,-5.9 3.3,-9.3l-2.8,-49c-0.4,-8 5.7,-14.9 13.7,-15.3c8,-0.4 14.9,5.6 15.3,13.6l2.8,49c0.7,11.3 -3.2,22.2 -10.8,30.6c-7.6,8.3 -18,13.2 -29.3,13.7l-106.2,4.5q-0.3,0 -0.6,0z" class="d"/>
  <path id="svg_65" fill="#371a45" d="m2040.2,1907.3l44.6,42.8l-59.3,-17.7c-7.9,-2.3 -12.4,-10.7 -10,-18.6c2.9,-10.5 17,-14.2 24.7,-6.5z" class="d"/>
  <path id="svg_66" fill="#371a45" d="m2480,1493.8c-18,19 -43.2,30.5 -69.4,31.3c17.9,-19.1 43.2,-30.4 69.4,-31.3z" class="d"/>
  <g id="svg_67" opacity="0.3">
   <path id="svg_68" fill="#000070" d="m1844.1,2558.9c-5.7,23.8 -12.4,48.9 -20,73.3c-0.2,-1.2 -0.3,-2.4 -0.4,-3.6c-2.1,-28 6.1,-51.7 20.4,-69.7z" class="g"/>
  </g>
  <g id="svg_69" opacity="0.2">
   <path id="svg_70" fill="#371a45" d="m1895.7,2264l-5.8,-0.2c0,0 -111.4,244.6 -153.8,377.8c0,0 -5.2,42 -142.5,30.6c-112.6,-9.2 -192,-21.8 -219.1,-54q-0.3,-0.5 -0.3,-0.5c0,0 38.6,-62.7 159.7,-23.5c121.1,39.3 142.9,-93.9 142.9,-93.9c0,0 125.9,-214.3 56.9,-292.4l162,56.1z" class="d"/>
  </g>
  <g id="svg_71" opacity="0.2">
   <path id="svg_72" fill="#371a45" d="m2535.2,1872.8c-8.5,34.4 -41.7,101.7 -171.9,63.6c0,0 72.7,176.8 -38.7,360.9c-83.6,138.1 -129.9,298.9 -147.9,370.6c-9.5,37.9 -33.9,70.8 -68.5,89c-26.1,13.8 -58.3,19.9 -91.2,-0.3c-76,-46.7 -76.7,-65.5 -76.7,-66.2c0,0 -41.5,2.4 -75.4,-10.5l-0.1,-0.1c0,0 169.6,21.1 180.4,-47.9c10.9,-69.2 0,-74.7 0,-74.7c0,0 149.6,-259.4 170.9,-317.8c21.3,-58.4 -9.4,-76.9 -9.4,-76.9l-203.5,60.5l232.5,-140.5l-6.4,-94.1c0,0 -97,10.8 -127.2,-47.4l-19.3,21.6l-53.6,-53.6l1.6,-74.3l52,-28.3c0,0 42.2,88.7 116.1,42.7l30.4,-17.6c0,0 300.4,79.7 287.7,-57.4c10,30.2 15.8,54.1 18.6,67.7c2.2,10.3 2.1,20.9 -0.4,31z" class="d"/>
  </g>
  <g id="svg_73" opacity="0.2">
   <path id="svg_74" fill="#371a45" d="m2291.3,1500.4l85.4,34.4c-98.1,176.8 -386.4,107.8 -386.4,107.8" class="d"/>
  </g>
  <path id="svg_75" fill="#fff" d="m1482.8,962.1c31.1,-85.8 83.8,-158.1 149.7,-212.9c13.3,-11.1 27,-21.3 41.2,-30.9q14.2,-9.6 29,-18.1c31,-18 63.9,-32.7 98.1,-43.8c34.2,-11.2 69.7,-18.7 105.9,-22.4q23.4,-2.4 47.2,-2.5q8.9,-0.2 17.8,0.1c50.5,1.4 101.7,10.5 151.8,27.9c260.3,90.6 395.6,372.8 302,630.5c-63.5,174.9 -216,293.5 -388.9,323.3q-14.2,2.4 -28.6,4.1c-26.2,3 -52.8,4 -79.6,2.8c-22.1,-1 -44.4,-3.5 -66.7,-7.5c-25.7,-4.6 -51.5,-11.3 -77,-20.1c-8.4,-3 -16.7,-6.1 -24.8,-9.5c-16.8,-6.8 -32.9,-14.4 -48.5,-22.8c-76.5,-41.2 -138.6,-100.4 -182.7,-170.3c-77.8,-123.4 -99.7,-279.7 -45.9,-427.9z" class="e"/>
  <path id="svg_76" fill="#371a45" d="m1950.8,1622.1q-11.3,0 -22.4,-0.5c-22.6,-1 -45.1,-3.5 -66.9,-7.5c-26,-4.6 -52,-11.4 -77.2,-20.2c-9.3,-3.3 -17.4,-6.4 -25,-9.5c-16.4,-6.6 -32.7,-14.4 -48.6,-22.9c-74.7,-40.2 -138.1,-99.2 -183.2,-170.8c-81.4,-129 -98.2,-285.4 -46,-429.1c30.1,-83.1 82.1,-156.9 150.1,-213.5c12.9,-10.8 26.8,-21.2 41.3,-31c9.3,-6.3 19.1,-12.4 29.1,-18.2c31.1,-18 64.2,-32.8 98.4,-43.9c34.5,-11.2 70.2,-18.8 106.1,-22.4c15.6,-1.6 31.6,-2.4 47.4,-2.5c6.3,-0.1 12.2,-0.1 17.8,0.1c51.6,1.4 102.9,10.8 152.3,28c126.8,44.1 228,134.5 285.1,254.5c56.6,119.1 62.9,253.3 17.7,377.8c-61.3,169 -210.8,293.3 -390,324.2c-9.4,1.6 -19,3 -28.6,4.1c-19.1,2.2 -38.3,3.3 -57.4,3.3zm-420.9,-232.9c44.8,71.1 107.8,129.9 182.2,169.9c15.7,8.4 32,16.1 48.3,22.7c7.5,3.1 15.6,6.2 24.8,9.4c25.1,8.8 50.9,15.5 76.8,20.1c21.7,4 44.1,6.5 66.5,7.5c26.2,1.1 52.9,0.2 79.4,-2.8c9.5,-1.1 19.1,-2.5 28.4,-4.1c178.3,-30.7 326.9,-154.3 387.9,-322.4c44.9,-123.8 38.6,-257.1 -17.7,-375.6c-56.7,-119.3 -157.4,-209.2 -283.4,-253.1c-49.2,-17 -100.1,-26.4 -151.5,-27.7c-5.6,-0.2 -11.4,-0.3 -17.7,-0.2c-15.7,0.1 -31.6,0.9 -47.1,2.5c-35.7,3.6 -71.2,11.1 -105.5,22.3c-34,11.1 -67,25.7 -97.9,43.7c-9.9,5.7 -19.7,11.8 -28.9,18.1c-14.4,9.7 -28.3,20.1 -41.1,30.8c-67.7,56.2 -119.3,129.7 -149.3,212.3c-51.9,142.8 -35.2,298.3 45.8,426.6z" class="d" fill-rule="evenodd"/>
  <g id="svg_77" opacity="0.2">
   <path id="svg_78" fill="#371a45" d="m2425.5,1290c-63.5,174.9 -216.1,293.5 -389,323.3q-14.1,2.5 -28.5,4.1c-26.2,3 -52.8,4 -79.6,2.8c-22.1,-1 -44.4,-3.5 -66.6,-7.5c-25.9,-4.6 -51.6,-11.3 -77.1,-20.1c-8.4,-3 -16.7,-6.1 -24.8,-9.4c-16.8,-6.9 -32.9,-14.5 -48.5,-22.9c-76.5,-41.2 -138.6,-100.4 -182.7,-170.3c-24.3,-38.5 -43.1,-80.1 -55.9,-123.7c43.7,65.8 103.5,121.5 176.5,160.7q23.4,12.7 48.5,22.9c8.1,3.3 16.4,6.4 24.9,9.4c25.5,8.9 51.2,15.6 77,20.2c22.2,4 44.5,6.4 66.6,7.4c26.8,1.2 53.4,0.3 79.6,-2.7q14.4,-1.7 28.6,-4.1c172.9,-29.9 325.4,-148.4 388.9,-323.4c37.1,-102 38.2,-207.9 9.9,-304.2c82.9,124.7 107.4,285.4 52.2,437.5z" class="d"/>
  </g>
  <path id="svg_79" fill="#371a45" d="m1950.8,1631.5q-11.5,0 -22.9,-0.5c-22.9,-1 -45.8,-3.6 -68.1,-7.6c-26.5,-4.7 -53,-11.7 -78.6,-20.6c-9.5,-3.3 -17.8,-6.5 -25.5,-9.6c-16.7,-6.8 -33.3,-14.7 -49.4,-23.3c-76.2,-41 -140.8,-101.2 -186.8,-174.1c-83,-131.6 -100.1,-291 -46.9,-437.4c30.7,-84.7 83.6,-159.9 153,-217.6c13.1,-10.9 27.2,-21.5 42,-31.5c9.5,-6.4 19.5,-12.6 29.7,-18.5c31.6,-18.4 65.3,-33.4 100.2,-44.7c35.1,-11.5 71.5,-19.2 108.1,-22.9c15.9,-1.6 32.1,-2.5 48.2,-2.6c6.5,-0.1 12.5,0 18.3,0.2c52.4,1.4 104.6,11 155,28.5c129.2,44.9 232.3,137 290.5,259.4c57.7,121.4 64.2,258.1 18.1,385c-62.5,172.2 -214.7,298.8 -397.3,330.3c-9.6,1.7 -19.3,3.1 -29.1,4.2c-19.5,2.2 -39.1,3.3 -58.5,3.3zm-412.9,-247.3c44,69.7 105.7,127.3 178.6,166.5c15.5,8.3 31.4,15.9 47.5,22.4c7.3,3 15.3,6 24.4,9.2c24.5,8.6 49.8,15.2 75.3,19.7c21.3,3.9 43.2,6.3 65.2,7.3c25.8,1.2 52,0.3 77.9,-2.7c9.4,-1 18.8,-2.4 27.9,-4c174.9,-30.2 320.7,-151.4 380.6,-316.3c44.1,-121.4 37.9,-252.2 -17.3,-368.3c-55.7,-117.1 -154.4,-205.2 -278,-248.2c-48.3,-16.8 -98.3,-26 -148.6,-27.3c-5.6,-0.2 -11.2,-0.3 -17.3,-0.2c-15.6,0.1 -31.1,1 -46.4,2.5c-35,3.6 -69.8,10.9 -103.5,21.9c-33.4,10.8 -65.7,25.2 -96,42.8c-9.8,5.7 -19.4,11.7 -28.4,17.8c-14.2,9.5 -27.7,19.7 -40.3,30.2c-66.4,55.2 -117.1,127.3 -146.5,208.3c-50.9,140.1 -34.5,292.6 44.9,418.4z" class="d" fill-rule="evenodd"/>
  <path id="svg_80" fill="#371a45" d="m1950.8,1634.7q-11.6,0 -23,-0.5c-23.1,-1.1 -46.2,-3.7 -68.5,-7.7c-26.7,-4.8 -53.3,-11.7 -79.2,-20.7c-9.5,-3.4 -17.8,-6.5 -25.6,-9.7c-16.7,-6.9 -33.5,-14.8 -49.7,-23.5c-76.7,-41.2 -141.7,-101.8 -188,-175.2c-83.5,-132.3 -100.7,-292.7 -47.2,-440.1c30.9,-85.2 84.2,-160.9 154,-218.9c13.2,-11 27.4,-21.7 42.3,-31.7c9.5,-6.5 19.6,-12.7 29.8,-18.7c31.9,-18.4 65.8,-33.6 100.8,-44.9c35.3,-11.5 71.9,-19.3 108.7,-23c16,-1.6 32.4,-2.5 48.6,-2.6c6.5,-0.1 12.5,-0.1 18.4,0.2c52.8,1.4 105.3,11 155.9,28.6c130,45.2 233.8,137.9 292.4,261c58,122.2 64.5,259.8 18.1,387.5c-62.8,173.2 -216,300.6 -399.7,332.3c-9.6,1.7 -19.4,3.1 -29.2,4.2c-19.6,2.3 -39.4,3.4 -58.9,3.4zm-410.3,-252.2c43.7,69.3 105.1,126.5 177.5,165.5c15.4,8.2 31.2,15.7 47.1,22.2c7.4,3 15.3,6 24.3,9.2c24.4,8.4 49.6,15 74.8,19.5c21.2,3.9 43,6.3 64.9,7.3c25.5,1.2 51.6,0.2 77.4,-2.7c9.2,-1.1 18.6,-2.4 27.7,-4c173.8,-30 318.7,-150.4 378.1,-314.3c43.8,-120.6 37.7,-250.5 -17.1,-365.8c-55.3,-116.3 -153.4,-203.9 -276.3,-246.7c-47.9,-16.6 -97.6,-25.7 -147.6,-27.1c-5.5,-0.2 -11.1,-0.2 -17.2,-0.1c-15.4,0.1 -30.9,0.9 -46,2.4c-34.9,3.6 -69.5,10.9 -102.9,21.8c-33.2,10.8 -65.3,25.1 -95.5,42.6c-9.7,5.6 -19.2,11.5 -28.2,17.6c-14,9.5 -27.5,19.6 -40,30c-66,54.9 -116.3,126.5 -145.5,207c-50.6,139.1 -34.3,290.6 44.5,415.6z" class="d" fill-rule="evenodd"/>
  <path id="svg_81" fill="#371a45" d="m1572.3,1448.8c0,0 -49.7,-68.8 -87.2,-146c-37.5,-77.3 -31.3,-197.4 -31.3,-197.4c54.9,-263.2 214.9,-347.5 383.5,-359.2c231.7,-16.1 467.7,166.3 467.6,404.5c-0.3,350 -390.2,519.9 -695.1,336.9l-37.5,-38.8z" class="d"/>
  <path id="svg_82" fill="#220f2d" d="m2304.9,1150.7c-0.3,350 -390.2,519.9 -695.2,337l-7.5,-7.9c325.7,35.8 635.5,-175.5 642.4,-529.5c37.9,58.7 60.3,126.9 60.3,200.4z" class="h"/>
  <path id="svg_83" fill="#371a45" d="m1872.9,1626.8q-5.7,0 -11.4,-0.1l-2.2,-0.2c-26.7,-4.8 -53.3,-11.7 -79.2,-20.7c-9.5,-3.4 -17.8,-6.5 -25.6,-9.7c-16.7,-6.9 -33.5,-14.8 -49.7,-23.5c-76.7,-41.2 -141.7,-101.8 -188,-175.2c-83.5,-132.3 -100.7,-292.7 -47.2,-440.1c30.9,-85.2 84.2,-160.9 154,-218.9l1.1,-0.9l1.3,-0.7c58.5,-31.1 127.5,-49.6 205.1,-55c139.7,-9.7 286.3,43.6 392.4,142.7c95.6,89.3 148.2,205 148.1,325.9c-0.1,131.5 -47.4,247.2 -136.7,334.7c-92.4,90.4 -223.8,141.7 -362,141.7zm-9.8,-28.1c134.6,2.5 262.8,-46.2 352.2,-133.6c83.8,-82.1 128.2,-190.9 128.3,-314.8c0.1,-113 -49.4,-221.4 -139.2,-305.3c-100.6,-93.9 -239.4,-144.4 -371.4,-135.3c-73,5.1 -137.8,22.3 -192.6,51.2c-65.5,54.7 -115.4,125.9 -144.4,206c-50.6,139.1 -34.3,290.6 44.5,415.6c43.7,69.3 105.1,126.5 177.5,165.5c15.4,8.2 31.2,15.7 47.1,22.2c7.4,3 15.3,6 24.3,9.2c24,8.3 48.8,14.8 73.7,19.3z" class="d" fill-rule="evenodd"/>
  <path id="svg_84" fill="#371a45" d="m1874.5,1567.2c-91.1,0 -183.9,-25.2 -267.3,-75.3l-1,-0.8l-38,-39.3c-0.5,-0.7 -50.4,-70.1 -87.6,-146.9c-37.6,-77.5 -32.1,-194.8 -31.8,-199.8l0.1,-0.7c47.2,-226.4 177.8,-348.6 388.1,-363.2c122.2,-8.4 250.6,38.3 343.5,125c83.5,78 129.4,179 129.4,284.5c-0.1,153.1 -75.2,283.3 -205.9,357.2c-70,39.6 -149.1,59.3 -229.5,59.3zm-261.6,-83.5c154,92.1 340.2,98.1 486.2,15.5c127.5,-72.1 200.7,-199.2 200.8,-348.6c0,-102.6 -44.8,-201 -126.2,-277.1c-91,-84.9 -216.6,-130.6 -336,-122.3c-205.2,14.3 -332.6,133.6 -379,354.8c-0.3,7.5 -4.6,121.5 30.9,194.6c35.7,73.5 83,140.1 86.5,145l36.8,38.1z" class="d" fill-rule="evenodd"/>
  <path id="svg_85" fill="#fff" d="m2525.3,1114.5c11.8,96.8 -36.2,185.2 -107.2,197.5c-71.1,12.3 -138.3,-56.2 -150.1,-153c-0.1,-0.6 -0.1,-1.2 -0.2,-1.8c-11,-96.1 36.9,-183.4 107.5,-195.6c54.8,-9.5 107.4,29.2 133.9,91.9c7.9,18.5 13.4,39 16.1,61z" class="e"/>
  <g id="svg_86" opacity="0.2">
   <path id="svg_87" fill="#371a45" d="m2525.3,1114.5c11.8,96.8 -36.2,185.2 -107.2,197.5c-71.1,12.3 -138.3,-56.2 -150.1,-153c-0.1,-0.6 -0.1,-1.2 -0.2,-1.8c9,8.5 22.4,16.2 38.5,10.1c28.1,-10.8 72.3,-82 72.3,-82c0,0 56.6,-14.1 130.6,-31.8c7.9,18.5 13.4,39 16.1,61z" class="d"/>
  </g>
  <path id="svg_88" fill="#371a45" d="m2401.3,1327.4c-25.1,0 -49.7,-8.5 -72.2,-25.2c-40.3,-30 -67.7,-81.6 -75,-141.5c-12.7,-103.9 40.6,-199.4 118.8,-212.9c31.6,-5.5 63.2,2.7 91.3,23.6c40.4,29.9 67.7,81.5 75,141.4c12.7,103.9 -40.6,199.5 -118.8,213q-9.5,1.6 -19.1,1.6zm-9.5,-353.3q-7.1,0 -14.2,1.3c-63.7,11 -106.6,92.6 -95.7,181.9c6.3,51.6 30.2,97.4 63.9,122.4c21.8,16.2 46,22.6 69.9,18.5c63.7,-11 106.6,-92.7 95.7,-182c-6.3,-51.6 -30.2,-97.3 -63.9,-122.3c-17.5,-13.1 -36.5,-19.8 -55.7,-19.8z" class="d" fill-rule="evenodd"/>
  <path id="svg_89" fill="#fff" d="m2537.2,1124.9c9.4,78.9 -26.5,150.8 -80.1,160.5c-53.6,9.7 -104.6,-46.5 -113.9,-125.4c-9.3,-78.9 26.5,-150.8 80.1,-160.5c53.6,-9.6 104.6,46.5 113.9,125.4z" class="e"/>
  <g id="svg_90" opacity="0.2">
   <path id="svg_91" fill="#371a45" d="m2343.2,1160c-2,-16.4 -1.9,-32.5 -0.2,-47.9c17,63 62.1,104.4 109.2,96c41.7,-7.5 72.8,-51.9 80.6,-108.1c1.9,8 3.4,16.3 4.4,24.9c9.3,78.9 -26.5,150.8 -80.1,160.5c-53.6,9.7 -104.6,-46.4 -113.9,-125.4z" class="d"/>
  </g>
  <path id="svg_92" fill="#371a45" d="m2444.9,1300.5c-18.6,0 -37,-6.4 -53.9,-18.9c-32.6,-24.2 -55.7,-69 -61.7,-119.9c-10.4,-87.5 29.9,-164.8 91.5,-175.9c23.6,-4.3 47.3,1.8 68.6,17.5c32.6,24.2 55.7,69 61.7,120c10.4,87.4 -29.9,164.7 -91.5,175.8q-7.4,1.4 -14.7,1.4zm-9.6,-288q-4.7,0 -9.5,0.8c-45.6,8.3 -77,74.7 -68.7,145.1c5.1,43.4 24,81 50.6,100.7c14.9,11 31.1,15.3 46.9,12.5c45.6,-8.3 77,-74.7 68.7,-145.1c-5.1,-43.4 -24,-81 -50.6,-100.7c-11.9,-8.8 -24.7,-13.3 -37.4,-13.3z" class="d" fill-rule="evenodd"/>
  <g id="svg_93" opacity="0.5">
   <path id="svg_94" fill="#fff" d="m1964.6,845.7c0,0 -207.9,-6.7 -317.6,122.9q-0.2,0.2 -0.4,0.4c-23.1,27.3 -43.3,95.2 -49.3,130.2c-8,46.2 -6.6,69.2 -4.3,98.2c7.2,88.1 27.2,127.9 27.2,127.9c-54.5,-42.2 -87.4,-92.5 -94.1,-165.9q-1,-10.8 -1.2,-22.4q-0.1,-2.6 0,-5.3q-0.1,0 0,-0.1c0.8,-15.6 2.6,-26.1 6.6,-49c12.1,-69.2 43.9,-160.9 126.6,-209.2c154.7,-90.5 313.1,-37.5 306.5,-27.7z" class="e"/>
  </g>
  <g id="svg_95" opacity="0.5">
   <path id="svg_96" fill="#fff" d="m2097.9,1027.9c34.8,-12.5 74.8,9.9 89.2,49.8c14.4,40 -2.1,82.5 -37,95c-34.8,12.5 -74.8,-9.9 -89.2,-49.8c-14.4,-40 2.2,-82.5 37,-95z" class="e"/>
  </g>
  <g id="svg_97" opacity="0.5">
   <path id="svg_98" fill="#fff" d="m2158.1,1213c13.9,-6.4 31.2,1.4 38.5,17.4c7.4,15.9 2.1,34 -11.8,40.3c-14,6.3 -31.2,-1.5 -38.5,-17.4c-7.4,-16 -2.1,-34 11.8,-40.3z" class="e"/>
  </g>
  <path id="svg_99" fill="#ffd243" d="m2955.5,1410.2l32.4,55.6l64.2,4.9c18.3,1.3 27,23.1 14.8,36.8l-42.9,48l15.2,62.6c4.4,17.8 -13.6,32.9 -30.4,25.5l-58.9,-26l-54.8,33.8c-15.6,9.6 -35.5,-2.8 -33.7,-21.1l6.5,-64l-49.1,-41.7c-14,-11.9 -8.3,-34.6 9.7,-38.5l62.9,-13.6l24.5,-59.6c6.9,-17 30.3,-18.6 39.6,-2.7z" class="b"/>
  <g id="svg_100" opacity="0.2">
   <path id="svg_101" fill="#371a45" d="m3066.9,1507.5l-42.9,48l15.2,62.6c4.4,17.8 -13.6,32.8 -30.4,25.5l-58.9,-26l-54.8,33.8c-14.4,8.9 -32.6,-1.1 -33.7,-17.1c3.2,-0.3 6.5,-1.3 9.6,-3.2l54.8,-33.8l58.9,26c16.8,7.3 34.8,-7.7 30.5,-25.6l-15.3,-62.5l42.9,-48c4.5,-5 6.1,-11.1 5.6,-16.8l3.7,0.2c18.3,1.4 27.1,23.2 14.8,36.9z" class="d"/>
  </g>
  <g id="svg_102" opacity="0.6">
   <path id="svg_103" fill="#fff" d="m2959.7,1417.5c-7.3,1 -14.1,5.5 -17.3,13.4l-24.5,59.6l-62.9,13.7c-17.9,3.8 -23.6,26.6 -9.7,38.5l49.2,41.6l-6.5,64.1c-0.3,2 -0.2,3.9 0.1,5.8c-13.9,3.2 -28.2,-8.2 -26.7,-23.9l6.5,-64l-49.1,-41.7c-14,-11.9 -8.3,-34.6 9.6,-38.5l63,-13.7l24.4,-59.5c7,-17 30.4,-18.6 39.6,-2.7l4.3,7.3z" class="e"/>
  </g>
  <path id="svg_104" fill="#371a45" d="m2883.4,1668.3c-6.5,0 -13.1,-1.8 -18.9,-5.5c-11.6,-7.2 -17.9,-20.2 -16.6,-33.8l5.8,-57l-43.7,-37.1c-10.4,-8.8 -14.8,-22.6 -11.5,-35.8c3.3,-13.3 13.7,-23.3 27.1,-26.2l56,-12.2l21.7,-53c5.2,-12.6 16.9,-21.1 30.6,-22c13.6,-0.9 26.4,5.8 33.3,17.6l28.8,49.5l57.1,4.3c13.6,1.1 25.3,9.6 30.4,22.3c5.1,12.7 2.6,26.9 -6.5,37.1l-38.1,42.7l13.5,55.7c3.2,13.3 -1.3,27 -11.8,35.8c-10.4,8.7 -24.7,10.8 -37.3,5.3l-52.4,-23.1l-48.7,30c-5.8,3.6 -12.3,5.4 -18.8,5.4zm52.9,-255.6q-0.3,0 -0.6,0c-1.6,0.1 -5.5,0.9 -7.3,5.3l-24.5,59.6c-1.7,4.1 -5.3,7.2 -9.6,8.1l-63,13.6c-4.7,1.1 -6.1,4.8 -6.5,6.3c-0.4,1.6 -0.9,5.6 2.8,8.7l49.1,41.6c3.4,2.9 5.1,7.3 4.7,11.7l-6.5,64.1c-0.5,4.8 2.6,7.3 4,8.2c1.4,0.8 5,2.5 9.1,0l54.8,-33.8c3.8,-2.4 8.5,-2.7 12.5,-0.9l59,26c4.4,1.9 7.7,-0.3 8.9,-1.3c1.3,-1 4,-3.9 2.9,-8.6l-15.3,-62.6c-1,-4.3 0.1,-8.9 3.1,-12.2l42.9,-48.1c3.2,-3.5 2.2,-7.4 1.6,-8.9c-0.6,-1.5 -2.5,-5 -7.3,-5.3l-64.3,-4.9c-4.4,-0.3 -8.4,-2.8 -10.6,-6.7l-32.5,-55.6c-2.1,-3.7 -5.5,-4.3 -7.4,-4.3z" class="d" fill-rule="evenodd"/>
  <path id="svg_105" fill="#ffd243" d="m998.2,1613.8l32.4,55.7l64.2,4.8c18.3,1.4 27.1,23.2 14.9,36.8l-42.9,48.1l15.2,62.5c4.3,17.9 -13.6,32.9 -30.4,25.5l-59,-26l-54.8,33.9c-15.6,9.6 -35.5,-2.8 -33.6,-21.1l6.5,-64.1l-49.1,-41.6c-14,-11.9 -8.3,-34.7 9.6,-38.5l62.9,-13.7l24.5,-59.6c7,-16.9 30.4,-18.5 39.6,-2.7z" class="b"/>
  <g id="svg_106" opacity="0.2">
   <path id="svg_107" fill="#371a45" d="m1109.7,1711.2l-42.9,48l15.2,62.5c4.3,17.9 -13.7,32.9 -30.4,25.5l-59,-25.9l-54.8,33.8c-14.4,8.9 -32.5,-1.1 -33.7,-17.1c3.3,-0.3 6.5,-1.4 9.6,-3.3l54.8,-33.8l59,26c16.8,7.4 34.7,-7.7 30.4,-25.5l-15.2,-62.6l42.9,-48c4.4,-4.9 6.1,-11 5.5,-16.8l3.8,0.3c18.2,1.4 27,23.2 14.8,36.9z" class="d"/>
  </g>
  <g id="svg_108" opacity="0.6">
   <path id="svg_109" fill="#fff" d="m1002.4,1621.1c-7.2,1.1 -14,5.6 -17.3,13.5l-24.4,59.6l-63,13.6c-17.9,3.9 -23.6,26.7 -9.6,38.5l49.1,41.7l-6.5,64.1c-0.2,2 -0.1,3.9 0.2,5.8c-13.9,3.1 -28.3,-8.3 -26.7,-23.9l6.5,-64.1l-49.1,-41.6c-14,-11.9 -8.3,-34.7 9.6,-38.6l63,-13.6l24.4,-59.6c7,-16.9 30.4,-18.5 39.6,-2.7l4.2,7.3z" class="e"/>
  </g>
  <path id="svg_110" fill="#371a45" d="m926.2,1872c-6.6,0 -13.1,-1.9 -18.9,-5.5c-11.6,-7.3 -18,-20.2 -16.6,-33.9l5.8,-56.9l-43.7,-37.1c-10.4,-8.9 -14.8,-22.6 -11.5,-35.9c3.3,-13.2 13.7,-23.3 27,-26.2l56,-12.1l21.8,-53c5.2,-12.7 16.9,-21.1 30.5,-22c13.7,-1 26.4,5.8 33.3,17.6l28.8,49.5l57.2,4.3c13.6,1 25.3,9.6 30.4,22.3c5.1,12.6 2.6,26.9 -6.5,37.1l-38.2,42.7l13.6,55.6c3.2,13.3 -1.3,27 -11.8,35.8c-10.5,8.8 -24.8,10.8 -37.3,5.3l-52.4,-23.1l-48.8,30.1c-5.7,3.6 -12.2,5.4 -18.7,5.4zm52.9,-255.6q-0.3,0 -0.6,0c-1.6,0.1 -5.5,0.8 -7.4,5.3l-24.4,59.6c-1.7,4.1 -5.3,7.1 -9.7,8.1l-62.9,13.6c-4.7,1 -6.1,4.7 -6.5,6.3c-0.4,1.6 -0.9,5.5 2.7,8.6l49.1,41.7c3.4,2.9 5.2,7.3 4.8,11.7l-6.5,64.1c-0.5,4.8 2.6,7.3 3.9,8.1c1.4,0.9 5,2.6 9.1,0l54.8,-33.8c3.8,-2.3 8.5,-2.7 12.6,-0.8l58.9,25.9c4.4,2 7.8,-0.2 9,-1.3c1.2,-1 4,-3.9 2.8,-8.6l-15.2,-62.5c-1.1,-4.4 0.1,-8.9 3.1,-12.3l42.9,-48c3.2,-3.6 2.1,-7.4 1.5,-8.9c-0.6,-1.5 -2.5,-5 -7.3,-5.4l-64.2,-4.8c-4.5,-0.4 -8.4,-2.9 -10.7,-6.7l-32.4,-55.7c-2.2,-3.7 -5.6,-4.2 -7.4,-4.2z" class="d" fill-rule="evenodd"/>
  <path id="svg_111" fill="#ffd243" d="m1240.8,526l32.4,55.6l64.2,4.9c18.3,1.4 27.1,23.1 14.8,36.8l-42.9,48l15.3,62.6c4.3,17.8 -13.7,32.9 -30.5,25.5l-58.9,-26l-54.8,33.8c-15.6,9.7 -35.5,-2.8 -33.6,-21l6.4,-64.1l-49.1,-41.7c-13.9,-11.8 -8.3,-34.6 9.7,-38.5l62.9,-13.6l24.5,-59.6c6.9,-16.9 30.3,-18.6 39.6,-2.7z" class="b"/>
  <g id="svg_112" opacity="0.2">
   <path id="svg_113" fill="#371a45" d="m1352.2,623.3l-42.9,48l15.3,62.6c4.3,17.8 -13.7,32.9 -30.4,25.5l-59,-26l-54.8,33.8c-14.4,9 -32.5,-1.1 -33.7,-17c3.2,-0.4 6.5,-1.4 9.6,-3.3l54.8,-33.8l58.9,26c16.8,7.4 34.8,-7.7 30.5,-25.5l-15.2,-62.6l42.9,-48c4.4,-5 6.1,-11 5.5,-16.8l3.7,0.3c18.3,1.4 27.1,23.1 14.8,36.8z" class="d"/>
  </g>
  <g id="svg_114" opacity="0.6">
   <path id="svg_115" fill="#fff" d="m1245,533.3c-7.3,1.1 -14,5.6 -17.3,13.5l-24.5,59.5l-62.9,13.7c-17.9,3.9 -23.6,26.6 -9.6,38.5l49.1,41.7l-6.5,64c-0.2,2 -0.1,4 0.2,5.8c-13.9,3.2 -28.3,-8.2 -26.8,-23.8l6.5,-64.1l-49.1,-41.7c-14,-11.8 -8.3,-34.6 9.7,-38.5l62.9,-13.6l24.5,-59.6c7,-16.9 30.4,-18.6 39.6,-2.7l4.2,7.3z" class="e"/>
  </g>
  <path id="svg_116" fill="#371a45" d="m1168.8,784.1c-6.6,0 -13.1,-1.8 -19,-5.4c-11.6,-7.3 -17.9,-20.3 -16.5,-33.9l5.7,-57l-43.6,-37c-10.5,-8.9 -14.9,-22.6 -11.6,-35.9c3.4,-13.3 13.7,-23.3 27.1,-26.2l56,-12.1l21.7,-53c5.2,-12.7 16.9,-21.1 30.6,-22.1c13.7,-0.9 26.4,5.8 33.3,17.7l28.8,49.5l57.1,4.3c13.7,1 25.3,9.5 30.4,22.2c5.2,12.7 2.7,26.9 -6.4,37.1l-38.2,42.7l13.5,55.7c3.3,13.3 -1.2,27 -11.7,35.8c-10.5,8.8 -24.8,10.8 -37.3,5.3l-52.4,-23.1l-48.8,30.1c-5.8,3.6 -12.2,5.3 -18.7,5.3zm52.9,-255.6q-0.4,0 -0.6,0.1c-1.6,0.1 -5.6,0.8 -7.4,5.3l-24.4,59.5c-1.7,4.2 -5.4,7.2 -9.7,8.1l-63,13.7c-4.7,1 -6.1,4.7 -6.5,6.3c-0.4,1.5 -0.9,5.5 2.8,8.6l49.1,41.7c3.4,2.9 5.2,7.2 4.7,11.7l-6.5,64c-0.4,4.8 2.7,7.3 4,8.2c1.4,0.8 5,2.6 9.1,0l54.8,-33.8c3.8,-2.4 8.5,-2.7 12.6,-0.9l58.9,26c4.4,1.9 7.8,-0.2 9,-1.3c1.2,-1 3.9,-3.9 2.8,-8.6l-15.2,-62.6c-1.1,-4.3 0.1,-8.9 3,-12.2l42.9,-48c3.3,-3.6 2.2,-7.5 1.6,-8.9c-0.6,-1.5 -2.5,-5 -7.3,-5.4l-64.2,-4.8c-4.5,-0.4 -8.5,-2.9 -10.7,-6.7l-32.4,-55.7c-2.2,-3.7 -5.6,-4.3 -7.4,-4.3z" class="d" fill-rule="evenodd"/>
 </g>
</svg>